# Blender 5.2.2 LTS
# www.blender.org
o ball
v 0.000000 0.160000 0.000000
v 0.000000 0.094046 -0.129443
v 0.000000 0.049443 -0.152169
v 0.000000 0.000000 -0.160000
v 0.000000 -0.094046 -0.129443
v 0.000000 -0.152169 -0.049443
v 0.000000 -0.160000 0.000000
v 0.018921 0.152169 -0.045679
v 0.035990 0.129443 -0.086887
v 0.049536 0.094046 -0.119589
v 0.058233 0.049443 -0.140586
v 0.061229 0.000000 -0.147821
v 0.058233 -0.049443 -0.140586
v 0.049536 -0.094046 -0.119589
v 0.035990 -0.129443 -0.086887
v 0.018921 -0.152169 -0.045679
v 0.034961 0.152169 -0.034961
v 0.066500 0.129443 -0.066500
v 0.091530 0.094046 -0.091530
v 0.107600 0.049443 -0.107600
v 0.113137 0.000000 -0.113137
v 0.107600 -0.049443 -0.107600
v 0.091530 -0.094046 -0.091530
v 0.066500 -0.129443 -0.066500
v 0.034961 -0.152169 -0.034961
v 0.045679 0.152169 -0.018921
v 0.086887 0.129443 -0.035990
v 0.119589 0.094046 -0.049536
v 0.140586 0.049443 -0.058233
v 0.147821 0.000000 -0.061229
v 0.140586 -0.049443 -0.058233
v 0.119589 -0.094046 -0.049536
v 0.086887 -0.129443 -0.035990
v 0.045679 -0.152169 -0.018921
v 0.049443 0.152169 0.000000
v 0.094046 0.129443 0.000000
v 0.129443 0.094046 0.000000
v 0.152169 0.049443 0.000000
v 0.160000 0.000000 0.000000
v 0.152169 -0.049443 0.000000
v 0.129443 -0.094046 0.000000
v 0.094046 -0.129443 0.000000
v 0.049443 -0.152169 0.000000
v 0.045679 0.152169 0.018921
v 0.086887 0.129443 0.035990
v 0.119589 0.094046 0.049536
v 0.140586 0.049443 0.058233
v 0.147821 0.000000 0.061229
v 0.140586 -0.049443 0.058233
v 0.119589 -0.094046 0.049536
v 0.086887 -0.129443 0.035990
v 0.045679 -0.152169 0.018921
v 0.034961 0.152169 0.034961
v 0.066500 0.129443 0.066500
v 0.091530 0.094046 0.091530
v 0.107600 0.049443 0.107600
v 0.113137 0.000000 0.113137
v 0.107600 -0.049443 0.107600
v 0.091530 -0.094046 0.091530
v 0.066500 -0.129443 0.066500
v 0.034961 -0.152169 0.034961
v 0.018921 0.152169 0.045679
v 0.035990 0.129443 0.086887
v 0.049536 0.094046 0.119589
v 0.058233 0.049443 0.140586
v 0.061229 0.000000 0.147821
v 0.058233 -0.049443 0.140586
v 0.049536 -0.094046 0.119589
v 0.035990 -0.129443 0.086887
v 0.018921 -0.152169 0.045679
v -0.000000 0.152169 0.049443
v -0.000000 0.129443 0.094046
v -0.000000 0.094046 0.129443
v -0.000000 0.049443 0.152169
v -0.000000 0.000000 0.160000
v -0.000000 -0.049443 0.152169
v -0.000000 -0.094046 0.129443
v -0.000000 -0.129443 0.094046
v -0.000000 -0.152169 0.049443
v -0.018921 0.152169 0.045679
v -0.035990 0.129443 0.086887
v -0.049536 0.094046 0.119589
v -0.058233 0.049443 0.140586
v -0.061229 0.000000 0.147821
v -0.058233 -0.049443 0.140586
v -0.049536 -0.094046 0.119589
v -0.035990 -0.129443 0.086887
v -0.018921 -0.152169 0.045679
v -0.034961 0.152169 0.034961
v -0.066500 0.129443 0.066500
v -0.091530 0.094046 0.091530
v -0.107600 0.049443 0.107600
v -0.113137 0.000000 0.113137
v -0.107600 -0.049443 0.107600
v -0.091530 -0.094046 0.091530
v -0.066500 -0.129443 0.066500
v -0.034961 -0.152169 0.034961
v -0.045679 0.152169 0.018921
v -0.086887 0.129443 0.035990
v -0.119589 0.094046 0.049536
v -0.140586 0.049443 0.058233
v -0.147821 0.000000 0.061229
v -0.140586 -0.049443 0.058233
v -0.119589 -0.094046 0.049536
v -0.086887 -0.129443 0.035990
v -0.045679 -0.152169 0.018921
v -0.049443 0.152169 -0.000000
v -0.094046 0.129443 -0.000000
v -0.129443 0.094046 -0.000000
v -0.152169 0.049443 -0.000000
v -0.160000 0.000000 -0.000000
v -0.152169 -0.049443 -0.000000
v -0.129443 -0.094046 -0.000000
v -0.094046 -0.129443 -0.000000
v -0.049443 -0.152169 -0.000000
v -0.045679 0.152169 -0.018921
v -0.086887 0.129443 -0.035990
v -0.119589 0.094046 -0.049536
v -0.140586 0.049443 -0.058233
v -0.147821 0.000000 -0.061229
v -0.140586 -0.049443 -0.058233
v -0.119589 -0.094046 -0.049536
v -0.086887 -0.129443 -0.035990
v -0.045679 -0.152169 -0.018921
v -0.034961 0.152169 -0.034961
v -0.066500 0.129443 -0.066500
v -0.091530 0.094046 -0.091530
v -0.107600 0.049443 -0.107600
v -0.113137 0.000000 -0.113137
v -0.107600 -0.049443 -0.107600
v -0.091530 -0.094046 -0.091530
v -0.066500 -0.129443 -0.066500
v -0.034961 -0.152169 -0.034961
v -0.018921 0.152169 -0.045679
v -0.035990 0.129443 -0.086887
v -0.049535 0.094046 -0.119589
v -0.058233 0.049443 -0.140586
v -0.061229 0.000000 -0.147821
v -0.058233 -0.049443 -0.140586
v -0.049535 -0.094046 -0.119589
v -0.035990 -0.129443 -0.086887
v -0.018921 -0.152169 -0.045679
v 0.000000 0.152169 -0.049443
v 0.000000 0.129443 -0.094046
v 0.000000 -0.049443 -0.152169
v 0.000000 -0.129443 -0.094046
vn -0.0000 1.0000 -0.0000
vn -0.0000 0.5787 -0.8155
vn -0.0000 0.3035 -0.9528
vn -0.0000 -0.0000 -1.0000
vn -0.0000 -0.5787 -0.8155
vn -0.0000 -0.9452 -0.3265
vn -0.0000 -1.0000 -0.0000
vn 0.1249 0.9452 -0.3016
vn 0.2297 0.7998 -0.5546
vn 0.3121 0.5787 -0.7535
vn 0.3646 0.3035 -0.8803
vn 0.3827 -0.0000 -0.9239
vn 0.3646 -0.3035 -0.8803
vn 0.3121 -0.5787 -0.7535
vn 0.2297 -0.7998 -0.5546
vn 0.1249 -0.9452 -0.3016
vn 0.2309 0.9452 -0.2309
vn 0.4245 0.7998 -0.4245
vn 0.5767 0.5787 -0.5767
vn 0.6738 0.3035 -0.6738
vn 0.7071 -0.0000 -0.7071
vn 0.6738 -0.3035 -0.6738
vn 0.5767 -0.5787 -0.5767
vn 0.4245 -0.7998 -0.4245
vn 0.2309 -0.9452 -0.2309
vn 0.3016 0.9452 -0.1249
vn 0.5546 0.7998 -0.2297
vn 0.7535 0.5787 -0.3121
vn 0.8803 0.3035 -0.3646
vn 0.9239 -0.0000 -0.3827
vn 0.8803 -0.3035 -0.3646
vn 0.7535 -0.5787 -0.3121
vn 0.5546 -0.7998 -0.2297
vn 0.3016 -0.9452 -0.1249
vn 0.3265 0.9452 -0.0000
vn 0.6003 0.7998 -0.0000
vn 0.8155 0.5787 -0.0000
vn 0.9528 0.3035 -0.0000
vn 1.0000 -0.0000 -0.0000
vn 0.9528 -0.3035 -0.0000
vn 0.8155 -0.5787 -0.0000
vn 0.6003 -0.7998 -0.0000
vn 0.3265 -0.9452 -0.0000
vn 0.3016 0.9452 0.1249
vn 0.5546 0.7998 0.2297
vn 0.7535 0.5787 0.3121
vn 0.8803 0.3035 0.3646
vn 0.9239 -0.0000 0.3827
vn 0.8803 -0.3035 0.3646
vn 0.7535 -0.5787 0.3121
vn 0.5546 -0.7998 0.2297
vn 0.3016 -0.9452 0.1249
vn 0.2309 0.9452 0.2309
vn 0.4245 0.7998 0.4245
vn 0.5767 0.5787 0.5767
vn 0.6738 0.3035 0.6738
vn 0.7071 -0.0000 0.7071
vn 0.6738 -0.3035 0.6738
vn 0.5767 -0.5787 0.5767
vn 0.4245 -0.7998 0.4245
vn 0.2309 -0.9452 0.2309
vn 0.1249 0.9452 0.3016
vn 0.2297 0.7998 0.5546
vn 0.3121 0.5787 0.7535
vn 0.3646 0.3035 0.8803
vn 0.3827 -0.0000 0.9239
vn 0.3646 -0.3035 0.8803
vn 0.3121 -0.5787 0.7535
vn 0.2297 -0.7998 0.5546
vn 0.1249 -0.9452 0.3016
vn -0.0000 0.9452 0.3265
vn -0.0000 0.7998 0.6003
vn -0.0000 0.5787 0.8155
vn -0.0000 0.3035 0.9528
vn -0.0000 -0.0000 1.0000
vn -0.0000 -0.3035 0.9528
vn -0.0000 -0.5787 0.8155
vn -0.0000 -0.7998 0.6003
vn -0.0000 -0.9452 0.3265
vn -0.1249 0.9452 0.3016
vn -0.2297 0.7998 0.5546
vn -0.3121 0.5787 0.7535
vn -0.3646 0.3035 0.8803
vn -0.3827 -0.0000 0.9239
vn -0.3646 -0.3035 0.8803
vn -0.3121 -0.5787 0.7535
vn -0.2297 -0.7998 0.5546
vn -0.1249 -0.9452 0.3016
vn -0.2309 0.9452 0.2309
vn -0.4245 0.7998 0.4245
vn -0.5767 0.5787 0.5767
vn -0.6738 0.3035 0.6738
vn -0.7071 -0.0000 0.7071
vn -0.6738 -0.3035 0.6738
vn -0.5767 -0.5787 0.5767
vn -0.4245 -0.7998 0.4245
vn -0.2309 -0.9452 0.2309
vn -0.3016 0.9452 0.1249
vn -0.5546 0.7998 0.2297
vn -0.7535 0.5787 0.3121
vn -0.8803 0.3035 0.3646
vn -0.9239 -0.0000 0.3827
vn -0.8803 -0.3035 0.3646
vn -0.7535 -0.5787 0.3121
vn -0.5546 -0.7998 0.2297
vn -0.3016 -0.9452 0.1249
vn -0.3265 0.9452 -0.0000
vn -0.6003 0.7998 -0.0000
vn -0.8155 0.5787 -0.0000
vn -0.9528 0.3035 -0.0000
vn -1.0000 -0.0000 -0.0000
vn -0.9528 -0.3035 -0.0000
vn -0.8155 -0.5787 -0.0000
vn -0.6003 -0.7998 -0.0000
vn -0.3265 -0.9452 -0.0000
vn -0.3016 0.9452 -0.1249
vn -0.5546 0.7998 -0.2297
vn -0.7535 0.5787 -0.3121
vn -0.8803 0.3035 -0.3646
vn -0.9239 -0.0000 -0.3827
vn -0.8803 -0.3035 -0.3646
vn -0.7535 -0.5787 -0.3121
vn -0.5546 -0.7998 -0.2297
vn -0.3016 -0.9452 -0.1249
vn -0.2309 0.9452 -0.2309
vn -0.4245 0.7998 -0.4245
vn -0.5767 0.5787 -0.5767
vn -0.6738 0.3035 -0.6738
vn -0.7071 -0.0000 -0.7071
vn -0.6738 -0.3035 -0.6738
vn -0.5767 -0.5787 -0.5767
vn -0.4245 -0.7998 -0.4245
vn -0.2309 -0.9452 -0.2309
vn -0.1249 0.9452 -0.3016
vn -0.2297 0.7998 -0.5546
vn -0.3121 0.5787 -0.7535
vn -0.3646 0.3035 -0.8803
vn -0.3827 -0.0000 -0.9239
vn -0.3646 -0.3035 -0.8803
vn -0.3121 -0.5787 -0.7535
vn -0.2297 -0.7998 -0.5546
vn -0.1249 -0.9452 -0.3016
vn -0.0000 0.9452 -0.3265
vn -0.0000 0.7998 -0.6003
vn -0.0000 -0.3035 -0.9528
vn -0.0000 -0.7998 -0.6003
vt 0.750000 0.300000
vt 0.750000 0.400000
vt 0.687500 0.400000
vt 0.687500 0.300000
vt 0.750000 0.600000
vt 0.750000 0.700000
vt 0.687500 0.700000
vt 0.687500 0.600000
vt 0.750000 0.900000
vt 0.718750 1.000000
vt 0.687500 0.900000
vt 0.750000 0.200000
vt 0.687500 0.200000
vt 0.750000 0.500000
vt 0.687500 0.500000
vt 0.750000 0.800000
vt 0.687500 0.800000
vt 0.750000 0.100000
vt 0.687500 0.100000
vt 0.718750 0.000000
vt 0.625000 0.400000
vt 0.625000 0.300000
vt 0.625000 0.700000
vt 0.625000 0.600000
vt 0.656250 1.000000
vt 0.625000 0.900000
vt 0.625000 0.200000
vt 0.625000 0.500000
vt 0.625000 0.800000
vt 0.625000 0.100000
vt 0.656250 0.000000
vt 0.562500 0.800000
vt 0.562500 0.700000
vt 0.593750 0.000000
vt 0.562500 0.100000
vt 0.562500 0.400000
vt 0.562500 0.300000
vt 0.562500 0.600000
vt 0.593750 1.000000
vt 0.562500 0.900000
vt 0.562500 0.200000
vt 0.562500 0.500000
vt 0.500000 0.500000
vt 0.500000 0.400000
vt 0.500000 0.800000
vt 0.500000 0.700000
vt 0.531250 0.000000
vt 0.500000 0.100000
vt 0.500000 0.300000
vt 0.500000 0.600000
vt 0.531250 1.000000
vt 0.500000 0.900000
vt 0.500000 0.200000
vt 0.437500 0.900000
vt 0.437500 0.800000
vt 0.437500 0.200000
vt 0.437500 0.100000
vt 0.437500 0.500000
vt 0.437500 0.400000
vt 0.437500 0.700000
vt 0.468750 0.000000
vt 0.437500 0.300000
vt 0.437500 0.600000
vt 0.468750 1.000000
vt 0.375000 0.300000
vt 0.375000 0.200000
vt 0.375000 0.600000
vt 0.375000 0.500000
vt 0.375000 0.900000
vt 0.375000 0.800000
vt 0.375000 0.100000
vt 0.375000 0.400000
vt 0.375000 0.700000
vt 0.406250 0.000000
vt 0.406250 1.000000
vt 0.312500 0.700000
vt 0.312500 0.600000
vt 0.343750 1.000000
vt 0.312500 0.900000
vt 0.312500 0.300000
vt 0.312500 0.200000
vt 0.312500 0.500000
vt 0.312500 0.800000
vt 0.312500 0.100000
vt 0.312500 0.400000
vt 0.343750 0.000000
vt 0.250000 0.400000
vt 0.250000 0.300000
vt 0.250000 0.700000
vt 0.250000 0.600000
vt 0.281250 1.000000
vt 0.250000 0.900000
vt 0.250000 0.200000
vt 0.250000 0.500000
vt 0.250000 0.800000
vt 0.250000 0.100000
vt 0.281250 0.000000
vt 0.187500 0.800000
vt 0.187500 0.700000
vt 0.218750 0.000000
vt 0.187500 0.100000
vt 0.187500 0.400000
vt 0.187500 0.300000
vt 0.187500 0.600000
vt 0.218750 1.000000
vt 0.187500 0.900000
vt 0.187500 0.200000
vt 0.187500 0.500000
vt 0.125000 0.200000
vt 0.125000 0.100000
vt 0.125000 0.500000
vt 0.125000 0.400000
vt 0.125000 0.800000
vt 0.125000 0.700000
vt 0.156250 0.000000
vt 0.125000 0.300000
vt 0.125000 0.600000
vt 0.156250 1.000000
vt 0.125000 0.900000
vt 0.062500 0.600000
vt 0.062500 0.500000
vt 0.062500 0.900000
vt 0.062500 0.800000
vt 0.062500 0.200000
vt 0.062500 0.100000
vt 0.062500 0.400000
vt 0.062500 0.700000
vt 0.093750 0.000000
vt 0.062500 0.300000
vt 0.093750 1.000000
vt 0.031250 1.000000
vt 0.000000 0.900000
vt 0.000000 0.300000
vt 0.000000 0.200000
vt 0.000000 0.600000
vt 0.000000 0.500000
vt 0.000000 0.800000
vt 0.000000 0.100000
vt 0.000000 0.400000
vt 0.000000 0.700000
vt 0.031250 0.000000
vt 1.000000 0.600000
vt 1.000000 0.700000
vt 0.937500 0.700000
vt 0.937500 0.600000
vt 1.000000 0.900000
vt 0.968750 1.000000
vt 0.937500 0.900000
vt 1.000000 0.200000
vt 1.000000 0.300000
vt 0.937500 0.300000
vt 0.937500 0.200000
vt 1.000000 0.500000
vt 0.937500 0.500000
vt 1.000000 0.800000
vt 0.937500 0.800000
vt 1.000000 0.100000
vt 0.937500 0.100000
vt 1.000000 0.400000
vt 0.937500 0.400000
vt 0.968750 0.000000
vt 0.906250 0.000000
vt 0.875000 0.100000
vt 0.875000 0.400000
vt 0.875000 0.300000
vt 0.875000 0.700000
vt 0.875000 0.600000
vt 0.906250 1.000000
vt 0.875000 0.900000
vt 0.875000 0.200000
vt 0.875000 0.500000
vt 0.875000 0.800000
vt 0.812500 0.500000
vt 0.812500 0.400000
vt 0.812500 0.800000
vt 0.812500 0.700000
vt 0.843750 0.000000
vt 0.812500 0.100000
vt 0.812500 0.300000
vt 0.812500 0.600000
vt 0.843750 1.000000
vt 0.812500 0.900000
vt 0.812500 0.200000
vt 0.781250 0.000000
vt 0.781250 1.000000
s 1
f 5/1/5 145/2/145 13/3/13 14/4/14
f 3/5/3 2/6/2 10/7/10 11/8/11
f 143/9/143 1/10/1 8/11/8
f 146/12/146 5/1/5 14/4/14 15/13/15
f 4/14/4 3/5/3 11/8/11 12/15/12
f 144/16/144 143/9/143 8/11/8 9/17/9
f 6/18/6 146/12/146 15/13/15 16/19/16
f 145/2/145 4/14/4 12/15/12 13/3/13
f 2/6/2 144/16/144 9/17/9 10/7/10
f 7/20/7 6/18/6 16/19/16
f 14/4/14 13/3/13 22/21/22 23/22/23
f 11/8/11 10/7/10 19/23/19 20/24/20
f 8/11/8 1/25/1 17/26/17
f 15/13/15 14/4/14 23/22/23 24/27/24
f 12/15/12 11/8/11 20/24/20 21/28/21
f 9/17/9 8/11/8 17/26/17 18/29/18
f 16/19/16 15/13/15 24/27/24 25/30/25
f 13/3/13 12/15/12 21/28/21 22/21/22
f 10/7/10 9/17/9 18/29/18 19/23/19
f 7/31/7 16/19/16 25/30/25
f 19/23/19 18/29/18 27/32/27 28/33/28
f 7/34/7 25/30/25 34/35/34
f 23/22/23 22/21/22 31/36/31 32/37/32
f 20/24/20 19/23/19 28/33/28 29/38/29
f 17/26/17 1/39/1 26/40/26
f 24/27/24 23/22/23 32/37/32 33/41/33
f 21/28/21 20/24/20 29/38/29 30/42/30
f 18/29/18 17/26/17 26/40/26 27/32/27
f 25/30/25 24/27/24 33/41/33 34/35/34
f 22/21/22 21/28/21 30/42/30 31/36/31
f 31/36/31 30/42/30 39/43/39 40/44/40
f 28/33/28 27/32/27 36/45/36 37/46/37
f 7/47/7 34/35/34 43/48/43
f 32/37/32 31/36/31 40/44/40 41/49/41
f 29/38/29 28/33/28 37/46/37 38/50/38
f 26/40/26 1/51/1 35/52/35
f 33/41/33 32/37/32 41/49/41 42/53/42
f 30/42/30 29/38/29 38/50/38 39/43/39
f 27/32/27 26/40/26 35/52/35 36/45/36
f 34/35/34 33/41/33 42/53/42 43/48/43
f 36/45/36 35/52/35 44/54/44 45/55/45
f 43/48/43 42/53/42 51/56/51 52/57/52
f 40/44/40 39/43/39 48/58/48 49/59/49
f 37/46/37 36/45/36 45/55/45 46/60/46
f 7/61/7 43/48/43 52/57/52
f 41/49/41 40/44/40 49/59/49 50/62/50
f 38/50/38 37/46/37 46/60/46 47/63/47
f 35/52/35 1/64/1 44/54/44
f 42/53/42 41/49/41 50/62/50 51/56/51
f 39/43/39 38/50/38 47/63/47 48/58/48
f 51/56/51 50/62/50 59/65/59 60/66/60
f 48/58/48 47/63/47 56/67/56 57/68/57
f 45/55/45 44/54/44 53/69/53 54/70/54
f 52/57/52 51/56/51 60/66/60 61/71/61
f 49/59/49 48/58/48 57/68/57 58/72/58
f 46/60/46 45/55/45 54/70/54 55/73/55
f 7/74/7 52/57/52 61/71/61
f 50/62/50 49/59/49 58/72/58 59/65/59
f 47/63/47 46/60/46 55/73/55 56/67/56
f 44/54/44 1/75/1 53/69/53
f 56/67/56 55/73/55 64/76/64 65/77/65
f 53/69/53 1/78/1 62/79/62
f 60/66/60 59/65/59 68/80/68 69/81/69
f 57/68/57 56/67/56 65/77/65 66/82/66
f 54/70/54 53/69/53 62/79/62 63/83/63
f 61/71/61 60/66/60 69/81/69 70/84/70
f 58/72/58 57/68/57 66/82/66 67/85/67
f 55/73/55 54/70/54 63/83/63 64/76/64
f 7/86/7 61/71/61 70/84/70
f 59/65/59 58/72/58 67/85/67 68/80/68
f 68/80/68 67/85/67 76/87/76 77/88/77
f 65/77/65 64/76/64 73/89/73 74/90/74
f 62/79/62 1/91/1 71/92/71
f 69/81/69 68/80/68 77/88/77 78/93/78
f 66/82/66 65/77/65 74/90/74 75/94/75
f 63/83/63 62/79/62 71/92/71 72/95/72
f 70/84/70 69/81/69 78/93/78 79/96/79
f 67/85/67 66/82/66 75/94/75 76/87/76
f 64/76/64 63/83/63 72/95/72 73/89/73
f 7/97/7 70/84/70 79/96/79
f 73/89/73 72/95/72 81/98/81 82/99/82
f 7/100/7 79/96/79 88/101/88
f 77/88/77 76/87/76 85/102/85 86/103/86
f 74/90/74 73/89/73 82/99/82 83/104/83
f 71/92/71 1/105/1 80/106/80
f 78/93/78 77/88/77 86/103/86 87/107/87
f 75/94/75 74/90/74 83/104/83 84/108/84
f 72/95/72 71/92/71 80/106/80 81/98/81
f 79/96/79 78/93/78 87/107/87 88/101/88
f 76/87/76 75/94/75 84/108/84 85/102/85
f 88/101/88 87/107/87 96/109/96 97/110/97
f 85/102/85 84/108/84 93/111/93 94/112/94
f 82/99/82 81/98/81 90/113/90 91/114/91
f 7/115/7 88/101/88 97/110/97
f 86/103/86 85/102/85 94/112/94 95/116/95
f 83/104/83 82/99/82 91/114/91 92/117/92
f 80/106/80 1/118/1 89/119/89
f 87/107/87 86/103/86 95/116/95 96/109/96
f 84/108/84 83/104/83 92/117/92 93/111/93
f 81/98/81 80/106/80 89/119/89 90/113/90
f 93/111/93 92/117/92 101/120/101 102/121/102
f 90/113/90 89/119/89 98/122/98 99/123/99
f 97/110/97 96/109/96 105/124/105 106/125/106
f 94/112/94 93/111/93 102/121/102 103/126/103
f 91/114/91 90/113/90 99/123/99 100/127/100
f 7/128/7 97/110/97 106/125/106
f 95/116/95 94/112/94 103/126/103 104/129/104
f 92/117/92 91/114/91 100/127/100 101/120/101
f 89/119/89 1/130/1 98/122/98
f 96/109/96 95/116/95 104/129/104 105/124/105
f 98/122/98 1/131/1 107/132/107
f 105/124/105 104/129/104 113/133/113 114/134/114
f 102/121/102 101/120/101 110/135/110 111/136/111
f 99/123/99 98/122/98 107/132/107 108/137/108
f 106/125/106 105/124/105 114/134/114 115/138/115
f 103/126/103 102/121/102 111/136/111 112/139/112
f 100/127/100 99/123/99 108/137/108 109/140/109
f 7/141/7 106/125/106 115/138/115
f 104/129/104 103/126/103 112/139/112 113/133/113
f 101/120/101 100/127/100 109/140/109 110/135/110
f 110/142/110 109/143/109 118/144/118 119/145/119
f 107/146/107 1/147/1 116/148/116
f 114/149/114 113/150/113 122/151/122 123/152/123
f 111/153/111 110/142/110 119/145/119 120/154/120
f 108/155/108 107/146/107 116/148/116 117/156/117
f 115/157/115 114/149/114 123/152/123 124/158/124
f 112/159/112 111/153/111 120/154/120 121/160/121
f 109/143/109 108/155/108 117/156/117 118/144/118
f 7/161/7 115/157/115 124/158/124
f 113/150/113 112/159/112 121/160/121 122/151/122
f 7/162/7 124/158/124 133/163/133
f 122/151/122 121/160/121 130/164/130 131/165/131
f 119/145/119 118/144/118 127/166/127 128/167/128
f 116/148/116 1/168/1 125/169/125
f 123/152/123 122/151/122 131/165/131 132/170/132
f 120/154/120 119/145/119 128/167/128 129/171/129
f 117/156/117 116/148/116 125/169/125 126/172/126
f 124/158/124 123/152/123 132/170/132 133/163/133
f 121/160/121 120/154/120 129/171/129 130/164/130
f 118/144/118 117/156/117 126/172/126 127/166/127
f 130/164/130 129/171/129 138/173/138 139/174/139
f 127/166/127 126/172/126 135/175/135 136/176/136
f 7/177/7 133/163/133 142/178/142
f 131/165/131 130/164/130 139/174/139 140/179/140
f 128/167/128 127/166/127 136/176/136 137/180/137
f 125/169/125 1/181/1 134/182/134
f 132/170/132 131/165/131 140/179/140 141/183/141
f 129/171/129 128/167/128 137/180/137 138/173/138
f 126/172/126 125/169/125 134/182/134 135/175/135
f 133/163/133 132/170/132 141/183/141 142/178/142
f 135/175/135 134/182/134 143/9/143 144/16/144
f 142/178/142 141/183/141 146/12/146 6/18/6
f 139/174/139 138/173/138 4/14/4 145/2/145
f 136/176/136 135/175/135 144/16/144 2/6/2
f 7/184/7 142/178/142 6/18/6
f 140/179/140 139/174/139 145/2/145 5/1/5
f 137/180/137 136/176/136 2/6/2 3/5/3
f 134/182/134 1/185/1 143/9/143
f 141/183/141 140/179/140 5/1/5 146/12/146
f 138/173/138 137/180/137 3/5/3 4/14/4
