# Blender 5.2.2 LTS
# www.blender.org
o rubble
v -0.085010 -0.031645 0.311855
v -0.063908 -0.033365 0.313185
v -0.074533 -0.021837 0.327476
v 0.013451 0.032461 0.317598
v 0.015176 0.053604 0.317570
v 0.002827 0.043989 0.331889
v -0.179025 0.079286 0.305261
v -0.168548 0.089094 0.320882
v -0.177300 0.100429 0.305232
v -0.078839 0.164534 0.310976
v -0.099941 0.166254 0.309645
v -0.091189 0.154919 0.325295
v -0.073186 -0.032864 0.122777
v -0.060837 -0.023249 0.108458
v -0.052085 -0.034584 0.124108
v 0.026999 0.052385 0.128492
v 0.025274 0.031242 0.128520
v 0.016522 0.042577 0.112871
v -0.167202 0.078067 0.116183
v -0.165477 0.099210 0.116154
v -0.154852 0.087682 0.101863
v -0.067016 0.163315 0.121898
v -0.077493 0.153507 0.106276
v -0.088117 0.165035 0.120567
v -0.278791 -0.036146 0.100773
v -0.259755 -0.032587 0.109429
v -0.277008 -0.023306 0.117564
v -0.183870 0.082223 0.139398
v -0.186744 0.103117 0.137125
v -0.201124 0.091504 0.147533
v -0.423249 0.078144 0.028713
v -0.421467 0.090985 0.045504
v -0.426123 0.099039 0.026440
v -0.331202 0.217408 0.065065
v -0.350239 0.213848 0.056409
v -0.345582 0.205794 0.075473
v -0.171821 -0.046561 -0.130190
v -0.157440 -0.034948 -0.140598
v -0.152784 -0.043002 -0.121533
v -0.079773 0.092702 -0.093837
v -0.076899 0.071808 -0.091564
v -0.081556 0.079862 -0.110629
v -0.316279 0.067729 -0.202250
v -0.319152 0.088624 -0.204523
v -0.301898 0.079343 -0.212657
v -0.224231 0.206993 -0.165897
v -0.226014 0.194153 -0.182689
v -0.243268 0.203433 -0.174554
v -0.128045 0.016401 -0.022284
v -0.119659 0.028517 -0.007023
v -0.137754 0.034335 -0.016444
v -0.086214 0.146877 0.001835
v -0.086463 0.163556 -0.011270
v -0.104309 0.152695 -0.007585
v -0.178248 0.042929 -0.187200
v -0.187956 0.060863 -0.181360
v -0.178497 0.059608 -0.200306
v -0.136666 0.190084 -0.176187
v -0.145051 0.177968 -0.191447
v -0.154511 0.179223 -0.172502
v 0.079091 -0.036771 -0.093892
v 0.096936 -0.025910 -0.097577
v 0.087477 -0.024655 -0.078631
v 0.120673 0.110384 -0.082878
v 0.120922 0.093705 -0.069773
v 0.130382 0.092450 -0.088718
v 0.028888 -0.010242 -0.258808
v 0.028639 0.006437 -0.271913
v 0.046734 0.000619 -0.262493
v 0.070470 0.136913 -0.247795
v 0.080179 0.118979 -0.253635
v 0.062085 0.124797 -0.263055
v 0.339081 0.010647 0.042808
v 0.355685 0.010867 0.029607
v 0.353443 0.026207 0.044087
v 0.396162 0.080856 -0.038268
v 0.391060 0.100526 -0.044357
v 0.393919 0.096195 -0.023788
v 0.230008 0.108383 0.078542
v 0.244369 0.123943 0.079822
v 0.224906 0.128053 0.072453
v 0.281987 0.198262 -0.008622
v 0.265383 0.198042 0.004578
v 0.284846 0.193932 0.011946
v 0.226609 -0.062697 -0.099892
v 0.223750 -0.058367 -0.120461
v 0.243213 -0.062477 -0.113092
v 0.278588 0.027181 -0.187056
v 0.283689 0.007511 -0.180967
v 0.264226 0.011621 -0.188336
v 0.117535 0.035039 -0.064157
v 0.112434 0.054708 -0.070246
v 0.114677 0.039369 -0.084726
v 0.169515 0.124917 -0.151322
v 0.155153 0.109357 -0.152601
v 0.152911 0.124697 -0.138122
v -0.211547 0.012483 -0.075793
v -0.205539 0.013637 -0.055481
v -0.217737 0.028860 -0.063816
v -0.173156 0.060831 -0.016676
v -0.165115 0.080151 -0.020153
v -0.185354 0.076054 -0.025011
v -0.204622 0.074366 -0.156833
v -0.210812 0.090743 -0.144855
v -0.196582 0.093686 -0.160310
v -0.158190 0.142034 -0.101193
v -0.164198 0.140879 -0.121504
v -0.178429 0.137937 -0.106050
v -0.092396 -0.042884 -0.107890
v -0.072157 -0.038787 -0.103033
v -0.086388 -0.041729 -0.087579
v -0.045964 0.024784 -0.052250
v -0.054005 0.005465 -0.048774
v -0.039774 0.008407 -0.064228
v -0.085471 0.018999 -0.188930
v -0.077430 0.038319 -0.192407
v -0.065232 0.023096 -0.184072
v -0.039039 0.086668 -0.133290
v -0.032849 0.070290 -0.145267
v -0.045047 0.085513 -0.153602
v -0.089561 -0.008975 0.174619
v -0.079633 -0.009476 0.155879
v -0.073315 0.004140 0.170868
v -0.061594 0.047326 0.096676
v -0.065080 0.068113 0.094273
v -0.055276 0.060943 0.111665
v -0.144112 0.077601 0.241062
v -0.127866 0.090716 0.237312
v -0.147598 0.098388 0.238660
v -0.119631 0.154689 0.160716
v -0.129559 0.155190 0.179456
v -0.109827 0.147519 0.178108
v -0.228501 -0.040683 0.101863
v -0.238305 -0.033513 0.084471
v -0.218573 -0.041184 0.083122
v -0.204019 0.036405 0.021516
v -0.200534 0.015618 0.023919
v -0.220265 0.023290 0.025267
v -0.283052 0.045893 0.168306
v -0.286538 0.066680 0.165903
v -0.292856 0.053063 0.150914
v -0.258571 0.122981 0.087959
v -0.274817 0.109866 0.091710
v -0.268499 0.123482 0.106699
v -0.260528 -0.033147 0.209359
v -0.241068 -0.027008 0.215156
v -0.258048 -0.019575 0.225473
v -0.177401 0.095617 0.231603
v -0.183134 0.115917 0.229352
v -0.194381 0.103050 0.241920
v -0.424728 0.059142 0.156907
v -0.422248 0.072713 0.173021
v -0.430461 0.079441 0.154656
v -0.347333 0.208205 0.176900
v -0.366794 0.202066 0.171103
v -0.358580 0.195338 0.189468
v -0.186919 -0.039062 -0.031480
v -0.175673 -0.026195 -0.044048
v -0.167459 -0.032923 -0.025683
v -0.109525 0.110002 -0.011486
v -0.103791 0.089702 -0.009235
v -0.112005 0.096430 -0.027600
v -0.351119 0.053227 -0.083932
v -0.356852 0.073526 -0.086183
v -0.339872 0.066094 -0.096500
v -0.273724 0.202290 -0.063938
v -0.276205 0.188719 -0.080052
v -0.293185 0.196151 -0.069735
vn -0.1024 -0.8101 0.5773
vn 0.7762 -0.0625 0.6274
vn -0.8482 0.0699 0.5250
vn 0.0304 0.8175 0.5751
vn -0.0304 -0.8175 -0.5751
vn 0.8482 -0.0699 -0.5250
vn -0.7762 0.0625 -0.6274
vn 0.1024 0.8101 -0.5773
vn -0.1318 -0.7806 0.6109
vn 0.4903 0.1606 0.8566
vn -0.9752 -0.1134 0.1903
vn -0.3530 0.8278 0.4360
vn 0.3530 -0.8278 -0.4360
vn 0.9752 0.1134 -0.1903
vn -0.4903 -0.1606 -0.8566
vn 0.1318 0.7806 -0.6109
vn -0.5207 -0.5059 0.6877
vn -0.2075 0.6025 0.7707
vn -0.8530 -0.3302 -0.4041
vn -0.5399 0.7781 -0.3211
vn 0.5399 -0.7781 0.3211
vn 0.8530 0.3302 0.4041
vn 0.2075 -0.6025 -0.7707
vn 0.5207 0.5059 -0.6877
vn 0.5278 -0.5410 0.6548
vn 0.9705 0.2246 -0.0876
vn -0.3077 0.2076 0.9286
vn 0.1351 0.9732 0.1861
vn -0.1351 -0.9732 -0.1861
vn 0.3077 -0.2076 -0.9286
vn -0.9705 -0.2246 0.0876
vn -0.5278 0.5410 -0.6548
vn -0.8181 -0.5073 0.2708
vn -0.2774 0.2808 0.9188
vn -0.7399 0.1919 -0.6448
vn -0.1991 0.9800 0.0032
vn 0.1991 -0.9800 -0.0032
vn 0.7399 -0.1919 0.6448
vn 0.2774 -0.2808 -0.9188
vn 0.8181 0.5073 -0.2708
vn 0.6355 -0.6857 0.3550
vn 0.8834 0.0951 -0.4588
vn 0.1192 0.1337 0.9838
vn 0.3672 0.9145 0.1700
vn -0.3672 -0.9145 -0.1700
vn -0.1192 -0.1337 -0.9838
vn -0.8834 -0.0951 0.4588
vn -0.6355 0.6857 -0.3550
vn 0.0520 -0.7678 0.6386
vn 0.5803 0.2499 0.7751
vn -0.9177 -0.2227 0.3289
vn -0.3894 0.7949 0.4653
vn 0.3894 -0.7949 -0.4653
vn 0.9177 0.2227 -0.3289
vn -0.5803 -0.2499 -0.7751
vn -0.0520 0.7678 -0.6386
vn -0.5822 -0.4533 0.6750
vn 0.4126 -0.5343 0.7377
vn 0.4939 0.4624 0.7364
vn -0.5008 0.5434 0.6737
vn -0.9947 0.0811 -0.0627
vn 0.0813 0.9967 -0.0013
vn -0.4126 0.5343 -0.7377
vn -0.4939 -0.4624 -0.7364
vn 0.5822 0.4533 -0.6750
vn 0.5008 -0.5434 -0.6737
vn -0.0813 -0.9967 0.0013
vn 0.9947 -0.0811 0.0627
vn -0.6779 -0.5475 0.4906
vn 0.2195 -0.3797 0.8987
vn 0.0840 0.6053 0.7915
vn -0.8134 0.4375 0.3835
vn -0.8974 -0.1678 -0.4081
vn -0.1355 0.9850 -0.1072
vn -0.2195 0.3797 -0.8987
vn -0.0840 -0.6053 -0.7915
vn 0.6779 0.5475 -0.4906
vn 0.8134 -0.4375 -0.3835
vn 0.1355 -0.9850 0.1072
vn 0.8974 0.1678 0.4081
vn -0.8412 -0.5120 0.1737
vn -0.4459 0.0592 0.8931
vn -0.4577 0.8454 0.2753
vn -0.8530 0.2743 -0.4441
vn -0.3953 -0.5712 -0.7194
vn -0.0117 0.7863 -0.6178
vn 0.4459 -0.0592 -0.8931
vn 0.4577 -0.8454 -0.2753
vn 0.8412 0.5120 -0.1737
vn 0.8530 -0.2743 0.4441
vn 0.0117 -0.7863 0.6178
vn 0.3953 0.5712 0.7194
vn 0.1348 -0.2041 0.9696
vn 0.9175 -0.1937 0.3474
vn 0.6770 0.7335 0.0603
vn -0.1057 0.7231 0.6826
vn -0.7827 -0.0104 0.6223
vn -0.2405 0.9272 -0.2870
vn -0.9175 0.1937 -0.3474
vn -0.6770 -0.7335 -0.0603
vn -0.1348 0.2041 -0.9696
vn 0.1057 -0.7231 -0.6826
vn 0.2405 -0.9272 0.2870
vn 0.7827 0.0104 -0.6223
vn -0.9541 -0.1931 -0.2290
vn -0.6708 -0.1387 0.7285
vn -0.2918 0.7721 0.5646
vn -0.5750 0.7176 -0.3929
vn -0.2832 -0.0544 -0.9575
vn 0.3791 0.9107 -0.1639
vn 0.6708 0.1387 -0.7285
vn 0.2918 -0.7721 -0.5646
vn 0.9541 0.1931 0.2290
vn 0.5750 -0.7176 0.3929
vn -0.3791 -0.9107 0.1639
vn 0.2832 0.0544 0.9575
vn 0.4622 -0.3380 0.8199
vn 0.9302 -0.3616 -0.0636
vn 0.7658 0.6182 -0.1768
vn 0.2978 0.6419 0.7066
vn -0.4680 0.0236 0.8834
vn -0.1643 0.9799 -0.1133
vn -0.9302 0.3616 0.0636
vn -0.7658 -0.6182 0.1768
vn -0.4622 0.3380 -0.8199
vn -0.2978 -0.6419 -0.7066
vn 0.1643 -0.9799 0.1133
vn 0.4680 -0.0236 -0.8834
vn -0.5302 -0.6066 0.5925
vn 0.3872 -0.3172 0.8657
vn 0.1169 0.6398 0.7596
vn -0.8004 0.3504 0.4864
vn -0.9174 -0.2894 -0.2733
vn -0.2703 0.9569 -0.1061
vn -0.3872 0.3172 -0.8657
vn -0.1169 -0.6398 -0.7596
vn 0.5302 0.6066 -0.5925
vn 0.8004 -0.3504 -0.4864
vn 0.2703 -0.9569 0.1061
vn 0.9174 0.2894 0.2733
vn -0.7609 -0.6474 -0.0434
vn -0.0624 0.0064 0.9980
vn 0.6459 -0.7621 0.0453
vn 0.7609 0.6474 0.0434
vn -0.6459 0.7621 -0.0453
vn 0.0624 -0.0064 -0.9980
vn -0.5388 -0.8151 -0.2128
vn -0.4199 0.0409 0.9066
vn 0.7303 -0.5778 0.3643
vn 0.5388 0.8151 0.2128
vn -0.7303 0.5778 -0.3643
vn 0.4199 -0.0409 -0.9066
vn -0.2712 -0.9598 -0.0718
vn -0.9185 0.2358 0.3175
vn 0.2878 -0.1521 0.9455
vn 0.2712 0.9598 0.0718
vn -0.2878 0.1521 -0.9455
vn 0.9185 -0.2358 -0.3175
vn -0.3834 -0.6630 0.6430
vn 0.5740 0.3743 0.7283
vn 0.7235 -0.6483 -0.2370
vn 0.3834 0.6630 -0.6430
vn -0.7235 0.6483 0.2370
vn -0.5740 -0.3743 -0.7283
vn -0.4683 -0.6825 -0.5612
vn -0.8810 0.4094 0.2373
vn -0.0678 -0.6055 0.7929
vn 0.4683 0.6825 0.5612
vn 0.0678 0.6055 -0.7929
vn 0.8810 -0.4094 -0.2373
vn -0.2147 -0.6762 0.7048
vn 0.8683 0.1982 0.4547
vn 0.4471 -0.7096 -0.5446
vn 0.2147 0.6762 -0.7048
vn -0.4471 0.7096 0.5446
vn -0.8683 -0.1982 -0.4547
vn -0.4576 -0.8813 -0.1182
vn -0.2922 0.0235 0.9561
vn 0.8398 -0.4720 0.2683
vn 0.4576 0.8813 0.1182
vn -0.8398 0.4720 -0.2683
vn 0.2922 -0.0235 -0.9561
vt 0.142088 0.728640
vt 0.142088 0.750000
vt 0.125000 0.728640
vt 0.596520 0.000000
vt 0.625000 0.021360
vt 0.596520 0.021360
vt 0.142088 0.521360
vt 0.125000 0.521360
vt 0.142088 0.500000
vt 0.625000 0.241456
vt 0.596520 0.262816
vt 0.596520 0.228640
vt 0.357912 0.728640
vt 0.396360 0.728640
vt 0.380696 0.758544
vt 0.633544 0.747864
vt 0.596520 0.767088
vt 0.596520 0.733980
vt 0.357912 0.521360
vt 0.380696 0.491456
vt 0.396360 0.521360
vt 0.633544 0.502136
vt 0.596520 0.516020
vt 0.596520 0.482912
vt 0.138170 0.733538
vt 0.138170 0.750000
vt 0.125000 0.733538
vt 0.603050 0.000000
vt 0.625000 0.016462
vt 0.603051 0.016462
vt 0.138170 0.516462
vt 0.125000 0.516462
vt 0.138170 0.500000
vt 0.625000 0.243415
vt 0.603051 0.259877
vt 0.603050 0.233538
vt 0.361830 0.733538
vt 0.391462 0.733538
vt 0.379390 0.756585
vt 0.631585 0.748354
vt 0.603051 0.763170
vt 0.603051 0.737653
vt 0.361830 0.516462
vt 0.379390 0.493415
vt 0.391462 0.516462
vt 0.631585 0.501646
vt 0.603050 0.512347
vt 0.603050 0.486830
vt 0.375000 0.018345
vt 0.399460 0.000000
vt 0.399460 0.018345
vt 0.600540 0.000000
vt 0.625000 0.018345
vt 0.600540 0.018345
vt 0.375000 0.231655
vt 0.399460 0.231655
vt 0.399460 0.259784
vt 0.625000 0.242662
vt 0.600540 0.261007
vt 0.600540 0.231655
vt 0.360324 0.731655
vt 0.393345 0.731655
vt 0.379892 0.757338
vt 0.632338 0.748166
vt 0.600540 0.764676
vt 0.600540 0.736241
vt 0.360324 0.518345
vt 0.379892 0.492662
vt 0.393345 0.518345
vt 0.632338 0.501834
vt 0.600540 0.513759
vt 0.600540 0.485324
vt 0.141597 0.729253
vt 0.141597 0.750000
vt 0.125000 0.729253
vt 0.597338 0.983403
vt 0.625000 0.983403
vt 0.597338 1.000000
vt 0.141597 0.520747
vt 0.125000 0.520747
vt 0.141597 0.500000
vt 0.625000 0.266597
vt 0.597338 0.266597
vt 0.597338 0.236169
vt 0.362552 0.729253
vt 0.402662 0.729253
vt 0.391597 0.758299
vt 0.633299 0.738589
vt 0.597338 0.762448
vt 0.597338 0.729253
vt 0.362552 0.520747
vt 0.391597 0.491701
vt 0.402662 0.520747
vt 0.633299 0.511411
vt 0.597338 0.520747
vt 0.597338 0.487552
vt 0.147693 0.721634
vt 0.147693 0.750000
vt 0.125000 0.721634
vt 0.587179 0.000000
vt 0.625000 0.028366
vt 0.587179 0.028366
vt 0.147693 0.528366
vt 0.125000 0.528366
vt 0.147693 0.500000
vt 0.625000 0.238654
vt 0.587179 0.267020
vt 0.587179 0.221634
vt 0.352307 0.721634
vt 0.403366 0.721634
vt 0.382564 0.761346
vt 0.636346 0.747163
vt 0.587179 0.772693
vt 0.587179 0.728725
vt 0.352307 0.528366
vt 0.382564 0.488654
vt 0.403366 0.528366
vt 0.636346 0.502837
vt 0.587179 0.521275
vt 0.587179 0.477307
vt 0.144736 0.725330
vt 0.144736 0.750000
vt 0.125000 0.725330
vt 0.592107 0.980264
vt 0.625000 0.980264
vt 0.592107 1.000000
vt 0.144736 0.524670
vt 0.125000 0.524670
vt 0.144736 0.500000
vt 0.625000 0.269736
vt 0.592107 0.269736
vt 0.592107 0.233554
vt 0.360198 0.725330
vt 0.407893 0.725330
vt 0.394736 0.759868
vt 0.634868 0.736432
vt 0.592107 0.764802
vt 0.592107 0.725330
vt 0.360198 0.524670
vt 0.394736 0.490132
vt 0.407893 0.524670
vt 0.634868 0.513568
vt 0.592107 0.524670
vt 0.592107 0.485198
vt 0.138302 0.733372
vt 0.138302 0.750000
vt 0.125000 0.733372
vt 0.602829 0.000000
vt 0.625000 0.016628
vt 0.602830 0.016628
vt 0.138302 0.516628
vt 0.125000 0.516628
vt 0.138302 0.500000
vt 0.625000 0.253326
vt 0.602829 0.263302
vt 0.602829 0.237529
vt 0.361698 0.733372
vt 0.391628 0.733372
vt 0.379434 0.756651
vt 0.631651 0.740855
vt 0.602829 0.759977
vt 0.602829 0.733372
vt 0.361698 0.516628
vt 0.379434 0.493349
vt 0.391628 0.516628
vt 0.631651 0.501663
vt 0.602829 0.512471
vt 0.602830 0.486698
vt 0.403480 0.000000
vt 0.403480 0.021360
vt 0.403480 0.267088
vt 0.403480 0.228640
vt 0.625000 0.982912
vt 0.596520 0.982912
vt 0.396949 0.000000
vt 0.396950 0.016462
vt 0.396950 0.263170
vt 0.396950 0.233538
vt 0.625000 0.986830
vt 0.603051 0.986830
vt 0.139676 0.518345
vt 0.139676 0.500000
vt 0.139676 0.731655
vt 0.139676 0.750000
vt 0.625000 0.985324
vt 0.600540 0.985324
vt 0.402662 0.983403
vt 0.402662 1.000000
vt 0.858403 0.729253
vt 0.858403 0.520747
vt 0.875000 0.520747
vt 0.875000 0.729253
vt 0.402662 0.266597
vt 0.402662 0.229253
vt 0.412821 0.000000
vt 0.412821 0.028366
vt 0.412821 0.272693
vt 0.412821 0.221634
vt 0.625000 0.977307
vt 0.587179 0.977307
vt 0.407893 0.980264
vt 0.407893 1.000000
vt 0.855264 0.725330
vt 0.855264 0.524670
vt 0.875000 0.524670
vt 0.875000 0.725330
vt 0.407893 0.269736
vt 0.407893 0.225330
vt 0.397171 0.000000
vt 0.397170 0.016628
vt 0.397170 0.263302
vt 0.397170 0.233372
vt 0.625000 0.986698
vt 0.602830 0.986698
vt 0.403480 0.982912
vt 0.857912 0.521360
vt 0.857912 0.728640
vt 0.396949 0.986830
vt 0.861830 0.516462
vt 0.861830 0.733538
vt 0.399460 0.985324
vt 0.860324 0.518345
vt 0.860324 0.731655
vt 0.402662 0.020747
vt 0.597338 0.020747
vt 0.412821 0.977307
vt 0.852307 0.528366
vt 0.852307 0.721634
vt 0.407893 0.024670
vt 0.592107 0.024670
vt 0.397171 0.986698
vt 0.861698 0.516628
vt 0.861698 0.733372
s 0
f 1/1/1 2/2/1 3/3/1
f 4/4/2 5/5/2 6/6/2
f 7/7/3 8/8/3 9/9/3
f 10/10/4 11/11/4 12/12/4
f 13/13/5 14/14/5 15/15/5
f 16/16/6 17/17/6 18/18/6
f 19/19/7 20/20/7 21/21/7
f 22/22/8 23/23/8 24/24/8
f 25/25/9 26/26/9 27/27/9
f 28/28/10 29/29/10 30/30/10
f 31/31/11 32/32/11 33/33/11
f 34/34/12 35/35/12 36/36/12
f 37/37/13 38/38/13 39/39/13
f 40/40/14 41/41/14 42/42/14
f 43/43/15 44/44/15 45/45/15
f 46/46/16 47/47/16 48/48/16
f 49/49/17 50/50/17 51/51/17
f 52/52/18 53/53/18 54/54/18
f 55/55/19 56/56/19 57/57/19
f 58/58/20 59/59/20 60/60/20
f 61/61/21 62/62/21 63/63/21
f 64/64/22 65/65/22 66/66/22
f 67/67/23 68/68/23 69/69/23
f 70/70/24 71/71/24 72/72/24
f 73/73/25 74/74/25 75/75/25
f 76/76/26 77/77/26 78/78/26
f 79/79/27 80/80/27 81/81/27
f 82/82/28 83/83/28 84/84/28
f 85/85/29 86/86/29 87/87/29
f 88/88/30 89/89/30 90/90/30
f 91/91/31 92/92/31 93/93/31
f 94/94/32 95/95/32 96/96/32
f 97/97/33 98/98/33 99/99/33
f 100/100/34 101/101/34 102/102/34
f 103/103/35 104/104/35 105/105/35
f 106/106/36 107/107/36 108/108/36
f 109/109/37 110/110/37 111/111/37
f 112/112/38 113/113/38 114/114/38
f 115/115/39 116/116/39 117/117/39
f 118/118/40 119/119/40 120/120/40
f 121/121/41 122/122/41 123/123/41
f 124/124/42 125/125/42 126/126/42
f 127/127/43 128/128/43 129/129/43
f 130/130/44 131/131/44 132/132/44
f 133/133/45 134/134/45 135/135/45
f 136/136/46 137/137/46 138/138/46
f 139/139/47 140/140/47 141/141/47
f 142/142/48 143/143/48 144/144/48
f 145/145/49 146/146/49 147/147/49
f 148/148/50 149/149/50 150/150/50
f 151/151/51 152/152/51 153/153/51
f 154/154/52 155/155/52 156/156/52
f 157/157/53 158/158/53 159/159/53
f 160/160/54 161/161/54 162/162/54
f 163/163/55 164/164/55 165/165/55
f 166/166/56 167/167/56 168/168/56
f 7/7/57 1/1/57 3/3/57 8/8/57
f 2/169/58 4/4/58 6/6/58 3/170/58
f 5/5/59 10/10/59 12/12/59 6/6/59
f 11/11/60 9/171/60 8/172/60 12/12/60
f 19/19/61 7/7/61 9/9/61 20/20/61
f 10/10/62 22/22/62 24/24/62 11/11/62
f 23/23/63 21/21/63 20/20/63 24/24/63
f 13/13/64 19/19/64 21/21/64 14/14/64
f 22/22/65 16/16/65 18/18/65 23/23/65
f 17/17/66 15/15/66 14/14/66 18/18/66
f 1/1/67 13/13/67 15/15/67 2/2/67
f 16/16/68 5/173/68 4/174/68 17/17/68
f 31/31/69 25/25/69 27/27/69 32/32/69
f 26/175/70 28/28/70 30/30/70 27/176/70
f 29/29/71 34/34/71 36/36/71 30/30/71
f 35/35/72 33/177/72 32/178/72 36/36/72
f 43/43/73 31/31/73 33/33/73 44/44/73
f 34/34/74 46/46/74 48/48/74 35/35/74
f 47/47/75 45/45/75 44/44/75 48/48/75
f 37/37/76 43/43/76 45/45/76 38/38/76
f 46/46/77 40/40/77 42/42/77 47/47/77
f 41/41/78 39/39/78 38/38/78 42/42/78
f 25/25/79 37/37/79 39/39/79 26/26/79
f 40/40/80 29/179/80 28/180/80 41/41/80
f 55/55/81 49/49/81 51/51/81 56/56/81
f 50/50/82 52/52/82 54/54/82 51/51/82
f 53/53/83 58/58/83 60/60/83 54/54/83
f 59/59/84 57/57/84 56/56/84 60/60/84
f 67/67/85 55/181/85 57/182/85 68/68/85
f 58/58/86 70/70/86 72/72/86 59/59/86
f 71/71/87 69/69/87 68/68/87 72/72/87
f 61/61/88 67/67/88 69/69/88 62/62/88
f 70/70/89 64/64/89 66/66/89 71/71/89
f 65/65/90 63/63/90 62/62/90 66/66/90
f 49/183/91 61/61/91 63/63/91 50/184/91
f 64/64/92 53/185/92 52/186/92 65/65/92
f 79/79/93 73/73/93 75/75/93 80/80/93
f 74/187/94 76/76/94 78/78/94 75/188/94
f 77/189/95 82/190/95 84/191/95 78/192/95
f 83/83/96 81/193/96 80/194/96 84/84/96
f 91/91/97 79/79/97 81/81/97 92/92/97
f 82/82/98 94/94/98 96/96/98 83/83/98
f 95/95/99 93/93/99 92/92/99 96/96/99
f 85/85/100 91/91/100 93/93/100 86/86/100
f 94/94/101 88/88/101 90/90/101 95/95/101
f 89/89/102 87/87/102 86/86/102 90/90/102
f 73/73/103 85/85/103 87/87/103 74/74/103
f 88/88/104 77/77/104 76/76/104 89/89/104
f 103/103/105 97/97/105 99/99/105 104/104/105
f 98/195/106 100/100/106 102/102/106 99/196/106
f 101/101/107 106/106/107 108/108/107 102/102/107
f 107/107/108 105/197/108 104/198/108 108/108/108
f 115/115/109 103/103/109 105/105/109 116/116/109
f 106/106/110 118/118/110 120/120/110 107/107/110
f 119/119/111 117/117/111 116/116/111 120/120/111
f 109/109/112 115/115/112 117/117/112 110/110/112
f 118/118/113 112/112/113 114/114/113 119/119/113
f 113/113/114 111/111/114 110/110/114 114/114/114
f 97/97/115 109/109/115 111/111/115 98/98/115
f 112/112/116 101/199/116 100/200/116 113/113/116
f 127/127/117 121/121/117 123/123/117 128/128/117
f 122/201/118 124/124/118 126/126/118 123/202/118
f 125/203/119 130/204/119 132/205/119 126/206/119
f 131/131/120 129/207/120 128/208/120 132/132/120
f 139/139/121 127/127/121 129/129/121 140/140/121
f 130/130/122 142/142/122 144/144/122 131/131/122
f 143/143/123 141/141/123 140/140/123 144/144/123
f 133/133/124 139/139/124 141/141/124 134/134/124
f 142/142/125 136/136/125 138/138/125 143/143/125
f 137/137/126 135/135/126 134/134/126 138/138/126
f 121/121/127 133/133/127 135/135/127 122/122/127
f 136/136/128 125/125/128 124/124/128 137/137/128
f 151/151/129 145/145/129 147/147/129 152/152/129
f 146/209/130 148/148/130 150/150/130 147/210/130
f 149/149/131 154/154/131 156/156/131 150/150/131
f 155/155/132 153/211/132 152/212/132 156/156/132
f 163/163/133 151/151/133 153/153/133 164/164/133
f 154/154/134 166/166/134 168/168/134 155/155/134
f 167/167/135 165/165/135 164/164/135 168/168/135
f 157/157/136 163/163/136 165/165/136 158/158/136
f 166/166/137 160/160/137 162/162/137 167/167/137
f 161/161/138 159/159/138 158/158/138 162/162/138
f 145/145/139 157/157/139 159/159/139 146/146/139
f 160/160/140 149/213/140 148/214/140 161/161/140
f 7/7/141 19/19/141 13/13/141 1/1/141
f 3/170/142 6/6/142 12/12/142 8/172/142
f 15/15/143 17/17/143 4/174/143 2/215/143
f 22/22/144 10/216/144 5/217/144 16/16/144
f 9/171/145 11/11/145 24/24/145 20/20/145
f 21/21/146 23/23/146 18/18/146 14/14/146
f 31/31/147 43/43/147 37/37/147 25/25/147
f 27/176/148 30/30/148 36/36/148 32/178/148
f 39/39/149 41/41/149 28/180/149 26/218/149
f 46/46/150 34/219/150 29/220/150 40/40/150
f 33/177/151 35/35/151 48/48/151 44/44/151
f 45/45/152 47/47/152 42/42/152 38/38/152
f 55/181/153 67/67/153 61/61/153 49/183/153
f 51/51/154 54/54/154 60/60/154 56/56/154
f 63/63/155 65/65/155 52/186/155 50/221/155
f 70/70/156 58/222/156 53/223/156 64/64/156
f 57/57/157 59/59/157 72/72/157 68/68/157
f 69/69/158 71/71/158 66/66/158 62/62/158
f 79/79/159 91/91/159 85/85/159 73/73/159
f 75/224/160 78/225/160 84/84/160 80/194/160
f 87/87/161 89/89/161 76/76/161 74/187/161
f 94/94/162 82/190/162 77/189/162 88/88/162
f 81/193/163 83/83/163 96/96/163 92/92/163
f 93/93/164 95/95/164 90/90/164 86/86/164
f 103/103/165 115/115/165 109/109/165 97/97/165
f 99/196/166 102/102/166 108/108/166 104/198/166
f 111/111/167 113/113/167 100/200/167 98/226/167
f 118/118/168 106/227/168 101/228/168 112/112/168
f 105/197/169 107/107/169 120/120/169 116/116/169
f 117/117/170 119/119/170 114/114/170 110/110/170
f 127/127/171 139/139/171 133/133/171 121/121/171
f 123/229/172 126/230/172 132/132/172 128/208/172
f 135/135/173 137/137/173 124/124/173 122/201/173
f 142/142/174 130/204/174 125/203/174 136/136/174
f 129/207/175 131/131/175 144/144/175 140/140/175
f 141/141/176 143/143/176 138/138/176 134/134/176
f 151/151/177 163/163/177 157/157/177 145/145/177
f 147/210/178 150/150/178 156/156/178 152/212/178
f 159/159/179 161/161/179 148/214/179 146/231/179
f 166/166/180 154/232/180 149/233/180 160/160/180
f 153/211/181 155/155/181 168/168/181 164/164/181
f 165/165/182 167/167/182 162/162/182 158/158/182
