# Blender 5.2.2 LTS
# www.blender.org
o wall
v -0.475000 -0.000000 0.475000
v -0.475000 0.015000 0.490000
v -0.490000 0.015000 0.475000
v -0.475000 0.535000 0.490000
v -0.475000 0.550000 0.475000
v -0.490000 0.535000 0.475000
v -0.475000 -0.000000 -0.475000
v -0.490000 0.015000 -0.475000
v -0.475000 0.015000 -0.490000
v -0.475000 0.550000 -0.475000
v -0.475000 0.535000 -0.490000
v -0.490000 0.535000 -0.475000
v 0.475000 -0.000000 0.475000
v 0.490000 0.015000 0.475000
v 0.475000 0.015000 0.490000
v 0.475000 0.550000 0.475000
v 0.475000 0.535000 0.490000
v 0.490000 0.535000 0.475000
v 0.475000 -0.000000 -0.475000
v 0.475000 0.015000 -0.490000
v 0.490000 0.015000 -0.475000
v 0.475000 0.550000 -0.475000
v 0.490000 0.535000 -0.475000
v 0.475000 0.535000 -0.490000
v -0.435000 0.550000 0.435000
v -0.435000 0.565000 0.450000
v -0.450000 0.565000 0.435000
v -0.435000 0.755000 0.450000
v -0.435000 0.770000 0.435000
v -0.450000 0.755000 0.435000
v -0.435000 0.550000 0.165000
v -0.450000 0.565000 0.165000
v -0.435000 0.565000 0.150000
v -0.435000 0.770000 0.165000
v -0.435000 0.755000 0.150000
v -0.450000 0.755000 0.165000
v -0.165000 0.550000 0.435000
v -0.150000 0.565000 0.435000
v -0.165000 0.565000 0.450000
v -0.165000 0.770000 0.435000
v -0.165000 0.755000 0.450000
v -0.150000 0.755000 0.435000
v -0.165000 0.550000 0.165000
v -0.165000 0.565000 0.150000
v -0.150000 0.565000 0.165000
v -0.165000 0.770000 0.165000
v -0.150000 0.755000 0.165000
v -0.165000 0.755000 0.150000
v -0.435000 0.550000 -0.165000
v -0.435000 0.565000 -0.150000
v -0.450000 0.565000 -0.165000
v -0.435000 0.755000 -0.150000
v -0.435000 0.770000 -0.165000
v -0.450000 0.755000 -0.165000
v -0.435000 0.550000 -0.435000
v -0.450000 0.565000 -0.435000
v -0.435000 0.565000 -0.450000
v -0.435000 0.770000 -0.435000
v -0.435000 0.755000 -0.450000
v -0.450000 0.755000 -0.435000
v -0.165000 0.550000 -0.165000
v -0.150000 0.565000 -0.165000
v -0.165000 0.565000 -0.150000
v -0.165000 0.770000 -0.165000
v -0.165000 0.755000 -0.150000
v -0.150000 0.755000 -0.165000
v -0.165000 0.550000 -0.435000
v -0.165000 0.565000 -0.450000
v -0.150000 0.565000 -0.435000
v -0.165000 0.770000 -0.435000
v -0.150000 0.755000 -0.435000
v -0.165000 0.755000 -0.450000
v 0.165000 0.550000 0.435000
v 0.165000 0.565000 0.450000
v 0.150000 0.565000 0.435000
v 0.165000 0.755000 0.450000
v 0.165000 0.770000 0.435000
v 0.150000 0.755000 0.435000
v 0.165000 0.550000 0.165000
v 0.150000 0.565000 0.165000
v 0.165000 0.565000 0.150000
v 0.165000 0.770000 0.165000
v 0.165000 0.755000 0.150000
v 0.150000 0.755000 0.165000
v 0.435000 0.550000 0.435000
v 0.450000 0.565000 0.435000
v 0.435000 0.565000 0.450000
v 0.435000 0.770000 0.435000
v 0.435000 0.755000 0.450000
v 0.450000 0.755000 0.435000
v 0.435000 0.550000 0.165000
v 0.435000 0.565000 0.150000
v 0.450000 0.565000 0.165000
v 0.435000 0.770000 0.165000
v 0.450000 0.755000 0.165000
v 0.435000 0.755000 0.150000
v 0.165000 0.550000 -0.165000
v 0.165000 0.565000 -0.150000
v 0.150000 0.565000 -0.165000
v 0.165000 0.755000 -0.150000
v 0.165000 0.770000 -0.165000
v 0.150000 0.755000 -0.165000
v 0.165000 0.550000 -0.435000
v 0.150000 0.565000 -0.435000
v 0.165000 0.565000 -0.450000
v 0.165000 0.770000 -0.435000
v 0.165000 0.755000 -0.450000
v 0.150000 0.755000 -0.435000
v 0.435000 0.550000 -0.165000
v 0.450000 0.565000 -0.165000
v 0.435000 0.565000 -0.150000
v 0.435000 0.770000 -0.165000
v 0.435000 0.755000 -0.150000
v 0.450000 0.755000 -0.165000
v 0.435000 0.550000 -0.435000
v 0.435000 0.565000 -0.450000
v 0.450000 0.565000 -0.435000
v 0.435000 0.770000 -0.435000
v 0.450000 0.755000 -0.435000
v 0.435000 0.755000 -0.450000
vn -0.5773 -0.5774 0.5774
vn -0.5774 0.5774 0.5774
vn -0.5773 -0.5774 -0.5774
vn -0.5774 0.5774 -0.5774
vn 0.5773 -0.5774 0.5774
vn 0.5774 0.5774 0.5774
vn 0.5773 -0.5774 -0.5774
vn 0.5774 0.5774 -0.5774
vn -0.5774 -0.5774 -0.5774
vn -0.5773 0.5774 -0.5774
vn 0.5774 -0.5774 -0.5774
vn 0.5773 0.5774 -0.5774
vn -0.5774 -0.5774 0.5774
vn -0.5773 0.5774 0.5774
vn 0.5774 -0.5774 0.5774
vn 0.5773 0.5774 0.5774
vn -0.7071 -0.7071 -0.0000
vn -0.7071 -0.0000 0.7071
vn -0.7071 0.7071 -0.0000
vn -0.7071 -0.0000 -0.7071
vn -0.0000 -0.7071 -0.7071
vn -0.0000 0.7071 -0.7071
vn 0.7071 -0.0000 -0.7071
vn 0.7071 -0.7071 -0.0000
vn 0.7071 0.7071 -0.0000
vn 0.7071 -0.0000 0.7071
vn -0.0000 -0.7071 0.7071
vn -0.0000 0.7071 0.7071
vn -0.0000 -1.0000 -0.0000
vn -1.0000 -0.0000 -0.0000
vn -0.0000 -0.0000 1.0000
vn -0.0000 1.0000 -0.0000
vn -0.0000 -0.0000 -1.0000
vn 1.0000 -0.0000 -0.0000
vt 0.128827 0.746173
vt 0.128827 0.750000
vt 0.125000 0.746173
vt 0.618182 0.000000
vt 0.625000 0.003827
vt 0.618182 0.003827
vt 0.128827 0.503826
vt 0.125000 0.503826
vt 0.128827 0.500000
vt 0.625000 0.248725
vt 0.618182 0.252870
vt 0.618182 0.246173
vt 0.371173 0.746173
vt 0.380114 0.746174
vt 0.376496 0.751913
vt 0.626913 0.750000
vt 0.618182 0.753827
vt 0.618182 0.747130
vt 0.371173 0.503826
vt 0.376496 0.498087
vt 0.380114 0.503827
vt 0.626913 0.500000
vt 0.618182 0.502870
vt 0.618182 0.496173
vt 0.137500 0.737500
vt 0.137500 0.750000
vt 0.125000 0.737500
vt 0.607955 0.000000
vt 0.625000 0.012500
vt 0.607955 0.012500
vt 0.137500 0.512500
vt 0.125000 0.512500
vt 0.137500 0.500000
vt 0.625000 0.245833
vt 0.607955 0.259375
vt 0.607955 0.237500
vt 0.362500 0.737500
vt 0.387784 0.737500
vt 0.377273 0.756250
vt 0.631250 0.750000
vt 0.607955 0.762500
vt 0.607955 0.740625
vt 0.362500 0.512500
vt 0.377273 0.493750
vt 0.387784 0.512500
vt 0.631250 0.500000
vt 0.607955 0.509375
vt 0.607955 0.487500
vt 0.137500 0.737500
vt 0.625000 0.012500
vt 0.607955 0.012500
vt 0.137500 0.512500
vt 0.607955 0.259375
vt 0.607955 0.237500
vt 0.362500 0.737500
vt 0.387784 0.737500
vt 0.631250 0.750000
vt 0.607955 0.740625
vt 0.362500 0.512500
vt 0.377273 0.493750
vt 0.387784 0.512500
vt 0.631250 0.500000
vt 0.607955 0.509375
vt 0.137500 0.512500
vt 0.377273 0.756250
vt 0.607955 0.762500
vt 0.362500 0.512500
vt 0.377273 0.493750
vt 0.607955 0.487500
vt 0.137500 0.737500
vt 0.137500 0.512500
vt 0.362500 0.737500
vt 0.381818 0.000000
vt 0.381818 0.003827
vt 0.381818 0.253827
vt 0.381818 0.246173
vt 0.625000 0.996174
vt 0.618182 0.996173
vt 0.392045 0.000000
vt 0.392045 0.012500
vt 0.392045 0.262500
vt 0.392045 0.237500
vt 0.625000 0.987500
vt 0.607955 0.987500
vt 0.392045 0.012500
vt 0.392045 0.237500
vt 0.392045 0.262500
vt 0.607955 0.987500
vt 0.381818 0.996174
vt 0.871173 0.503826
vt 0.871174 0.746173
vt 0.392045 0.987500
vt 0.862500 0.512500
vt 0.862500 0.737500
vt 0.862500 0.512500
vt 0.862500 0.737500
vt 0.392045 0.987500
vt 0.862500 0.512500
s 0
f 1/1/1 2/2/1 3/3/1
f 4/4/2 5/5/2 6/6/2
f 7/7/3 8/8/3 9/9/3
f 10/10/4 11/11/4 12/12/4
f 13/13/5 14/14/5 15/15/5
f 16/16/6 17/17/6 18/18/6
f 19/19/7 20/20/7 21/21/7
f 22/22/8 23/23/8 24/24/8
f 25/25/1 26/26/1 27/27/1
f 28/28/2 29/29/2 30/30/2
f 31/31/9 32/32/9 33/33/9
f 34/34/10 35/35/10 36/36/10
f 37/37/5 38/38/5 39/39/5
f 40/40/6 41/41/6 42/42/6
f 43/43/11 44/44/11 45/45/11
f 46/46/12 47/47/12 48/48/12
f 49/49/13 50/26/13 51/27/13
f 52/28/14 53/50/14 54/51/14
f 55/52/3 56/32/3 57/33/3
f 58/34/4 59/53/4 60/54/4
f 61/55/15 62/56/15 63/39/15
f 64/57/16 65/41/16 66/58/16
f 67/59/7 68/60/7 69/61/7
f 70/62/8 71/63/8 72/48/8
f 73/25/1 74/26/1 75/27/1
f 76/28/2 77/29/2 78/30/2
f 79/64/9 80/32/9 81/33/9
f 82/34/10 83/35/10 84/36/10
f 85/55/5 86/38/5 87/65/5
f 88/57/6 89/66/6 90/42/6
f 91/67/11 92/68/11 93/45/11
f 94/62/12 95/47/12 96/69/12
f 97/70/13 98/26/13 99/27/13
f 100/28/14 101/50/14 102/51/14
f 103/71/3 104/32/3 105/33/3
f 106/34/4 107/53/4 108/54/4
f 109/72/15 110/56/15 111/65/15
f 112/40/16 113/66/16 114/58/16
f 115/67/7 116/68/7 117/61/7
f 118/62/8 119/63/8 120/69/8
f 7/7/17 1/1/17 3/3/17 8/8/17
f 2/73/18 4/4/18 6/6/18 3/74/18
f 5/5/19 10/10/19 12/12/19 6/6/19
f 11/11/20 9/75/20 8/76/20 12/12/20
f 19/19/21 7/7/21 9/9/21 20/20/21
f 10/10/22 22/22/22 24/24/22 11/11/22
f 23/23/23 21/21/23 20/20/23 24/24/23
f 13/13/24 19/19/24 21/21/24 14/14/24
f 22/22/25 16/16/25 18/18/25 23/23/25
f 17/17/26 15/15/26 14/14/26 18/18/26
f 1/1/27 13/13/27 15/15/27 2/2/27
f 16/16/28 5/77/28 4/78/28 17/17/28
f 31/31/17 25/25/17 27/27/17 32/32/17
f 26/79/18 28/28/18 30/30/18 27/80/18
f 29/29/19 34/34/19 36/36/19 30/30/19
f 35/35/20 33/81/20 32/82/20 36/36/20
f 43/43/21 31/31/21 33/33/21 44/44/21
f 34/34/22 46/46/22 48/48/22 35/35/22
f 47/47/23 45/45/23 44/44/23 48/48/23
f 37/37/24 43/43/24 45/45/24 38/38/24
f 46/46/25 40/40/25 42/42/25 47/47/25
f 41/41/26 39/39/26 38/38/26 42/42/26
f 25/25/27 37/37/27 39/39/27 26/26/27
f 40/40/28 29/83/28 28/84/28 41/41/28
f 55/52/17 49/49/17 51/27/17 56/32/17
f 50/79/18 52/28/18 54/51/18 51/85/18
f 53/50/19 58/34/19 60/54/19 54/51/19
f 59/53/20 57/81/20 56/86/20 60/54/20
f 67/59/21 55/52/21 57/33/21 68/60/21
f 58/34/22 70/62/22 72/48/22 59/53/22
f 71/63/23 69/61/23 68/60/23 72/48/23
f 61/55/24 67/59/24 69/61/24 62/56/24
f 70/62/25 64/57/25 66/58/25 71/63/25
f 65/41/26 63/39/26 62/56/26 66/58/26
f 49/49/27 61/55/27 63/39/27 50/26/27
f 64/57/28 53/83/28 52/84/28 65/41/28
f 79/64/17 73/25/17 75/27/17 80/32/17
f 74/79/18 76/28/18 78/30/18 75/80/18
f 77/29/19 82/34/19 84/36/19 78/30/19
f 83/35/20 81/87/20 80/82/20 84/36/20
f 91/67/21 79/64/21 81/33/21 92/68/21
f 82/34/22 94/62/22 96/69/22 83/35/22
f 95/47/23 93/45/23 92/68/23 96/69/23
f 85/55/24 91/67/24 93/45/24 86/38/24
f 94/62/25 88/57/25 90/42/25 95/47/25
f 89/66/26 87/65/26 86/38/26 90/42/26
f 73/25/27 85/55/27 87/65/27 74/26/27
f 88/57/28 77/83/28 76/88/28 89/66/28
f 103/71/17 97/70/17 99/27/17 104/32/17
f 98/79/18 100/28/18 102/51/18 99/85/18
f 101/50/19 106/34/19 108/54/19 102/51/19
f 107/53/20 105/87/20 104/86/20 108/54/20
f 115/67/21 103/71/21 105/33/21 116/68/21
f 106/34/22 118/62/22 120/69/22 107/53/22
f 119/63/23 117/61/23 116/68/23 120/69/23
f 109/72/24 115/67/24 117/61/24 110/56/24
f 118/62/25 112/40/25 114/58/25 119/63/25
f 113/66/26 111/65/26 110/56/26 114/58/26
f 97/70/27 109/72/27 111/65/27 98/26/27
f 112/40/28 101/83/28 100/88/28 113/66/28
f 7/7/29 19/19/29 13/13/29 1/1/29
f 3/74/30 6/6/30 12/12/30 8/76/30
f 15/15/31 17/17/31 4/78/31 2/89/31
f 22/22/32 10/90/32 5/91/32 16/16/32
f 9/75/33 11/11/33 24/24/33 20/20/33
f 21/21/34 23/23/34 18/18/34 14/14/34
f 31/31/29 43/43/29 37/37/29 25/25/29
f 27/80/30 30/30/30 36/36/30 32/82/30
f 39/39/31 41/41/31 28/84/31 26/92/31
f 46/46/32 34/93/32 29/94/32 40/40/32
f 33/81/33 35/35/33 48/48/33 44/44/33
f 45/45/34 47/47/34 42/42/34 38/38/34
f 55/52/29 67/59/29 61/55/29 49/49/29
f 51/85/30 54/51/30 60/54/30 56/86/30
f 63/39/31 65/41/31 52/84/31 50/92/31
f 70/62/32 58/95/32 53/96/32 64/57/32
f 57/81/33 59/53/33 72/48/33 68/60/33
f 69/61/34 71/63/34 66/58/34 62/56/34
f 79/64/29 91/67/29 85/55/29 73/25/29
f 75/80/30 78/30/30 84/36/30 80/82/30
f 87/65/31 89/66/31 76/88/31 74/97/31
f 94/62/32 82/98/32 77/94/32 88/57/32
f 81/87/33 83/35/33 96/69/33 92/68/33
f 93/45/34 95/47/34 90/42/34 86/38/34
f 103/71/29 115/67/29 109/72/29 97/70/29
f 99/85/30 102/51/30 108/54/30 104/86/30
f 111/65/31 113/66/31 100/88/31 98/97/31
f 118/62/32 106/95/32 101/94/32 112/40/32
f 105/87/33 107/53/33 120/69/33 116/68/33
f 117/61/34 119/63/34 114/58/34 110/56/34
