# Blender 5.2.2 LTS
# www.blender.org
o amoeba
v 0.000000 -0.500000 0.000000
v 0.363996 -0.224965 0.264455
v -0.143745 -0.232592 0.442409
v -0.453084 -0.226543 0.000000
v -0.133852 -0.216585 -0.411962
v 0.345627 -0.213612 -0.251110
v 0.140695 0.227657 0.433023
v -0.360735 0.222950 0.262087
v -0.348093 0.215136 -0.252901
v 0.133052 0.215290 -0.409499
v 0.458396 0.229199 0.000000
v 0.000000 0.500000 0.000000
v -0.116825 -0.329928 0.359555
v -0.080277 -0.420351 0.247072
v -0.038170 -0.476073 0.117476
v 0.099428 -0.473671 0.072238
v 0.203012 -0.406029 0.147495
v 0.301386 -0.325106 0.218968
v 0.260364 -0.245857 0.333672
v 0.123009 -0.246018 0.378576
v -0.014761 -0.250160 0.430387
v 0.412143 -0.254721 -0.149718
v 0.430984 -0.266366 0.000000
v 0.408417 -0.252419 0.148364
v 0.100829 -0.480346 -0.073255
v 0.219023 -0.438051 -0.159128
v 0.311462 -0.335975 -0.226288
v -0.394094 -0.343918 0.000000
v -0.280003 -0.453057 0.000000
v -0.132279 -0.509818 0.000000
v -0.240044 -0.249135 0.355407
v -0.337359 -0.257722 0.245105
v -0.403306 -0.243764 0.115915
v -0.112282 -0.317100 -0.345575
v -0.076072 -0.398333 -0.234131
v -0.038252 -0.477096 -0.117729
v -0.444657 -0.268757 -0.127799
v -0.342934 -0.261982 -0.249155
v -0.224589 -0.233095 -0.332525
v -0.014263 -0.241710 -0.415849
v 0.129619 -0.259239 -0.398920
v 0.259402 -0.244948 -0.332438
v 0.481362 0.126375 0.074280
v 0.481936 -0.000000 0.156588
v 0.417181 -0.121733 0.214654
v 0.406068 -0.118490 -0.208936
v 0.454331 0.000000 -0.147619
v 0.471157 0.123696 -0.072705
v 0.080978 0.131030 0.498459
v 0.000000 -0.000000 0.500000
v -0.082876 -0.134100 0.510140
v 0.337981 -0.123530 0.335303
v 0.277811 0.000000 0.382373
v 0.211391 0.121767 0.418987
v -0.433696 0.126552 0.223151
v -0.500598 -0.000000 0.162652
v -0.497477 -0.130606 0.076766
v -0.215485 -0.124125 0.427102
v -0.281930 0.000000 0.388044
v -0.342421 0.125153 0.339709
v -0.352645 0.128889 -0.349852
v -0.280963 -0.000000 -0.386712
v -0.203504 -0.117224 -0.403355
v -0.492950 -0.129418 -0.076068
v -0.455208 0.000000 -0.147904
v -0.434001 0.126641 -0.223308
v 0.219920 0.126680 -0.435893
v 0.291771 -0.000000 -0.401588
v 0.329536 -0.120443 -0.326926
v -0.074039 -0.119802 -0.455747
v 0.000000 0.000000 -0.500000
v 0.078461 0.126956 -0.482962
v 0.415873 0.251360 0.119527
v 0.326990 0.249801 0.237571
v 0.235291 0.244203 0.348371
v 0.014776 0.250410 0.430818
v -0.133581 0.267163 0.411114
v -0.267605 0.252695 0.342952
v -0.402918 0.249020 0.146367
v -0.437296 0.270267 0.000000
v -0.387415 0.239438 -0.140735
v -0.260420 0.245909 -0.333743
v -0.132198 0.264395 -0.406854
v 0.014892 0.252377 -0.434202
v 0.243798 0.253032 -0.360966
v 0.334363 0.255434 -0.242928
v 0.422233 0.255204 -0.121355
v 0.039276 0.489872 0.120882
v 0.077465 0.405624 0.238416
v 0.112975 0.319057 0.347708
v 0.399219 0.348391 0.000000
v 0.264561 0.428070 0.000000
v 0.119942 0.462270 0.000000
v -0.102901 0.490219 0.074761
v -0.214251 0.428507 0.155661
v -0.297982 0.321433 0.216494
v -0.101796 0.484954 -0.073958
v -0.220089 0.440183 -0.159902
v -0.300149 0.323771 -0.218069
v 0.039104 0.487727 -0.120352
v 0.083971 0.439689 -0.258439
v 0.119379 0.337142 -0.367417
v 0.180597 0.446464 -0.131211
v 0.327121 0.370904 -0.134737
v 0.230985 0.373747 -0.271540
v -0.067346 0.435871 -0.207265
v -0.027607 0.378424 -0.359896
v -0.180600 0.361202 -0.293399
v -0.228846 0.457697 0.000000
v -0.335720 0.362141 -0.081304
v -0.343177 0.370186 0.083110
v -0.068108 0.440801 0.209610
v -0.172003 0.344008 0.279432
v -0.024074 0.329997 0.313840
v 0.174028 0.430225 0.126439
v 0.221458 0.358332 0.260340
v 0.321812 0.364883 0.132550
v 0.430184 0.137968 -0.212307
v 0.415219 0.000000 -0.301672
v 0.334662 0.137890 -0.343327
v -0.069293 0.138585 -0.476859
v -0.152287 -0.000000 -0.468692
v -0.220266 0.136134 -0.418969
v -0.442168 0.129024 -0.075837
v -0.500000 0.000000 0.000000
v -0.462487 0.134954 0.079322
v -0.226249 0.139831 0.430347
v -0.157779 -0.000000 0.485593
v -0.071173 0.142345 0.489797
v 0.311138 0.128197 0.319194
v 0.402974 -0.000001 0.292776
v 0.438421 0.140609 0.216373
v 0.163042 -0.000000 -0.501792
v 0.221446 -0.136863 -0.421212
v 0.066449 -0.132897 -0.457284
v -0.418183 -0.000000 -0.303826
v -0.313334 -0.129103 -0.321448
v -0.439248 -0.140875 -0.216781
v -0.389379 0.000000 0.282899
v -0.446120 -0.143079 0.220173
v -0.317327 -0.130748 0.325544
v 0.158494 0.000000 0.487795
v 0.071335 -0.142670 0.490911
v 0.210366 -0.130015 0.400136
v 0.500000 0.000000 0.000000
v 0.481186 -0.140410 0.082529
v 0.475605 -0.138781 -0.081572
v 0.186146 -0.372294 -0.302409
v 0.067064 -0.434045 -0.206398
v 0.025115 -0.344260 -0.327407
v -0.222759 -0.360436 -0.261868
v -0.179736 -0.444335 -0.130585
v -0.338246 -0.383516 -0.139318
v -0.328374 -0.372322 0.135253
v -0.190454 -0.470831 0.138373
v -0.234305 -0.379118 0.275443
v 0.332545 -0.358717 -0.080535
v 0.325304 -0.350905 0.078782
v 0.224705 -0.449413 0.000000
v 0.026596 -0.364554 0.346707
v 0.070778 -0.458078 0.217826
v 0.176886 -0.353772 0.287364
vn 0.1022 -0.9946 0.0156
vn 0.7203 -0.4163 0.5549
vn -0.3369 -0.5060 0.7940
vn -0.8866 -0.4423 0.1352
vn -0.3488 -0.4145 -0.8406
vn 0.7451 -0.3062 -0.5925
vn 0.3609 0.5111 0.7801
vn -0.7146 0.4840 0.5051
vn -0.7157 0.5325 -0.4518
vn 0.2773 0.4297 -0.8593
vn 0.9377 0.3473 0.0035
vn 0.0798 0.9967 -0.0165
vn -0.1909 -0.6827 0.7053
vn -0.1017 -0.8545 0.5093
vn 0.0101 -0.9628 0.2701
vn 0.2397 -0.9575 0.1601
vn 0.4612 -0.8334 0.3046
vn 0.5492 -0.7235 0.4183
vn 0.4310 -0.4801 0.7640
vn 0.3413 -0.5115 0.7886
vn 0.1082 -0.5866 0.8026
vn 0.8192 -0.4404 -0.3675
vn 0.8210 -0.5707 0.0148
vn 0.7925 -0.5250 0.3105
vn 0.1609 -0.9750 -0.1533
vn 0.3891 -0.8779 -0.2790
vn 0.6604 -0.5822 -0.4742
vn -0.7960 -0.5941 0.1157
vn -0.5136 -0.8577 -0.0251
vn -0.1421 -0.9882 -0.0569
vn -0.5901 -0.4099 0.6956
vn -0.7149 -0.4481 0.5368
vn -0.8047 -0.5125 0.2998
vn -0.2157 -0.6694 -0.7108
vn -0.1105 -0.8317 -0.5441
vn -0.0427 -0.9234 -0.3814
vn -0.8441 -0.4598 -0.2759
vn -0.5757 -0.4316 -0.6945
vn -0.4935 -0.4135 -0.7652
vn -0.0383 -0.5019 -0.8641
vn 0.1994 -0.5025 -0.8413
vn 0.5830 -0.4105 -0.7012
vn 0.9652 0.2298 0.1246
vn 0.9429 -0.0348 0.3314
vn 0.8462 -0.2367 0.4774
vn 0.8463 -0.2488 -0.4710
vn 0.9504 -0.0348 -0.3090
vn 0.9664 0.1581 -0.2027
vn 0.1899 0.2537 0.9484
vn 0.0067 0.0228 0.9997
vn -0.1638 -0.2324 0.9587
vn 0.6294 -0.2040 0.7498
vn 0.6110 0.0270 0.7912
vn 0.6160 0.2233 0.7554
vn -0.8449 0.2695 0.4621
vn -0.9391 0.0805 0.3340
vn -0.9434 -0.3058 0.1281
vn -0.6142 -0.1937 0.7650
vn -0.6576 -0.0717 0.7500
vn -0.7005 0.1617 0.6951
vn -0.6333 0.2928 -0.7163
vn -0.5203 -0.1320 -0.8437
vn -0.4928 -0.2874 -0.8213
vn -0.9758 -0.1262 -0.1788
vn -0.9646 0.1017 -0.2431
vn -0.9008 0.3204 -0.2930
vn 0.4519 0.3180 -0.8335
vn 0.6296 -0.0513 -0.7752
vn 0.7004 -0.3246 -0.6357
vn -0.1850 -0.2956 -0.9372
vn -0.0833 -0.0877 -0.9927
vn 0.1353 0.3267 -0.9354
vn 0.7965 0.4852 0.3607
vn 0.6552 0.4782 0.5848
vn 0.5878 0.4576 0.6672
vn 0.0085 0.6585 0.7525
vn -0.2149 0.6555 0.7239
vn -0.5243 0.5674 0.6349
vn -0.8148 0.4787 0.3270
vn -0.8978 0.4344 -0.0724
vn -0.8307 0.4531 -0.3234
vn -0.5490 0.5176 -0.6563
vn -0.3286 0.4805 -0.8131
vn 0.0659 0.4456 -0.8928
vn 0.5064 0.4584 -0.7303
vn 0.7076 0.4776 -0.5208
vn 0.8342 0.4321 -0.3426
vn 0.1713 0.9445 0.2803
vn 0.1297 0.8107 0.5710
vn 0.1475 0.7454 0.6501
vn 0.7421 0.6696 0.0294
vn 0.3937 0.9180 0.0482
vn 0.2897 0.9565 0.0344
vn -0.1880 0.9667 0.1733
vn -0.4016 0.8157 0.4164
vn -0.5644 0.6663 0.4874
vn -0.1567 0.9707 -0.1820
vn -0.4096 0.8404 -0.3550
vn -0.6782 0.5674 -0.4670
vn 0.0817 0.9773 -0.1955
vn 0.1333 0.8868 -0.4426
vn 0.2637 0.5720 -0.7767
vn 0.3401 0.9246 -0.1715
vn 0.6120 0.7221 -0.3226
vn 0.5012 0.6974 -0.5123
vn -0.1582 0.9004 -0.4054
vn -0.1095 0.7309 -0.6736
vn -0.4002 0.7056 -0.5847
vn -0.4455 0.8952 0.0108
vn -0.7102 0.6663 -0.2272
vn -0.6707 0.7115 0.2097
vn -0.1068 0.8106 0.5758
vn -0.2710 0.7552 0.5969
vn -0.0476 0.7744 0.6309
vn 0.3306 0.9010 0.2808
vn 0.4240 0.7258 0.5418
vn 0.5753 0.7251 0.3786
vn 0.8731 0.2639 -0.4098
vn 0.8323 -0.0843 -0.5479
vn 0.6789 0.3059 -0.6675
vn -0.1812 0.2520 -0.9506
vn -0.3710 -0.0883 -0.9244
vn -0.4462 0.2345 -0.8637
vn -0.9527 0.2495 -0.1739
vn -0.9803 0.1537 -0.1237
vn -0.9515 0.3004 0.0662
vn -0.5073 0.2328 0.8297
vn -0.3960 0.0218 0.9180
vn -0.1555 0.2816 0.9468
vn 0.6355 0.2812 0.7191
vn 0.7401 0.0120 0.6724
vn 0.7900 0.3257 0.5194
vn 0.3036 -0.0574 -0.9511
vn 0.4702 -0.3432 -0.8131
vn 0.0622 -0.3554 -0.9326
vn -0.7879 -0.0763 -0.6111
vn -0.5418 -0.3161 -0.7788
vn -0.8243 -0.2036 -0.5283
vn -0.7146 -0.0387 0.6984
vn -0.7762 -0.3353 0.5339
vn -0.6629 -0.2227 0.7149
vn 0.4385 -0.0397 0.8978
vn 0.2787 -0.3524 0.8934
vn 0.4871 -0.3129 0.8154
vn 0.9968 0.0171 -0.0784
vn 0.9441 -0.2676 0.1924
vn 0.9452 -0.2042 -0.2547
vn 0.2783 -0.7076 -0.6495
vn 0.0065 -0.8803 -0.4744
vn -0.0410 -0.7396 -0.6717
vn -0.3375 -0.6908 -0.6394
vn -0.2377 -0.8772 -0.4171
vn -0.5652 -0.7405 -0.3637
vn -0.7129 -0.6193 0.3291
vn -0.2769 -0.9025 0.3300
vn -0.4470 -0.6753 0.5866
vn 0.6769 -0.7311 -0.0851
vn 0.6220 -0.7611 0.1840
vn 0.4575 -0.8839 0.0967
vn 0.1126 -0.6807 0.7239
vn 0.1820 -0.9016 0.3924
vn 0.3937 -0.6839 0.6143
s 1
f 1//1 16//16 15//15
f 2//2 18//18 24//24
f 1//1 15//15 30//30
f 1//1 30//30 36//36
f 1//1 36//36 25//25
f 2//2 24//24 45//45
f 3//3 21//21 51//51
f 4//4 33//33 57//57
f 5//5 39//39 63//63
f 6//6 42//42 69//69
f 2//2 45//45 52//52
f 3//3 51//51 58//58
f 4//4 57//57 64//64
f 5//5 63//63 70//70
f 6//6 69//69 46//46
f 7//7 75//75 90//90
f 8//8 78//78 96//96
f 9//9 81//81 99//99
f 10//10 84//84 102//102
f 11//11 87//87 91//91
f 93//93 100//100 12//12
f 92//92 103//103 93//93
f 91//91 104//104 92//92
f 93//93 103//103 100//100
f 103//103 101//101 100//100
f 92//92 104//104 103//103
f 104//104 105//105 103//103
f 103//103 105//105 101//101
f 105//105 102//102 101//101
f 91//91 87//87 104//104
f 87//87 86//86 104//104
f 104//104 86//86 105//105
f 86//86 85//85 105//105
f 105//105 85//85 102//102
f 85//85 10//10 102//102
f 100//100 97//97 12//12
f 101//101 106//106 100//100
f 102//102 107//107 101//101
f 100//100 106//106 97//97
f 106//106 98//98 97//97
f 101//101 107//107 106//106
f 107//107 108//108 106//106
f 106//106 108//108 98//98
f 108//108 99//99 98//98
f 102//102 84//84 107//107
f 84//84 83//83 107//107
f 107//107 83//83 108//108
f 83//83 82//82 108//108
f 108//108 82//82 99//99
f 82//82 9//9 99//99
f 97//97 94//94 12//12
f 98//98 109//109 97//97
f 99//99 110//110 98//98
f 97//97 109//109 94//94
f 109//109 95//95 94//94
f 98//98 110//110 109//109
f 110//110 111//111 109//109
f 109//109 111//111 95//95
f 111//111 96//96 95//95
f 99//99 81//81 110//110
f 81//81 80//80 110//110
f 110//110 80//80 111//111
f 80//80 79//79 111//111
f 111//111 79//79 96//96
f 79//79 8//8 96//96
f 94//94 88//88 12//12
f 95//95 112//112 94//94
f 96//96 113//113 95//95
f 94//94 112//112 88//88
f 112//112 89//89 88//88
f 95//95 113//113 112//112
f 113//113 114//114 112//112
f 112//112 114//114 89//89
f 114//114 90//90 89//89
f 96//96 78//78 113//113
f 78//78 77//77 113//113
f 113//113 77//77 114//114
f 77//77 76//76 114//114
f 114//114 76//76 90//90
f 76//76 7//7 90//90
f 88//88 93//93 12//12
f 89//89 115//115 88//88
f 90//90 116//116 89//89
f 88//88 115//115 93//93
f 115//115 92//92 93//93
f 89//89 116//116 115//115
f 116//116 117//117 115//115
f 115//115 117//117 92//92
f 117//117 91//91 92//92
f 90//90 75//75 116//116
f 75//75 74//74 116//116
f 116//116 74//74 117//117
f 74//74 73//73 117//117
f 117//117 73//73 91//91
f 73//73 11//11 91//91
f 48//48 87//87 11//11
f 47//47 118//118 48//48
f 46//46 119//119 47//47
f 48//48 118//118 87//87
f 118//118 86//86 87//87
f 47//47 119//119 118//118
f 119//119 120//120 118//118
f 118//118 120//120 86//86
f 120//120 85//85 86//86
f 46//46 69//69 119//119
f 69//69 68//68 119//119
f 119//119 68//68 120//120
f 68//68 67//67 120//120
f 120//120 67//67 85//85
f 67//67 10//10 85//85
f 72//72 84//84 10//10
f 71//71 121//121 72//72
f 70//70 122//122 71//71
f 72//72 121//121 84//84
f 121//121 83//83 84//84
f 71//71 122//122 121//121
f 122//122 123//123 121//121
f 121//121 123//123 83//83
f 123//123 82//82 83//83
f 70//70 63//63 122//122
f 63//63 62//62 122//122
f 122//122 62//62 123//123
f 62//62 61//61 123//123
f 123//123 61//61 82//82
f 61//61 9//9 82//82
f 66//66 81//81 9//9
f 65//65 124//124 66//66
f 64//64 125//125 65//65
f 66//66 124//124 81//81
f 124//124 80//80 81//81
f 65//65 125//125 124//124
f 125//125 126//126 124//124
f 124//124 126//126 80//80
f 126//126 79//79 80//80
f 64//64 57//57 125//125
f 57//57 56//56 125//125
f 125//125 56//56 126//126
f 56//56 55//55 126//126
f 126//126 55//55 79//79
f 55//55 8//8 79//79
f 60//60 78//78 8//8
f 59//59 127//127 60//60
f 58//58 128//128 59//59
f 60//60 127//127 78//78
f 127//127 77//77 78//78
f 59//59 128//128 127//127
f 128//128 129//129 127//127
f 127//127 129//129 77//77
f 129//129 76//76 77//77
f 58//58 51//51 128//128
f 51//51 50//50 128//128
f 128//128 50//50 129//129
f 50//50 49//49 129//129
f 129//129 49//49 76//76
f 49//49 7//7 76//76
f 54//54 75//75 7//7
f 53//53 130//130 54//54
f 52//52 131//131 53//53
f 54//54 130//130 75//75
f 130//130 74//74 75//75
f 53//53 131//131 130//130
f 131//131 132//132 130//130
f 130//130 132//132 74//74
f 132//132 73//73 74//74
f 52//52 45//45 131//131
f 45//45 44//44 131//131
f 131//131 44//44 132//132
f 44//44 43//43 132//132
f 132//132 43//43 73//73
f 43//43 11//11 73//73
f 67//67 72//72 10//10
f 68//68 133//133 67//67
f 69//69 134//134 68//68
f 67//67 133//133 72//72
f 133//133 71//71 72//72
f 68//68 134//134 133//133
f 134//134 135//135 133//133
f 133//133 135//135 71//71
f 135//135 70//70 71//71
f 69//69 42//42 134//134
f 42//42 41//41 134//134
f 134//134 41//41 135//135
f 41//41 40//40 135//135
f 135//135 40//40 70//70
f 40//40 5//5 70//70
f 61//61 66//66 9//9
f 62//62 136//136 61//61
f 63//63 137//137 62//62
f 61//61 136//136 66//66
f 136//136 65//65 66//66
f 62//62 137//137 136//136
f 137//137 138//138 136//136
f 136//136 138//138 65//65
f 138//138 64//64 65//65
f 63//63 39//39 137//137
f 39//39 38//38 137//137
f 137//137 38//38 138//138
f 38//38 37//37 138//138
f 138//138 37//37 64//64
f 37//37 4//4 64//64
f 55//55 60//60 8//8
f 56//56 139//139 55//55
f 57//57 140//140 56//56
f 55//55 139//139 60//60
f 139//139 59//59 60//60
f 56//56 140//140 139//139
f 140//140 141//141 139//139
f 139//139 141//141 59//59
f 141//141 58//58 59//59
f 57//57 33//33 140//140
f 33//33 32//32 140//140
f 140//140 32//32 141//141
f 32//32 31//31 141//141
f 141//141 31//31 58//58
f 31//31 3//3 58//58
f 49//49 54//54 7//7
f 50//50 142//142 49//49
f 51//51 143//143 50//50
f 49//49 142//142 54//54
f 142//142 53//53 54//54
f 50//50 143//143 142//142
f 143//143 144//144 142//142
f 142//142 144//144 53//53
f 144//144 52//52 53//53
f 51//51 21//21 143//143
f 21//21 20//20 143//143
f 143//143 20//20 144//144
f 20//20 19//19 144//144
f 144//144 19//19 52//52
f 19//19 2//2 52//52
f 43//43 48//48 11//11
f 44//44 145//145 43//43
f 45//45 146//146 44//44
f 43//43 145//145 48//48
f 145//145 47//47 48//48
f 44//44 146//146 145//145
f 146//146 147//147 145//145
f 145//145 147//147 47//47
f 147//147 46//46 47//47
f 45//45 24//24 146//146
f 24//24 23//23 146//146
f 146//146 23//23 147//147
f 23//23 22//22 147//147
f 147//147 22//22 46//46
f 22//22 6//6 46//46
f 27//27 42//42 6//6
f 26//26 148//148 27//27
f 25//25 149//149 26//26
f 27//27 148//148 42//42
f 148//148 41//41 42//42
f 26//26 149//149 148//148
f 149//149 150//150 148//148
f 148//148 150//150 41//41
f 150//150 40//40 41//41
f 25//25 36//36 149//149
f 36//36 35//35 149//149
f 149//149 35//35 150//150
f 35//35 34//34 150//150
f 150//150 34//34 40//40
f 34//34 5//5 40//40
f 34//34 39//39 5//5
f 35//35 151//151 34//34
f 36//36 152//152 35//35
f 34//34 151//151 39//39
f 151//151 38//38 39//39
f 35//35 152//152 151//151
f 152//152 153//153 151//151
f 151//151 153//153 38//38
f 153//153 37//37 38//38
f 36//36 30//30 152//152
f 30//30 29//29 152//152
f 152//152 29//29 153//153
f 29//29 28//28 153//153
f 153//153 28//28 37//37
f 28//28 4//4 37//37
f 28//28 33//33 4//4
f 29//29 154//154 28//28
f 30//30 155//155 29//29
f 28//28 154//154 33//33
f 154//154 32//32 33//33
f 29//29 155//155 154//154
f 155//155 156//156 154//154
f 154//154 156//156 32//32
f 156//156 31//31 32//32
f 30//30 15//15 155//155
f 15//15 14//14 155//155
f 155//155 14//14 156//156
f 14//14 13//13 156//156
f 156//156 13//13 31//31
f 13//13 3//3 31//31
f 22//22 27//27 6//6
f 23//23 157//157 22//22
f 24//24 158//158 23//23
f 22//22 157//157 27//27
f 157//157 26//26 27//27
f 23//23 158//158 157//157
f 158//158 159//159 157//157
f 157//157 159//159 26//26
f 159//159 25//25 26//26
f 24//24 18//18 158//158
f 18//18 17//17 158//158
f 158//158 17//17 159//159
f 17//17 16//16 159//159
f 159//159 16//16 25//25
f 16//16 1//1 25//25
f 13//13 21//21 3//3
f 14//14 160//160 13//13
f 15//15 161//161 14//14
f 13//13 160//160 21//21
f 160//160 20//20 21//21
f 14//14 161//161 160//160
f 161//161 162//162 160//160
f 160//160 162//162 20//20
f 162//162 19//19 20//20
f 15//15 16//16 161//161
f 16//16 17//17 161//161
f 161//161 17//17 162//162
f 17//17 18//18 162//162
f 162//162 18//18 19//19
f 18//18 2//2 19//19
