# Blender 5.2.2 LTS
# www.blender.org
o boulder
v 0.000000 -0.393608 0.000000
v 0.304130 -0.172928 0.220961
v -0.122235 -0.181964 0.376208
v -0.367148 -0.168889 0.000000
v -0.123853 -0.184372 -0.381187
v 0.318813 -0.181277 -0.231629
v 0.111663 0.166226 0.343670
v -0.300722 0.170990 0.218484
v -0.296009 0.168310 -0.215060
v 0.117793 0.175351 -0.362535
v 0.372158 0.171193 0.000000
v 0.000000 0.402084 0.000000
v -0.067741 -0.326329 0.208488
v 0.179786 -0.330809 0.130620
v 0.105258 -0.193675 0.323946
v 0.344339 -0.195791 0.000000
v 0.189047 -0.347850 -0.137349
v -0.231880 -0.345176 0.000000
v -0.320152 -0.225011 0.232603
v -0.065419 -0.315146 -0.201343
v -0.314654 -0.221147 -0.228609
v 0.103783 -0.190961 -0.319405
v 0.417611 0.000000 0.135688
v 0.389940 0.000000 -0.126697
v 0.000000 0.000000 0.417964
v 0.265922 0.000000 0.366010
v -0.414208 0.000000 0.134582
v -0.263356 0.000000 0.362478
v -0.253721 0.000000 -0.349217
v -0.438176 0.000000 -0.142370
v 0.273724 0.000000 -0.376748
v 0.000000 0.000000 -0.447189
v 0.286828 0.201590 0.208392
v -0.112463 0.206932 0.346120
v -0.351929 0.200106 0.000000
v -0.111225 0.204654 -0.342308
v 0.279525 0.196458 -0.203086
v 0.067937 0.327274 0.209092
v 0.215136 0.320251 0.000000
v -0.176360 0.324505 0.128131
v -0.189824 0.349281 -0.137914
v 0.067199 0.323717 -0.206819
vn 0.0873 -0.9394 0.3315
vn 0.7112 -0.6741 0.1992
vn -0.1984 -0.9498 0.2420
vn -0.1950 -0.9336 -0.3005
vn -0.0311 -0.9347 -0.3541
vn 0.8616 -0.4644 0.2048
vn 0.1937 -0.3412 0.9198
vn -0.9330 -0.3440 0.1055
vn -0.5700 -0.2668 -0.7771
vn 0.3399 -0.5348 -0.7736
vn 0.8049 -0.2668 0.5301
vn -0.2054 -0.0857 0.9749
vn -0.9414 -0.3272 0.0815
vn -0.3587 -0.0916 -0.9289
vn 0.9012 -0.1112 -0.4189
vn 0.3765 0.6521 0.6580
vn -0.4870 0.7011 0.5209
vn -0.7689 0.5725 -0.2846
vn 0.0329 0.7289 -0.6838
vn 0.6719 0.7078 -0.2184
vn 0.3458 0.9091 -0.2321
vn 0.4885 0.8053 -0.3360
vn 0.4394 0.7173 -0.5407
vn -0.0022 0.9349 -0.3549
vn -0.0804 0.7988 -0.5962
vn -0.5371 0.5773 -0.6150
vn -0.3361 0.9361 0.1042
vn -0.6243 0.7743 0.1037
vn -0.6748 0.6942 0.2507
vn -0.1337 0.9185 0.3721
vn -0.1776 0.8435 0.5070
vn 0.1273 0.6561 0.7438
vn 0.3473 0.9130 0.2138
vn 0.4747 0.8251 0.3065
vn 0.6780 0.7143 0.1735
vn 0.8677 0.3508 -0.3522
vn 0.8570 0.3268 -0.3983
vn 0.5527 0.5427 -0.6324
vn -0.0219 0.4465 -0.8945
vn -0.3467 0.2717 -0.8978
vn -0.5693 0.4202 -0.7066
vn -0.7894 0.5434 -0.2856
vn -0.9350 0.3454 0.0809
vn -0.8584 0.4421 0.2601
vn -0.5567 0.4606 0.6914
vn -0.2010 0.2220 0.9541
vn 0.0762 0.3637 0.9284
vn 0.4544 0.5190 0.7240
vn 0.7899 0.3248 0.5202
vn 0.8481 0.4486 0.2819
vn 0.2387 0.2875 -0.9276
vn 0.2218 -0.4562 -0.8618
vn 0.2207 -0.4567 -0.8618
vn -0.7060 0.3244 -0.6296
vn -0.7373 -0.1554 -0.6575
vn -0.8847 -0.4555 -0.0990
vn -0.8024 0.2719 0.5312
vn -0.8290 -0.1075 0.5488
vn -0.5056 -0.3320 0.7963
vn 0.1832 0.2960 0.9375
vn 0.1797 -0.3488 0.9198
vn 0.4349 -0.5204 0.7349
vn 0.9786 0.1780 -0.1032
vn 0.9527 -0.2869 -0.1005
vn 0.9460 -0.2999 -0.1230
vn 0.3146 -0.6412 -0.6999
vn 0.0738 -0.7381 -0.6706
vn 0.1436 -0.7776 -0.6121
vn -0.2529 -0.8197 -0.5139
vn -0.2916 -0.8811 -0.3724
vn -0.7926 -0.6082 -0.0430
vn -0.7933 -0.6087 0.0134
vn -0.3233 -0.8852 0.3346
vn -0.2544 -0.7723 0.5821
vn 0.7478 -0.6524 -0.1233
vn 0.6655 -0.7431 0.0703
vn 0.2828 -0.9566 0.0706
vn 0.1160 -0.7338 0.6693
vn 0.1793 -0.7685 0.6142
vn 0.3951 -0.6705 0.6279
s 0
f 1//1 14//1 13//1
f 2//2 14//2 16//2
f 1//3 13//3 18//3
f 1//4 18//4 20//4
f 1//5 20//5 17//5
f 2//6 16//6 23//6
f 3//7 15//7 25//7
f 4//8 19//8 27//8
f 5//9 21//9 29//9
f 6//10 22//10 31//10
f 2//11 23//11 26//11
f 3//12 25//12 28//12
f 4//13 27//13 30//13
f 5//14 29//14 32//14
f 6//15 31//15 24//15
f 7//16 33//16 38//16
f 8//17 34//17 40//17
f 9//18 35//18 41//18
f 10//19 36//19 42//19
f 11//20 37//20 39//20
f 39//21 42//21 12//21
f 39//22 37//22 42//22
f 37//23 10//23 42//23
f 42//24 41//24 12//24
f 42//25 36//25 41//25
f 36//26 9//26 41//26
f 41//27 40//27 12//27
f 41//28 35//28 40//28
f 35//29 8//29 40//29
f 40//30 38//30 12//30
f 40//31 34//31 38//31
f 34//32 7//32 38//32
f 38//33 39//33 12//33
f 38//34 33//34 39//34
f 33//35 11//35 39//35
f 24//36 37//36 11//36
f 24//37 31//37 37//37
f 31//38 10//38 37//38
f 32//39 36//39 10//39
f 32//40 29//40 36//40
f 29//41 9//41 36//41
f 30//42 35//42 9//42
f 30//43 27//43 35//43
f 27//44 8//44 35//44
f 28//45 34//45 8//45
f 28//46 25//46 34//46
f 25//47 7//47 34//47
f 26//48 33//48 7//48
f 26//49 23//49 33//49
f 23//50 11//50 33//50
f 31//51 32//51 10//51
f 31//52 22//52 32//52
f 22//53 5//53 32//53
f 29//54 30//54 9//54
f 29//55 21//55 30//55
f 21//56 4//56 30//56
f 27//57 28//57 8//57
f 27//58 19//58 28//58
f 19//59 3//59 28//59
f 25//60 26//60 7//60
f 25//61 15//61 26//61
f 15//62 2//62 26//62
f 23//63 24//63 11//63
f 23//64 16//64 24//64
f 16//65 6//65 24//65
f 17//66 22//66 6//66
f 17//67 20//67 22//67
f 20//68 5//68 22//68
f 20//69 21//69 5//69
f 20//70 18//70 21//70
f 18//71 4//71 21//71
f 18//72 19//72 4//72
f 18//73 13//73 19//73
f 13//74 3//74 19//74
f 16//75 17//75 6//75
f 16//76 14//76 17//76
f 14//77 1//77 17//77
f 13//78 15//78 3//78
f 13//79 14//79 15//79
f 14//80 2//80 15//80
