# Blender 5.2.2 LTS
# www.blender.org
o butterfly
v -0.020000 0.050000 0.000000
v -0.420000 0.360000 0.000000
v -0.440000 -0.050000 0.000000
v -0.300000 -0.320000 0.000000
v -0.030000 -0.080000 0.000000
v 0.020000 0.050000 0.000000
v 0.420000 0.360000 0.000000
v 0.440000 -0.050000 0.000000
v 0.300000 -0.320000 0.000000
v 0.030000 -0.080000 0.000000
v -0.030000 -0.080000 0.000000
v -0.020000 0.050000 0.000000
v -0.420000 0.360000 0.000000
v -0.440000 -0.050000 0.000000
v -0.300000 -0.320000 0.000000
v 0.020000 0.050000 0.000000
v 0.030000 -0.080000 0.000000
v 0.300000 -0.320000 0.000000
v 0.440000 -0.050000 0.000000
v 0.420000 0.360000 0.000000
v 0.000000 -0.250000 -0.045000
v 0.000000 0.250000 -0.045000
v 0.031820 -0.250000 -0.031820
v 0.031820 0.250000 -0.031820
v 0.045000 -0.250000 0.000000
v 0.045000 0.250000 0.000000
v 0.031820 -0.250000 0.031820
v 0.031820 0.250000 0.031820
v 0.000000 -0.250000 0.045000
v 0.000000 0.250000 0.045000
v -0.031820 -0.250000 0.031820
v -0.031820 0.250000 0.031820
v -0.045000 -0.250000 0.000000
v -0.045000 0.250000 0.000000
v -0.031820 -0.250000 -0.031820
v -0.031820 0.250000 -0.031820
vn -0.0000 -0.0000 -1.0000
vn -0.0000 -0.0000 1.0000
vn -0.0000 1.0000 -0.0000
vn 0.3827 -0.0000 -0.9239
vn 0.9239 -0.0000 -0.3827
vn 0.9239 -0.0000 0.3827
vn 0.3827 -0.0000 0.9239
vn -0.3827 -0.0000 0.9239
vn -0.9239 -0.0000 0.3827
vn -0.9239 -0.0000 -0.3827
vn -0.3827 -0.0000 -0.9239
vn -0.0000 -1.0000 -0.0000
s 0
f 5//1 4//1 3//1 2//1 1//1
f 6//1 7//1 8//1 9//1 10//1
f 11//2 12//2 13//2 14//2 15//2
f 16//2 17//2 18//2 19//2 20//2
f 5//3 1//3 12//3 11//3
f 8//3 7//3 20//3 19//3
f 1//3 2//3 13//3 12//3
f 4//3 5//3 11//3 15//3
f 9//3 8//3 19//3 18//3
f 6//3 10//3 17//3 16//3
f 3//3 4//3 15//3 14//3
f 10//3 9//3 18//3 17//3
f 7//3 6//3 16//3 20//3
f 2//3 3//3 14//3 13//3
f 21//4 22//4 24//4 23//4
f 23//5 24//5 26//5 25//5
f 25//6 26//6 28//6 27//6
f 27//7 28//7 30//7 29//7
f 29//8 30//8 32//8 31//8
f 31//9 32//9 34//9 33//9
f 24//3 22//3 36//3 34//3 32//3 30//3 28//3 26//3
f 33//10 34//10 36//10 35//10
f 35//11 36//11 22//11 21//11
f 21//12 23//12 25//12 27//12 29//12 31//12 33//12 35//12
