# Blender 5.2.2 LTS
# www.blender.org
o diamond
v 0.190000 0.200000 0.000000
v 0.134350 0.200000 -0.134350
v 0.000000 0.200000 -0.190000
v -0.134350 0.200000 -0.134350
v -0.190000 0.200000 -0.000000
v -0.134350 0.200000 0.134350
v -0.000000 0.200000 0.190000
v 0.134350 0.200000 0.134350
v 0.277164 0.130000 -0.114805
v 0.114805 0.130000 -0.277164
v -0.114805 0.130000 -0.277164
v -0.277164 0.130000 -0.114805
v -0.277164 0.130000 0.114805
v -0.114805 0.130000 0.277164
v 0.114805 0.130000 0.277164
v 0.277164 0.130000 0.114805
v 0.380000 0.030000 0.000000
v 0.351074 0.030000 -0.145420
v 0.268701 0.030000 -0.268701
v 0.145420 0.030000 -0.351074
v 0.000000 0.030000 -0.380000
v -0.145420 0.030000 -0.351074
v -0.268701 0.030000 -0.268701
v -0.351074 0.030000 -0.145420
v -0.380000 0.030000 -0.000000
v -0.351074 0.030000 0.145420
v -0.268701 0.030000 0.268701
v -0.145420 0.030000 0.351074
v -0.000000 0.030000 0.380000
v 0.145420 0.030000 0.351074
v 0.268701 0.030000 0.268701
v 0.351074 0.030000 0.145420
v 0.200000 -0.200000 0.000000
v 0.141421 -0.200000 -0.141421
v 0.000000 -0.200000 -0.200000
v -0.141421 -0.200000 -0.141421
v -0.200000 -0.200000 -0.000000
v -0.141421 -0.200000 0.141421
v -0.000000 -0.200000 0.200000
v 0.141421 -0.200000 0.141421
v 0.000000 -0.400000 0.000000
vn -0.0000 1.0000 -0.0000
vn 0.4529 0.8716 -0.1876
vn 0.7132 0.7004 -0.0288
vn 0.6541 0.6173 -0.4371
vn 0.4342 0.7442 -0.5075
vn 0.7780 -0.6089 -0.1548
vn 0.6850 -0.6307 -0.3647
vn 0.6786 -0.6786 -0.2811
vn 0.1876 0.8716 -0.4529
vn 0.4839 0.7004 -0.5247
vn 0.1535 0.6173 -0.7716
vn -0.0518 0.7442 -0.6659
vn 0.4407 -0.6089 -0.6596
vn 0.2264 -0.6307 -0.7423
vn 0.2811 -0.6786 -0.6786
vn -0.1876 0.8716 -0.4529
vn -0.0288 0.7004 -0.7132
vn -0.4371 0.6173 -0.6541
vn -0.5075 0.7442 -0.4342
vn -0.1548 -0.6089 -0.7780
vn -0.3647 -0.6307 -0.6850
vn -0.2811 -0.6786 -0.6786
vn -0.4529 0.8716 -0.1876
vn -0.5247 0.7004 -0.4839
vn -0.7716 0.6173 -0.1535
vn -0.6659 0.7442 0.0518
vn -0.6596 -0.6089 -0.4407
vn -0.7423 -0.6307 -0.2264
vn -0.6786 -0.6786 -0.2811
vn -0.4529 0.8716 0.1876
vn -0.7132 0.7004 0.0288
vn -0.6541 0.6173 0.4371
vn -0.4342 0.7442 0.5075
vn -0.7780 -0.6089 0.1548
vn -0.6850 -0.6307 0.3647
vn -0.6786 -0.6786 0.2811
vn -0.1876 0.8716 0.4529
vn -0.4840 0.7004 0.5247
vn -0.1535 0.6173 0.7716
vn 0.0518 0.7442 0.6659
vn -0.4407 -0.6089 0.6596
vn -0.2264 -0.6307 0.7423
vn -0.2811 -0.6786 0.6786
vn 0.1876 0.8716 0.4529
vn 0.0288 0.7004 0.7132
vn 0.4371 0.6173 0.6541
vn 0.5075 0.7442 0.4342
vn 0.1548 -0.6089 0.7780
vn 0.3647 -0.6307 0.6850
vn 0.2811 -0.6786 0.6786
vn 0.4529 0.8716 0.1876
vn 0.5247 0.7004 0.4839
vn 0.7716 0.6173 0.1535
vn 0.6659 0.7442 -0.0518
vn 0.6596 -0.6089 0.4407
vn 0.7423 -0.6307 0.2264
vn 0.6786 -0.6786 0.2811
s 0
f 1//1 2//1 3//1 4//1 5//1 6//1 7//1 8//1
f 1//2 9//2 2//2
f 1//3 17//3 18//3 9//3
f 9//4 18//4 19//4
f 9//5 19//5 2//5
f 17//6 33//6 18//6
f 18//7 33//7 34//7 19//7
f 33//8 41//8 34//8
f 2//9 10//9 3//9
f 2//10 19//10 20//10 10//10
f 10//11 20//11 21//11
f 10//12 21//12 3//12
f 19//13 34//13 20//13
f 20//14 34//14 35//14 21//14
f 34//15 41//15 35//15
f 3//16 11//16 4//16
f 3//17 21//17 22//17 11//17
f 11//18 22//18 23//18
f 11//19 23//19 4//19
f 21//20 35//20 22//20
f 22//21 35//21 36//21 23//21
f 35//22 41//22 36//22
f 4//23 12//23 5//23
f 4//24 23//24 24//24 12//24
f 12//25 24//25 25//25
f 12//26 25//26 5//26
f 23//27 36//27 24//27
f 24//28 36//28 37//28 25//28
f 36//29 41//29 37//29
f 5//30 13//30 6//30
f 5//31 25//31 26//31 13//31
f 13//32 26//32 27//32
f 13//33 27//33 6//33
f 25//34 37//34 26//34
f 26//35 37//35 38//35 27//35
f 37//36 41//36 38//36
f 6//37 14//37 7//37
f 6//38 27//38 28//38 14//38
f 14//39 28//39 29//39
f 14//40 29//40 7//40
f 27//41 38//41 28//41
f 28//42 38//42 39//42 29//42
f 38//43 41//43 39//43
f 7//44 15//44 8//44
f 7//45 29//45 30//45 15//45
f 15//46 30//46 31//46
f 15//47 31//47 8//47
f 29//48 39//48 30//48
f 30//49 39//49 40//49 31//49
f 39//50 41//50 40//50
f 8//51 16//51 1//51
f 8//52 31//52 32//52 16//52
f 16//53 32//53 17//53
f 16//54 17//54 1//54
f 31//55 40//55 32//55
f 32//56 40//56 33//56 17//56
f 40//57 41//57 33//57
