# Blender 5.2.2 LTS
# www.blender.org
o dirt
v -0.483354 -0.483354 0.483354
v -0.502341 0.502341 0.502341
v -0.499561 -0.499561 -0.499561
v -0.494589 0.494589 -0.494589
v 0.484699 -0.484699 0.484699
v 0.488239 0.488239 0.488239
v 0.493571 -0.493571 -0.493571
v 0.485834 0.485834 -0.485834
v -0.485689 -0.485689 -0.367662
v -0.483242 -0.483242 -0.244881
v -0.499930 -0.499930 -0.122773
v -0.485227 -0.485227 -0.000194
v -0.491622 -0.491622 0.122468
v -0.503710 -0.503710 0.245091
v -0.502559 -0.502559 0.368557
v -0.491082 -0.367504 0.491109
v -0.496394 -0.244971 0.496394
v -0.488329 -0.122544 0.488329
v -0.504796 -0.000101 0.504796
v -0.497058 0.122929 0.497058
v -0.487597 0.244930 0.487597
v -0.502043 0.366802 0.502043
v -0.491595 0.491634 0.367386
v -0.494805 0.494805 0.244968
v -0.483043 0.483043 0.122637
v -0.475819 0.475819 -0.000401
v -0.498979 0.498979 -0.121985
v -0.490904 0.490904 -0.245033
v -0.488644 0.488644 -0.367520
v -0.477540 0.367695 -0.477575
v -0.508708 0.245941 -0.508708
v -0.492566 0.122304 -0.492566
v -0.501684 -0.000123 -0.501684
v -0.486049 -0.122311 -0.486049
v -0.485224 -0.245077 -0.485224
v -0.485441 -0.367720 -0.485481
v 0.367595 -0.483422 -0.483422
v 0.244930 -0.487390 -0.487390
v 0.122597 -0.499108 -0.499108
v 0.000024 -0.489350 -0.489350
v -0.122476 -0.498877 -0.498877
v -0.245105 -0.492897 -0.492897
v -0.367413 -0.501652 -0.501657
v -0.367603 0.498990 -0.499198
v -0.244925 0.492010 -0.492009
v -0.122417 0.500123 -0.500123
v -0.000348 0.481627 -0.481627
v 0.122614 0.486640 -0.486640
v 0.245105 0.482297 -0.482297
v 0.367488 0.490874 -0.490874
v 0.497948 0.367623 -0.497934
v 0.493771 0.244877 -0.493771
v 0.496103 0.122406 -0.496103
v 0.501934 -0.000298 -0.501934
v 0.495069 -0.122748 -0.495069
v 0.496805 -0.245141 -0.496805
v 0.491506 -0.367542 -0.491526
v 0.483588 -0.483588 0.367359
v 0.506408 -0.506408 0.245428
v 0.485262 -0.485262 0.122819
v 0.483236 -0.483236 -0.000130
v 0.498435 -0.498435 -0.122268
v 0.492778 -0.492778 -0.245096
v 0.483979 -0.483879 -0.367453
v 0.493912 0.493968 -0.367499
v 0.487575 0.487575 -0.245039
v 0.471461 0.471461 -0.122317
v 0.479686 0.479686 0.000770
v 0.484279 0.484279 0.122740
v 0.506403 0.506403 0.244618
v 0.503604 0.503604 0.368513
v 0.484605 0.367603 0.484455
v 0.487288 0.244940 0.487287
v 0.474494 0.122329 0.474494
v 0.486054 -0.000247 0.486054
v 0.489553 -0.122507 0.489553
v 0.490492 -0.244999 0.490492
v 0.494816 -0.367680 0.494753
v -0.367496 -0.486496 0.486415
v -0.245026 -0.491780 0.491780
v -0.122482 -0.492503 0.492503
v -0.000048 -0.485313 0.485313
v 0.122276 -0.501770 0.501770
v 0.245023 -0.490469 0.490469
v 0.367556 -0.492030 0.491984
v 0.367497 0.490451 0.490469
v 0.245010 0.484796 0.484796
v 0.122346 0.482738 0.482738
v -0.000261 0.481158 0.481158
v -0.122387 0.493137 0.493137
v -0.244961 0.486982 0.486982
v -0.367144 0.494177 0.494090
v -0.503524 -0.367185 0.367665
v -0.508155 -0.244453 0.367272
v -0.506881 -0.121997 0.367200
v -0.509244 0.000475 0.366843
v -0.484895 0.122211 0.367636
v -0.480208 0.245150 0.367638
v -0.482437 0.367816 0.367704
v -0.508488 -0.367099 0.243957
v -0.482476 -0.245259 0.245512
v -0.514115 -0.122900 0.243255
v -0.482196 -0.000560 0.245401
v -0.476508 0.122316 0.244988
v -0.486966 0.245076 0.244900
v -0.473360 0.367835 0.244727
v -0.519137 -0.366913 0.121067
v -0.489903 -0.245005 0.122503
v -0.471364 -0.122504 0.123125
v -0.491680 0.000001 0.122509
v -0.489283 0.122501 0.122472
v -0.473888 0.244972 0.121906
v -0.488048 0.367520 0.122465
v -0.502932 -0.367480 -0.000672
v -0.494277 -0.244679 -0.000045
v -0.486799 -0.122522 -0.000116
v -0.508584 -0.000459 0.000302
v -0.486294 0.122293 -0.000060
v -0.465216 0.245157 -0.000883
v -0.502637 0.367021 0.000463
v -0.481019 -0.367539 -0.122211
v -0.496871 -0.245013 -0.122629
v -0.483495 -0.122497 -0.122391
v -0.476640 0.000170 -0.122090
v -0.500150 0.122670 -0.122356
v -0.471318 0.244921 -0.123272
v -0.512386 0.365995 -0.122120
v -0.494675 -0.367574 -0.245010
v -0.500362 -0.244927 -0.244982
v -0.465928 -0.123505 -0.245477
v -0.480908 0.000598 -0.245214
v -0.479534 0.122640 -0.245125
v -0.477584 0.245421 -0.245059
v -0.493107 0.367332 -0.245117
v -0.476603 -0.367324 -0.367251
v -0.511089 -0.244974 -0.367921
v -0.512765 -0.121448 -0.366463
v -0.510171 0.000496 -0.365969
v -0.490804 0.122532 -0.367437
v -0.495784 0.245020 -0.367157
v -0.458711 0.367027 -0.367601
v -0.367468 -0.367656 -0.485975
v -0.367221 -0.244870 -0.475237
v -0.367497 -0.122352 -0.486820
v -0.367642 0.000087 -0.483309
v -0.367924 0.122758 -0.477237
v -0.367366 0.244949 -0.495300
v -0.367474 0.367466 -0.483177
v -0.244949 -0.367599 -0.487556
v -0.244405 -0.244907 -0.474126
v -0.244976 -0.122465 -0.489136
v -0.245446 0.000119 -0.504972
v -0.245001 0.122501 -0.490046
v -0.244812 0.245122 -0.469459
v -0.245000 0.367499 -0.490018
v -0.122355 -0.367794 -0.481750
v -0.122334 -0.244914 -0.485352
v -0.122476 -0.122145 -0.481322
v -0.122197 -0.000191 -0.500223
v -0.122512 0.122627 -0.492221
v -0.122748 0.245027 -0.495950
v -0.122499 0.367501 -0.489946
v 0.000224 -0.367712 -0.479875
v 0.000227 -0.244829 -0.481507
v -0.000163 -0.122941 -0.503550
v -0.000101 -0.000117 -0.482931
v -0.000303 0.122645 -0.475608
v 0.000088 0.244833 -0.496188
v 0.000007 0.367511 -0.490381
v 0.122463 -0.367469 -0.491357
v 0.122488 -0.245019 -0.490878
v 0.122527 -0.122499 -0.492272
v 0.122268 0.000502 -0.505185
v 0.122287 0.122623 -0.497069
v 0.122510 0.245003 -0.483823
v 0.122422 0.367276 -0.477657
v 0.245081 -0.367517 -0.494128
v 0.244983 -0.245023 -0.486876
v 0.244691 -0.122192 -0.475253
v 0.244469 0.000460 -0.476839
v 0.245469 0.122397 -0.510050
v 0.244980 0.245069 -0.491130
v 0.245091 0.367463 -0.487464
v 0.367647 -0.367267 -0.476082
v 0.367334 -0.245056 -0.494535
v 0.367104 -0.122422 -0.495313
v 0.367540 0.000019 -0.489273
v 0.367503 0.122486 -0.491745
v 0.367498 0.245054 -0.492162
v 0.367460 0.367530 -0.491484
v 0.481869 -0.367396 -0.367584
v 0.494590 -0.245092 -0.367411
v 0.474924 -0.122568 -0.367922
v 0.502556 -0.000393 -0.367094
v 0.483931 0.122296 -0.367668
v 0.489944 0.245001 -0.367501
v 0.487140 0.367492 -0.367550
v 0.482767 -0.367522 -0.244810
v 0.488567 -0.244989 -0.244980
v 0.493144 -0.122535 -0.245042
v 0.488903 0.000003 -0.245005
v 0.502223 0.122629 -0.244996
v 0.489919 0.244998 -0.244999
v 0.480024 0.367285 -0.245183
v 0.495161 -0.367429 -0.122532
v 0.479298 -0.244999 -0.122424
v 0.492790 -0.122562 -0.122489
v 0.481185 0.000031 -0.122618
v 0.495176 0.122402 -0.122377
v 0.489951 0.244998 -0.122500
v 0.477488 0.366806 -0.122341
v 0.483151 -0.367502 -0.000090
v 0.475493 -0.244832 0.000199
v 0.478345 -0.122133 0.000166
v 0.508015 -0.000473 -0.000178
v 0.497860 0.122718 0.000012
v 0.506867 0.245576 -0.000129
v 0.508628 0.369061 -0.000740
v 0.492075 -0.367471 0.122393
v 0.485363 -0.245043 0.122724
v 0.480828 -0.122109 0.122686
v 0.497786 -0.000301 0.122755
v 0.479856 0.122327 0.121978
v 0.500395 0.244672 0.123133
v 0.499804 0.367959 0.122778
v 0.511862 -0.366933 0.245023
v 0.480177 -0.245551 0.245165
v 0.501752 -0.122884 0.244818
v 0.485745 -0.000106 0.245016
v 0.487151 0.122532 0.245006
v 0.483139 0.245179 0.244856
v 0.495613 0.367267 0.245061
v 0.493570 -0.367473 0.367669
v 0.484224 -0.245132 0.367449
v 0.472040 -0.122271 0.367245
v 0.491332 -0.000007 0.367535
v 0.474674 0.122437 0.367125
v 0.489819 0.245009 0.367497
v 0.501381 0.366936 0.367914
v 0.367460 -0.367518 0.500265
v 0.367532 -0.245151 0.484271
v 0.367463 -0.122442 0.481798
v 0.367747 -0.000004 0.499518
v 0.368028 0.122732 0.502465
v 0.367531 0.245014 0.491049
v 0.367276 0.367386 0.469593
v 0.244918 -0.367210 0.504306
v 0.245039 -0.244804 0.494083
v 0.244852 -0.122417 0.478501
v 0.244927 -0.000137 0.493071
v 0.244798 0.122584 0.495611
v 0.244965 0.244731 0.484013
v 0.244943 0.367488 0.488271
v 0.122873 -0.367652 0.480191
v 0.122326 -0.244902 0.505623
v 0.122466 -0.122569 0.487906
v 0.122502 0.000154 0.482901
v 0.122568 0.122542 0.482047
v 0.122525 0.244974 0.493005
v 0.122531 0.367665 0.495327
v -0.000069 -0.367692 0.506804
v -0.000217 -0.244710 0.500918
v -0.000066 -0.121814 0.505088
v -0.000439 -0.000653 0.472257
v -0.000041 0.122592 0.488009
v 0.000036 0.245182 0.479686
v 0.000076 0.367359 0.466269
v -0.122672 -0.367542 0.494495
v -0.122249 -0.245050 0.485418
v -0.121997 -0.122916 0.468944
v -0.122828 0.000365 0.475863
v -0.122539 0.122544 0.488789
v -0.121965 0.245223 0.501385
v -0.123243 0.367288 0.478291
v -0.244915 -0.367557 0.482122
v -0.244693 -0.244883 0.501757
v -0.244307 -0.122120 0.501244
v -0.246003 -0.000058 0.470432
v -0.244930 0.121634 0.503137
v -0.244971 0.244892 0.487124
v -0.245035 0.367489 0.487436
v -0.367545 -0.367146 0.478642
v -0.367472 -0.244929 0.488203
v -0.367506 -0.122550 0.487528
v -0.367571 0.000023 0.488514
v -0.367588 0.122513 0.485819
v -0.367619 0.244968 0.477204
v -0.367024 0.366973 0.501050
v -0.367528 -0.492902 -0.367381
v -0.245138 -0.474057 -0.367909
v -0.122883 -0.503433 -0.367247
v 0.000056 -0.492038 -0.367466
v 0.122429 -0.478372 -0.367673
v 0.244930 -0.498355 -0.367530
v 0.367626 -0.496053 -0.367598
v -0.367502 -0.489716 -0.244993
v -0.245214 -0.508968 -0.245299
v -0.122686 -0.480974 -0.245123
v 0.000039 -0.495447 -0.244967
v 0.122542 -0.498900 -0.245116
v 0.245001 -0.495513 -0.244937
v 0.367562 -0.495009 -0.244970
v -0.367482 -0.488364 -0.122527
v -0.244907 -0.506700 -0.122015
v -0.122595 -0.488005 -0.122513
v 0.000278 -0.477530 -0.122637
v 0.123021 -0.469601 -0.123098
v 0.245260 -0.483107 -0.122675
v 0.367555 -0.487415 -0.122566
v -0.367602 -0.496700 0.000145
v -0.245054 -0.486178 -0.000116
v -0.122176 -0.504803 0.000003
v 0.000674 -0.503788 -0.000661
v 0.122517 -0.490732 -0.000045
v 0.245034 -0.487933 0.000077
v 0.367511 -0.471479 -0.000014
v -0.367793 -0.470785 0.122665
v -0.245892 -0.508849 0.122766
v -0.122295 -0.500010 0.122902
v -0.000300 -0.481400 0.122122
v 0.122511 -0.482360 0.122398
v 0.245020 -0.495134 0.122386
v 0.367531 -0.493659 0.122272
v -0.367888 -0.469196 0.245612
v -0.245134 -0.491862 0.245055
v -0.122653 -0.485172 0.244851
v -0.000092 -0.478732 0.245171
v 0.122330 -0.494605 0.244912
v 0.245005 -0.487420 0.244983
v 0.367526 -0.488775 0.244983
v -0.367584 -0.486480 0.367551
v -0.245117 -0.493983 0.367401
v -0.122537 -0.488677 0.367529
v 0.000369 -0.472684 0.367985
v 0.123078 -0.478034 0.367777
v 0.245063 -0.483473 0.367602
v 0.367640 -0.478880 0.367374
v 0.367461 0.494205 -0.367535
v 0.245008 0.489401 -0.367489
v 0.122509 0.507846 -0.367934
v -0.000129 0.495515 -0.367565
v -0.122500 0.484849 -0.367570
v -0.244939 0.496326 -0.367359
v -0.367659 0.503365 -0.367189
v 0.367594 0.494483 -0.244854
v 0.245003 0.490619 -0.244987
v 0.122416 0.473199 -0.245693
v 0.000085 0.497754 -0.244815
v -0.122366 0.481046 -0.245014
v -0.244995 0.490139 -0.244997
v -0.367486 0.495836 -0.244863
v 0.366788 0.477632 -0.122731
v 0.245021 0.495634 -0.122563
v 0.122436 0.505116 -0.122887
v 0.000036 0.488440 -0.122484
v -0.122431 0.474899 -0.122346
v -0.245605 0.476806 -0.122462
v -0.368158 0.469071 -0.123088
v 0.366719 0.475793 0.000477
v 0.245191 0.493328 0.000047
v 0.122575 0.484701 -0.000185
v -0.000063 0.493165 -0.000010
v -0.122529 0.491575 -0.000072
v -0.244887 0.477459 0.000794
v -0.367602 0.480153 0.000416
v 0.367532 0.493363 0.122325
v 0.245001 0.490658 0.122491
v 0.122526 0.472946 0.122572
v 0.000266 0.496374 0.122517
v -0.122419 0.487222 0.122518
v -0.244945 0.480757 0.122815
v -0.367521 0.487013 0.122658
v 0.367561 0.488365 0.245019
v 0.245138 0.482096 0.245099
v 0.122647 0.496675 0.244816
v -0.000011 0.475922 0.245100
v -0.122581 0.483618 0.245055
v -0.245099 0.482317 0.245190
v -0.367537 0.488724 0.245031
v 0.366555 0.508154 0.367693
v 0.244277 0.509458 0.367651
v 0.123587 0.468338 0.366994
v -0.000242 0.484208 0.367537
v -0.122305 0.498025 0.367263
v -0.245002 0.490210 0.367495
v -0.368042 0.471997 0.367903
vn -0.5098 -0.5719 0.6426
vn -0.5756 0.6260 0.5260
vn -0.6349 -0.5383 -0.5542
vn -0.6646 0.4838 -0.5695
vn 0.5771 -0.6251 0.5256
vn 0.5423 0.5030 0.6729
vn 0.5735 -0.5706 -0.5878
vn 0.5721 0.5850 -0.5748
vn -0.7372 -0.6739 0.0495
vn -0.7160 -0.6970 -0.0397
vn -0.7081 -0.7056 -0.0269
vn -0.6653 -0.7466 -0.0062
vn -0.5996 -0.8000 -0.0210
vn -0.6103 -0.7915 -0.0316
vn -0.6534 -0.7548 0.0586
vn -0.6421 -0.0481 0.7651
vn -0.6479 -0.0090 0.7617
vn -0.6459 -0.0262 0.7630
vn -0.6672 0.0098 0.7448
vn -0.6859 0.1125 0.7189
vn -0.7178 -0.0362 0.6953
vn -0.7284 -0.0831 0.6801
vn -0.6961 0.7145 -0.0710
vn -0.7202 0.6938 0.0065
vn -0.6989 0.7148 -0.0252
vn -0.6290 0.7756 0.0531
vn -0.6342 0.7715 0.0508
vn -0.7081 0.7039 -0.0564
vn -0.7817 0.6236 -0.0066
vn -0.7497 0.0530 -0.6596
vn -0.7092 0.0724 -0.7012
vn -0.6667 -0.0174 -0.7451
vn -0.6436 0.0257 -0.7649
vn -0.6166 -0.0558 -0.7853
vn -0.6354 -0.0517 -0.7704
vn -0.7036 0.0417 -0.7093
vn 0.0072 -0.6789 -0.7342
vn 0.0395 -0.6949 -0.7180
vn -0.0240 -0.7124 -0.7014
vn 0.0236 -0.6814 -0.7316
vn -0.0054 -0.6771 -0.7359
vn -0.0015 -0.7041 -0.7101
vn 0.0335 -0.7058 -0.7076
vn -0.0226 0.6665 -0.7451
vn 0.0150 0.6865 -0.7269
vn 0.0309 0.7054 -0.7081
vn 0.0233 0.6787 -0.7341
vn 0.0102 0.6556 -0.7551
vn -0.0131 0.6780 -0.7349
vn -0.0303 0.7043 -0.7092
vn 0.7122 0.0193 -0.7017
vn 0.7185 -0.0098 -0.6954
vn 0.7089 0.0391 -0.7042
vn 0.7066 -0.0107 -0.7076
vn 0.7241 -0.0197 -0.6894
vn 0.7166 -0.0280 -0.6969
vn 0.6981 -0.0440 -0.7146
vn 0.6599 -0.7465 0.0854
vn 0.6689 -0.7430 0.0221
vn 0.6764 -0.7245 -0.1327
vn 0.6842 -0.7284 0.0363
vn 0.6966 -0.7150 0.0591
vn 0.7273 -0.6846 -0.0487
vn 0.7321 -0.6812 -0.0026
vn 0.7214 0.6923 0.0147
vn 0.7298 0.6763 0.0997
vn 0.6903 0.7234 0.0099
vn 0.6450 0.7594 -0.0852
vn 0.6642 0.7438 -0.0752
vn 0.6970 0.7126 -0.0801
vn 0.7143 0.6971 0.0626
vn 0.6490 -0.0216 0.7605
vn 0.7063 -0.0200 0.7076
vn 0.7587 0.0102 0.6513
vn 0.7459 0.0085 0.6660
vn 0.7265 -0.0200 0.6869
vn 0.7167 0.0759 0.6932
vn 0.7228 -0.0075 0.6910
vn -0.0003 -0.6781 0.7350
vn -0.0437 -0.6884 0.7240
vn 0.0133 -0.7305 0.6827
vn 0.0125 -0.7643 0.6447
vn -0.0278 -0.7461 0.6653
vn -0.0052 -0.7539 0.6570
vn 0.0301 -0.7580 0.6516
vn 0.0019 0.6193 0.7852
vn -0.0400 0.6623 0.7481
vn -0.0774 0.7148 0.6950
vn 0.0512 0.6832 0.7285
vn 0.0545 0.6636 0.7461
vn -0.0020 0.7095 0.7047
vn 0.0660 0.7488 0.6595
vn -0.9991 -0.0036 0.0429
vn -0.9998 -0.0094 0.0147
vn -0.9998 -0.0110 0.0137
vn -0.9965 0.0723 -0.0412
vn -0.9954 0.0705 -0.0645
vn -0.9987 0.0040 -0.0501
vn -0.9971 -0.0433 -0.0629
vn -0.9991 0.0416 0.0007
vn -0.9978 0.0334 -0.0578
vn -0.9941 -0.0027 -0.1085
vn -0.9944 0.0809 -0.0673
vn -0.9992 0.0378 -0.0151
vn -0.9999 0.0102 -0.0027
vn -0.9993 -0.0362 -0.0032
vn -0.9996 0.0171 -0.0212
vn -0.9941 0.1077 -0.0092
vn -0.9997 -0.0175 -0.0168
vn -0.9993 0.0025 0.0365
vn -0.9969 0.0751 0.0248
vn -0.9999 -0.0107 -0.0046
vn -0.9993 -0.0341 0.0179
vn -0.9979 -0.0143 -0.0635
vn -0.9968 0.0791 -0.0124
vn -0.9998 -0.0099 0.0163
vn -0.9994 -0.0338 -0.0069
vn -0.9938 0.1113 0.0040
vn -0.9986 -0.0430 0.0310
vn -0.9963 -0.0537 0.0667
vn -0.9997 -0.0204 -0.0124
vn -0.9990 0.0404 -0.0173
vn -0.9968 0.0465 -0.0645
vn -0.9953 -0.0471 -0.0841
vn -0.9979 0.0577 -0.0295
vn -0.9985 -0.0536 0.0083
vn -0.9968 -0.0793 0.0118
vn -0.9983 -0.0578 -0.0084
vn -0.9984 0.0183 0.0544
vn -0.9927 0.0605 0.1045
vn -0.9959 -0.0222 0.0881
vn -0.9988 0.0268 0.0402
vn -0.9999 -0.0075 -0.0146
vn -0.9943 -0.0485 -0.0953
vn -0.9983 -0.0556 -0.0198
vn -0.9987 -0.0451 -0.0231
vn -0.9989 0.0020 0.0458
vn -0.9968 0.0226 0.0772
vn -0.9966 0.0269 0.0784
vn -0.9963 0.0625 0.0594
vn -0.9999 0.0134 0.0031
vn 0.0138 0.0838 -0.9964
vn 0.0180 -0.0040 -0.9998
vn 0.0015 -0.0635 -0.9980
vn -0.0096 0.0119 -0.9999
vn 0.0377 0.0053 -0.9993
vn 0.0675 0.0038 -0.9977
vn 0.0170 -0.0157 -0.9997
vn 0.0010 0.0766 -0.9971
vn -0.0107 -0.0037 -0.9999
vn -0.0163 -0.0862 -0.9961
vn -0.0439 -0.0032 -0.9990
vn -0.0484 0.0645 -0.9967
vn -0.0234 -0.0038 -0.9997
vn -0.0156 -0.0528 -0.9985
vn 0.0113 0.0527 -0.9985
vn -0.0219 -0.0249 -0.9994
vn -0.0145 -0.0632 -0.9979
vn 0.0449 0.0052 -0.9990
vn 0.0248 0.0313 -0.9992
vn -0.0401 -0.0103 -0.9991
vn -0.0170 -0.0160 -0.9997
vn -0.0258 0.0366 -0.9990
vn -0.0322 -0.0487 -0.9983
vn -0.0331 -0.0328 -0.9989
vn -0.0259 0.0410 -0.9988
vn -0.0021 -0.0009 -1.0000
vn 0.0323 -0.0080 -0.9994
vn 0.0510 0.0226 -0.9984
vn -0.0320 0.0247 -0.9992
vn 0.0033 -0.0068 -1.0000
vn 0.0584 -0.0203 -0.9981
vn 0.0056 -0.0168 -0.9998
vn -0.0589 0.0155 -0.9981
vn -0.0215 0.0474 -0.9986
vn 0.0103 0.0180 -0.9998
vn 0.0433 -0.0018 -0.9991
vn 0.0050 0.0179 -0.9998
vn 0.0063 0.0114 -0.9999
vn 0.0345 -0.0716 -0.9968
vn 0.0186 -0.0102 -0.9998
vn -0.0256 0.0660 -0.9975
vn -0.0413 0.0165 -0.9990
vn -0.0097 -0.0251 -0.9996
vn -0.0370 -0.0233 -0.9990
vn -0.0748 0.0160 -0.9971
vn -0.0552 -0.0291 -0.9981
vn 0.0015 -0.0125 -0.9999
vn -0.0013 0.0217 -0.9998
vn -0.0272 0.0202 -0.9994
vn 0.9994 -0.0203 0.0265
vn 0.9997 -0.0001 0.0262
vn 0.9995 -0.0212 0.0233
vn 0.9994 -0.0283 0.0202
vn 0.9995 0.0325 0.0034
vn 0.9997 0.0143 0.0186
vn 0.9993 0.0026 0.0375
vn 0.9995 0.0169 -0.0255
vn 0.9999 -0.0118 -0.0006
vn 0.9999 -0.0107 0.0011
vn 0.9995 -0.0301 0.0140
vn 1.0000 0.0020 -0.0012
vn 0.9982 0.0601 -0.0016
vn 0.9989 0.0196 0.0421
vn 0.9985 0.0505 0.0222
vn 0.9991 -0.0008 0.0414
vn 0.9990 -0.0373 0.0241
vn 0.9992 -0.0339 -0.0191
vn 0.9995 -0.0177 -0.0279
vn 0.9971 0.0476 -0.0590
vn 0.9951 0.0721 -0.0683
vn 0.9993 0.0349 0.0133
vn 0.9997 0.0236 0.0029
vn 0.9967 -0.0806 0.0014
vn 0.9991 -0.0410 -0.0059
vn 0.9999 -0.0094 0.0036
vn 0.9993 -0.0242 -0.0286
vn 0.9927 0.0980 -0.0707
vn 0.9956 0.0345 -0.0876
vn 0.9973 0.0380 -0.0627
vn 0.9975 -0.0640 -0.0300
vn 0.9995 -0.0032 0.0325
vn 0.9977 -0.0015 0.0683
vn 0.9956 -0.0601 0.0722
vn 0.9990 0.0398 0.0222
vn 0.9986 0.0535 0.0001
vn 0.9985 0.0542 0.0098
vn 0.9992 -0.0312 0.0251
vn 0.9992 0.0282 0.0274
vn 0.9996 0.0041 0.0280
vn 0.9976 -0.0648 0.0253
vn 0.9990 -0.0439 -0.0125
vn 0.9987 0.0191 0.0476
vn 0.9982 0.0593 0.0088
vn 0.9998 -0.0159 0.0137
vn 0.9994 0.0250 0.0249
vn 0.9997 0.0046 0.0220
vn 0.9972 -0.0733 0.0165
vn 0.9980 -0.0514 0.0379
vn 0.0295 0.0055 0.9995
vn 0.0058 0.0690 0.9976
vn -0.0116 -0.0254 0.9996
vn 0.0282 -0.0420 0.9987
vn 0.0527 0.0256 0.9983
vn 0.0208 0.0625 0.9978
vn 0.0004 -0.0009 1.0000
vn -0.0095 -0.0036 0.9999
vn 0.0294 0.0636 0.9975
vn 0.0172 0.0095 0.9998
vn -0.0483 -0.0499 0.9976
vn -0.0565 0.0168 0.9983
vn 0.0094 0.0350 0.9993
vn 0.0468 0.0100 0.9989
vn 0.0061 -0.0274 0.9996
vn 0.0436 0.0122 0.9990
vn 0.0398 0.0764 0.9963
vn -0.0232 0.0117 0.9997
vn -0.0411 -0.0189 0.9990
vn -0.0386 0.0025 0.9993
vn -0.0523 0.0193 0.9984
vn -0.0004 -0.0287 0.9996
vn -0.0459 0.0219 0.9987
vn -0.0651 0.0908 0.9937
vn -0.0272 0.0204 0.9994
vn 0.0151 -0.0513 0.9986
vn 0.0064 0.0418 0.9991
vn -0.0169 0.0150 0.9997
vn -0.0422 -0.0120 0.9990
vn -0.0273 0.0343 0.9990
vn -0.0092 0.0807 0.9967
vn 0.0083 -0.0257 0.9996
vn 0.0365 -0.0763 0.9964
vn 0.0517 0.0591 0.9969
vn 0.0552 0.0148 0.9984
vn -0.0354 -0.0148 0.9993
vn 0.0081 -0.0220 0.9997
vn 0.0529 0.0729 0.9959
vn 0.0418 -0.0219 0.9989
vn -0.0175 -0.0487 0.9987
vn -0.0290 0.0271 0.9992
vn 0.0235 -0.0086 0.9997
vn 0.0043 -0.0262 0.9996
vn -0.0155 -0.0346 0.9993
vn 0.0023 0.0236 0.9997
vn 0.0475 -0.0071 0.9988
vn 0.0204 0.0222 0.9995
vn 0.0091 -0.0203 0.9998
vn 0.0451 -0.0490 0.9978
vn 0.0028 -0.9998 0.0219
vn -0.0102 -0.9999 -0.0040
vn -0.0185 -0.9997 0.0136
vn 0.0336 -0.9994 0.0056
vn -0.0106 -0.9998 -0.0147
vn -0.0161 -0.9994 -0.0294
vn 0.0265 -0.9991 -0.0325
vn -0.0483 -0.9981 -0.0378
vn 0.0071 -0.9989 -0.0458
vn 0.0387 -0.9992 0.0133
vn 0.0079 -0.9985 0.0540
vn -0.0123 -0.9988 0.0475
vn -0.0283 -0.9984 0.0488
vn 0.0053 -0.9998 0.0180
vn -0.0409 -0.9991 0.0073
vn 0.0012 -0.9999 0.0151
vn 0.0550 -0.9979 -0.0339
vn 0.0335 -0.9989 -0.0325
vn 0.0046 -0.9999 0.0163
vn -0.0127 -0.9988 0.0477
vn -0.0231 -0.9977 0.0641
vn -0.0263 -0.9988 0.0422
vn -0.0458 -0.9989 0.0013
vn 0.0219 -0.9993 -0.0303
vn 0.0652 -0.9973 -0.0328
vn 0.0126 -0.9991 -0.0416
vn 0.0096 -0.9990 -0.0439
vn 0.0040 -0.9999 -0.0128
vn -0.0262 -0.9991 0.0344
vn -0.0824 -0.9959 0.0361
vn 0.0514 -0.9969 0.0597
vn 0.0406 -0.9969 0.0668
vn -0.0209 -0.9996 0.0181
vn 0.0024 -0.9998 -0.0204
vn 0.0059 -0.9983 -0.0574
vn 0.0073 -0.9996 -0.0256
vn -0.0638 -0.9976 0.0260
vn 0.0762 -0.9960 0.0469
vn 0.0097 -0.9994 0.0337
vn -0.0426 -0.9987 0.0294
vn -0.0005 -0.9991 0.0432
vn -0.0273 -0.9987 0.0425
vn 0.0153 -0.9998 -0.0148
vn -0.0268 -0.9993 -0.0248
vn 0.0627 -0.9978 -0.0217
vn 0.0044 -0.9996 -0.0274
vn -0.0349 -0.9992 -0.0219
vn 0.0129 -0.9998 -0.0151
vn -0.0129 -0.9999 0.0103
vn -0.0100 0.9998 -0.0181
vn 0.0017 1.0000 -0.0087
vn 0.0188 0.9998 -0.0014
vn -0.0260 0.9997 -0.0017
vn 0.0048 0.9997 0.0239
vn 0.0522 0.9983 0.0263
vn -0.0118 0.9998 0.0127
vn 0.0272 0.9983 0.0514
vn -0.0015 1.0000 0.0068
vn 0.0135 0.9999 0.0068
vn -0.0382 0.9989 0.0272
vn -0.0265 0.9985 0.0475
vn 0.0430 0.9955 0.0845
vn 0.0152 0.9967 0.0797
vn 0.0678 0.9967 0.0442
vn 0.0437 0.9990 0.0021
vn -0.0076 0.9997 -0.0212
vn -0.0469 0.9988 -0.0129
vn -0.0474 0.9989 -0.0038
vn -0.0086 0.9995 0.0311
vn 0.0437 0.9973 0.0584
vn 0.0597 0.9974 -0.0404
vn 0.0257 0.9993 0.0267
vn -0.0019 0.9981 0.0624
vn -0.0024 1.0000 0.0040
vn -0.0597 0.9975 -0.0371
vn -0.0294 0.9988 -0.0387
vn 0.0211 0.9994 -0.0274
vn 0.0030 0.9992 -0.0409
vn -0.0240 0.9997 -0.0021
vn 0.0051 1.0000 0.0046
vn 0.0228 0.9993 0.0310
vn -0.0413 0.9987 0.0288
vn -0.0068 0.9999 -0.0106
vn 0.0150 0.9990 -0.0420
vn -0.0351 0.9971 -0.0676
vn -0.0444 0.9978 -0.0483
vn -0.0324 0.9995 0.0025
vn 0.0183 0.9997 0.0187
vn 0.0032 0.9998 -0.0193
vn -0.0163 0.9998 -0.0150
vn 0.0286 0.9995 0.0119
vn -0.0161 0.9998 0.0129
vn -0.0811 0.9967 0.0079
vn -0.0612 0.9979 0.0201
vn 0.0586 0.9983 -0.0069
vn 0.0249 0.9993 -0.0293
vn -0.0475 0.9986 -0.0247
vn 0.0276 0.9994 -0.0207
vt 0.406250 0.031250
vt 0.437500 0.031250
vt 0.437500 0.062500
vt 0.406250 0.062500
vt 0.468750 0.031250
vt 0.468750 0.062500
vt 0.500000 0.031250
vt 0.500000 0.062500
vt 0.531250 0.031250
vt 0.531250 0.062500
vt 0.562500 0.031250
vt 0.562500 0.062500
vt 0.593750 0.031250
vt 0.593750 0.062500
vt 0.437500 0.093750
vt 0.406250 0.093750
vt 0.468750 0.093750
vt 0.500000 0.093750
vt 0.531250 0.093750
vt 0.562500 0.093750
vt 0.593750 0.093750
vt 0.437500 0.125000
vt 0.406250 0.125000
vt 0.468750 0.125000
vt 0.500000 0.125000
vt 0.531250 0.125000
vt 0.562500 0.125000
vt 0.593750 0.125000
vt 0.437500 0.156250
vt 0.406250 0.156250
vt 0.468750 0.156250
vt 0.500000 0.156250
vt 0.531250 0.156250
vt 0.562500 0.156250
vt 0.593750 0.156250
vt 0.437500 0.187500
vt 0.406250 0.187500
vt 0.468750 0.187500
vt 0.500000 0.187500
vt 0.531250 0.187500
vt 0.562500 0.187500
vt 0.593750 0.187500
vt 0.437500 0.218750
vt 0.406250 0.218750
vt 0.468750 0.218750
vt 0.500000 0.218750
vt 0.531250 0.218750
vt 0.562500 0.218750
vt 0.593750 0.218750
vt 0.375000 0.000000
vt 0.406250 0.000000
vt 0.375000 0.031250
vt 0.437500 0.000000
vt 0.468750 0.000000
vt 0.500000 0.000000
vt 0.531250 0.000000
vt 0.562500 0.000000
vt 0.593750 0.000000
vt 0.625000 0.000000
vt 0.625000 0.031250
vt 0.625000 0.062500
vt 0.625000 0.093750
vt 0.625000 0.125000
vt 0.625000 0.156250
vt 0.625000 0.187500
vt 0.625000 0.218750
vt 0.625000 0.250000
vt 0.593750 0.250000
vt 0.562500 0.250000
vt 0.531250 0.250000
vt 0.500000 0.250000
vt 0.468750 0.250000
vt 0.437500 0.250000
vt 0.406250 0.250000
vt 0.375000 0.218750
vt 0.375000 0.250000
vt 0.375000 0.187500
vt 0.375000 0.156250
vt 0.375000 0.125000
vt 0.375000 0.093750
vt 0.375000 0.062500
vt 0.406250 0.281250
vt 0.437500 0.281250
vt 0.437500 0.312500
vt 0.406250 0.312500
vt 0.468750 0.281250
vt 0.468750 0.312500
vt 0.500000 0.281250
vt 0.500000 0.312500
vt 0.531250 0.281250
vt 0.531250 0.312500
vt 0.562500 0.281250
vt 0.562500 0.312500
vt 0.593750 0.281250
vt 0.593750 0.312500
vt 0.437500 0.343750
vt 0.406250 0.343750
vt 0.468750 0.343750
vt 0.500000 0.343750
vt 0.531250 0.343750
vt 0.562500 0.343750
vt 0.593750 0.343750
vt 0.437500 0.375000
vt 0.406250 0.375000
vt 0.468750 0.375000
vt 0.500000 0.375000
vt 0.531250 0.375000
vt 0.562500 0.375000
vt 0.593750 0.375000
vt 0.437500 0.406250
vt 0.406250 0.406250
vt 0.468750 0.406250
vt 0.500000 0.406250
vt 0.531250 0.406250
vt 0.562500 0.406250
vt 0.593750 0.406250
vt 0.437500 0.437500
vt 0.406250 0.437500
vt 0.468750 0.437500
vt 0.500000 0.437500
vt 0.531250 0.437500
vt 0.562500 0.437500
vt 0.593750 0.437500
vt 0.437500 0.468750
vt 0.406250 0.468750
vt 0.468750 0.468750
vt 0.500000 0.468750
vt 0.531250 0.468750
vt 0.562500 0.468750
vt 0.593750 0.468750
vt 0.375000 0.281250
vt 0.625000 0.281250
vt 0.625000 0.312500
vt 0.625000 0.343750
vt 0.625000 0.375000
vt 0.625000 0.406250
vt 0.625000 0.437500
vt 0.625000 0.468750
vt 0.625000 0.500000
vt 0.593750 0.500000
vt 0.562500 0.500000
vt 0.531250 0.500000
vt 0.500000 0.500000
vt 0.468750 0.500000
vt 0.437500 0.500000
vt 0.406250 0.500000
vt 0.375000 0.468750
vt 0.375000 0.500000
vt 0.375000 0.437500
vt 0.375000 0.406250
vt 0.375000 0.375000
vt 0.375000 0.343750
vt 0.375000 0.312500
vt 0.406250 0.531250
vt 0.437500 0.531250
vt 0.437500 0.562500
vt 0.406250 0.562500
vt 0.468750 0.531250
vt 0.468750 0.562500
vt 0.500000 0.531250
vt 0.500000 0.562500
vt 0.531250 0.531250
vt 0.531250 0.562500
vt 0.562500 0.531250
vt 0.562500 0.562500
vt 0.593750 0.531250
vt 0.593750 0.562500
vt 0.437500 0.593750
vt 0.406250 0.593750
vt 0.468750 0.593750
vt 0.500000 0.593750
vt 0.531250 0.593750
vt 0.562500 0.593750
vt 0.593750 0.593750
vt 0.437500 0.625000
vt 0.406250 0.625000
vt 0.468750 0.625000
vt 0.500000 0.625000
vt 0.531250 0.625000
vt 0.562500 0.625000
vt 0.593750 0.625000
vt 0.437500 0.656250
vt 0.406250 0.656250
vt 0.468750 0.656250
vt 0.500000 0.656250
vt 0.531250 0.656250
vt 0.562500 0.656250
vt 0.593750 0.656250
vt 0.437500 0.687500
vt 0.406250 0.687500
vt 0.468750 0.687500
vt 0.500000 0.687500
vt 0.531250 0.687500
vt 0.562500 0.687500
vt 0.593750 0.687500
vt 0.437500 0.718750
vt 0.406250 0.718750
vt 0.468750 0.718750
vt 0.500000 0.718750
vt 0.531250 0.718750
vt 0.562500 0.718750
vt 0.593750 0.718750
vt 0.375000 0.531250
vt 0.625000 0.531250
vt 0.625000 0.562500
vt 0.625000 0.593750
vt 0.625000 0.625000
vt 0.625000 0.656250
vt 0.625000 0.687500
vt 0.625000 0.718750
vt 0.625000 0.750000
vt 0.593750 0.750000
vt 0.562500 0.750000
vt 0.531250 0.750000
vt 0.500000 0.750000
vt 0.468750 0.750000
vt 0.437500 0.750000
vt 0.406250 0.750000
vt 0.375000 0.718750
vt 0.375000 0.750000
vt 0.375000 0.687500
vt 0.375000 0.656250
vt 0.375000 0.625000
vt 0.375000 0.593750
vt 0.375000 0.562500
vt 0.406250 0.781250
vt 0.437500 0.781250
vt 0.437500 0.812500
vt 0.406250 0.812500
vt 0.468750 0.781250
vt 0.468750 0.812500
vt 0.500000 0.781250
vt 0.500000 0.812500
vt 0.531250 0.781250
vt 0.531250 0.812500
vt 0.562500 0.781250
vt 0.562500 0.812500
vt 0.593750 0.781250
vt 0.593750 0.812500
vt 0.437500 0.843750
vt 0.406250 0.843750
vt 0.468750 0.843750
vt 0.500000 0.843750
vt 0.531250 0.843750
vt 0.562500 0.843750
vt 0.593750 0.843750
vt 0.437500 0.875000
vt 0.406250 0.875000
vt 0.468750 0.875000
vt 0.500000 0.875000
vt 0.531250 0.875000
vt 0.562500 0.875000
vt 0.593750 0.875000
vt 0.437500 0.906250
vt 0.406250 0.906250
vt 0.468750 0.906250
vt 0.500000 0.906250
vt 0.531250 0.906250
vt 0.562500 0.906250
vt 0.593750 0.906250
vt 0.437500 0.937500
vt 0.406250 0.937500
vt 0.468750 0.937500
vt 0.500000 0.937500
vt 0.531250 0.937500
vt 0.562500 0.937500
vt 0.593750 0.937500
vt 0.437500 0.968750
vt 0.406250 0.968750
vt 0.468750 0.968750
vt 0.500000 0.968750
vt 0.531250 0.968750
vt 0.562500 0.968750
vt 0.593750 0.968750
vt 0.375000 0.781250
vt 0.625000 0.781250
vt 0.625000 0.812500
vt 0.625000 0.843750
vt 0.625000 0.875000
vt 0.625000 0.906250
vt 0.625000 0.937500
vt 0.625000 0.968750
vt 0.625000 1.000000
vt 0.593750 1.000000
vt 0.562500 1.000000
vt 0.531250 1.000000
vt 0.500000 1.000000
vt 0.468750 1.000000
vt 0.437500 1.000000
vt 0.406250 1.000000
vt 0.375000 0.968750
vt 0.375000 1.000000
vt 0.375000 0.937500
vt 0.375000 0.906250
vt 0.375000 0.875000
vt 0.375000 0.843750
vt 0.375000 0.812500
vt 0.156250 0.531250
vt 0.187500 0.531250
vt 0.187500 0.562500
vt 0.156250 0.562500
vt 0.218750 0.531250
vt 0.218750 0.562500
vt 0.250000 0.531250
vt 0.250000 0.562500
vt 0.281250 0.531250
vt 0.281250 0.562500
vt 0.312500 0.531250
vt 0.312500 0.562500
vt 0.343750 0.531250
vt 0.343750 0.562500
vt 0.187500 0.593750
vt 0.156250 0.593750
vt 0.218750 0.593750
vt 0.250000 0.593750
vt 0.281250 0.593750
vt 0.312500 0.593750
vt 0.343750 0.593750
vt 0.187500 0.625000
vt 0.156250 0.625000
vt 0.218750 0.625000
vt 0.250000 0.625000
vt 0.281250 0.625000
vt 0.312500 0.625000
vt 0.343750 0.625000
vt 0.187500 0.656250
vt 0.156250 0.656250
vt 0.218750 0.656250
vt 0.250000 0.656250
vt 0.281250 0.656250
vt 0.312500 0.656250
vt 0.343750 0.656250
vt 0.187500 0.687500
vt 0.156250 0.687500
vt 0.218750 0.687500
vt 0.250000 0.687500
vt 0.281250 0.687500
vt 0.312500 0.687500
vt 0.343750 0.687500
vt 0.187500 0.718750
vt 0.156250 0.718750
vt 0.218750 0.718750
vt 0.250000 0.718750
vt 0.281250 0.718750
vt 0.312500 0.718750
vt 0.343750 0.718750
vt 0.125000 0.500000
vt 0.156250 0.500000
vt 0.125000 0.531250
vt 0.187500 0.500000
vt 0.218750 0.500000
vt 0.250000 0.500000
vt 0.281250 0.500000
vt 0.312500 0.500000
vt 0.343750 0.500000
vt 0.343750 0.750000
vt 0.312500 0.750000
vt 0.281250 0.750000
vt 0.250000 0.750000
vt 0.218750 0.750000
vt 0.187500 0.750000
vt 0.156250 0.750000
vt 0.125000 0.718750
vt 0.125000 0.750000
vt 0.125000 0.687500
vt 0.125000 0.656250
vt 0.125000 0.625000
vt 0.125000 0.593750
vt 0.125000 0.562500
vt 0.656250 0.531250
vt 0.687500 0.531250
vt 0.687500 0.562500
vt 0.656250 0.562500
vt 0.718750 0.531250
vt 0.718750 0.562500
vt 0.750000 0.531250
vt 0.750000 0.562500
vt 0.781250 0.531250
vt 0.781250 0.562500
vt 0.812500 0.531250
vt 0.812500 0.562500
vt 0.843750 0.531250
vt 0.843750 0.562500
vt 0.687500 0.593750
vt 0.656250 0.593750
vt 0.718750 0.593750
vt 0.750000 0.593750
vt 0.781250 0.593750
vt 0.812500 0.593750
vt 0.843750 0.593750
vt 0.687500 0.625000
vt 0.656250 0.625000
vt 0.718750 0.625000
vt 0.750000 0.625000
vt 0.781250 0.625000
vt 0.812500 0.625000
vt 0.843750 0.625000
vt 0.687500 0.656250
vt 0.656250 0.656250
vt 0.718750 0.656250
vt 0.750000 0.656250
vt 0.781250 0.656250
vt 0.812500 0.656250
vt 0.843750 0.656250
vt 0.687500 0.687500
vt 0.656250 0.687500
vt 0.718750 0.687500
vt 0.750000 0.687500
vt 0.781250 0.687500
vt 0.812500 0.687500
vt 0.843750 0.687500
vt 0.687500 0.718750
vt 0.656250 0.718750
vt 0.718750 0.718750
vt 0.750000 0.718750
vt 0.781250 0.718750
vt 0.812500 0.718750
vt 0.843750 0.718750
vt 0.656250 0.500000
vt 0.687500 0.500000
vt 0.718750 0.500000
vt 0.750000 0.500000
vt 0.781250 0.500000
vt 0.812500 0.500000
vt 0.843750 0.500000
vt 0.875000 0.500000
vt 0.875000 0.531250
vt 0.875000 0.562500
vt 0.875000 0.593750
vt 0.875000 0.625000
vt 0.875000 0.656250
vt 0.875000 0.687500
vt 0.875000 0.718750
vt 0.875000 0.750000
vt 0.843750 0.750000
vt 0.812500 0.750000
vt 0.781250 0.750000
vt 0.750000 0.750000
vt 0.718750 0.750000
vt 0.687500 0.750000
vt 0.656250 0.750000
s 1
f 93/1/93 94/2/94 101/3/101 100/4/100
f 94/2/94 95/5/95 102/6/102 101/3/101
f 95/5/95 96/7/96 103/8/103 102/6/102
f 96/7/96 97/9/97 104/10/104 103/8/103
f 97/9/97 98/11/98 105/12/105 104/10/104
f 98/11/98 99/13/99 106/14/106 105/12/105
f 100/4/100 101/3/101 108/15/108 107/16/107
f 101/3/101 102/6/102 109/17/109 108/15/108
f 102/6/102 103/8/103 110/18/110 109/17/109
f 103/8/103 104/10/104 111/19/111 110/18/110
f 104/10/104 105/12/105 112/20/112 111/19/111
f 105/12/105 106/14/106 113/21/113 112/20/112
f 107/16/107 108/15/108 115/22/115 114/23/114
f 108/15/108 109/17/109 116/24/116 115/22/115
f 109/17/109 110/18/110 117/25/117 116/24/116
f 110/18/110 111/19/111 118/26/118 117/25/117
f 111/19/111 112/20/112 119/27/119 118/26/118
f 112/20/112 113/21/113 120/28/120 119/27/119
f 114/23/114 115/22/115 122/29/122 121/30/121
f 115/22/115 116/24/116 123/31/123 122/29/122
f 116/24/116 117/25/117 124/32/124 123/31/123
f 117/25/117 118/26/118 125/33/125 124/32/124
f 118/26/118 119/27/119 126/34/126 125/33/125
f 119/27/119 120/28/120 127/35/127 126/34/126
f 121/30/121 122/29/122 129/36/129 128/37/128
f 122/29/122 123/31/123 130/38/130 129/36/129
f 123/31/123 124/32/124 131/39/131 130/38/130
f 124/32/124 125/33/125 132/40/132 131/39/131
f 125/33/125 126/34/126 133/41/133 132/40/132
f 126/34/126 127/35/127 134/42/134 133/41/133
f 128/37/128 129/36/129 136/43/136 135/44/135
f 129/36/129 130/38/130 137/45/137 136/43/136
f 130/38/130 131/39/131 138/46/138 137/45/137
f 131/39/131 132/40/132 139/47/139 138/46/138
f 132/40/132 133/41/133 140/48/140 139/47/139
f 133/41/133 134/42/134 141/49/141 140/48/140
f 1/50/1 16/51/16 93/1/93 15/52/15
f 16/51/16 17/53/17 94/2/94 93/1/93
f 17/53/17 18/54/18 95/5/95 94/2/94
f 18/54/18 19/55/19 96/7/96 95/5/95
f 19/55/19 20/56/20 97/9/97 96/7/96
f 20/56/20 21/57/21 98/11/98 97/9/97
f 21/57/21 22/58/22 99/13/99 98/11/98
f 22/58/22 2/59/2 23/60/23 99/13/99
f 99/13/99 23/60/23 24/61/24 106/14/106
f 106/14/106 24/61/24 25/62/25 113/21/113
f 113/21/113 25/62/25 26/63/26 120/28/120
f 120/28/120 26/63/26 27/64/27 127/35/127
f 127/35/127 27/64/27 28/65/28 134/42/134
f 134/42/134 28/65/28 29/66/29 141/49/141
f 141/49/141 29/66/29 4/67/4 30/68/30
f 140/48/140 141/49/141 30/68/30 31/69/31
f 139/47/139 140/48/140 31/69/31 32/70/32
f 138/46/138 139/47/139 32/70/32 33/71/33
f 137/45/137 138/46/138 33/71/33 34/72/34
f 136/43/136 137/45/137 34/72/34 35/73/35
f 135/44/135 136/43/136 35/73/35 36/74/36
f 9/75/9 135/44/135 36/74/36 3/76/3
f 10/77/10 128/37/128 135/44/135 9/75/9
f 11/78/11 121/30/121 128/37/128 10/77/10
f 12/79/12 114/23/114 121/30/121 11/78/11
f 13/80/13 107/16/107 114/23/114 12/79/12
f 14/81/14 100/4/100 107/16/107 13/80/13
f 15/52/15 93/1/93 100/4/100 14/81/14
f 142/82/142 143/83/143 150/84/150 149/85/149
f 143/83/143 144/86/144 151/87/151 150/84/150
f 144/86/144 145/88/145 152/89/152 151/87/151
f 145/88/145 146/90/146 153/91/153 152/89/152
f 146/90/146 147/92/147 154/93/154 153/91/153
f 147/92/147 148/94/148 155/95/155 154/93/154
f 149/85/149 150/84/150 157/96/157 156/97/156
f 150/84/150 151/87/151 158/98/158 157/96/157
f 151/87/151 152/89/152 159/99/159 158/98/158
f 152/89/152 153/91/153 160/100/160 159/99/159
f 153/91/153 154/93/154 161/101/161 160/100/160
f 154/93/154 155/95/155 162/102/162 161/101/161
f 156/97/156 157/96/157 164/103/164 163/104/163
f 157/96/157 158/98/158 165/105/165 164/103/164
f 158/98/158 159/99/159 166/106/166 165/105/165
f 159/99/159 160/100/160 167/107/167 166/106/166
f 160/100/160 161/101/161 168/108/168 167/107/167
f 161/101/161 162/102/162 169/109/169 168/108/168
f 163/104/163 164/103/164 171/110/171 170/111/170
f 164/103/164 165/105/165 172/112/172 171/110/171
f 165/105/165 166/106/166 173/113/173 172/112/172
f 166/106/166 167/107/167 174/114/174 173/113/173
f 167/107/167 168/108/168 175/115/175 174/114/174
f 168/108/168 169/109/169 176/116/176 175/115/175
f 170/111/170 171/110/171 178/117/178 177/118/177
f 171/110/171 172/112/172 179/119/179 178/117/178
f 172/112/172 173/113/173 180/120/180 179/119/179
f 173/113/173 174/114/174 181/121/181 180/120/180
f 174/114/174 175/115/175 182/122/182 181/121/181
f 175/115/175 176/116/176 183/123/183 182/122/182
f 177/118/177 178/117/178 185/124/185 184/125/184
f 178/117/178 179/119/179 186/126/186 185/124/185
f 179/119/179 180/120/180 187/127/187 186/126/186
f 180/120/180 181/121/181 188/128/188 187/127/187
f 181/121/181 182/122/182 189/129/189 188/128/188
f 182/122/182 183/123/183 190/130/190 189/129/189
f 3/76/3 36/74/36 142/82/142 43/131/43
f 36/74/36 35/73/35 143/83/143 142/82/142
f 35/73/35 34/72/34 144/86/144 143/83/143
f 34/72/34 33/71/33 145/88/145 144/86/144
f 33/71/33 32/70/32 146/90/146 145/88/145
f 32/70/32 31/69/31 147/92/147 146/90/146
f 31/69/31 30/68/30 148/94/148 147/92/147
f 30/68/30 4/67/4 44/132/44 148/94/148
f 148/94/148 44/132/44 45/133/45 155/95/155
f 155/95/155 45/133/45 46/134/46 162/102/162
f 162/102/162 46/134/46 47/135/47 169/109/169
f 169/109/169 47/135/47 48/136/48 176/116/176
f 176/116/176 48/136/48 49/137/49 183/123/183
f 183/123/183 49/137/49 50/138/50 190/130/190
f 190/130/190 50/138/50 8/139/8 51/140/51
f 189/129/189 190/130/190 51/140/51 52/141/52
f 188/128/188 189/129/189 52/141/52 53/142/53
f 187/127/187 188/128/188 53/142/53 54/143/54
f 186/126/186 187/127/187 54/143/54 55/144/55
f 185/124/185 186/126/186 55/144/55 56/145/56
f 184/125/184 185/124/185 56/145/56 57/146/57
f 37/147/37 184/125/184 57/146/57 7/148/7
f 38/149/38 177/118/177 184/125/184 37/147/37
f 39/150/39 170/111/170 177/118/177 38/149/38
f 40/151/40 163/104/163 170/111/170 39/150/39
f 41/152/41 156/97/156 163/104/163 40/151/40
f 42/153/42 149/85/149 156/97/156 41/152/41
f 43/131/43 142/82/142 149/85/149 42/153/42
f 191/154/191 192/155/192 199/156/199 198/157/198
f 192/155/192 193/158/193 200/159/200 199/156/199
f 193/158/193 194/160/194 201/161/201 200/159/200
f 194/160/194 195/162/195 202/163/202 201/161/201
f 195/162/195 196/164/196 203/165/203 202/163/202
f 196/164/196 197/166/197 204/167/204 203/165/203
f 198/157/198 199/156/199 206/168/206 205/169/205
f 199/156/199 200/159/200 207/170/207 206/168/206
f 200/159/200 201/161/201 208/171/208 207/170/207
f 201/161/201 202/163/202 209/172/209 208/171/208
f 202/163/202 203/165/203 210/173/210 209/172/209
f 203/165/203 204/167/204 211/174/211 210/173/210
f 205/169/205 206/168/206 213/175/213 212/176/212
f 206/168/206 207/170/207 214/177/214 213/175/213
f 207/170/207 208/171/208 215/178/215 214/177/214
f 208/171/208 209/172/209 216/179/216 215/178/215
f 209/172/209 210/173/210 217/180/217 216/179/216
f 210/173/210 211/174/211 218/181/218 217/180/217
f 212/176/212 213/175/213 220/182/220 219/183/219
f 213/175/213 214/177/214 221/184/221 220/182/220
f 214/177/214 215/178/215 222/185/222 221/184/221
f 215/178/215 216/179/216 223/186/223 222/185/222
f 216/179/216 217/180/217 224/187/224 223/186/223
f 217/180/217 218/181/218 225/188/225 224/187/224
f 219/183/219 220/182/220 227/189/227 226/190/226
f 220/182/220 221/184/221 228/191/228 227/189/227
f 221/184/221 222/185/222 229/192/229 228/191/228
f 222/185/222 223/186/223 230/193/230 229/192/229
f 223/186/223 224/187/224 231/194/231 230/193/230
f 224/187/224 225/188/225 232/195/232 231/194/231
f 226/190/226 227/189/227 234/196/234 233/197/233
f 227/189/227 228/191/228 235/198/235 234/196/234
f 228/191/228 229/192/229 236/199/236 235/198/235
f 229/192/229 230/193/230 237/200/237 236/199/236
f 230/193/230 231/194/231 238/201/238 237/200/237
f 231/194/231 232/195/232 239/202/239 238/201/238
f 7/148/7 57/146/57 191/154/191 64/203/64
f 57/146/57 56/145/56 192/155/192 191/154/191
f 56/145/56 55/144/55 193/158/193 192/155/192
f 55/144/55 54/143/54 194/160/194 193/158/193
f 54/143/54 53/142/53 195/162/195 194/160/194
f 53/142/53 52/141/52 196/164/196 195/162/195
f 52/141/52 51/140/51 197/166/197 196/164/196
f 51/140/51 8/139/8 65/204/65 197/166/197
f 197/166/197 65/204/65 66/205/66 204/167/204
f 204/167/204 66/205/66 67/206/67 211/174/211
f 211/174/211 67/206/67 68/207/68 218/181/218
f 218/181/218 68/207/68 69/208/69 225/188/225
f 225/188/225 69/208/69 70/209/70 232/195/232
f 232/195/232 70/209/70 71/210/71 239/202/239
f 239/202/239 71/210/71 6/211/6 72/212/72
f 238/201/238 239/202/239 72/212/72 73/213/73
f 237/200/237 238/201/238 73/213/73 74/214/74
f 236/199/236 237/200/237 74/214/74 75/215/75
f 235/198/235 236/199/236 75/215/75 76/216/76
f 234/196/234 235/198/235 76/216/76 77/217/77
f 233/197/233 234/196/234 77/217/77 78/218/78
f 58/219/58 233/197/233 78/218/78 5/220/5
f 59/221/59 226/190/226 233/197/233 58/219/58
f 60/222/60 219/183/219 226/190/226 59/221/59
f 61/223/61 212/176/212 219/183/219 60/222/60
f 62/224/62 205/169/205 212/176/212 61/223/61
f 63/225/63 198/157/198 205/169/205 62/224/62
f 64/203/64 191/154/191 198/157/198 63/225/63
f 240/226/240 241/227/241 248/228/248 247/229/247
f 241/227/241 242/230/242 249/231/249 248/228/248
f 242/230/242 243/232/243 250/233/250 249/231/249
f 243/232/243 244/234/244 251/235/251 250/233/250
f 244/234/244 245/236/245 252/237/252 251/235/251
f 245/236/245 246/238/246 253/239/253 252/237/252
f 247/229/247 248/228/248 255/240/255 254/241/254
f 248/228/248 249/231/249 256/242/256 255/240/255
f 249/231/249 250/233/250 257/243/257 256/242/256
f 250/233/250 251/235/251 258/244/258 257/243/257
f 251/235/251 252/237/252 259/245/259 258/244/258
f 252/237/252 253/239/253 260/246/260 259/245/259
f 254/241/254 255/240/255 262/247/262 261/248/261
f 255/240/255 256/242/256 263/249/263 262/247/262
f 256/242/256 257/243/257 264/250/264 263/249/263
f 257/243/257 258/244/258 265/251/265 264/250/264
f 258/244/258 259/245/259 266/252/266 265/251/265
f 259/245/259 260/246/260 267/253/267 266/252/266
f 261/248/261 262/247/262 269/254/269 268/255/268
f 262/247/262 263/249/263 270/256/270 269/254/269
f 263/249/263 264/250/264 271/257/271 270/256/270
f 264/250/264 265/251/265 272/258/272 271/257/271
f 265/251/265 266/252/266 273/259/273 272/258/272
f 266/252/266 267/253/267 274/260/274 273/259/273
f 268/255/268 269/254/269 276/261/276 275/262/275
f 269/254/269 270/256/270 277/263/277 276/261/276
f 270/256/270 271/257/271 278/264/278 277/263/277
f 271/257/271 272/258/272 279/265/279 278/264/278
f 272/258/272 273/259/273 280/266/280 279/265/279
f 273/259/273 274/260/274 281/267/281 280/266/280
f 275/262/275 276/261/276 283/268/283 282/269/282
f 276/261/276 277/263/277 284/270/284 283/268/283
f 277/263/277 278/264/278 285/271/285 284/270/284
f 278/264/278 279/265/279 286/272/286 285/271/285
f 279/265/279 280/266/280 287/273/287 286/272/286
f 280/266/280 281/267/281 288/274/288 287/273/287
f 5/220/5 78/218/78 240/226/240 85/275/85
f 78/218/78 77/217/77 241/227/241 240/226/240
f 77/217/77 76/216/76 242/230/242 241/227/241
f 76/216/76 75/215/75 243/232/243 242/230/242
f 75/215/75 74/214/74 244/234/244 243/232/243
f 74/214/74 73/213/73 245/236/245 244/234/244
f 73/213/73 72/212/72 246/238/246 245/236/245
f 72/212/72 6/211/6 86/276/86 246/238/246
f 246/238/246 86/276/86 87/277/87 253/239/253
f 253/239/253 87/277/87 88/278/88 260/246/260
f 260/246/260 88/278/88 89/279/89 267/253/267
f 267/253/267 89/279/89 90/280/90 274/260/274
f 274/260/274 90/280/90 91/281/91 281/267/281
f 281/267/281 91/281/91 92/282/92 288/274/288
f 288/274/288 92/282/92 2/283/2 22/284/22
f 287/273/287 288/274/288 22/284/22 21/285/21
f 286/272/286 287/273/287 21/285/21 20/286/20
f 285/271/285 286/272/286 20/286/20 19/287/19
f 284/270/284 285/271/285 19/287/19 18/288/18
f 283/268/283 284/270/284 18/288/18 17/289/17
f 282/269/282 283/268/283 17/289/17 16/290/16
f 79/291/79 282/269/282 16/290/16 1/292/1
f 80/293/80 275/262/275 282/269/282 79/291/79
f 81/294/81 268/255/268 275/262/275 80/293/80
f 82/295/82 261/248/261 268/255/268 81/294/81
f 83/296/83 254/241/254 261/248/261 82/295/82
f 84/297/84 247/229/247 254/241/254 83/296/83
f 85/275/85 240/226/240 247/229/247 84/297/84
f 289/298/289 290/299/290 297/300/297 296/301/296
f 290/299/290 291/302/291 298/303/298 297/300/297
f 291/302/291 292/304/292 299/305/299 298/303/298
f 292/304/292 293/306/293 300/307/300 299/305/299
f 293/306/293 294/308/294 301/309/301 300/307/300
f 294/308/294 295/310/295 302/311/302 301/309/301
f 296/301/296 297/300/297 304/312/304 303/313/303
f 297/300/297 298/303/298 305/314/305 304/312/304
f 298/303/298 299/305/299 306/315/306 305/314/305
f 299/305/299 300/307/300 307/316/307 306/315/306
f 300/307/300 301/309/301 308/317/308 307/316/307
f 301/309/301 302/311/302 309/318/309 308/317/308
f 303/313/303 304/312/304 311/319/311 310/320/310
f 304/312/304 305/314/305 312/321/312 311/319/311
f 305/314/305 306/315/306 313/322/313 312/321/312
f 306/315/306 307/316/307 314/323/314 313/322/313
f 307/316/307 308/317/308 315/324/315 314/323/314
f 308/317/308 309/318/309 316/325/316 315/324/315
f 310/320/310 311/319/311 318/326/318 317/327/317
f 311/319/311 312/321/312 319/328/319 318/326/318
f 312/321/312 313/322/313 320/329/320 319/328/319
f 313/322/313 314/323/314 321/330/321 320/329/320
f 314/323/314 315/324/315 322/331/322 321/330/321
f 315/324/315 316/325/316 323/332/323 322/331/322
f 317/327/317 318/326/318 325/333/325 324/334/324
f 318/326/318 319/328/319 326/335/326 325/333/325
f 319/328/319 320/329/320 327/336/327 326/335/326
f 320/329/320 321/330/321 328/337/328 327/336/327
f 321/330/321 322/331/322 329/338/329 328/337/328
f 322/331/322 323/332/323 330/339/330 329/338/329
f 324/334/324 325/333/325 332/340/332 331/341/331
f 325/333/325 326/335/326 333/342/333 332/340/332
f 326/335/326 327/336/327 334/343/334 333/342/333
f 327/336/327 328/337/328 335/344/335 334/343/334
f 328/337/328 329/338/329 336/345/336 335/344/335
f 329/338/329 330/339/330 337/346/337 336/345/336
f 3/347/3 43/348/43 289/298/289 9/349/9
f 43/348/43 42/350/42 290/299/290 289/298/289
f 42/350/42 41/351/41 291/302/291 290/299/290
f 41/351/41 40/352/40 292/304/292 291/302/291
f 40/352/40 39/353/39 293/306/293 292/304/292
f 39/353/39 38/354/38 294/308/294 293/306/293
f 38/354/38 37/355/37 295/310/295 294/308/294
f 37/355/37 7/148/7 64/203/64 295/310/295
f 295/310/295 64/203/64 63/225/63 302/311/302
f 302/311/302 63/225/63 62/224/62 309/318/309
f 309/318/309 62/224/62 61/223/61 316/325/316
f 316/325/316 61/223/61 60/222/60 323/332/323
f 323/332/323 60/222/60 59/221/59 330/339/330
f 330/339/330 59/221/59 58/219/58 337/346/337
f 337/346/337 58/219/58 5/220/5 85/356/85
f 336/345/336 337/346/337 85/356/85 84/357/84
f 335/344/335 336/345/336 84/357/84 83/358/83
f 334/343/334 335/344/335 83/358/83 82/359/82
f 333/342/333 334/343/334 82/359/82 81/360/81
f 332/340/332 333/342/333 81/360/81 80/361/80
f 331/341/331 332/340/332 80/361/80 79/362/79
f 15/363/15 331/341/331 79/362/79 1/364/1
f 14/365/14 324/334/324 331/341/331 15/363/15
f 13/366/13 317/327/317 324/334/324 14/365/14
f 12/367/12 310/320/310 317/327/317 13/366/13
f 11/368/11 303/313/303 310/320/310 12/367/12
f 10/369/10 296/301/296 303/313/303 11/368/11
f 9/349/9 289/298/289 296/301/296 10/369/10
f 338/370/338 339/371/339 346/372/346 345/373/345
f 339/371/339 340/374/340 347/375/347 346/372/346
f 340/374/340 341/376/341 348/377/348 347/375/347
f 341/376/341 342/378/342 349/379/349 348/377/348
f 342/378/342 343/380/343 350/381/350 349/379/349
f 343/380/343 344/382/344 351/383/351 350/381/350
f 345/373/345 346/372/346 353/384/353 352/385/352
f 346/372/346 347/375/347 354/386/354 353/384/353
f 347/375/347 348/377/348 355/387/355 354/386/354
f 348/377/348 349/379/349 356/388/356 355/387/355
f 349/379/349 350/381/350 357/389/357 356/388/356
f 350/381/350 351/383/351 358/390/358 357/389/357
f 352/385/352 353/384/353 360/391/360 359/392/359
f 353/384/353 354/386/354 361/393/361 360/391/360
f 354/386/354 355/387/355 362/394/362 361/393/361
f 355/387/355 356/388/356 363/395/363 362/394/362
f 356/388/356 357/389/357 364/396/364 363/395/363
f 357/389/357 358/390/358 365/397/365 364/396/364
f 359/392/359 360/391/360 367/398/367 366/399/366
f 360/391/360 361/393/361 368/400/368 367/398/367
f 361/393/361 362/394/362 369/401/369 368/400/368
f 362/394/362 363/395/363 370/402/370 369/401/369
f 363/395/363 364/396/364 371/403/371 370/402/370
f 364/396/364 365/397/365 372/404/372 371/403/371
f 366/399/366 367/398/367 374/405/374 373/406/373
f 367/398/367 368/400/368 375/407/375 374/405/374
f 368/400/368 369/401/369 376/408/376 375/407/375
f 369/401/369 370/402/370 377/409/377 376/408/376
f 370/402/370 371/403/371 378/410/378 377/409/377
f 371/403/371 372/404/372 379/411/379 378/410/378
f 373/406/373 374/405/374 381/412/381 380/413/380
f 374/405/374 375/407/375 382/414/382 381/412/381
f 375/407/375 376/408/376 383/415/383 382/414/382
f 376/408/376 377/409/377 384/416/384 383/415/383
f 377/409/377 378/410/378 385/417/385 384/416/384
f 378/410/378 379/411/379 386/418/386 385/417/385
f 8/139/8 50/419/50 338/370/338 65/204/65
f 50/419/50 49/420/49 339/371/339 338/370/338
f 49/420/49 48/421/48 340/374/340 339/371/339
f 48/421/48 47/422/47 341/376/341 340/374/340
f 47/422/47 46/423/46 342/378/342 341/376/341
f 46/423/46 45/424/45 343/380/343 342/378/342
f 45/424/45 44/425/44 344/382/344 343/380/343
f 44/425/44 4/426/4 29/427/29 344/382/344
f 344/382/344 29/427/29 28/428/28 351/383/351
f 351/383/351 28/428/28 27/429/27 358/390/358
f 358/390/358 27/429/27 26/430/26 365/397/365
f 365/397/365 26/430/26 25/431/25 372/404/372
f 372/404/372 25/431/25 24/432/24 379/411/379
f 379/411/379 24/432/24 23/433/23 386/418/386
f 386/418/386 23/433/23 2/434/2 92/435/92
f 385/417/385 386/418/386 92/435/92 91/436/91
f 384/416/384 385/417/385 91/436/91 90/437/90
f 383/415/383 384/416/384 90/437/90 89/438/89
f 382/414/382 383/415/383 89/438/89 88/439/88
f 381/412/381 382/414/382 88/439/88 87/440/87
f 380/413/380 381/412/381 87/440/87 86/441/86
f 71/210/71 380/413/380 86/441/86 6/211/6
f 70/209/70 373/406/373 380/413/380 71/210/71
f 69/208/69 366/399/366 373/406/373 70/209/70
f 68/207/68 359/392/359 366/399/366 69/208/69
f 67/206/67 352/385/352 359/392/359 68/207/68
f 66/205/66 345/373/345 352/385/352 67/206/67
f 65/204/65 338/370/338 345/373/345 66/205/66
