# Blender 5.2.2 LTS
# www.blender.org
o exit
v -0.460000 -0.500000 0.430000
v -0.460000 -0.480000 0.450000
v -0.480000 -0.480000 0.430000
v -0.460000 -0.494142 0.444142
v -0.471547 -0.491547 0.441547
v -0.474142 -0.480000 0.444142
v -0.474142 -0.494142 0.430000
v -0.460000 0.320000 0.450000
v -0.460000 0.340000 0.430000
v -0.480000 0.320000 0.430000
v -0.460000 0.334142 0.444142
v -0.471547 0.331547 0.441547
v -0.474142 0.334142 0.430000
v -0.474142 0.320000 0.444142
v -0.460000 -0.500000 -0.430000
v -0.480000 -0.480000 -0.430000
v -0.460000 -0.480000 -0.450000
v -0.474142 -0.494142 -0.430000
v -0.471547 -0.491547 -0.441547
v -0.474142 -0.480000 -0.444142
v -0.460000 -0.494142 -0.444142
v -0.460000 0.340000 -0.430000
v -0.460000 0.320000 -0.450000
v -0.480000 0.320000 -0.430000
v -0.460000 0.334142 -0.444142
v -0.471547 0.331547 -0.441547
v -0.474142 0.320000 -0.444142
v -0.474142 0.334142 -0.430000
v -0.300000 -0.500000 0.430000
v -0.280000 -0.480000 0.430000
v -0.300000 -0.480000 0.450000
v -0.285858 -0.494142 0.430000
v -0.288453 -0.491547 0.441547
v -0.285858 -0.480000 0.444142
v -0.300000 -0.494142 0.444142
v -0.300000 0.340000 0.430000
v -0.300000 0.320000 0.450000
v -0.280000 0.320000 0.430000
v -0.300000 0.334142 0.444142
v -0.288453 0.331547 0.441547
v -0.285858 0.320000 0.444142
v -0.285858 0.334142 0.430000
v -0.300000 -0.500000 -0.430000
v -0.300000 -0.480000 -0.450000
v -0.280000 -0.480000 -0.430000
v -0.300000 -0.494142 -0.444142
v -0.288453 -0.491547 -0.441547
v -0.285858 -0.480000 -0.444142
v -0.285858 -0.494142 -0.430000
v -0.300000 0.340000 -0.430000
v -0.280000 0.320000 -0.430000
v -0.300000 0.320000 -0.450000
v -0.285858 0.334142 -0.430000
v -0.288453 0.331547 -0.441547
v -0.285858 0.320000 -0.444142
v -0.300000 0.334142 -0.444142
v 0.300000 -0.500000 0.430000
v 0.300000 -0.480000 0.450000
v 0.280000 -0.480000 0.430000
v 0.300000 -0.494142 0.444142
v 0.288453 -0.491547 0.441547
v 0.285858 -0.480000 0.444142
v 0.285858 -0.494142 0.430000
v 0.300000 0.320000 0.450000
v 0.300000 0.340000 0.430000
v 0.280000 0.320000 0.430000
v 0.300000 0.334142 0.444142
v 0.288453 0.331547 0.441547
v 0.285858 0.334142 0.430000
v 0.285858 0.320000 0.444142
v 0.300000 -0.500000 -0.430000
v 0.280000 -0.480000 -0.430000
v 0.300000 -0.480000 -0.450000
v 0.285858 -0.494142 -0.430000
v 0.288453 -0.491547 -0.441547
v 0.285858 -0.480000 -0.444142
v 0.300000 -0.494142 -0.444142
v 0.300000 0.340000 -0.430000
v 0.300000 0.320000 -0.450000
v 0.280000 0.320000 -0.430000
v 0.300000 0.334142 -0.444142
v 0.288453 0.331547 -0.441547
v 0.285858 0.320000 -0.444142
v 0.285858 0.334142 -0.430000
v 0.460000 -0.500000 0.430000
v 0.480000 -0.480000 0.430000
v 0.460000 -0.480000 0.450000
v 0.474142 -0.494142 0.430000
v 0.471547 -0.491547 0.441547
v 0.474142 -0.480000 0.444142
v 0.460000 -0.494142 0.444142
v 0.460000 0.340000 0.430000
v 0.460000 0.320000 0.450000
v 0.480000 0.320000 0.430000
v 0.460000 0.334142 0.444142
v 0.471547 0.331547 0.441547
v 0.474142 0.320000 0.444142
v 0.474142 0.334142 0.430000
v 0.460000 -0.500000 -0.430000
v 0.460000 -0.480000 -0.450000
v 0.480000 -0.480000 -0.430000
v 0.460000 -0.494142 -0.444142
v 0.471547 -0.491547 -0.441547
v 0.474142 -0.480000 -0.444142
v 0.474142 -0.494142 -0.430000
v 0.460000 0.340000 -0.430000
v 0.480000 0.320000 -0.430000
v 0.460000 0.320000 -0.450000
v 0.474142 0.334142 -0.430000
v 0.471547 0.331547 -0.441547
v 0.474142 0.320000 -0.444142
v 0.460000 0.334142 -0.444142
v 0.472337 0.280000 0.018501
v 0.472337 0.280000 -0.018501
v 0.475511 0.280000 0.000000
v 0.432097 0.280000 0.078421
v 0.458374 0.280000 0.052210
v 0.447503 0.280000 0.067550
v 0.361387 0.280000 0.092290
v 0.398613 0.280000 0.092290
v 0.380000 0.280000 0.095484
v 0.301626 0.280000 0.052210
v 0.327903 0.280000 0.078421
v 0.312497 0.280000 0.067550
v 0.287663 0.280000 -0.018501
v 0.287663 0.280000 0.018501
v 0.284489 0.280000 -0.000000
v 0.327903 0.280000 -0.078421
v 0.301626 0.280000 -0.052210
v 0.312497 0.280000 -0.067550
v 0.398613 0.280000 -0.092290
v 0.361387 0.280000 -0.092290
v 0.380000 0.280000 -0.095484
v 0.458374 0.280000 -0.052210
v 0.432097 0.280000 -0.078421
v 0.447503 0.280000 -0.067550
v 0.456242 0.402250 -0.018501
v 0.456242 0.402250 0.018501
v 0.459308 0.403071 -0.000000
v 0.442755 0.398636 0.052210
v 0.417374 0.391835 0.078421
v 0.432255 0.395822 0.067550
v 0.385031 0.383169 0.092290
v 0.349073 0.373534 0.092290
v 0.367052 0.378351 0.095484
v 0.316730 0.364867 0.078421
v 0.291348 0.358067 0.052210
v 0.301848 0.360880 0.067550
v 0.277861 0.354453 0.018501
v 0.277861 0.354453 -0.018501
v 0.274795 0.353631 -0.000000
v 0.291348 0.358067 -0.052210
v 0.316730 0.364867 -0.078421
v 0.301848 0.360880 -0.067550
v 0.349073 0.373534 -0.092290
v 0.385031 0.383169 -0.092290
v 0.367052 0.378351 -0.095484
v 0.417374 0.391835 -0.078421
v 0.442755 0.398636 -0.052210
v 0.432255 0.395822 -0.067550
v 0.409056 0.516168 -0.018501
v 0.409056 0.516168 0.018501
v 0.411805 0.517756 -0.000000
v 0.396963 0.509187 0.052210
v 0.374207 0.496049 0.078421
v 0.387549 0.503752 0.067550
v 0.345209 0.479307 0.092290
v 0.312970 0.460693 0.092290
v 0.329090 0.470000 0.095484
v 0.283972 0.443951 0.078421
v 0.261216 0.430813 0.052210
v 0.270630 0.436248 0.067550
v 0.249124 0.423832 0.018501
v 0.249124 0.423832 -0.018501
v 0.246375 0.422245 -0.000000
v 0.261216 0.430813 -0.052210
v 0.283972 0.443951 -0.078421
v 0.270630 0.436248 -0.067550
v 0.312970 0.460693 -0.092290
v 0.345209 0.479307 -0.092290
v 0.329090 0.470000 -0.095484
v 0.374207 0.496049 -0.078421
v 0.396963 0.509187 -0.052210
v 0.387549 0.503752 -0.067550
v 0.333992 0.613993 -0.018501
v 0.333992 0.613993 0.018501
v 0.336237 0.616237 -0.000000
v 0.324119 0.604119 0.052210
v 0.305539 0.585539 0.078421
v 0.316433 0.596433 0.067550
v 0.281862 0.561862 0.092290
v 0.255539 0.535539 0.092290
v 0.268701 0.548701 0.095484
v 0.231862 0.511862 0.078421
v 0.213282 0.493282 0.052210
v 0.220968 0.500968 0.067550
v 0.203409 0.483409 0.018501
v 0.203409 0.483409 -0.018501
v 0.201164 0.481164 -0.000000
v 0.213282 0.493282 -0.052210
v 0.231862 0.511862 -0.078421
v 0.220968 0.500968 -0.067550
v 0.255539 0.535539 -0.092290
v 0.281862 0.561862 -0.092290
v 0.268701 0.548701 -0.095484
v 0.305539 0.585539 -0.078421
v 0.324119 0.604119 -0.052210
v 0.316433 0.596433 -0.067550
v 0.236168 0.689056 -0.018501
v 0.236168 0.689056 0.018501
v 0.237755 0.691805 -0.000000
v 0.229187 0.676964 0.052210
v 0.216049 0.654207 0.078421
v 0.223752 0.667549 0.067550
v 0.199307 0.625209 0.092290
v 0.180693 0.592970 0.092290
v 0.190000 0.609090 0.095484
v 0.163951 0.563972 0.078421
v 0.150813 0.541216 0.052210
v 0.156248 0.550630 0.067550
v 0.143832 0.529124 0.018501
v 0.143832 0.529124 -0.018501
v 0.142244 0.526375 -0.000000
v 0.150813 0.541216 -0.052210
v 0.163951 0.563972 -0.078421
v 0.156248 0.550630 -0.067550
v 0.180693 0.592970 -0.092290
v 0.199307 0.625209 -0.092290
v 0.190000 0.609090 -0.095484
v 0.216049 0.654207 -0.078421
v 0.229187 0.676964 -0.052210
v 0.223752 0.667549 -0.067550
v 0.122250 0.736242 -0.018501
v 0.122250 0.736242 0.018501
v 0.123071 0.739308 -0.000000
v 0.118636 0.722755 0.052210
v 0.111835 0.697374 0.078421
v 0.115822 0.712255 0.067550
v 0.103169 0.665031 0.092290
v 0.093534 0.629073 0.092290
v 0.098351 0.647052 0.095484
v 0.084867 0.596730 0.078421
v 0.078067 0.571348 0.052210
v 0.080880 0.581848 0.067550
v 0.074453 0.557861 0.018501
v 0.074453 0.557861 -0.018501
v 0.073631 0.554795 -0.000000
v 0.078067 0.571348 -0.052210
v 0.084867 0.596730 -0.078421
v 0.080880 0.581848 -0.067550
v 0.093534 0.629073 -0.092290
v 0.103169 0.665031 -0.092290
v 0.098351 0.647052 -0.095484
v 0.111835 0.697374 -0.078421
v 0.118636 0.722755 -0.052210
v 0.115822 0.712255 -0.067550
v 0.000000 0.752337 -0.018501
v 0.000000 0.752337 0.018501
v 0.000000 0.755511 -0.000000
v 0.000000 0.738374 0.052210
v 0.000000 0.712097 0.078421
v 0.000000 0.727503 0.067550
v 0.000000 0.678613 0.092290
v 0.000000 0.641387 0.092290
v 0.000000 0.660000 0.095484
v 0.000000 0.607903 0.078421
v 0.000000 0.581626 0.052210
v 0.000000 0.592497 0.067550
v 0.000000 0.567663 0.018501
v 0.000000 0.567663 -0.018501
v 0.000000 0.564489 -0.000000
v 0.000000 0.581626 -0.052210
v 0.000000 0.607903 -0.078421
v 0.000000 0.592497 -0.067550
v 0.000000 0.641387 -0.092290
v 0.000000 0.678613 -0.092290
v 0.000000 0.660000 -0.095484
v 0.000000 0.712097 -0.078421
v 0.000000 0.738374 -0.052210
v 0.000000 0.727503 -0.067550
v -0.122250 0.736242 -0.018501
v -0.122250 0.736242 0.018501
v -0.123071 0.739308 -0.000000
v -0.118636 0.722755 0.052210
v -0.111835 0.697374 0.078421
v -0.115822 0.712255 0.067550
v -0.103169 0.665031 0.092290
v -0.093534 0.629073 0.092290
v -0.098351 0.647052 0.095484
v -0.084867 0.596730 0.078421
v -0.078067 0.571348 0.052210
v -0.080880 0.581849 0.067550
v -0.074453 0.557861 0.018501
v -0.074453 0.557861 -0.018501
v -0.073631 0.554795 -0.000000
v -0.078067 0.571348 -0.052210
v -0.084867 0.596730 -0.078421
v -0.080880 0.581849 -0.067550
v -0.093534 0.629073 -0.092290
v -0.103169 0.665031 -0.092290
v -0.098351 0.647052 -0.095484
v -0.111835 0.697374 -0.078421
v -0.118636 0.722755 -0.052210
v -0.115822 0.712255 -0.067550
v -0.236168 0.689056 -0.018501
v -0.236168 0.689056 0.018501
v -0.237755 0.691805 -0.000000
v -0.229187 0.676964 0.052210
v -0.216049 0.654207 0.078421
v -0.223752 0.667549 0.067550
v -0.199307 0.625209 0.092290
v -0.180693 0.592970 0.092290
v -0.190000 0.609090 0.095484
v -0.163951 0.563972 0.078421
v -0.150813 0.541216 0.052210
v -0.156248 0.550630 0.067550
v -0.143832 0.529124 0.018501
v -0.143832 0.529124 -0.018501
v -0.142244 0.526375 -0.000000
v -0.150813 0.541216 -0.052210
v -0.163951 0.563972 -0.078421
v -0.156248 0.550630 -0.067550
v -0.180693 0.592970 -0.092290
v -0.199307 0.625209 -0.092290
v -0.190000 0.609090 -0.095484
v -0.216049 0.654207 -0.078421
v -0.229187 0.676964 -0.052210
v -0.223752 0.667549 -0.067550
v -0.333993 0.613992 -0.018501
v -0.333993 0.613992 0.018501
v -0.336237 0.616237 -0.000000
v -0.324119 0.604119 0.052210
v -0.305539 0.585539 0.078421
v -0.316433 0.596433 0.067550
v -0.281862 0.561862 0.092290
v -0.255539 0.535539 0.092290
v -0.268701 0.548701 0.095484
v -0.231862 0.511862 0.078421
v -0.213282 0.493282 0.052210
v -0.220968 0.500968 0.067550
v -0.203409 0.483409 0.018501
v -0.203409 0.483409 -0.018501
v -0.201164 0.481164 -0.000000
v -0.213282 0.493282 -0.052210
v -0.231862 0.511862 -0.078421
v -0.220968 0.500968 -0.067550
v -0.255539 0.535539 -0.092290
v -0.281862 0.561862 -0.092290
v -0.268701 0.548701 -0.095484
v -0.305539 0.585539 -0.078421
v -0.324119 0.604119 -0.052210
v -0.316433 0.596433 -0.067550
v -0.409056 0.516168 -0.018501
v -0.409056 0.516168 0.018501
v -0.411804 0.517756 -0.000000
v -0.396963 0.509187 0.052210
v -0.374207 0.496049 0.078421
v -0.387549 0.503752 0.067550
v -0.345209 0.479307 0.092290
v -0.312970 0.460693 0.092290
v -0.329090 0.470000 0.095484
v -0.283972 0.443951 0.078421
v -0.261216 0.430813 0.052210
v -0.270630 0.436248 0.067550
v -0.249124 0.423832 0.018501
v -0.249124 0.423832 -0.018501
v -0.246375 0.422245 -0.000000
v -0.261216 0.430813 -0.052210
v -0.283972 0.443951 -0.078421
v -0.270630 0.436248 -0.067550
v -0.312970 0.460693 -0.092290
v -0.345209 0.479307 -0.092290
v -0.329090 0.470000 -0.095484
v -0.374207 0.496049 -0.078421
v -0.396963 0.509187 -0.052210
v -0.387549 0.503752 -0.067550
v -0.456242 0.402250 -0.018501
v -0.456242 0.402250 0.018501
v -0.459308 0.403071 -0.000000
v -0.442755 0.398636 0.052210
v -0.417374 0.391835 0.078421
v -0.432255 0.395822 0.067550
v -0.385031 0.383169 0.092290
v -0.349073 0.373534 0.092290
v -0.367052 0.378351 0.095484
v -0.316730 0.364867 0.078421
v -0.291348 0.358067 0.052210
v -0.301848 0.360880 0.067550
v -0.277861 0.354453 0.018501
v -0.277861 0.354453 -0.018501
v -0.274795 0.353631 -0.000000
v -0.291348 0.358067 -0.052210
v -0.316730 0.364867 -0.078421
v -0.301848 0.360880 -0.067550
v -0.349073 0.373534 -0.092290
v -0.385031 0.383169 -0.092290
v -0.367052 0.378351 -0.095484
v -0.417374 0.391835 -0.078421
v -0.442755 0.398636 -0.052210
v -0.432255 0.395822 -0.067550
v -0.472337 0.280000 -0.018501
v -0.472337 0.280000 0.018501
v -0.475511 0.280000 -0.000000
v -0.458374 0.280000 0.052210
v -0.432097 0.280000 0.078421
v -0.447503 0.280000 0.067550
v -0.398613 0.280000 0.092290
v -0.361387 0.280000 0.092290
v -0.380000 0.280000 0.095484
v -0.327903 0.280000 0.078421
v -0.301626 0.280000 0.052210
v -0.312497 0.280000 0.067550
v -0.287663 0.280000 0.018501
v -0.287663 0.280000 -0.018501
v -0.284489 0.280000 0.000000
v -0.301626 0.280000 -0.052210
v -0.327903 0.280000 -0.078421
v -0.312497 0.280000 -0.067550
v -0.361387 0.280000 -0.092290
v -0.398613 0.280000 -0.092290
v -0.380000 0.280000 -0.095484
v -0.432097 0.280000 -0.078421
v -0.458374 0.280000 -0.052210
v -0.447503 0.280000 -0.067550
v -0.456242 0.157750 -0.018501
v -0.456242 0.157750 0.018501
v -0.459308 0.156929 0.000000
v -0.442755 0.161364 0.052210
v -0.417374 0.168165 0.078421
v -0.432255 0.164178 0.067550
v -0.385031 0.176831 0.092290
v -0.349073 0.186466 0.092290
v -0.367052 0.181649 0.095484
v -0.316730 0.195133 0.078421
v -0.291348 0.201933 0.052210
v -0.301848 0.199120 0.067550
v -0.277861 0.205547 0.018501
v -0.277861 0.205547 -0.018501
v -0.274795 0.206369 0.000000
v -0.291348 0.201933 -0.052210
v -0.316730 0.195133 -0.078421
v -0.301848 0.199120 -0.067550
v -0.349073 0.186466 -0.092290
v -0.385031 0.176831 -0.092290
v -0.367052 0.181649 -0.095484
v -0.417374 0.168165 -0.078421
v -0.442755 0.161364 -0.052210
v -0.432255 0.164178 -0.067550
v -0.409056 0.043832 -0.018501
v -0.409056 0.043832 0.018501
v -0.411805 0.042245 0.000000
v -0.396964 0.050813 0.052210
v -0.374207 0.063951 0.078421
v -0.387549 0.056248 0.067550
v -0.345209 0.080693 0.092290
v -0.312970 0.099307 0.092290
v -0.329090 0.090000 0.095484
v -0.283972 0.116049 0.078421
v -0.261216 0.129187 0.052210
v -0.270630 0.123752 0.067550
v -0.249124 0.136168 0.018501
v -0.249124 0.136168 -0.018501
v -0.246375 0.137756 0.000000
v -0.261216 0.129187 -0.052210
v -0.283972 0.116049 -0.078421
v -0.270630 0.123752 -0.067550
v -0.312970 0.099307 -0.092290
v -0.345209 0.080693 -0.092290
v -0.329090 0.090000 -0.095484
v -0.374207 0.063951 -0.078421
v -0.396964 0.050813 -0.052210
v -0.387549 0.056248 -0.067550
v -0.333993 -0.053992 -0.018501
v -0.333993 -0.053992 0.018501
v -0.336237 -0.056237 0.000000
v -0.324119 -0.044119 0.052210
v -0.305539 -0.025539 0.078421
v -0.316433 -0.036433 0.067550
v -0.281862 -0.001862 0.092290
v -0.255539 0.024461 0.092290
v -0.268701 0.011299 0.095484
v -0.231862 0.048138 0.078421
v -0.213282 0.066718 0.052210
v -0.220968 0.059032 0.067550
v -0.203409 0.076591 0.018501
v -0.203409 0.076591 -0.018501
v -0.201164 0.078836 0.000000
v -0.213282 0.066718 -0.052210
v -0.231862 0.048138 -0.078421
v -0.220968 0.059032 -0.067550
v -0.255539 0.024461 -0.092290
v -0.281862 -0.001862 -0.092290
v -0.268701 0.011299 -0.095484
v -0.305539 -0.025539 -0.078421
v -0.324119 -0.044119 -0.052210
v -0.316433 -0.036433 -0.067550
v -0.236168 -0.129056 -0.018501
v -0.236168 -0.129056 0.018501
v -0.237755 -0.131805 0.000000
v -0.229187 -0.116963 0.052210
v -0.216049 -0.094207 0.078421
v -0.223752 -0.107549 0.067550
v -0.199307 -0.065209 0.092290
v -0.180693 -0.032970 0.092290
v -0.190000 -0.049090 0.095484
v -0.163951 -0.003972 0.078421
v -0.150813 0.018784 0.052210
v -0.156248 0.009370 0.067550
v -0.143832 0.030876 0.018501
v -0.143832 0.030876 -0.018501
v -0.142244 0.033625 0.000000
v -0.150813 0.018784 -0.052210
v -0.163951 -0.003972 -0.078421
v -0.156248 0.009370 -0.067550
v -0.180693 -0.032970 -0.092290
v -0.199307 -0.065209 -0.092290
v -0.190000 -0.049090 -0.095484
v -0.216049 -0.094207 -0.078421
v -0.229187 -0.116963 -0.052210
v -0.223752 -0.107549 -0.067550
v -0.122250 -0.176242 -0.018501
v -0.122250 -0.176242 0.018501
v -0.123071 -0.179308 0.000000
v -0.118636 -0.162755 0.052210
v -0.111835 -0.137374 0.078421
v -0.115823 -0.152255 0.067550
v -0.103169 -0.105031 0.092290
v -0.093534 -0.069073 0.092290
v -0.098351 -0.087052 0.095484
v -0.084868 -0.036730 0.078421
v -0.078067 -0.011348 0.052210
v -0.080880 -0.021848 0.067550
v -0.074453 0.002139 0.018501
v -0.074453 0.002139 -0.018501
v -0.073631 0.005205 0.000000
v -0.078067 -0.011348 -0.052210
v -0.084868 -0.036730 -0.078421
v -0.080880 -0.021848 -0.067550
v -0.093534 -0.069073 -0.092290
v -0.103169 -0.105031 -0.092290
v -0.098351 -0.087052 -0.095484
v -0.111835 -0.137374 -0.078421
v -0.118636 -0.162755 -0.052210
v -0.115823 -0.152255 -0.067550
v 0.000000 -0.192337 -0.018501
v 0.000000 -0.192337 0.018501
v 0.000000 -0.195511 0.000000
v 0.000000 -0.178374 0.052210
v 0.000000 -0.152097 0.078421
v 0.000000 -0.167503 0.067550
v 0.000000 -0.118613 0.092290
v 0.000000 -0.081387 0.092290
v 0.000000 -0.100000 0.095484
v 0.000000 -0.047903 0.078421
v 0.000000 -0.021626 0.052210
v 0.000000 -0.032497 0.067550
v 0.000000 -0.007663 0.018501
v 0.000000 -0.007663 -0.018501
v 0.000000 -0.004489 0.000000
v 0.000000 -0.021626 -0.052210
v 0.000000 -0.047903 -0.078421
v 0.000000 -0.032497 -0.067550
v 0.000000 -0.081387 -0.092290
v 0.000000 -0.118613 -0.092290
v 0.000000 -0.100000 -0.095484
v 0.000000 -0.152097 -0.078421
v 0.000000 -0.178374 -0.052210
v 0.000000 -0.167503 -0.067550
v 0.122250 -0.176242 -0.018501
v 0.122250 -0.176242 0.018501
v 0.123071 -0.179308 0.000000
v 0.118636 -0.162755 0.052210
v 0.111835 -0.137374 0.078421
v 0.115822 -0.152255 0.067550
v 0.103169 -0.105031 0.092290
v 0.093534 -0.069073 0.092290
v 0.098351 -0.087052 0.095484
v 0.084867 -0.036730 0.078421
v 0.078066 -0.011348 0.052210
v 0.080880 -0.021849 0.067550
v 0.074453 0.002139 0.018501
v 0.074453 0.002139 -0.018501
v 0.073631 0.005205 0.000000
v 0.078066 -0.011348 -0.052210
v 0.084867 -0.036730 -0.078421
v 0.080880 -0.021849 -0.067550
v 0.093534 -0.069073 -0.092290
v 0.103169 -0.105031 -0.092290
v 0.098351 -0.087052 -0.095484
v 0.111835 -0.137374 -0.078421
v 0.118636 -0.162755 -0.052210
v 0.115822 -0.152255 -0.067550
v 0.236168 -0.129056 -0.018501
v 0.236168 -0.129056 0.018501
v 0.237755 -0.131805 0.000000
v 0.229187 -0.116963 0.052210
v 0.216049 -0.094207 0.078421
v 0.223752 -0.107549 0.067550
v 0.199307 -0.065209 0.092290
v 0.180693 -0.032970 0.092290
v 0.190000 -0.049090 0.095484
v 0.163951 -0.003972 0.078421
v 0.150813 0.018784 0.052210
v 0.156248 0.009370 0.067550
v 0.143832 0.030876 0.018501
v 0.143832 0.030876 -0.018501
v 0.142244 0.033625 0.000000
v 0.150813 0.018784 -0.052210
v 0.163951 -0.003972 -0.078421
v 0.156248 0.009370 -0.067550
v 0.180693 -0.032970 -0.092290
v 0.199307 -0.065209 -0.092290
v 0.190000 -0.049090 -0.095484
v 0.216049 -0.094207 -0.078421
v 0.229187 -0.116963 -0.052210
v 0.223752 -0.107549 -0.067550
v 0.333992 -0.053993 -0.018501
v 0.333992 -0.053993 0.018501
v 0.336237 -0.056237 0.000000
v 0.324119 -0.044119 0.052210
v 0.305539 -0.025539 0.078421
v 0.316433 -0.036433 0.067550
v 0.281862 -0.001862 0.092290
v 0.255539 0.024461 0.092290
v 0.268700 0.011299 0.095484
v 0.231862 0.048138 0.078421
v 0.213282 0.066718 0.052210
v 0.220968 0.059031 0.067550
v 0.203409 0.076591 0.018501
v 0.203409 0.076591 -0.018501
v 0.201164 0.078836 0.000000
v 0.213282 0.066718 -0.052210
v 0.231862 0.048138 -0.078421
v 0.220968 0.059031 -0.067550
v 0.255539 0.024461 -0.092290
v 0.281862 -0.001862 -0.092290
v 0.268700 0.011299 -0.095484
v 0.305539 -0.025539 -0.078421
v 0.324119 -0.044119 -0.052210
v 0.316433 -0.036433 -0.067550
v 0.409056 0.043832 -0.018501
v 0.409056 0.043832 0.018501
v 0.411805 0.042244 0.000000
v 0.396963 0.050813 0.052210
v 0.374207 0.063951 0.078421
v 0.387549 0.056248 0.067550
v 0.345209 0.080693 0.092290
v 0.312970 0.099307 0.092290
v 0.329090 0.090000 0.095484
v 0.283972 0.116049 0.078421
v 0.261216 0.129187 0.052210
v 0.270630 0.123752 0.067550
v 0.249124 0.136168 0.018501
v 0.249124 0.136168 -0.018501
v 0.246375 0.137755 0.000000
v 0.261216 0.129187 -0.052210
v 0.283972 0.116049 -0.078421
v 0.270630 0.123752 -0.067550
v 0.312970 0.099307 -0.092290
v 0.345209 0.080693 -0.092290
v 0.329090 0.090000 -0.095484
v 0.374207 0.063951 -0.078421
v 0.396963 0.050813 -0.052210
v 0.387549 0.056248 -0.067550
v 0.456242 0.157750 -0.018501
v 0.456242 0.157750 0.018501
v 0.459308 0.156929 0.000000
v 0.442755 0.161364 0.052210
v 0.417374 0.168165 0.078421
v 0.432255 0.164178 0.067550
v 0.385031 0.176831 0.092290
v 0.349073 0.186466 0.092290
v 0.367052 0.181649 0.095484
v 0.316730 0.195133 0.078421
v 0.291348 0.201934 0.052210
v 0.301848 0.199120 0.067550
v 0.277861 0.205547 0.018501
v 0.277861 0.205547 -0.018501
v 0.274795 0.206369 0.000000
v 0.291348 0.201934 -0.052210
v 0.316730 0.195133 -0.078421
v 0.301848 0.199120 -0.067550
v 0.349073 0.186466 -0.092290
v 0.385031 0.176831 -0.092290
v 0.367052 0.181649 -0.095484
v 0.417374 0.168165 -0.078421
v 0.442755 0.161364 -0.052210
v 0.432255 0.164178 -0.067550
v -0.460000 -0.500000 0.430000
v -0.460000 -0.480000 0.450000
v -0.480000 -0.480000 0.430000
v -0.460000 -0.494142 0.444142
v -0.471547 -0.491547 0.441547
v -0.474142 -0.480000 0.444142
v -0.474142 -0.494142 0.430000
v -0.460000 -0.460000 0.450000
v -0.460000 -0.440000 0.430000
v -0.480000 -0.460000 0.430000
v -0.460000 -0.445858 0.444142
v -0.471547 -0.448453 0.441547
v -0.474142 -0.445858 0.430000
v -0.474142 -0.460000 0.444142
v -0.460000 -0.500000 -0.430000
v -0.480000 -0.480000 -0.430000
v -0.460000 -0.480000 -0.450000
v -0.474142 -0.494142 -0.430000
v -0.471547 -0.491547 -0.441547
v -0.474142 -0.480000 -0.444142
v -0.460000 -0.494142 -0.444142
v -0.460000 -0.440000 -0.430000
v -0.460000 -0.460000 -0.450000
v -0.480000 -0.460000 -0.430000
v -0.460000 -0.445858 -0.444142
v -0.471547 -0.448453 -0.441547
v -0.474142 -0.460000 -0.444142
v -0.474142 -0.445858 -0.430000
v 0.460000 -0.500000 0.430000
v 0.480000 -0.480000 0.430000
v 0.460000 -0.480000 0.450000
v 0.474142 -0.494142 0.430000
v 0.471547 -0.491547 0.441547
v 0.474142 -0.480000 0.444142
v 0.460000 -0.494142 0.444142
v 0.460000 -0.440000 0.430000
v 0.460000 -0.460000 0.450000
v 0.480000 -0.460000 0.430000
v 0.460000 -0.445858 0.444142
v 0.471547 -0.448453 0.441547
v 0.474142 -0.460000 0.444142
v 0.474142 -0.445858 0.430000
v 0.460000 -0.500000 -0.430000
v 0.460000 -0.480000 -0.450000
v 0.480000 -0.480000 -0.430000
v 0.460000 -0.494142 -0.444142
v 0.471547 -0.491547 -0.441547
v 0.474142 -0.480000 -0.444142
v 0.474142 -0.494142 -0.430000
v 0.460000 -0.440000 -0.430000
v 0.480000 -0.460000 -0.430000
v 0.460000 -0.460000 -0.450000
v 0.474142 -0.445858 -0.430000
v 0.471547 -0.448453 -0.441547
v 0.474142 -0.460000 -0.444142
v 0.460000 -0.445858 -0.444142
vn -0.3251 -0.8881 0.3251
vn -0.3251 -0.3251 0.8881
vn -0.8881 -0.3251 0.3251
vn -0.3251 0.3251 0.8881
vn -0.3251 0.8881 0.3251
vn -0.8881 0.3251 0.3251
vn -0.3251 -0.8881 -0.3251
vn -0.8881 -0.3251 -0.3251
vn -0.3251 -0.3251 -0.8881
vn -0.3251 0.8881 -0.3251
vn -0.3251 0.3251 -0.8881
vn -0.8881 0.3251 -0.3251
vn 0.3251 -0.8881 0.3251
vn 0.8881 -0.3251 0.3251
vn 0.3251 -0.3251 0.8881
vn 0.3251 0.8881 0.3251
vn 0.3251 0.3251 0.8881
vn 0.8881 0.3251 0.3251
vn 0.3251 -0.8881 -0.3251
vn 0.3251 -0.3251 -0.8881
vn 0.8881 -0.3251 -0.3251
vn 0.3251 0.8881 -0.3251
vn 0.8881 0.3251 -0.3251
vn 0.3251 0.3251 -0.8881
vn -0.3827 -0.9239 -0.0000
vn -0.9239 -0.3827 -0.0000
vn -0.3827 -0.0000 0.9239
vn -0.9239 -0.0000 0.3827
vn -0.3827 0.9239 -0.0000
vn -0.9239 0.3827 -0.0000
vn -0.3827 -0.0000 -0.9239
vn -0.9239 -0.0000 -0.3827
vn -0.0000 -0.9239 -0.3827
vn -0.0000 -0.3827 -0.9239
vn -0.0000 0.9239 -0.3827
vn -0.0000 0.3827 -0.9239
vn 0.9239 -0.0000 -0.3827
vn 0.3827 -0.0000 -0.9239
vn 0.3827 -0.9239 -0.0000
vn 0.9239 -0.3827 -0.0000
vn 0.3827 0.9239 -0.0000
vn 0.9239 0.3827 -0.0000
vn 0.3827 -0.0000 0.9239
vn 0.9239 -0.0000 0.3827
vn -0.0000 -0.9239 0.3827
vn -0.0000 -0.3827 0.9239
vn -0.0000 0.9239 0.3827
vn -0.0000 0.3827 0.9239
vn 0.9774 0.1287 -0.1677
vn 0.9774 0.1287 0.1677
vn 0.8112 0.1068 0.5749
vn 0.5749 0.0757 0.8147
vn 0.1691 0.0223 0.9854
vn -0.1691 -0.0223 0.9854
vn -0.5749 -0.0757 0.8147
vn -0.8112 -0.1068 0.5749
vn -0.9774 -0.1287 0.1677
vn -0.9774 -0.1287 -0.1677
vn -0.8112 -0.1068 -0.5749
vn -0.5749 -0.0757 -0.8147
vn -0.1691 -0.0223 -0.9854
vn 0.1691 0.0223 -0.9854
vn 0.5749 0.0757 -0.8147
vn 0.8112 0.1068 -0.5749
vn 0.9108 0.3773 -0.1677
vn 0.9108 0.3773 0.1677
vn 0.7560 0.3131 0.5749
vn 0.5357 0.2219 0.8147
vn 0.1575 0.0653 0.9854
vn -0.1575 -0.0653 0.9854
vn -0.5357 -0.2219 0.8147
vn -0.7560 -0.3131 0.5749
vn -0.9108 -0.3773 0.1677
vn -0.9108 -0.3773 -0.1677
vn -0.7560 -0.3131 -0.5749
vn -0.5357 -0.2219 -0.8147
vn -0.1575 -0.0653 -0.9854
vn 0.1575 0.0653 -0.9854
vn 0.5357 0.2219 -0.8147
vn 0.7560 0.3131 -0.5749
vn 0.7821 0.6001 -0.1677
vn 0.7821 0.6001 0.1677
vn 0.6492 0.4981 0.5749
vn 0.4600 0.3530 0.8147
vn 0.1353 0.1038 0.9854
vn -0.1353 -0.1038 0.9854
vn -0.4600 -0.3530 0.8147
vn -0.6492 -0.4981 0.5749
vn -0.7821 -0.6001 0.1677
vn -0.7821 -0.6001 -0.1677
vn -0.6492 -0.4981 -0.5749
vn -0.4600 -0.3530 -0.8147
vn -0.1353 -0.1038 -0.9854
vn 0.1353 0.1038 -0.9854
vn 0.4600 0.3530 -0.8147
vn 0.6492 0.4981 -0.5749
vn 0.6001 0.7821 -0.1677
vn 0.6001 0.7821 0.1677
vn 0.4981 0.6492 0.5749
vn 0.3530 0.4600 0.8147
vn 0.1038 0.1353 0.9854
vn -0.1038 -0.1353 0.9854
vn -0.3530 -0.4600 0.8147
vn -0.4981 -0.6492 0.5749
vn -0.6001 -0.7821 0.1677
vn -0.6001 -0.7821 -0.1677
vn -0.4981 -0.6492 -0.5749
vn -0.3530 -0.4600 -0.8147
vn -0.1038 -0.1353 -0.9854
vn 0.1038 0.1353 -0.9854
vn 0.3530 0.4600 -0.8147
vn 0.4981 0.6492 -0.5749
vn 0.3773 0.9108 -0.1677
vn 0.3773 0.9108 0.1677
vn 0.3131 0.7560 0.5749
vn 0.2219 0.5357 0.8147
vn 0.0653 0.1575 0.9854
vn -0.0653 -0.1575 0.9854
vn -0.2219 -0.5357 0.8147
vn -0.3131 -0.7560 0.5749
vn -0.3773 -0.9108 0.1677
vn -0.3773 -0.9108 -0.1677
vn -0.3131 -0.7560 -0.5749
vn -0.2219 -0.5357 -0.8147
vn -0.0653 -0.1575 -0.9854
vn 0.0653 0.1575 -0.9854
vn 0.2219 0.5357 -0.8147
vn 0.3131 0.7560 -0.5749
vn 0.1287 0.9774 -0.1677
vn 0.1287 0.9774 0.1677
vn 0.1068 0.8112 0.5749
vn 0.0757 0.5749 0.8147
vn 0.0223 0.1691 0.9854
vn -0.0223 -0.1691 0.9854
vn -0.0757 -0.5749 0.8147
vn -0.1068 -0.8112 0.5749
vn -0.1287 -0.9774 0.1677
vn -0.1287 -0.9774 -0.1677
vn -0.1068 -0.8112 -0.5749
vn -0.0757 -0.5749 -0.8147
vn -0.0223 -0.1691 -0.9854
vn 0.0223 0.1691 -0.9854
vn 0.0757 0.5749 -0.8147
vn 0.1068 0.8112 -0.5749
vn -0.1287 0.9774 -0.1677
vn -0.1287 0.9774 0.1677
vn -0.1068 0.8112 0.5749
vn -0.0757 0.5749 0.8147
vn -0.0223 0.1691 0.9854
vn 0.0223 -0.1691 0.9854
vn 0.0757 -0.5749 0.8147
vn 0.1068 -0.8112 0.5749
vn 0.1287 -0.9774 0.1677
vn 0.1287 -0.9774 -0.1677
vn 0.1068 -0.8112 -0.5749
vn 0.0757 -0.5749 -0.8147
vn 0.0223 -0.1691 -0.9854
vn -0.0223 0.1691 -0.9854
vn -0.0757 0.5749 -0.8147
vn -0.1068 0.8112 -0.5749
vn -0.3773 0.9108 -0.1677
vn -0.3773 0.9108 0.1677
vn -0.3131 0.7560 0.5749
vn -0.2219 0.5357 0.8147
vn -0.0653 0.1575 0.9854
vn 0.0653 -0.1575 0.9854
vn 0.2219 -0.5357 0.8147
vn 0.3131 -0.7560 0.5749
vn 0.3773 -0.9108 0.1677
vn 0.3773 -0.9108 -0.1677
vn 0.3131 -0.7560 -0.5749
vn 0.2219 -0.5357 -0.8147
vn 0.0653 -0.1575 -0.9854
vn -0.0653 0.1575 -0.9854
vn -0.2219 0.5357 -0.8147
vn -0.3131 0.7560 -0.5749
vn -0.6001 0.7821 -0.1677
vn -0.6001 0.7821 0.1677
vn -0.4981 0.6492 0.5749
vn -0.3530 0.4600 0.8147
vn -0.1038 0.1353 0.9854
vn 0.1038 -0.1353 0.9854
vn 0.3530 -0.4600 0.8147
vn 0.4981 -0.6492 0.5749
vn 0.6001 -0.7821 0.1677
vn 0.6001 -0.7821 -0.1677
vn 0.4981 -0.6492 -0.5749
vn 0.3530 -0.4600 -0.8147
vn 0.1038 -0.1353 -0.9854
vn -0.1038 0.1353 -0.9854
vn -0.3530 0.4600 -0.8147
vn -0.4981 0.6492 -0.5749
vn -0.7821 0.6001 -0.1677
vn -0.7821 0.6001 0.1677
vn -0.6492 0.4981 0.5749
vn -0.4600 0.3530 0.8147
vn -0.1353 0.1038 0.9854
vn 0.1353 -0.1038 0.9854
vn 0.4600 -0.3530 0.8147
vn 0.6492 -0.4981 0.5749
vn 0.7821 -0.6001 0.1677
vn 0.7821 -0.6001 -0.1677
vn 0.6492 -0.4981 -0.5749
vn 0.4600 -0.3530 -0.8147
vn 0.1353 -0.1038 -0.9854
vn -0.1353 0.1038 -0.9854
vn -0.4600 0.3530 -0.8147
vn -0.6492 0.4981 -0.5749
vn -0.9108 0.3773 -0.1677
vn -0.9108 0.3773 0.1677
vn -0.7560 0.3131 0.5749
vn -0.5357 0.2219 0.8147
vn -0.1575 0.0653 0.9854
vn 0.1575 -0.0653 0.9854
vn 0.5357 -0.2219 0.8147
vn 0.7560 -0.3131 0.5749
vn 0.9108 -0.3773 0.1677
vn 0.9108 -0.3773 -0.1677
vn 0.7560 -0.3131 -0.5749
vn 0.5357 -0.2219 -0.8147
vn 0.1575 -0.0653 -0.9854
vn -0.1575 0.0653 -0.9854
vn -0.5357 0.2219 -0.8147
vn -0.7560 0.3131 -0.5749
vn -0.9774 0.1287 -0.1677
vn -0.9774 0.1287 0.1677
vn -0.8112 0.1068 0.5749
vn -0.5749 0.0757 0.8147
vn -0.1691 0.0223 0.9854
vn 0.1691 -0.0223 0.9854
vn 0.5749 -0.0757 0.8147
vn 0.8112 -0.1068 0.5749
vn 0.9774 -0.1287 0.1677
vn 0.9774 -0.1287 -0.1677
vn 0.8112 -0.1068 -0.5749
vn 0.5749 -0.0757 -0.8147
vn 0.1691 -0.0223 -0.9854
vn -0.1691 0.0223 -0.9854
vn -0.5749 0.0757 -0.8147
vn -0.8112 0.1068 -0.5749
vn -0.0000 -1.0000 -0.0000
vn -1.0000 -0.0000 -0.0000
vn -0.0000 -0.0000 1.0000
vn -0.0000 1.0000 -0.0000
vn -0.0000 -0.0000 -1.0000
vn 1.0000 -0.0000 -0.0000
vn 0.9171 -0.1207 0.3799
vn 0.9171 0.1207 0.3799
vn 0.9171 0.1207 -0.3799
vn 0.9171 -0.1207 -0.3799
vn 0.3822 0.0503 0.9227
vn 0.3822 -0.0503 0.9227
vn -0.3822 -0.0503 0.9227
vn -0.3822 0.0503 0.9227
vn -0.9171 -0.1207 0.3799
vn -0.9171 0.1207 0.3799
vn -0.9171 -0.1207 -0.3799
vn -0.9171 0.1207 -0.3799
vn -0.3822 -0.0503 -0.9227
vn -0.3822 0.0503 -0.9227
vn 0.3822 0.0503 -0.9227
vn 0.3822 -0.0503 -0.9227
vn 0.8546 0.3540 -0.3799
vn 0.8546 0.3540 0.3799
vn 0.3562 0.1475 0.9227
vn -0.3562 -0.1475 0.9227
vn -0.8546 -0.3540 0.3799
vn -0.8546 -0.3540 -0.3799
vn -0.3562 -0.1475 -0.9227
vn 0.3562 0.1475 -0.9227
vn 0.7339 0.5631 -0.3799
vn 0.7339 0.5631 0.3799
vn 0.3058 0.2347 0.9227
vn -0.3058 -0.2347 0.9227
vn -0.7339 -0.5631 0.3799
vn -0.7339 -0.5631 -0.3799
vn -0.3058 -0.2347 -0.9227
vn 0.3058 0.2347 -0.9227
vn 0.5631 0.7339 -0.3799
vn 0.5631 0.7339 0.3799
vn 0.2347 0.3058 0.9227
vn -0.2347 -0.3058 0.9227
vn -0.5631 -0.7339 0.3799
vn -0.5631 -0.7339 -0.3799
vn -0.2347 -0.3058 -0.9227
vn 0.2347 0.3058 -0.9227
vn 0.3540 0.8546 -0.3799
vn 0.3540 0.8546 0.3799
vn 0.1475 0.3562 0.9227
vn -0.1475 -0.3562 0.9227
vn -0.3540 -0.8546 0.3799
vn -0.3540 -0.8546 -0.3799
vn -0.1475 -0.3562 -0.9227
vn 0.1475 0.3562 -0.9227
vn 0.1207 0.9171 -0.3799
vn 0.1207 0.9171 0.3799
vn 0.0503 0.3822 0.9227
vn -0.0503 -0.3822 0.9227
vn -0.1207 -0.9171 0.3799
vn -0.1207 -0.9171 -0.3799
vn -0.0503 -0.3822 -0.9227
vn 0.0503 0.3822 -0.9227
vn -0.1207 0.9171 -0.3799
vn -0.1207 0.9171 0.3799
vn -0.0503 0.3822 0.9227
vn 0.0503 -0.3822 0.9227
vn 0.1207 -0.9171 0.3799
vn 0.1207 -0.9171 -0.3799
vn 0.0503 -0.3822 -0.9227
vn -0.0503 0.3822 -0.9227
vn -0.3540 0.8546 -0.3799
vn -0.3540 0.8546 0.3799
vn -0.1475 0.3562 0.9227
vn 0.1475 -0.3562 0.9227
vn 0.3540 -0.8546 0.3799
vn 0.3540 -0.8546 -0.3799
vn 0.1475 -0.3562 -0.9227
vn -0.1475 0.3562 -0.9227
vn -0.5631 0.7339 -0.3799
vn -0.5631 0.7339 0.3799
vn -0.2347 0.3058 0.9227
vn 0.2347 -0.3058 0.9227
vn 0.5631 -0.7339 0.3799
vn 0.5631 -0.7339 -0.3799
vn 0.2347 -0.3058 -0.9227
vn -0.2347 0.3058 -0.9227
vn -0.7339 0.5631 -0.3799
vn -0.7339 0.5631 0.3799
vn -0.3058 0.2347 0.9227
vn 0.3058 -0.2347 0.9227
vn 0.7339 -0.5631 0.3799
vn 0.7339 -0.5631 -0.3799
vn 0.3058 -0.2347 -0.9227
vn -0.3058 0.2347 -0.9227
vn -0.8546 0.3540 -0.3799
vn -0.8546 0.3540 0.3799
vn -0.3562 0.1475 0.9227
vn 0.3562 -0.1475 0.9227
vn 0.8546 -0.3540 0.3799
vn 0.8546 -0.3540 -0.3799
vn 0.3562 -0.1475 -0.9227
vn -0.3562 0.1475 -0.9227
vt 0.150000 0.744444
vt 0.150000 0.750000
vt 0.135566 0.750000
vt 0.125000 0.744444
vt 0.380952 0.975000
vt 0.380952 1.000000
vt 0.377516 1.000000
vt 0.375000 0.975000
vt 0.380952 0.005556
vt 0.375000 0.005556
vt 0.375000 0.002348
vt 0.380952 0.000000
vt 0.619048 0.975000
vt 0.625000 0.975000
vt 0.625000 0.989434
vt 0.619048 1.000000
vt 0.850000 0.744444
vt 0.875000 0.744444
vt 0.875000 0.747652
vt 0.850000 0.750000
vt 0.619048 0.005556
vt 0.619048 0.000000
vt 0.622484 0.000000
vt 0.625000 0.005556
vt 0.150000 0.505556
vt 0.125000 0.505556
vt 0.125000 0.502348
vt 0.150000 0.500000
vt 0.380952 0.244444
vt 0.380952 0.250000
vt 0.376258 0.255283
vt 0.375000 0.244444
vt 0.380952 0.275000
vt 0.375000 0.275000
vt 0.850000 0.505556
vt 0.850000 0.500000
vt 0.864434 0.500000
vt 0.875000 0.505556
vt 0.619048 0.275000
vt 0.619048 0.250000
vt 0.623742 0.248826
vt 0.625000 0.275000
vt 0.619048 0.244444
vt 0.625000 0.244444
vt 0.350000 0.744444
vt 0.375000 0.744444
vt 0.375839 0.752739
vt 0.362500 0.762500
vt 0.380952 0.744444
vt 0.380952 0.750000
vt 0.380952 0.775000
vt 0.650000 0.744444
vt 0.637500 0.762500
vt 0.627684 0.749217
vt 0.625000 0.744444
vt 0.619048 0.775000
vt 0.619048 0.750000
vt 0.619048 0.744444
vt 0.350000 0.505556
vt 0.362500 0.487500
vt 0.372316 0.500783
vt 0.375000 0.505556
vt 0.380952 0.475000
vt 0.380952 0.500000
vt 0.380952 0.505556
vt 0.650000 0.505556
vt 0.625000 0.505556
vt 0.624161 0.497261
vt 0.637500 0.487500
vt 0.619048 0.505556
vt 0.619048 0.500000
vt 0.619048 0.475000
vt 0.150000 0.500000
vt 0.376258 0.255283
vt 0.375000 0.275000
vt 0.362500 0.762500
vt 0.637500 0.487500
vt 0.130208 0.744444
vt 0.130208 0.750000
vt 0.127201 0.750000
vt 0.458333 0.994792
vt 0.458333 1.000000
vt 0.410221 1.000000
vt 0.375000 0.994792
vt 0.458333 0.005556
vt 0.458333 0.000000
vt 0.541667 0.994792
vt 0.625000 0.994792
vt 0.625000 0.997799
vt 0.541667 1.000000
vt 0.869792 0.744444
vt 0.869792 0.750000
vt 0.541667 0.005556
vt 0.541667 0.000000
vt 0.589779 0.000000
vt 0.130208 0.505556
vt 0.130208 0.500000
vt 0.458333 0.244444
vt 0.458333 0.250000
vt 0.392610 0.251101
vt 0.458333 0.255208
vt 0.375000 0.255208
vt 0.869792 0.505556
vt 0.869792 0.500000
vt 0.872799 0.500000
vt 0.541667 0.255208
vt 0.541667 0.250000
vt 0.607390 0.248826
vt 0.625000 0.255208
vt 0.541667 0.244444
vt 0.369792 0.744444
vt 0.386740 0.749951
vt 0.372396 0.752604
vt 0.458333 0.744444
vt 0.458333 0.750000
vt 0.458333 0.755208
vt 0.630208 0.744444
vt 0.627604 0.752604
vt 0.613994 0.749217
vt 0.541667 0.755208
vt 0.541667 0.750000
vt 0.541667 0.744444
vt 0.369792 0.505556
vt 0.372396 0.497396
vt 0.386006 0.500783
vt 0.458333 0.494792
vt 0.458333 0.500000
vt 0.458333 0.505556
vt 0.630208 0.505556
vt 0.613260 0.500049
vt 0.627604 0.497396
vt 0.541667 0.505556
vt 0.541667 0.500000
vt 0.541667 0.494792
vt 0.500000 0.467295
vt 0.541667 0.467295
vt 0.500000 0.500000
vt 0.541667 0.532705
vt 0.500000 0.532705
vt 0.500000 0.592295
vt 0.541667 0.592295
vt 0.541667 0.625000
vt 0.500000 0.625000
vt 0.541667 0.657904
vt 0.500000 0.657904
vt 0.500000 0.717096
vt 0.541667 0.717096
vt 0.541667 0.750000
vt 0.500000 0.750000
vt 0.541667 0.782904
vt 0.500000 0.782904
vt 0.500000 0.842096
vt 0.541667 0.842096
vt 0.541667 0.875000
vt 0.500000 0.875000
vt 0.541667 0.907705
vt 0.500000 0.907705
vt 0.500000 0.967295
vt 0.541667 0.967295
vt 0.541667 1.000000
vt 0.500000 1.000000
vt 0.500000 0.000000
vt 0.541667 0.000000
vt 0.541667 0.032705
vt 0.500000 0.032705
vt 0.500000 0.092295
vt 0.541667 0.092295
vt 0.541667 0.125000
vt 0.500000 0.125000
vt 0.541667 0.157904
vt 0.500000 0.157904
vt 0.500000 0.217096
vt 0.541667 0.217096
vt 0.541667 0.250000
vt 0.500000 0.250000
vt 0.541667 0.282904
vt 0.500000 0.282904
vt 0.500000 0.342096
vt 0.541667 0.342096
vt 0.541667 0.375000
vt 0.500000 0.375000
vt 0.541667 0.407705
vt 0.500000 0.407705
vt 0.583333 0.467295
vt 0.583333 0.500000
vt 0.583333 0.532705
vt 0.583333 0.592295
vt 0.583333 0.625000
vt 0.583333 0.657904
vt 0.583333 0.717096
vt 0.583333 0.750000
vt 0.583333 0.782904
vt 0.583333 0.842096
vt 0.583333 0.875000
vt 0.583333 0.907705
vt 0.583333 0.967295
vt 0.583333 1.000000
vt 0.583333 0.000000
vt 0.583333 0.032705
vt 0.583333 0.092295
vt 0.583333 0.125000
vt 0.583333 0.157904
vt 0.583333 0.217096
vt 0.583333 0.250000
vt 0.583333 0.282904
vt 0.583333 0.342096
vt 0.583333 0.375000
vt 0.583333 0.407705
vt 0.625000 0.467295
vt 0.625000 0.500000
vt 0.625000 0.532705
vt 0.625000 0.592295
vt 0.625000 0.625000
vt 0.625000 0.657904
vt 0.625000 0.717096
vt 0.625000 0.750000
vt 0.625000 0.782904
vt 0.625000 0.842096
vt 0.625000 0.875000
vt 0.625000 0.907705
vt 0.625000 0.967295
vt 0.625000 1.000000
vt 0.625000 0.000000
vt 0.625000 0.032705
vt 0.625000 0.092295
vt 0.625000 0.125000
vt 0.625000 0.157904
vt 0.625000 0.217096
vt 0.625000 0.250000
vt 0.625000 0.282904
vt 0.625000 0.342096
vt 0.625000 0.375000
vt 0.625000 0.407705
vt 0.666667 0.467295
vt 0.666667 0.500000
vt 0.666667 0.532705
vt 0.666667 0.592295
vt 0.666667 0.625000
vt 0.666667 0.657904
vt 0.666667 0.717096
vt 0.666667 0.750000
vt 0.666667 0.782904
vt 0.666667 0.842096
vt 0.666667 0.875000
vt 0.666667 0.907705
vt 0.666667 0.967295
vt 0.666667 1.000000
vt 0.666667 0.000000
vt 0.666667 0.032705
vt 0.666667 0.092295
vt 0.666667 0.125000
vt 0.666667 0.157904
vt 0.666667 0.217096
vt 0.666667 0.250000
vt 0.666667 0.282904
vt 0.666667 0.342096
vt 0.666667 0.375000
vt 0.666667 0.407705
vt 0.708333 0.467295
vt 0.708333 0.500000
vt 0.708333 0.532705
vt 0.708333 0.592295
vt 0.708333 0.625000
vt 0.708333 0.657904
vt 0.708333 0.717096
vt 0.708333 0.750000
vt 0.708333 0.782904
vt 0.708333 0.842096
vt 0.708333 0.875000
vt 0.708333 0.907705
vt 0.708333 0.967295
vt 0.708333 1.000000
vt 0.708333 0.000000
vt 0.708333 0.032705
vt 0.708333 0.092295
vt 0.708333 0.125000
vt 0.708333 0.157904
vt 0.708333 0.217096
vt 0.708333 0.250000
vt 0.708333 0.282904
vt 0.708333 0.342096
vt 0.708333 0.375000
vt 0.708333 0.407705
vt 0.750000 0.467295
vt 0.750000 0.500000
vt 0.750000 0.532705
vt 0.750000 0.592295
vt 0.750000 0.625000
vt 0.750000 0.657904
vt 0.750000 0.717096
vt 0.750000 0.750000
vt 0.750000 0.782904
vt 0.750000 0.842096
vt 0.750000 0.875000
vt 0.750000 0.907705
vt 0.750000 0.967295
vt 0.750000 1.000000
vt 0.750000 0.000000
vt 0.750000 0.032705
vt 0.750000 0.092295
vt 0.750000 0.125000
vt 0.750000 0.157904
vt 0.750000 0.217096
vt 0.750000 0.250000
vt 0.750000 0.282904
vt 0.750000 0.342096
vt 0.750000 0.375000
vt 0.750000 0.407705
vt 0.791667 0.467295
vt 0.791667 0.500000
vt 0.791667 0.532705
vt 0.791667 0.592295
vt 0.791667 0.625000
vt 0.791667 0.657904
vt 0.791667 0.717096
vt 0.791667 0.750000
vt 0.791667 0.782904
vt 0.791667 0.842096
vt 0.791667 0.875000
vt 0.791667 0.907705
vt 0.791667 0.967295
vt 0.791667 1.000000
vt 0.791667 0.000000
vt 0.791667 0.032705
vt 0.791667 0.092295
vt 0.791667 0.125000
vt 0.791667 0.157904
vt 0.791667 0.217096
vt 0.791667 0.250000
vt 0.791667 0.282904
vt 0.791667 0.342096
vt 0.791667 0.375000
vt 0.791667 0.407705
vt 0.833333 0.467295
vt 0.833333 0.500000
vt 0.833333 0.532705
vt 0.833333 0.592295
vt 0.833333 0.625000
vt 0.833333 0.657904
vt 0.833333 0.717096
vt 0.833333 0.750000
vt 0.833333 0.782904
vt 0.833333 0.842096
vt 0.833333 0.875000
vt 0.833333 0.907705
vt 0.833333 0.967295
vt 0.833333 1.000000
vt 0.833333 0.000000
vt 0.833333 0.032705
vt 0.833333 0.092295
vt 0.833333 0.125000
vt 0.833333 0.157904
vt 0.833333 0.217096
vt 0.833333 0.250000
vt 0.833333 0.282904
vt 0.833333 0.342096
vt 0.833333 0.375000
vt 0.833333 0.407705
vt 0.875000 0.467295
vt 0.875000 0.500000
vt 0.875000 0.532705
vt 0.875000 0.592295
vt 0.875000 0.625000
vt 0.875000 0.657904
vt 0.875000 0.717096
vt 0.875000 0.750000
vt 0.875000 0.782904
vt 0.875000 0.842096
vt 0.875000 0.875000
vt 0.875000 0.907705
vt 0.875000 0.967295
vt 0.875000 1.000000
vt 0.875000 0.000000
vt 0.875000 0.032705
vt 0.875000 0.092295
vt 0.875000 0.125000
vt 0.875000 0.157904
vt 0.875000 0.217096
vt 0.875000 0.250000
vt 0.875000 0.282904
vt 0.875000 0.342096
vt 0.875000 0.375000
vt 0.875000 0.407705
vt 0.916667 0.467295
vt 0.916667 0.500000
vt 0.916667 0.532705
vt 0.916667 0.592295
vt 0.916667 0.625000
vt 0.916667 0.657904
vt 0.916667 0.717096
vt 0.916667 0.750000
vt 0.916667 0.782904
vt 0.916667 0.842096
vt 0.916667 0.875000
vt 0.916667 0.907705
vt 0.916667 0.967295
vt 0.916667 1.000000
vt 0.916667 0.000000
vt 0.916667 0.032705
vt 0.916667 0.092295
vt 0.916667 0.125000
vt 0.916667 0.157904
vt 0.916667 0.217096
vt 0.916667 0.250000
vt 0.916667 0.282904
vt 0.916667 0.342096
vt 0.916667 0.375000
vt 0.916667 0.407705
vt 0.958333 0.467295
vt 0.958333 0.500000
vt 0.958333 0.532705
vt 0.958333 0.592295
vt 0.958333 0.625000
vt 0.958333 0.657904
vt 0.958333 0.717096
vt 0.958333 0.750000
vt 0.958333 0.782904
vt 0.958333 0.842096
vt 0.958333 0.875000
vt 0.958333 0.907705
vt 0.958333 0.967295
vt 0.958333 1.000000
vt 0.958333 0.000000
vt 0.958333 0.032705
vt 0.958333 0.092295
vt 0.958333 0.125000
vt 0.958333 0.157904
vt 0.958333 0.217096
vt 0.958333 0.250000
vt 0.958333 0.282904
vt 0.958333 0.342096
vt 0.958333 0.375000
vt 0.958333 0.407705
vt 1.000000 0.467295
vt 0.999805 0.500000
vt 1.000000 0.532705
vt 1.000000 0.592295
vt 0.999852 0.625000
vt 1.000000 0.657904
vt 1.000000 0.717096
vt 1.000000 0.750000
vt 1.000000 0.782904
vt 1.000000 0.842096
vt 1.000000 0.875000
vt 1.000000 0.907705
vt 1.000000 0.967295
vt 1.000000 1.000000
vt 1.000000 0.000000
vt 1.000000 0.032705
vt 1.000000 0.092295
vt 1.000000 0.125000
vt 1.000000 0.157904
vt 1.000000 0.217096
vt 1.000000 0.250000
vt 1.000000 0.282904
vt 1.000000 0.342096
vt 0.999852 0.375000
vt 1.000000 0.407705
vt -0.000000 0.467295
vt 0.041667 0.467295
vt 0.041667 0.500000
vt 0.000195 0.500000
vt 0.041667 0.532705
vt -0.000000 0.532705
vt -0.000000 0.592295
vt 0.041667 0.592295
vt 0.041667 0.625000
vt 0.000148 0.625000
vt 0.041667 0.657904
vt -0.000000 0.657904
vt -0.000000 0.717096
vt 0.041667 0.717096
vt 0.041667 0.750000
vt -0.000000 0.750000
vt 0.041667 0.782904
vt -0.000000 0.782904
vt -0.000000 0.842096
vt 0.041667 0.842096
vt 0.041667 0.875000
vt -0.000000 0.875000
vt 0.041667 0.907705
vt -0.000000 0.907705
vt -0.000000 0.967295
vt 0.041667 0.967295
vt 0.041667 1.000000
vt -0.000000 1.000000
vt -0.000000 0.000000
vt 0.041667 0.000000
vt 0.041667 0.032705
vt -0.000000 0.032705
vt -0.000000 0.092295
vt 0.041667 0.092295
vt 0.041667 0.125000
vt -0.000000 0.125000
vt 0.041667 0.157904
vt -0.000000 0.157904
vt -0.000000 0.217096
vt 0.041667 0.217096
vt 0.041667 0.250000
vt -0.000000 0.250000
vt 0.041667 0.282904
vt -0.000000 0.282904
vt -0.000000 0.342096
vt 0.041667 0.342096
vt 0.041667 0.375000
vt 0.000148 0.375000
vt 0.041667 0.407705
vt -0.000000 0.407705
vt 0.083333 0.467295
vt 0.083333 0.500000
vt 0.083333 0.532705
vt 0.083333 0.592295
vt 0.083333 0.625000
vt 0.083333 0.657904
vt 0.083333 0.717096
vt 0.083333 0.750000
vt 0.083333 0.782904
vt 0.083333 0.842096
vt 0.083333 0.875000
vt 0.083333 0.907705
vt 0.083333 0.967295
vt 0.083333 1.000000
vt 0.083333 0.000000
vt 0.083333 0.032705
vt 0.083333 0.092295
vt 0.083333 0.125000
vt 0.083333 0.157904
vt 0.083333 0.217096
vt 0.083333 0.250000
vt 0.083333 0.282904
vt 0.083333 0.342096
vt 0.083333 0.375000
vt 0.083333 0.407705
vt 0.125000 0.467295
vt 0.125000 0.500000
vt 0.125000 0.532705
vt 0.125000 0.592295
vt 0.125000 0.625000
vt 0.125000 0.657904
vt 0.125000 0.717096
vt 0.125000 0.750000
vt 0.125000 0.782904
vt 0.125000 0.842096
vt 0.125000 0.875000
vt 0.125000 0.907705
vt 0.125000 0.967295
vt 0.125000 1.000000
vt 0.125000 0.000000
vt 0.125000 0.032705
vt 0.125000 0.092295
vt 0.125000 0.125000
vt 0.125000 0.157904
vt 0.125000 0.217096
vt 0.125000 0.250000
vt 0.125000 0.282904
vt 0.125000 0.342096
vt 0.125000 0.375000
vt 0.125000 0.407705
vt 0.166667 0.467295
vt 0.166667 0.500000
vt 0.166667 0.532705
vt 0.166667 0.592295
vt 0.166667 0.625000
vt 0.166667 0.657904
vt 0.166667 0.717096
vt 0.166667 0.750000
vt 0.166667 0.782904
vt 0.166667 0.842096
vt 0.166667 0.875000
vt 0.166667 0.907705
vt 0.166667 0.967295
vt 0.166667 1.000000
vt 0.166667 0.000000
vt 0.166667 0.032705
vt 0.166667 0.092295
vt 0.166667 0.125000
vt 0.166667 0.157904
vt 0.166667 0.217096
vt 0.166667 0.250000
vt 0.166667 0.282904
vt 0.166667 0.342096
vt 0.166667 0.375000
vt 0.166667 0.407705
vt 0.208333 0.467295
vt 0.208333 0.500000
vt 0.208333 0.532705
vt 0.208333 0.592295
vt 0.208333 0.625000
vt 0.208333 0.657904
vt 0.208333 0.717096
vt 0.208333 0.750000
vt 0.208333 0.782904
vt 0.208333 0.842096
vt 0.208333 0.875000
vt 0.208333 0.907705
vt 0.208333 0.967295
vt 0.208333 1.000000
vt 0.208333 0.000000
vt 0.208333 0.032705
vt 0.208333 0.092295
vt 0.208333 0.125000
vt 0.208333 0.157904
vt 0.208333 0.217096
vt 0.208333 0.250000
vt 0.208333 0.282904
vt 0.208333 0.342096
vt 0.208333 0.375000
vt 0.208333 0.407705
vt 0.250000 0.467295
vt 0.250000 0.500000
vt 0.250000 0.532705
vt 0.250000 0.592295
vt 0.250000 0.625000
vt 0.250000 0.657904
vt 0.250000 0.717096
vt 0.250000 0.750000
vt 0.250000 0.782904
vt 0.250000 0.842096
vt 0.250000 0.875000
vt 0.250000 0.907705
vt 0.250000 0.967295
vt 0.250000 1.000000
vt 0.250000 0.000000
vt 0.250000 0.032705
vt 0.250000 0.092295
vt 0.250000 0.125000
vt 0.250000 0.157904
vt 0.250000 0.217096
vt 0.250000 0.250000
vt 0.250000 0.282904
vt 0.250000 0.342096
vt 0.250000 0.375000
vt 0.250000 0.407705
vt 0.291667 0.467295
vt 0.291667 0.500000
vt 0.291667 0.532705
vt 0.291667 0.592295
vt 0.291667 0.625000
vt 0.291667 0.657904
vt 0.291667 0.717096
vt 0.291667 0.750000
vt 0.291667 0.782904
vt 0.291667 0.842096
vt 0.291667 0.875000
vt 0.291667 0.907705
vt 0.291667 0.967295
vt 0.291667 1.000000
vt 0.291667 0.000000
vt 0.291667 0.032705
vt 0.291667 0.092295
vt 0.291667 0.125000
vt 0.291667 0.157904
vt 0.291667 0.217096
vt 0.291667 0.250000
vt 0.291667 0.282904
vt 0.291667 0.342096
vt 0.291667 0.375000
vt 0.291667 0.407705
vt 0.333333 0.467295
vt 0.333333 0.500000
vt 0.333333 0.532705
vt 0.333333 0.592295
vt 0.333333 0.625000
vt 0.333333 0.657904
vt 0.333333 0.717096
vt 0.333333 0.750000
vt 0.333333 0.782904
vt 0.333333 0.842096
vt 0.333333 0.875000
vt 0.333333 0.907705
vt 0.333333 0.967295
vt 0.333333 1.000000
vt 0.333333 0.000000
vt 0.333333 0.032705
vt 0.333333 0.092295
vt 0.333333 0.125000
vt 0.333333 0.157904
vt 0.333333 0.217096
vt 0.333333 0.250000
vt 0.333333 0.282904
vt 0.333333 0.342096
vt 0.333333 0.375000
vt 0.333333 0.407705
vt 0.375000 0.467295
vt 0.375000 0.500000
vt 0.375000 0.532705
vt 0.375000 0.592295
vt 0.375000 0.625000
vt 0.375000 0.657904
vt 0.375000 0.717096
vt 0.375000 0.750000
vt 0.375000 0.782904
vt 0.375000 0.842096
vt 0.375000 0.875000
vt 0.375000 0.907705
vt 0.375000 0.967295
vt 0.375000 1.000000
vt 0.375000 0.000000
vt 0.375000 0.032705
vt 0.375000 0.092295
vt 0.375000 0.125000
vt 0.375000 0.157904
vt 0.375000 0.217096
vt 0.375000 0.250000
vt 0.375000 0.282904
vt 0.375000 0.342096
vt 0.375000 0.375000
vt 0.375000 0.407705
vt 0.416667 0.467295
vt 0.416667 0.500000
vt 0.416667 0.532705
vt 0.416667 0.592295
vt 0.416667 0.625000
vt 0.416667 0.657904
vt 0.416667 0.717096
vt 0.416667 0.750000
vt 0.416667 0.782904
vt 0.416667 0.842096
vt 0.416667 0.875000
vt 0.416667 0.907705
vt 0.416667 0.967295
vt 0.416667 1.000000
vt 0.416667 0.000000
vt 0.416667 0.032705
vt 0.416667 0.092295
vt 0.416667 0.125000
vt 0.416667 0.157904
vt 0.416667 0.217096
vt 0.416667 0.250000
vt 0.416667 0.282904
vt 0.416667 0.342096
vt 0.416667 0.375000
vt 0.416667 0.407705
vt 0.458333 0.467295
vt 0.458333 0.500000
vt 0.458333 0.532705
vt 0.458333 0.592295
vt 0.458333 0.625000
vt 0.458333 0.657904
vt 0.458333 0.717096
vt 0.458333 0.750000
vt 0.458333 0.782904
vt 0.458333 0.842096
vt 0.458333 0.875000
vt 0.458333 0.907705
vt 0.458333 0.967295
vt 0.458333 1.000000
vt 0.458333 0.000000
vt 0.458333 0.032705
vt 0.458333 0.092295
vt 0.458333 0.125000
vt 0.458333 0.157904
vt 0.458333 0.217096
vt 0.458333 0.250000
vt 0.458333 0.282904
vt 0.458333 0.342096
vt 0.458333 0.375000
vt 0.458333 0.407705
s 0
f 1/1/1 4/2/1 5/3/1 7/4/1
f 2/5/2 6/6/2 5/7/2 4/8/2
f 3/9/3 7/10/3 5/11/3 6/12/3
f 8/13/4 11/14/4 12/15/4 14/16/4
f 9/17/5 13/18/5 12/19/5 11/20/5
f 10/21/6 14/22/6 12/23/6 13/24/6
f 15/25/7 18/26/7 19/27/7 21/28/7
f 16/29/8 20/30/8 19/31/8 18/32/8
f 17/33/9 21/34/9 19/31/9 20/30/9
f 22/35/10 25/36/10 26/37/10 28/38/10
f 23/39/11 27/40/11 26/41/11 25/42/11
f 24/43/12 28/44/12 26/41/12 27/40/12
f 29/45/13 32/46/13 33/47/13 35/48/13
f 30/49/14 34/50/14 33/47/14 32/46/14
f 31/51/15 35/48/15 33/47/15 34/50/15
f 36/52/16 39/53/16 40/54/16 42/55/16
f 37/56/17 41/57/17 40/54/17 39/53/17
f 38/58/18 42/55/18 40/54/18 41/57/18
f 43/59/19 46/60/19 47/61/19 49/62/19
f 44/63/20 48/64/20 47/61/20 46/60/20
f 45/65/21 49/62/21 47/61/21 48/64/21
f 50/66/22 53/67/22 54/68/22 56/69/22
f 51/70/23 55/71/23 54/68/23 53/67/23
f 52/72/24 56/69/24 54/68/24 55/71/24
f 57/1/1 60/2/1 61/3/1 63/4/1
f 58/5/2 62/6/2 61/7/2 60/8/2
f 59/9/3 63/10/3 61/11/3 62/12/3
f 64/13/4 67/14/4 68/15/4 70/16/4
f 65/17/5 69/18/5 68/19/5 67/20/5
f 66/21/6 70/22/6 68/23/6 69/24/6
f 71/25/7 74/26/7 75/27/7 77/73/7
f 72/29/8 76/30/8 75/74/8 74/32/8
f 73/33/9 77/75/9 75/74/9 76/30/9
f 78/35/10 81/36/10 82/37/10 84/38/10
f 79/39/11 83/40/11 82/41/11 81/42/11
f 80/43/12 84/44/12 82/41/12 83/40/12
f 85/45/13 88/46/13 89/47/13 91/76/13
f 86/49/14 90/50/14 89/47/14 88/46/14
f 87/51/15 91/76/15 89/47/15 90/50/15
f 92/52/16 95/53/16 96/54/16 98/55/16
f 93/56/17 97/57/17 96/54/17 95/53/17
f 94/58/18 98/55/18 96/54/18 97/57/18
f 99/59/19 102/60/19 103/61/19 105/62/19
f 100/63/20 104/64/20 103/61/20 102/60/20
f 101/65/21 105/62/21 103/61/21 104/64/21
f 106/66/22 109/67/22 110/68/22 112/77/22
f 107/70/23 111/71/23 110/68/23 109/67/23
f 108/72/24 112/77/24 110/68/24 111/71/24
f 689/78/1 692/79/1 693/80/1 695/4/1
f 690/81/2 694/82/2 693/83/2 692/84/2
f 691/85/3 695/10/3 693/11/3 694/86/3
f 696/87/4 699/88/4 700/89/4 702/90/4
f 697/91/5 701/18/5 700/19/5 699/92/5
f 698/93/6 702/94/6 700/95/6 701/24/6
f 703/96/7 706/26/7 707/27/7 709/97/7
f 704/98/8 708/99/8 707/100/8 706/32/8
f 705/101/9 709/102/9 707/100/9 708/99/9
f 710/103/10 713/104/10 714/105/10 716/38/10
f 711/106/11 715/107/11 714/108/11 713/109/11
f 712/110/12 716/44/12 714/108/12 715/107/12
f 717/111/13 720/46/13 721/112/13 723/113/13
f 718/114/14 722/115/14 721/112/14 720/46/14
f 719/116/15 723/113/15 721/112/15 722/115/15
f 724/117/16 727/118/16 728/119/16 730/55/16
f 725/120/17 729/121/17 728/119/17 727/118/17
f 726/122/18 730/55/18 728/119/18 729/121/18
f 731/123/19 734/124/19 735/125/19 737/62/19
f 732/126/20 736/127/20 735/125/20 734/124/20
f 733/128/21 737/62/21 735/125/21 736/127/21
f 738/129/22 741/67/22 742/130/22 744/131/22
f 739/132/23 743/133/23 742/130/23 741/67/23
f 740/134/24 744/131/24 742/130/24 743/133/24
f 15/25/25 1/1/25 7/4/25 18/26/25
f 18/32/26 7/10/26 3/9/26 16/29/26
f 2/5/27 8/13/27 14/16/27 6/6/27
f 6/12/28 14/22/28 10/21/28 3/9/28
f 9/17/29 22/35/29 28/38/29 13/18/29
f 13/24/30 28/44/30 24/43/30 10/21/30
f 23/39/31 17/33/31 20/30/31 27/40/31
f 27/40/32 20/30/32 16/29/32 24/43/32
f 43/59/33 15/25/33 21/28/33 46/60/33
f 46/60/34 21/34/34 17/33/34 44/63/34
f 22/35/35 50/66/35 56/69/35 25/36/35
f 25/42/36 56/69/36 52/72/36 23/39/36
f 51/70/37 45/65/37 48/64/37 55/71/37
f 55/71/38 48/64/38 44/63/38 52/72/38
f 29/45/39 43/59/39 49/62/39 32/46/39
f 32/46/40 49/62/40 45/65/40 30/49/40
f 50/66/41 36/52/41 42/55/41 53/67/41
f 53/67/42 42/55/42 38/58/42 51/70/42
f 37/56/43 31/51/43 34/50/43 41/57/43
f 41/57/44 34/50/44 30/49/44 38/58/44
f 1/1/45 29/45/45 35/48/45 4/2/45
f 4/8/46 35/48/46 31/51/46 2/5/46
f 36/52/47 9/17/47 11/20/47 39/53/47
f 39/53/48 11/14/48 8/13/48 37/56/48
f 71/25/25 57/1/25 63/4/25 74/26/25
f 74/32/26 63/10/26 59/9/26 72/29/26
f 58/5/27 64/13/27 70/16/27 62/6/27
f 62/12/28 70/22/28 66/21/28 59/9/28
f 65/17/29 78/35/29 84/38/29 69/18/29
f 69/24/30 84/44/30 80/43/30 66/21/30
f 79/39/31 73/33/31 76/30/31 83/40/31
f 83/40/32 76/30/32 72/29/32 80/43/32
f 99/59/33 71/25/33 77/73/33 102/60/33
f 102/60/34 77/75/34 73/33/34 100/63/34
f 78/35/35 106/66/35 112/77/35 81/36/35
f 81/42/36 112/77/36 108/72/36 79/39/36
f 107/70/37 101/65/37 104/64/37 111/71/37
f 111/71/38 104/64/38 100/63/38 108/72/38
f 85/45/39 99/59/39 105/62/39 88/46/39
f 88/46/40 105/62/40 101/65/40 86/49/40
f 106/66/41 92/52/41 98/55/41 109/67/41
f 109/67/42 98/55/42 94/58/42 107/70/42
f 93/56/43 87/51/43 90/50/43 97/57/43
f 97/57/44 90/50/44 86/49/44 94/58/44
f 57/1/45 85/45/45 91/76/45 60/2/45
f 60/8/46 91/76/46 87/51/46 58/5/46
f 92/52/47 65/17/47 67/20/47 95/53/47
f 95/53/48 67/14/48 64/13/48 93/56/48
f 114/135/49 137/136/49 139/133/49 115/137/49
f 115/137/50 139/133/50 138/138/50 113/139/50
f 117/140/51 140/141/51 142/142/51 118/143/51
f 118/143/52 142/142/52 141/144/52 116/145/52
f 120/146/53 143/147/53 145/148/53 121/149/53
f 121/149/54 145/148/54 144/150/54 119/151/54
f 123/152/55 146/153/55 148/154/55 124/155/55
f 124/155/56 148/154/56 147/156/56 122/157/56
f 126/158/57 149/159/57 151/160/57 127/161/57
f 127/162/58 151/163/58 150/164/58 125/165/58
f 129/166/59 152/167/59 154/168/59 130/169/59
f 130/169/60 154/168/60 153/170/60 128/171/60
f 132/172/61 155/173/61 157/174/61 133/175/61
f 133/175/62 157/174/62 156/176/62 131/177/62
f 135/178/63 158/179/63 160/180/63 136/181/63
f 136/181/64 160/180/64 159/182/64 134/183/64
f 137/136/65 161/184/65 163/185/65 139/133/65
f 139/133/66 163/185/66 162/186/66 138/138/66
f 140/141/67 164/187/67 166/188/67 142/142/67
f 142/142/68 166/188/68 165/189/68 141/144/68
f 143/147/69 167/190/69 169/191/69 145/148/69
f 145/148/70 169/191/70 168/192/70 144/150/70
f 146/153/71 170/193/71 172/194/71 148/154/71
f 148/154/72 172/194/72 171/195/72 147/156/72
f 149/159/73 173/196/73 175/197/73 151/160/73
f 151/163/74 175/198/74 174/199/74 150/164/74
f 152/167/75 176/200/75 178/201/75 154/168/75
f 154/168/76 178/201/76 177/202/76 153/170/76
f 155/173/77 179/203/77 181/204/77 157/174/77
f 157/174/78 181/204/78 180/205/78 156/176/78
f 158/179/79 182/206/79 184/207/79 160/180/79
f 160/180/80 184/207/80 183/208/80 159/182/80
f 161/184/81 185/209/81 187/210/81 163/185/81
f 163/185/82 187/210/82 186/211/82 162/186/82
f 164/187/83 188/212/83 190/213/83 166/188/83
f 166/188/84 190/213/84 189/214/84 165/189/84
f 167/190/85 191/215/85 193/216/85 169/191/85
f 169/191/86 193/216/86 192/217/86 168/192/86
f 170/193/87 194/218/87 196/219/87 172/194/87
f 172/194/88 196/219/88 195/220/88 171/195/88
f 173/196/89 197/221/89 199/222/89 175/197/89
f 175/198/90 199/223/90 198/224/90 174/199/90
f 176/200/91 200/225/91 202/226/91 178/201/91
f 178/201/92 202/226/92 201/227/92 177/202/92
f 179/203/93 203/228/93 205/229/93 181/204/93
f 181/204/94 205/229/94 204/230/94 180/205/94
f 182/206/95 206/231/95 208/232/95 184/207/95
f 184/207/96 208/232/96 207/233/96 183/208/96
f 185/209/97 209/234/97 211/235/97 187/210/97
f 187/210/98 211/235/98 210/236/98 186/211/98
f 188/212/99 212/237/99 214/238/99 190/213/99
f 190/213/100 214/238/100 213/239/100 189/214/100
f 191/215/101 215/240/101 217/241/101 193/216/101
f 193/216/102 217/241/102 216/242/102 192/217/102
f 194/218/103 218/243/103 220/244/103 196/219/103
f 196/219/104 220/244/104 219/245/104 195/220/104
f 197/221/105 221/246/105 223/247/105 199/222/105
f 199/223/106 223/248/106 222/249/106 198/224/106
f 200/225/107 224/250/107 226/251/107 202/226/107
f 202/226/108 226/251/108 225/252/108 201/227/108
f 203/228/109 227/253/109 229/254/109 205/229/109
f 205/229/110 229/254/110 228/255/110 204/230/110
f 206/231/111 230/256/111 232/257/111 208/232/111
f 208/232/112 232/257/112 231/258/112 207/233/112
f 209/234/113 233/259/113 235/260/113 211/235/113
f 211/235/114 235/260/114 234/261/114 210/236/114
f 212/237/115 236/262/115 238/263/115 214/238/115
f 214/238/116 238/263/116 237/264/116 213/239/116
f 215/240/117 239/265/117 241/266/117 217/241/117
f 217/241/118 241/266/118 240/267/118 216/242/118
f 218/243/119 242/268/119 244/269/119 220/244/119
f 220/244/120 244/269/120 243/270/120 219/245/120
f 221/246/121 245/271/121 247/272/121 223/247/121
f 223/248/122 247/273/122 246/274/122 222/249/122
f 224/250/123 248/275/123 250/276/123 226/251/123
f 226/251/124 250/276/124 249/277/124 225/252/124
f 227/253/125 251/278/125 253/279/125 229/254/125
f 229/254/126 253/279/126 252/280/126 228/255/126
f 230/256/127 254/281/127 256/282/127 232/257/127
f 232/257/128 256/282/128 255/283/128 231/258/128
f 233/259/129 257/284/129 259/285/129 235/260/129
f 235/260/130 259/285/130 258/286/130 234/261/130
f 236/262/131 260/287/131 262/288/131 238/263/131
f 238/263/132 262/288/132 261/289/132 237/264/132
f 239/265/133 263/290/133 265/291/133 241/266/133
f 241/266/134 265/291/134 264/292/134 240/267/134
f 242/268/135 266/293/135 268/294/135 244/269/135
f 244/269/136 268/294/136 267/295/136 243/270/136
f 245/271/137 269/296/137 271/297/137 247/272/137
f 247/273/138 271/298/138 270/299/138 246/274/138
f 248/275/139 272/300/139 274/301/139 250/276/139
f 250/276/140 274/301/140 273/302/140 249/277/140
f 251/278/141 275/303/141 277/304/141 253/279/141
f 253/279/142 277/304/142 276/305/142 252/280/142
f 254/281/143 278/306/143 280/307/143 256/282/143
f 256/282/144 280/307/144 279/308/144 255/283/144
f 257/284/145 281/309/145 283/310/145 259/285/145
f 259/285/146 283/310/146 282/311/146 258/286/146
f 260/287/147 284/312/147 286/313/147 262/288/147
f 262/288/148 286/313/148 285/314/148 261/289/148
f 263/290/149 287/315/149 289/316/149 265/291/149
f 265/291/150 289/316/150 288/317/150 264/292/150
f 266/293/151 290/318/151 292/319/151 268/294/151
f 268/294/152 292/319/152 291/320/152 267/295/152
f 269/296/153 293/321/153 295/322/153 271/297/153
f 271/298/154 295/323/154 294/324/154 270/299/154
f 272/300/155 296/325/155 298/326/155 274/301/155
f 274/301/156 298/326/156 297/327/156 273/302/156
f 275/303/157 299/328/157 301/329/157 277/304/157
f 277/304/158 301/329/158 300/330/158 276/305/158
f 278/306/159 302/331/159 304/332/159 280/307/159
f 280/307/160 304/332/160 303/333/160 279/308/160
f 281/309/161 305/334/161 307/335/161 283/310/161
f 283/310/162 307/335/162 306/336/162 282/311/162
f 284/312/163 308/337/163 310/338/163 286/313/163
f 286/313/164 310/338/164 309/339/164 285/314/164
f 287/315/165 311/340/165 313/341/165 289/316/165
f 289/316/166 313/341/166 312/342/166 288/317/166
f 290/318/167 314/343/167 316/344/167 292/319/167
f 292/319/168 316/344/168 315/345/168 291/320/168
f 293/321/169 317/346/169 319/347/169 295/322/169
f 295/323/170 319/348/170 318/349/170 294/324/170
f 296/325/171 320/350/171 322/351/171 298/326/171
f 298/326/172 322/351/172 321/352/172 297/327/172
f 299/328/173 323/353/173 325/354/173 301/329/173
f 301/329/174 325/354/174 324/355/174 300/330/174
f 302/331/175 326/356/175 328/357/175 304/332/175
f 304/332/176 328/357/176 327/358/176 303/333/176
f 305/334/177 329/359/177 331/360/177 307/335/177
f 307/335/178 331/360/178 330/361/178 306/336/178
f 308/337/179 332/362/179 334/363/179 310/338/179
f 310/338/180 334/363/180 333/364/180 309/339/180
f 311/340/181 335/365/181 337/366/181 313/341/181
f 313/341/182 337/366/182 336/367/182 312/342/182
f 314/343/183 338/368/183 340/369/183 316/344/183
f 316/344/184 340/369/184 339/370/184 315/345/184
f 317/346/185 341/371/185 343/372/185 319/347/185
f 319/348/186 343/373/186 342/374/186 318/349/186
f 320/350/187 344/375/187 346/376/187 322/351/187
f 322/351/188 346/376/188 345/377/188 321/352/188
f 323/353/189 347/378/189 349/379/189 325/354/189
f 325/354/190 349/379/190 348/380/190 324/355/190
f 326/356/191 350/381/191 352/382/191 328/357/191
f 328/357/192 352/382/192 351/383/192 327/358/192
f 329/359/193 353/384/193 355/385/193 331/360/193
f 331/360/194 355/385/194 354/386/194 330/361/194
f 332/362/195 356/387/195 358/388/195 334/363/195
f 334/363/196 358/388/196 357/389/196 333/364/196
f 335/365/197 359/390/197 361/391/197 337/366/197
f 337/366/198 361/391/198 360/392/198 336/367/198
f 338/368/199 362/393/199 364/394/199 340/369/199
f 340/369/200 364/394/200 363/395/200 339/370/200
f 341/371/201 365/396/201 367/397/201 343/372/201
f 343/373/202 367/398/202 366/399/202 342/374/202
f 344/375/203 368/400/203 370/401/203 346/376/203
f 346/376/204 370/401/204 369/402/204 345/377/204
f 347/378/205 371/403/205 373/404/205 349/379/205
f 349/379/206 373/404/206 372/405/206 348/380/206
f 350/381/207 374/406/207 376/407/207 352/382/207
f 352/382/208 376/407/208 375/408/208 351/383/208
f 353/384/209 377/409/209 379/410/209 355/385/209
f 355/385/210 379/410/210 378/411/210 354/386/210
f 356/387/211 380/412/211 382/413/211 358/388/211
f 358/388/212 382/413/212 381/414/212 357/389/212
f 359/390/213 383/415/213 385/416/213 361/391/213
f 361/391/214 385/416/214 384/417/214 360/392/214
f 362/393/215 386/418/215 388/419/215 364/394/215
f 364/394/216 388/419/216 387/420/216 363/395/216
f 365/396/217 389/421/217 391/422/217 367/397/217
f 367/398/218 391/423/218 390/424/218 366/399/218
f 368/400/219 392/425/219 394/426/219 370/401/219
f 370/401/220 394/426/220 393/427/220 369/402/220
f 371/403/221 395/428/221 397/429/221 373/404/221
f 373/404/222 397/429/222 396/430/222 372/405/222
f 374/406/223 398/431/223 400/432/223 376/407/223
f 376/407/224 400/432/224 399/433/224 375/408/224
f 377/409/225 401/434/225 403/435/225 379/410/225
f 379/410/226 403/435/226 402/436/226 378/411/226
f 380/412/227 404/437/227 406/438/227 382/413/227
f 382/413/228 406/438/228 405/439/228 381/414/228
f 383/415/229 407/440/229 409/441/229 385/416/229
f 385/416/230 409/441/230 408/442/230 384/417/230
f 386/418/231 410/443/231 412/444/231 388/419/231
f 388/419/232 412/444/232 411/445/232 387/420/232
f 389/421/233 413/446/233 415/447/233 391/422/233
f 391/423/234 415/448/234 414/449/234 390/424/234
f 392/425/235 416/450/235 418/451/235 394/426/235
f 394/426/236 418/451/236 417/452/236 393/427/236
f 395/428/237 419/453/237 421/454/237 397/429/237
f 397/429/238 421/454/238 420/455/238 396/430/238
f 398/431/239 422/456/239 424/457/239 400/432/239
f 400/432/240 424/457/240 423/458/240 399/433/240
f 401/459/58 425/460/58 427/461/58 403/462/58
f 403/462/57 427/461/57 426/463/57 402/464/57
f 404/465/56 428/466/56 430/467/56 406/468/56
f 406/468/55 430/467/55 429/469/55 405/470/55
f 407/471/54 431/472/54 433/473/54 409/474/54
f 409/474/53 433/473/53 432/475/53 408/476/53
f 410/477/52 434/478/52 436/479/52 412/480/52
f 412/480/51 436/479/51 435/481/51 411/482/51
f 413/483/50 437/484/50 439/485/50 415/486/50
f 415/487/49 439/488/49 438/489/49 414/490/49
f 416/491/64 440/492/64 442/493/64 418/494/64
f 418/494/63 442/493/63 441/495/63 417/496/63
f 419/497/62 443/498/62 445/499/62 421/500/62
f 421/500/61 445/499/61 444/501/61 420/502/61
f 422/503/60 446/504/60 448/505/60 424/506/60
f 424/506/59 448/505/59 447/507/59 423/508/59
f 425/460/74 449/509/74 451/510/74 427/461/74
f 427/461/73 451/510/73 450/511/73 426/463/73
f 428/466/72 452/512/72 454/513/72 430/467/72
f 430/467/71 454/513/71 453/514/71 429/469/71
f 431/472/70 455/515/70 457/516/70 433/473/70
f 433/473/69 457/516/69 456/517/69 432/475/69
f 434/478/68 458/518/68 460/519/68 436/479/68
f 436/479/67 460/519/67 459/520/67 435/481/67
f 437/484/66 461/521/66 463/522/66 439/485/66
f 439/488/65 463/523/65 462/524/65 438/489/65
f 440/492/80 464/525/80 466/526/80 442/493/80
f 442/493/79 466/526/79 465/527/79 441/495/79
f 443/498/78 467/528/78 469/529/78 445/499/78
f 445/499/77 469/529/77 468/530/77 444/501/77
f 446/504/76 470/531/76 472/532/76 448/505/76
f 448/505/75 472/532/75 471/533/75 447/507/75
f 449/509/90 473/534/90 475/535/90 451/510/90
f 451/510/89 475/535/89 474/536/89 450/511/89
f 452/512/88 476/537/88 478/538/88 454/513/88
f 454/513/87 478/538/87 477/539/87 453/514/87
f 455/515/86 479/540/86 481/541/86 457/516/86
f 457/516/85 481/541/85 480/542/85 456/517/85
f 458/518/84 482/543/84 484/544/84 460/519/84
f 460/519/83 484/544/83 483/545/83 459/520/83
f 461/521/82 485/546/82 487/547/82 463/522/82
f 463/523/81 487/548/81 486/549/81 462/524/81
f 464/525/96 488/550/96 490/551/96 466/526/96
f 466/526/95 490/551/95 489/552/95 465/527/95
f 467/528/94 491/553/94 493/554/94 469/529/94
f 469/529/93 493/554/93 492/555/93 468/530/93
f 470/531/92 494/556/92 496/557/92 472/532/92
f 472/532/91 496/557/91 495/558/91 471/533/91
f 473/534/106 497/559/106 499/560/106 475/535/106
f 475/535/105 499/560/105 498/561/105 474/536/105
f 476/537/104 500/562/104 502/563/104 478/538/104
f 478/538/103 502/563/103 501/564/103 477/539/103
f 479/540/102 503/565/102 505/566/102 481/541/102
f 481/541/101 505/566/101 504/567/101 480/542/101
f 482/543/100 506/568/100 508/569/100 484/544/100
f 484/544/99 508/569/99 507/570/99 483/545/99
f 485/546/98 509/571/98 511/572/98 487/547/98
f 487/548/97 511/573/97 510/574/97 486/549/97
f 488/550/112 512/575/112 514/576/112 490/551/112
f 490/551/111 514/576/111 513/577/111 489/552/111
f 491/553/110 515/578/110 517/579/110 493/554/110
f 493/554/109 517/579/109 516/580/109 492/555/109
f 494/556/108 518/581/108 520/582/108 496/557/108
f 496/557/107 520/582/107 519/583/107 495/558/107
f 497/559/122 521/584/122 523/585/122 499/560/122
f 499/560/121 523/585/121 522/586/121 498/561/121
f 500/562/120 524/587/120 526/588/120 502/563/120
f 502/563/119 526/588/119 525/589/119 501/564/119
f 503/565/118 527/590/118 529/591/118 505/566/118
f 505/566/117 529/591/117 528/592/117 504/567/117
f 506/568/116 530/593/116 532/594/116 508/569/116
f 508/569/115 532/594/115 531/595/115 507/570/115
f 509/571/114 533/596/114 535/597/114 511/572/114
f 511/573/113 535/598/113 534/599/113 510/574/113
f 512/575/128 536/600/128 538/601/128 514/576/128
f 514/576/127 538/601/127 537/602/127 513/577/127
f 515/578/126 539/603/126 541/604/126 517/579/126
f 517/579/125 541/604/125 540/605/125 516/580/125
f 518/581/124 542/606/124 544/607/124 520/582/124
f 520/582/123 544/607/123 543/608/123 519/583/123
f 521/584/138 545/609/138 547/610/138 523/585/138
f 523/585/137 547/610/137 546/611/137 522/586/137
f 524/587/136 548/612/136 550/613/136 526/588/136
f 526/588/135 550/613/135 549/614/135 525/589/135
f 527/590/134 551/615/134 553/616/134 529/591/134
f 529/591/133 553/616/133 552/617/133 528/592/133
f 530/593/132 554/618/132 556/619/132 532/594/132
f 532/594/131 556/619/131 555/620/131 531/595/131
f 533/596/130 557/621/130 559/622/130 535/597/130
f 535/598/129 559/623/129 558/624/129 534/599/129
f 536/600/144 560/625/144 562/626/144 538/601/144
f 538/601/143 562/626/143 561/627/143 537/602/143
f 539/603/142 563/628/142 565/629/142 541/604/142
f 541/604/141 565/629/141 564/630/141 540/605/141
f 542/606/140 566/631/140 568/632/140 544/607/140
f 544/607/139 568/632/139 567/633/139 543/608/139
f 545/609/154 569/634/154 571/635/154 547/610/154
f 547/610/153 571/635/153 570/636/153 546/611/153
f 548/612/152 572/637/152 574/638/152 550/613/152
f 550/613/151 574/638/151 573/639/151 549/614/151
f 551/615/150 575/640/150 577/641/150 553/616/150
f 553/616/149 577/641/149 576/642/149 552/617/149
f 554/618/148 578/643/148 580/644/148 556/619/148
f 556/619/147 580/644/147 579/645/147 555/620/147
f 557/621/146 581/646/146 583/647/146 559/622/146
f 559/623/145 583/648/145 582/649/145 558/624/145
f 560/625/160 584/650/160 586/651/160 562/626/160
f 562/626/159 586/651/159 585/652/159 561/627/159
f 563/628/158 587/653/158 589/654/158 565/629/158
f 565/629/157 589/654/157 588/655/157 564/630/157
f 566/631/156 590/656/156 592/657/156 568/632/156
f 568/632/155 592/657/155 591/658/155 567/633/155
f 569/634/170 593/659/170 595/660/170 571/635/170
f 571/635/169 595/660/169 594/661/169 570/636/169
f 572/637/168 596/662/168 598/663/168 574/638/168
f 574/638/167 598/663/167 597/664/167 573/639/167
f 575/640/166 599/665/166 601/666/166 577/641/166
f 577/641/165 601/666/165 600/667/165 576/642/165
f 578/643/164 602/668/164 604/669/164 580/644/164
f 580/644/163 604/669/163 603/670/163 579/645/163
f 581/646/162 605/671/162 607/672/162 583/647/162
f 583/648/161 607/673/161 606/674/161 582/649/161
f 584/650/176 608/675/176 610/676/176 586/651/176
f 586/651/175 610/676/175 609/677/175 585/652/175
f 587/653/174 611/678/174 613/679/174 589/654/174
f 589/654/173 613/679/173 612/680/173 588/655/173
f 590/656/172 614/681/172 616/682/172 592/657/172
f 592/657/171 616/682/171 615/683/171 591/658/171
f 593/659/186 617/684/186 619/685/186 595/660/186
f 595/660/185 619/685/185 618/686/185 594/661/185
f 596/662/184 620/687/184 622/688/184 598/663/184
f 598/663/183 622/688/183 621/689/183 597/664/183
f 599/665/182 623/690/182 625/691/182 601/666/182
f 601/666/181 625/691/181 624/692/181 600/667/181
f 602/668/180 626/693/180 628/694/180 604/669/180
f 604/669/179 628/694/179 627/695/179 603/670/179
f 605/671/178 629/696/178 631/697/178 607/672/178
f 607/673/177 631/698/177 630/699/177 606/674/177
f 608/675/192 632/700/192 634/701/192 610/676/192
f 610/676/191 634/701/191 633/702/191 609/677/191
f 611/678/190 635/703/190 637/704/190 613/679/190
f 613/679/189 637/704/189 636/705/189 612/680/189
f 614/681/188 638/706/188 640/707/188 616/682/188
f 616/682/187 640/707/187 639/708/187 615/683/187
f 617/684/202 641/709/202 643/710/202 619/685/202
f 619/685/201 643/710/201 642/711/201 618/686/201
f 620/687/200 644/712/200 646/713/200 622/688/200
f 622/688/199 646/713/199 645/714/199 621/689/199
f 623/690/198 647/715/198 649/716/198 625/691/198
f 625/691/197 649/716/197 648/717/197 624/692/197
f 626/693/196 650/718/196 652/719/196 628/694/196
f 628/694/195 652/719/195 651/720/195 627/695/195
f 629/696/194 653/721/194 655/722/194 631/697/194
f 631/698/193 655/723/193 654/724/193 630/699/193
f 632/700/208 656/725/208 658/726/208 634/701/208
f 634/701/207 658/726/207 657/727/207 633/702/207
f 635/703/206 659/728/206 661/729/206 637/704/206
f 637/704/205 661/729/205 660/730/205 636/705/205
f 638/706/204 662/731/204 664/732/204 640/707/204
f 640/707/203 664/732/203 663/733/203 639/708/203
f 641/709/218 665/734/218 667/735/218 643/710/218
f 643/710/217 667/735/217 666/736/217 642/711/217
f 644/712/216 668/737/216 670/738/216 646/713/216
f 646/713/215 670/738/215 669/739/215 645/714/215
f 647/715/214 671/740/214 673/741/214 649/716/214
f 649/716/213 673/741/213 672/742/213 648/717/213
f 650/718/212 674/743/212 676/744/212 652/719/212
f 652/719/211 676/744/211 675/745/211 651/720/211
f 653/721/210 677/746/210 679/747/210 655/722/210
f 655/723/209 679/748/209 678/749/209 654/724/209
f 656/725/224 680/750/224 682/751/224 658/726/224
f 658/726/223 682/751/223 681/752/223 657/727/223
f 659/728/222 683/753/222 685/754/222 661/729/222
f 661/729/221 685/754/221 684/755/221 660/730/221
f 662/731/220 686/756/220 688/757/220 664/732/220
f 664/732/219 688/757/219 687/758/219 663/733/219
f 113/139/233 666/736/233 667/735/233 115/137/233
f 115/137/234 667/735/234 665/734/234 114/135/234
f 116/145/231 669/739/231 670/738/231 118/143/231
f 118/143/232 670/738/232 668/737/232 117/140/232
f 119/151/229 672/742/229 673/741/229 121/149/229
f 121/149/230 673/741/230 671/740/230 120/146/230
f 122/157/227 675/745/227 676/744/227 124/155/227
f 124/155/228 676/744/228 674/743/228 123/152/228
f 125/165/225 678/749/225 679/748/225 127/162/225
f 127/161/226 679/747/226 677/746/226 126/158/226
f 128/171/239 681/752/239 682/751/239 130/169/239
f 130/169/240 682/751/240 680/750/240 129/166/240
f 131/177/237 684/755/237 685/754/237 133/175/237
f 133/175/238 685/754/238 683/753/238 132/172/238
f 134/183/235 687/758/235 688/757/235 136/181/235
f 136/181/236 688/757/236 686/756/236 135/178/236
f 703/96/25 689/78/25 695/4/25 706/26/25
f 706/32/26 695/10/26 691/85/26 704/98/26
f 690/81/27 696/87/27 702/90/27 694/82/27
f 694/86/28 702/94/28 698/93/28 691/85/28
f 697/91/29 710/103/29 716/38/29 701/18/29
f 701/24/30 716/44/30 712/110/30 698/93/30
f 711/106/31 705/101/31 708/99/31 715/107/31
f 715/107/32 708/99/32 704/98/32 712/110/32
f 731/123/33 703/96/33 709/97/33 734/124/33
f 734/124/34 709/102/34 705/101/34 732/126/34
f 710/103/35 738/129/35 744/131/35 713/104/35
f 713/109/36 744/131/36 740/134/36 711/106/36
f 739/132/37 733/128/37 736/127/37 743/133/37
f 743/133/38 736/127/38 732/126/38 740/134/38
f 717/111/39 731/123/39 737/62/39 720/46/39
f 720/46/40 737/62/40 733/128/40 718/114/40
f 738/129/41 724/117/41 730/55/41 741/67/41
f 741/67/42 730/55/42 726/122/42 739/132/42
f 725/120/43 719/116/43 722/115/43 729/121/43
f 729/121/44 722/115/44 718/114/44 726/122/44
f 689/78/45 717/111/45 723/113/45 692/79/45
f 692/84/46 723/113/46 719/116/46 690/81/46
f 724/117/47 697/91/47 699/92/47 727/118/47
f 727/118/48 699/88/48 696/87/48 725/120/48
f 15/25/241 43/59/241 29/45/241 1/1/241
f 3/9/242 10/21/242 24/43/242 16/29/242
f 31/51/243 37/56/243 8/13/243 2/5/243
f 50/66/244 22/35/244 9/17/244 36/52/244
f 17/33/245 23/39/245 52/72/245 44/63/245
f 45/65/246 51/70/246 38/58/246 30/49/246
f 71/25/241 99/59/241 85/45/241 57/1/241
f 59/9/242 66/21/242 80/43/242 72/29/242
f 87/51/243 93/56/243 64/13/243 58/5/243
f 106/66/244 78/35/244 65/17/244 92/52/244
f 73/33/245 79/39/245 108/72/245 100/63/245
f 101/65/246 107/70/246 94/58/246 86/49/246
f 666/736/247 113/139/247 117/140/247 668/737/247
f 113/139/248 138/138/248 140/141/248 117/140/248
f 134/183/249 159/182/249 137/136/249 114/135/249
f 687/758/250 134/183/250 114/135/250 665/734/250
f 116/145/251 141/144/251 143/147/251 120/146/251
f 669/739/252 116/145/252 120/146/252 671/740/252
f 119/151/253 144/150/253 146/153/253 123/152/253
f 672/742/254 119/151/254 123/152/254 674/743/254
f 122/157/255 147/156/255 149/159/255 126/158/255
f 675/745/256 122/157/256 126/158/256 677/746/256
f 125/165/257 150/164/257 152/167/257 129/166/257
f 678/749/258 125/165/258 129/166/258 680/750/258
f 128/171/259 153/170/259 155/173/259 132/172/259
f 681/752/260 128/171/260 132/172/260 683/753/260
f 131/177/261 156/176/261 158/179/261 135/178/261
f 684/755/262 131/177/262 135/178/262 686/756/262
f 159/182/263 183/208/263 161/184/263 137/136/263
f 138/138/264 162/186/264 164/187/264 140/141/264
f 141/144/265 165/189/265 167/190/265 143/147/265
f 144/150/266 168/192/266 170/193/266 146/153/266
f 147/156/267 171/195/267 173/196/267 149/159/267
f 150/164/268 174/199/268 176/200/268 152/167/268
f 153/170/269 177/202/269 179/203/269 155/173/269
f 156/176/270 180/205/270 182/206/270 158/179/270
f 183/208/271 207/233/271 185/209/271 161/184/271
f 162/186/272 186/211/272 188/212/272 164/187/272
f 165/189/273 189/214/273 191/215/273 167/190/273
f 168/192/274 192/217/274 194/218/274 170/193/274
f 171/195/275 195/220/275 197/221/275 173/196/275
f 174/199/276 198/224/276 200/225/276 176/200/276
f 177/202/277 201/227/277 203/228/277 179/203/277
f 180/205/278 204/230/278 206/231/278 182/206/278
f 207/233/279 231/258/279 209/234/279 185/209/279
f 186/211/280 210/236/280 212/237/280 188/212/280
f 189/214/281 213/239/281 215/240/281 191/215/281
f 192/217/282 216/242/282 218/243/282 194/218/282
f 195/220/283 219/245/283 221/246/283 197/221/283
f 198/224/284 222/249/284 224/250/284 200/225/284
f 201/227/285 225/252/285 227/253/285 203/228/285
f 204/230/286 228/255/286 230/256/286 206/231/286
f 231/258/287 255/283/287 233/259/287 209/234/287
f 210/236/288 234/261/288 236/262/288 212/237/288
f 213/239/289 237/264/289 239/265/289 215/240/289
f 216/242/290 240/267/290 242/268/290 218/243/290
f 219/245/291 243/270/291 245/271/291 221/246/291
f 222/249/292 246/274/292 248/275/292 224/250/292
f 225/252/293 249/277/293 251/278/293 227/253/293
f 228/255/294 252/280/294 254/281/294 230/256/294
f 255/283/295 279/308/295 257/284/295 233/259/295
f 234/261/296 258/286/296 260/287/296 236/262/296
f 237/264/297 261/289/297 263/290/297 239/265/297
f 240/267/298 264/292/298 266/293/298 242/268/298
f 243/270/299 267/295/299 269/296/299 245/271/299
f 246/274/300 270/299/300 272/300/300 248/275/300
f 249/277/301 273/302/301 275/303/301 251/278/301
f 252/280/302 276/305/302 278/306/302 254/281/302
f 279/308/303 303/333/303 281/309/303 257/284/303
f 258/286/304 282/311/304 284/312/304 260/287/304
f 261/289/305 285/314/305 287/315/305 263/290/305
f 264/292/306 288/317/306 290/318/306 266/293/306
f 267/295/307 291/320/307 293/321/307 269/296/307
f 270/299/308 294/324/308 296/325/308 272/300/308
f 273/302/309 297/327/309 299/328/309 275/303/309
f 276/305/310 300/330/310 302/331/310 278/306/310
f 303/333/311 327/358/311 305/334/311 281/309/311
f 282/311/312 306/336/312 308/337/312 284/312/312
f 285/314/313 309/339/313 311/340/313 287/315/313
f 288/317/314 312/342/314 314/343/314 290/318/314
f 291/320/315 315/345/315 317/346/315 293/321/315
f 294/324/316 318/349/316 320/350/316 296/325/316
f 297/327/317 321/352/317 323/353/317 299/328/317
f 300/330/318 324/355/318 326/356/318 302/331/318
f 327/358/319 351/383/319 329/359/319 305/334/319
f 306/336/320 330/361/320 332/362/320 308/337/320
f 309/339/321 333/364/321 335/365/321 311/340/321
f 312/342/322 336/367/322 338/368/322 314/343/322
f 315/345/323 339/370/323 341/371/323 317/346/323
f 318/349/324 342/374/324 344/375/324 320/350/324
f 321/352/325 345/377/325 347/378/325 323/353/325
f 324/355/326 348/380/326 350/381/326 326/356/326
f 351/383/327 375/408/327 353/384/327 329/359/327
f 330/361/328 354/386/328 356/387/328 332/362/328
f 333/364/329 357/389/329 359/390/329 335/365/329
f 336/367/330 360/392/330 362/393/330 338/368/330
f 339/370/331 363/395/331 365/396/331 341/371/331
f 342/374/332 366/399/332 368/400/332 344/375/332
f 345/377/333 369/402/333 371/403/333 347/378/333
f 348/380/334 372/405/334 374/406/334 350/381/334
f 375/408/335 399/433/335 377/409/335 353/384/335
f 354/386/336 378/411/336 380/412/336 356/387/336
f 357/389/337 381/414/337 383/415/337 359/390/337
f 360/392/338 384/417/338 386/418/338 362/393/338
f 363/395/339 387/420/339 389/421/339 365/396/339
f 366/399/340 390/424/340 392/425/340 368/400/340
f 369/402/341 393/427/341 395/428/341 371/403/341
f 372/405/342 396/430/342 398/431/342 374/406/342
f 399/433/258 423/458/258 401/434/258 377/409/258
f 378/411/256 402/436/256 404/437/256 380/412/256
f 381/414/254 405/439/254 407/440/254 383/415/254
f 384/417/252 408/442/252 410/443/252 386/418/252
f 387/420/247 411/445/247 413/446/247 389/421/247
f 390/424/250 414/449/250 416/450/250 392/425/250
f 393/427/262 417/452/262 419/453/262 395/428/262
f 396/430/260 420/455/260 422/456/260 398/431/260
f 423/508/257 447/507/257 425/460/257 401/459/257
f 402/464/255 426/463/255 428/466/255 404/465/255
f 405/470/253 429/469/253 431/472/253 407/471/253
f 408/476/251 432/475/251 434/478/251 410/477/251
f 411/482/248 435/481/248 437/484/248 413/483/248
f 414/490/249 438/489/249 440/492/249 416/491/249
f 417/496/261 441/495/261 443/498/261 419/497/261
f 420/502/259 444/501/259 446/504/259 422/503/259
f 447/507/268 471/533/268 449/509/268 425/460/268
f 426/463/267 450/511/267 452/512/267 428/466/267
f 429/469/266 453/514/266 455/515/266 431/472/266
f 432/475/265 456/517/265 458/518/265 434/478/265
f 435/481/264 459/520/264 461/521/264 437/484/264
f 438/489/263 462/524/263 464/525/263 440/492/263
f 441/495/270 465/527/270 467/528/270 443/498/270
f 444/501/269 468/530/269 470/531/269 446/504/269
f 471/533/276 495/558/276 473/534/276 449/509/276
f 450/511/275 474/536/275 476/537/275 452/512/275
f 453/514/274 477/539/274 479/540/274 455/515/274
f 456/517/273 480/542/273 482/543/273 458/518/273
f 459/520/272 483/545/272 485/546/272 461/521/272
f 462/524/271 486/549/271 488/550/271 464/525/271
f 465/527/278 489/552/278 491/553/278 467/528/278
f 468/530/277 492/555/277 494/556/277 470/531/277
f 495/558/284 519/583/284 497/559/284 473/534/284
f 474/536/283 498/561/283 500/562/283 476/537/283
f 477/539/282 501/564/282 503/565/282 479/540/282
f 480/542/281 504/567/281 506/568/281 482/543/281
f 483/545/280 507/570/280 509/571/280 485/546/280
f 486/549/279 510/574/279 512/575/279 488/550/279
f 489/552/286 513/577/286 515/578/286 491/553/286
f 492/555/285 516/580/285 518/581/285 494/556/285
f 519/583/292 543/608/292 521/584/292 497/559/292
f 498/561/291 522/586/291 524/587/291 500/562/291
f 501/564/290 525/589/290 527/590/290 503/565/290
f 504/567/289 528/592/289 530/593/289 506/568/289
f 507/570/288 531/595/288 533/596/288 509/571/288
f 510/574/287 534/599/287 536/600/287 512/575/287
f 513/577/294 537/602/294 539/603/294 515/578/294
f 516/580/293 540/605/293 542/606/293 518/581/293
f 543/608/300 567/633/300 545/609/300 521/584/300
f 522/586/299 546/611/299 548/612/299 524/587/299
f 525/589/298 549/614/298 551/615/298 527/590/298
f 528/592/297 552/617/297 554/618/297 530/593/297
f 531/595/296 555/620/296 557/621/296 533/596/296
f 534/599/295 558/624/295 560/625/295 536/600/295
f 537/602/302 561/627/302 563/628/302 539/603/302
f 540/605/301 564/630/301 566/631/301 542/606/301
f 567/633/308 591/658/308 569/634/308 545/609/308
f 546/611/307 570/636/307 572/637/307 548/612/307
f 549/614/306 573/639/306 575/640/306 551/615/306
f 552/617/305 576/642/305 578/643/305 554/618/305
f 555/620/304 579/645/304 581/646/304 557/621/304
f 558/624/303 582/649/303 584/650/303 560/625/303
f 561/627/310 585/652/310 587/653/310 563/628/310
f 564/630/309 588/655/309 590/656/309 566/631/309
f 591/658/316 615/683/316 593/659/316 569/634/316
f 570/636/315 594/661/315 596/662/315 572/637/315
f 573/639/314 597/664/314 599/665/314 575/640/314
f 576/642/313 600/667/313 602/668/313 578/643/313
f 579/645/312 603/670/312 605/671/312 581/646/312
f 582/649/311 606/674/311 608/675/311 584/650/311
f 585/652/318 609/677/318 611/678/318 587/653/318
f 588/655/317 612/680/317 614/681/317 590/656/317
f 615/683/324 639/708/324 617/684/324 593/659/324
f 594/661/323 618/686/323 620/687/323 596/662/323
f 597/664/322 621/689/322 623/690/322 599/665/322
f 600/667/321 624/692/321 626/693/321 602/668/321
f 603/670/320 627/695/320 629/696/320 605/671/320
f 606/674/319 630/699/319 632/700/319 608/675/319
f 609/677/326 633/702/326 635/703/326 611/678/326
f 612/680/325 636/705/325 638/706/325 614/681/325
f 639/708/332 663/733/332 641/709/332 617/684/332
f 618/686/331 642/711/331 644/712/331 620/687/331
f 621/689/330 645/714/330 647/715/330 623/690/330
f 624/692/329 648/717/329 650/718/329 626/693/329
f 627/695/328 651/720/328 653/721/328 629/696/328
f 630/699/327 654/724/327 656/725/327 632/700/327
f 633/702/334 657/727/334 659/728/334 635/703/334
f 636/705/333 660/730/333 662/731/333 638/706/333
f 663/733/340 687/758/340 665/734/340 641/709/340
f 642/711/339 666/736/339 668/737/339 644/712/339
f 645/714/338 669/739/338 671/740/338 647/715/338
f 648/717/337 672/742/337 674/743/337 650/718/337
f 651/720/336 675/745/336 677/746/336 653/721/336
f 654/724/335 678/749/335 680/750/335 656/725/335
f 657/727/342 681/752/342 683/753/342 659/728/342
f 660/730/341 684/755/341 686/756/341 662/731/341
f 703/96/241 731/123/241 717/111/241 689/78/241
f 691/85/242 698/93/242 712/110/242 704/98/242
f 719/116/243 725/120/243 696/87/243 690/81/243
f 738/129/244 710/103/244 697/91/244 724/117/244
f 705/101/245 711/106/245 740/134/245 732/126/245
f 733/128/246 739/132/246 726/122/246 718/114/246
