# Blender 5.2.2 LTS
# www.blender.org
o boulder
v 0.243320 0.209104 -0.139774
v -0.274306 0.102506 0.221420
v -0.047915 -0.316662 0.006537
v 0.014724 -0.198365 -0.264189
v -0.376703 -0.036807 -0.140471
v -0.259237 0.013474 0.285941
v -0.371864 0.114416 -0.092871
v -0.142348 0.140884 -0.297620
v 0.188899 -0.124305 0.273757
v 0.084610 0.290822 0.109722
v 0.244899 -0.166356 0.191750
v -0.085667 0.320383 -0.058531
v 0.068429 0.088904 0.343538
v 0.240584 0.184276 -0.202960
v -0.271266 -0.189806 0.126679
v -0.034391 -0.206014 0.273635
v 0.291869 0.101698 -0.238431
v 0.050981 -0.191054 -0.275132
v -0.106252 -0.116410 -0.322432
v -0.169575 -0.277660 0.087507
v -0.270596 0.069826 -0.256402
v 0.102586 0.232493 -0.217077
v 0.078091 0.259939 0.196749
v -0.326556 0.067780 -0.159683
v 0.145924 -0.309906 0.031689
v -0.102249 0.064419 -0.332100
v 0.318529 0.148731 -0.133552
v 0.303194 -0.096733 0.167961
v -0.000814 -0.332552 -0.091882
v 0.068209 -0.306298 -0.149954
v 0.253690 0.006899 -0.262668
v -0.307853 0.127587 0.164187
v 0.341528 0.133098 0.073981
v 0.365285 -0.122586 0.001340
v 0.163579 0.285809 0.143384
v -0.264709 0.103781 -0.227779
v 0.362460 0.079746 -0.181694
v 0.202560 -0.039758 0.296843
v 0.072448 -0.022181 -0.348516
v 0.352933 -0.171002 -0.022833
v 0.105705 0.118560 -0.312883
v -0.071061 0.292888 -0.191017
v 0.159267 0.297702 0.099132
v -0.154055 0.055278 -0.315517
v 0.323375 0.140488 0.102080
v -0.276485 -0.221314 -0.080536
v -0.288096 -0.202261 -0.157154
v -0.165777 -0.005271 -0.326313
v -0.099075 0.324914 -0.027723
v 0.093694 -0.311298 0.087532
v -0.294757 0.144074 0.137973
v 0.305982 0.191010 -0.033568
v 0.183421 -0.173351 -0.237961
v 0.312340 -0.227817 -0.028155
v -0.373745 -0.082079 0.122387
v -0.384195 0.011052 0.115597
v -0.390416 -0.028408 0.137423
v -0.389501 -0.063400 0.029332
v -0.405229 0.001547 0.015690
v -0.401347 -0.027037 -0.010335
v -0.404909 -0.025352 0.033168
v -0.338538 -0.183253 -0.027891
v -0.276316 -0.245029 -0.039640
v -0.277201 -0.238739 0.027042
v -0.306606 -0.215645 0.050334
v -0.337367 -0.181271 0.049515
v -0.349332 -0.166977 0.019121
v -0.315521 -0.222985 -0.025660
v 0.139440 -0.256068 0.186247
v 0.030569 -0.295570 0.161144
v 0.085338 -0.293380 0.187580
v 0.110631 -0.325978 0.036880
v 0.194456 -0.312005 0.028254
v 0.154849 -0.329865 0.040218
v 0.001496 0.352735 0.040540
v 0.091277 0.348121 0.006415
v 0.102914 0.329828 -0.040982
v 0.056564 0.331135 -0.060206
v 0.002034 0.340896 -0.061945
v -0.012388 0.351358 -0.045073
v -0.019586 0.357267 0.001012
v 0.044488 0.367011 0.016538
v 0.336364 -0.171379 -0.085958
v 0.308679 -0.117058 -0.177741
v 0.334539 -0.154785 -0.121744
v -0.145499 -0.275947 -0.206011
v -0.071669 -0.295719 -0.198739
v -0.086502 -0.314977 -0.158205
v -0.113643 -0.312452 -0.131092
v -0.149546 -0.304605 -0.113138
v -0.175026 -0.292651 -0.135270
v -0.174528 -0.288978 -0.172523
v -0.103049 -0.283321 -0.219748
v 0.236580 -0.242728 -0.125503
v 0.269654 -0.251494 -0.069656
v 0.253769 -0.269840 -0.034709
v 0.223977 -0.294133 -0.046645
v 0.207963 -0.303409 -0.066273
v 0.181875 -0.291039 -0.107881
v 0.157089 -0.271556 -0.149367
v 0.169824 -0.263095 -0.148649
v 0.263409 -0.247306 -0.099344
v -0.020533 -0.246824 -0.263934
v -0.103861 -0.220915 -0.278615
v -0.082497 -0.168606 -0.328959
v -0.028370 -0.164895 -0.333422
v -0.011180 -0.205099 -0.301184
v 0.027081 -0.235638 -0.259820
v -0.066445 -0.243552 -0.285160
v -0.063277 0.217891 -0.282324
v -0.115485 0.170052 -0.307906
v -0.155828 0.195434 -0.280617
v -0.131895 0.244174 -0.260942
v -0.105800 0.250155 -0.265099
v -0.086537 0.200882 -0.304702
v -0.245273 -0.233210 -0.192322
v -0.294879 -0.175059 -0.181799
v -0.248897 -0.166968 -0.235888
v -0.218069 -0.210856 -0.229872
v -0.280414 -0.212792 -0.179417
v 0.300514 0.146507 -0.215223
v 0.355655 0.094004 -0.153096
v 0.307489 0.063132 -0.235179
v 0.342573 0.123534 -0.182992
v 0.342105 0.107395 -0.217114
v 0.359525 0.077998 -0.190183
v 0.298028 0.111596 -0.242348
v -0.122178 0.337492 -0.023262
v -0.207011 0.277357 -0.035139
v -0.207848 0.277632 0.026554
v -0.151430 0.316491 0.038424
v -0.156136 0.317981 -0.051017
v -0.084023 -0.211114 0.268302
v 0.049051 -0.175621 0.301950
v -0.005689 -0.210339 0.292715
v 0.344606 -0.190878 0.027289
v 0.335499 -0.170590 0.099448
v 0.295895 -0.169491 0.153967
v 0.294484 -0.206973 0.131171
v 0.273170 -0.242862 0.116333
v 0.283061 -0.257800 0.073663
v 0.302193 -0.250460 0.044730
v 0.324584 -0.232175 0.044420
v 0.355658 -0.177241 0.056015
v -0.054113 0.128790 -0.349773
v -0.001753 0.176309 -0.322366
v 0.027188 0.146299 -0.351226
v -0.000210 0.109001 -0.365315
v -0.039754 0.166741 -0.337025
v 0.227024 0.058553 0.315256
v 0.256352 0.003152 0.267966
v 0.276107 0.027323 0.212080
v 0.264089 0.069158 0.235773
v 0.241995 0.085110 0.279637
v 0.239054 0.031207 0.305619
v 0.275252 0.228735 0.035833
v 0.262524 0.256355 -0.023936
v 0.203105 0.296734 0.014581
v 0.198274 0.297643 0.035939
v 0.214731 0.279957 0.058610
v 0.228008 0.272230 0.074551
v 0.243381 0.252331 0.082383
v 0.282268 0.246850 0.001671
v 0.173554 -0.328520 -0.030100
v 0.112914 -0.334150 -0.010826
v 0.105958 -0.336970 -0.038706
v 0.139751 -0.334987 -0.055508
v 0.158411 -0.338371 -0.011136
v -0.356118 0.145764 -0.074983
v -0.410463 0.067471 -0.071761
v -0.405601 0.059803 -0.024908
v -0.397538 0.070945 0.006547
v -0.372444 0.117682 0.005536
v -0.346124 0.163362 -0.033661
v -0.401637 0.100601 -0.069263
v -0.090713 0.019309 0.365355
v 0.019327 0.015951 0.381323
v 0.015265 0.061048 0.380708
v -0.058012 0.070224 0.371657
v -0.035884 0.005627 0.385039
v -0.064949 0.200333 0.280897
v -0.152862 0.173710 0.270099
v -0.160605 0.126443 0.309235
v -0.090295 0.130484 0.340186
v -0.038460 0.159570 0.332265
v -0.109100 0.195243 0.277877
v -0.194460 0.265876 -0.127478
v -0.106911 0.315307 -0.118925
v -0.120869 0.302007 -0.182091
v -0.145680 0.279549 -0.211826
v -0.186889 0.246437 -0.193603
v -0.208231 0.240937 -0.159268
v -0.143559 0.301280 -0.125836
v 0.183809 0.212815 0.236276
v 0.222570 0.158905 0.258776
v 0.250604 0.189275 0.198385
v 0.231347 0.224880 0.174344
v 0.205876 0.236707 0.200443
v 0.202545 0.186013 0.263831
v 0.093399 0.344162 0.039877
v 0.016900 0.346148 0.071933
v 0.053457 0.331930 0.089290
v 0.083464 0.333050 0.081209
v 0.095157 0.334559 0.069503
v 0.050178 0.361011 0.039585
v -0.095202 -0.072556 0.344998
v 0.015979 -0.065780 0.342592
v -0.034067 -0.082060 0.353210
v 0.310807 0.179814 -0.091979
v 0.343347 0.147469 -0.042472
v 0.326715 0.176005 -0.071120
v -0.320763 0.023915 0.220602
v -0.318435 -0.050226 0.215340
v -0.253379 -0.056675 0.259168
v -0.246534 -0.025230 0.286547
v -0.242712 0.011941 0.293910
v -0.260574 0.044955 0.276435
v -0.334562 -0.010645 0.217813
v -0.155063 0.245537 0.182983
v -0.078748 0.273044 0.196349
v -0.072431 0.306264 0.146031
v -0.089198 0.312508 0.128471
v -0.132350 0.292021 0.124139
v -0.120359 0.254562 0.213609
v -0.318856 -0.181159 -0.120278
v -0.263088 -0.238590 -0.133731
v -0.297214 -0.214147 -0.118680
v 0.247287 -0.031313 0.291876
v 0.201620 0.028974 0.340124
v 0.155532 0.007939 0.347928
v 0.153072 -0.026987 0.342330
v 0.168582 -0.054352 0.329728
v 0.217258 -0.043848 0.317576
v 0.240773 -0.061288 0.282717
v 0.247664 -0.066910 0.262400
v 0.228653 0.008423 0.323659
v 0.388594 -0.034237 -0.113933
v 0.384090 -0.010610 -0.017434
v 0.387734 -0.096602 -0.051792
v 0.401644 -0.008181 -0.091200
v 0.408091 -0.038614 -0.064238
v 0.401546 -0.071115 -0.031363
v 0.395531 -0.064436 -0.082258
v -0.393445 0.069615 -0.126155
v -0.339040 0.134603 -0.126298
v -0.354293 0.096234 -0.144975
v -0.386405 0.096702 -0.116010
v 0.183789 0.112719 0.332262
v 0.134041 0.160450 0.302053
v 0.077311 0.134196 0.343182
v 0.097850 0.096080 0.362134
v 0.157831 0.084066 0.354300
v 0.166835 0.142314 0.318296
v 0.139969 0.149785 -0.293366
v 0.128934 0.099474 -0.319415
v 0.089123 0.132168 -0.329255
v 0.145893 0.122659 -0.302968
v 0.198255 0.002216 -0.301710
v 0.132330 -0.109329 -0.284933
v 0.113651 -0.186559 -0.258313
v 0.036213 -0.129414 -0.322467
v -0.051396 -0.016650 -0.360300
v 0.201997 0.205106 -0.210380
v 0.245377 0.186618 -0.187274
v -0.284538 -0.031502 -0.242147
v -0.327163 0.035711 -0.197432
v -0.233906 0.060630 -0.283520
v 0.174436 0.240421 -0.167370
v -0.008070 0.280468 -0.198717
v 0.031904 -0.327036 -0.120347
v -0.028963 -0.326287 -0.056273
v -0.113177 -0.297248 0.037244
v 0.161602 0.294071 0.116275
v 0.225732 -0.135382 0.235920
v -0.228639 -0.243769 0.113445
v 0.129668 0.282003 0.165431
v -0.394207 -0.050957 0.002616
v -0.400908 -0.035781 0.034097
v -0.406195 -0.015897 0.029465
v -0.404063 -0.006127 -0.007328
v -0.405763 -0.024044 0.009699
v -0.346215 -0.178635 0.002590
v -0.323525 -0.214974 -0.015802
v -0.307625 -0.229267 -0.018884
v -0.277914 -0.241747 -0.002462
v -0.296515 -0.226699 0.040569
v -0.320762 -0.201379 0.046018
v -0.339726 -0.182210 0.033782
v -0.008203 0.356370 0.020751
v 0.033098 0.364198 0.018342
v 0.055298 0.364761 0.009244
v 0.093484 0.339978 -0.014253
v 0.073592 0.336326 -0.043624
v 0.030112 0.340903 -0.049346
v -0.000660 0.349999 -0.047639
v -0.003522 0.357456 -0.019829
v -0.158695 -0.289682 -0.186497
v -0.117382 -0.286577 -0.210656
v -0.098967 -0.291089 -0.208716
v -0.084998 -0.309453 -0.174979
v -0.103693 -0.311049 -0.152591
v -0.128440 -0.308787 -0.133576
v -0.159271 -0.300398 -0.132292
v -0.165855 -0.295397 -0.162127
v 0.204272 -0.263037 -0.126538
v 0.251214 -0.254007 -0.102223
v 0.259036 -0.256106 -0.087404
v 0.255515 -0.267177 -0.050953
v 0.236546 -0.281118 -0.044799
v 0.216818 -0.298896 -0.061615
v 0.202735 -0.296298 -0.082076
v 0.178156 -0.280453 -0.124150
v 0.172093 -0.270036 -0.139628
v 0.006057 -0.235650 -0.269161
v -0.050573 -0.238544 -0.288453
v -0.071676 -0.233409 -0.292442
v -0.092114 -0.197320 -0.309697
v -0.049464 -0.170627 -0.331760
v -0.024786 -0.188927 -0.320250
v 0.002065 -0.219841 -0.281615
v -0.089425 0.238123 -0.275206
v -0.086492 0.210262 -0.296410
v -0.098907 0.198194 -0.301845
v -0.139861 0.186280 -0.295179
v -0.140264 0.224699 -0.272243
v -0.119462 0.246849 -0.266128
v -0.235560 -0.223543 -0.211094
v -0.271202 -0.218927 -0.186484
v -0.282514 -0.203750 -0.182568
v -0.276431 -0.172087 -0.210307
v -0.234943 -0.194214 -0.233127
v 0.298279 0.122197 -0.236536
v 0.335680 0.130409 -0.192269
v 0.344001 0.113264 -0.209129
v 0.333456 0.107778 -0.224970
v 0.346204 0.115247 -0.173965
v 0.360938 0.084182 -0.176941
v 0.344998 0.098744 -0.211853
v 0.350081 0.072030 -0.203159
v 0.299091 0.099344 -0.243244
v -0.136905 0.333375 0.014472
v -0.150224 0.325808 -0.038003
v -0.168825 0.312500 -0.040320
v -0.210999 0.280046 -0.002065
v -0.175907 0.302306 0.030347
v 0.332339 -0.219090 0.048996
v 0.345893 -0.191453 0.055674
v 0.345818 -0.184464 0.075832
v 0.308397 -0.181237 0.132564
v 0.298538 -0.189573 0.136023
v 0.291957 -0.228138 0.118603
v 0.285840 -0.249058 0.097957
v 0.297618 -0.250055 0.061451
v 0.315895 -0.240953 0.053199
v -0.025410 0.116721 -0.363959
v -0.039160 0.155520 -0.345813
v -0.025619 0.166404 -0.337067
v 0.016296 0.158878 -0.338619
v 0.013671 0.131344 -0.362609
v 0.236307 0.070391 0.298182
v 0.237007 0.040951 0.306767
v 0.244098 0.027151 0.295317
v 0.264727 0.017236 0.243554
v 0.267529 0.048451 0.234131
v 0.251621 0.076255 0.264949
v 0.254974 0.248083 0.062414
v 0.273898 0.247498 0.015402
v 0.272881 0.255914 -0.000494
v 0.227789 0.281467 0.002364
v 0.209010 0.294778 0.027513
v 0.211061 0.284329 0.043972
v 0.228328 0.273726 0.059800
v 0.236701 0.264200 0.072448
v 0.158453 -0.330549 -0.042736
v 0.162805 -0.336889 -0.016918
v 0.147105 -0.338757 -0.012446
v 0.110763 -0.336138 -0.025304
v 0.126856 -0.337771 -0.044248
v -0.359658 0.149887 -0.051456
v -0.394990 0.112324 -0.063739
v -0.407124 0.089964 -0.063658
v -0.407291 0.065152 -0.044067
v -0.403464 0.070322 -0.013138
v -0.394041 0.093452 0.001660
v -0.364343 0.138721 -0.016535
v -0.078847 0.049486 0.370343
v -0.048693 0.014483 0.386362
v -0.022783 0.014250 0.386786
v 0.019938 0.041962 0.384268
v -0.021088 0.064789 0.376208
v -0.052178 0.177492 0.314418
v -0.099092 0.192423 0.288749
v -0.117807 0.184670 0.285182
v -0.157008 0.146726 0.296377
v -0.125413 0.132566 0.326822
v -0.065848 0.147737 0.337989
v -0.193568 0.259483 -0.152344
v -0.153372 0.293571 -0.136643
v -0.134330 0.303852 -0.133792
v -0.112321 0.307574 -0.153691
v -0.135153 0.292391 -0.198836
v -0.159633 0.269340 -0.200070
v -0.192538 0.250644 -0.174251
v 0.199058 0.228744 0.218412
v 0.201358 0.199219 0.250781
v 0.213452 0.182547 0.257276
v 0.238320 0.176344 0.227870
v 0.239374 0.210461 0.188016
v 0.220281 0.229260 0.191980
v 0.093478 0.340113 0.054946
v 0.061475 0.356853 0.040490
v 0.042066 0.357414 0.048570
v 0.033196 0.342368 0.082906
v 0.069281 0.335886 0.077965
v 0.081900 0.338581 0.071909
v -0.289016 0.034181 0.251807
v -0.327853 -0.002127 0.225204
v -0.326961 -0.018139 0.224292
v -0.285882 -0.047520 0.240997
v -0.261695 -0.034816 0.272907
v -0.261311 -0.006545 0.285813
v -0.258375 0.025090 0.283808
v -0.146374 0.274158 0.147947
v -0.130482 0.259431 0.201021
v -0.111645 0.266110 0.203973
v -0.078540 0.296437 0.165186
v -0.088699 0.304170 0.145282
v -0.112111 0.305683 0.131763
v 0.246005 -0.049221 0.282961
v 0.232783 -0.003975 0.320111
v 0.220382 0.011401 0.329042
v 0.179342 0.016450 0.344141
v 0.165820 -0.008470 0.341654
v 0.169761 -0.036301 0.334517
v 0.197970 -0.041331 0.325715
v 0.231045 -0.041678 0.308066
v 0.243207 -0.057158 0.281797
v 0.394472 -0.056177 -0.090647
v 0.398977 -0.014837 -0.100780
v 0.408062 -0.031400 -0.068475
v 0.405661 -0.045171 -0.068338
v 0.401859 -0.005866 -0.077998
v 0.400591 -0.057129 -0.028252
v 0.406134 -0.042958 -0.057033
v 0.398670 -0.081762 -0.037490
v 0.393524 -0.072309 -0.073450
v -0.374741 0.078752 -0.142113
v -0.391682 0.086357 -0.117655
v -0.375075 0.108343 -0.116783
v -0.337807 0.119484 -0.140529
v -0.375208 0.095096 -0.132620
v 0.168945 0.097704 0.349180
v 0.168148 0.131076 0.330797
v 0.154539 0.143894 0.321091
v 0.104533 0.142085 0.327466
v 0.090632 0.116196 0.356909
v 0.132102 0.090736 0.359761
v 0.099916 0.145294 -0.316749
v 0.146140 0.131553 -0.298732
v 0.142516 0.114174 -0.307459
v 0.092652 0.115131 -0.331409
v 0.109197 0.127465 -0.319755
v 0.213274 0.148113 -0.264500
v 0.221896 0.116939 -0.272384
v 0.202942 0.088553 -0.286432
v 0.369414 0.008247 -0.161991
v 0.383224 0.035510 -0.140982
v 0.379724 0.054168 -0.110056
v 0.321199 0.154884 -0.146007
v 0.320685 0.178149 -0.078811
v 0.338347 0.142885 -0.130560
v 0.332882 0.170001 -0.062372
v 0.352531 0.116341 -0.109494
v 0.365957 -0.122952 -0.075128
v 0.334886 -0.157899 -0.111478
v 0.369928 -0.101961 -0.106285
v 0.331409 -0.149052 -0.133734
v 0.363695 -0.071578 -0.134576
v 0.369547 -0.115155 0.046582
v 0.378826 -0.129931 0.017908
v 0.375671 -0.147198 -0.011312
v 0.277194 -0.203532 -0.144192
v 0.297053 -0.215351 -0.116654
v 0.302144 -0.218504 -0.090012
v -0.050297 -0.272839 -0.237545
v -0.084991 -0.263867 -0.252721
v -0.124684 -0.249092 -0.240248
v -0.033251 0.197055 -0.302995
v -0.063262 0.184245 -0.321767
v -0.084075 0.151433 -0.328189
v 0.307173 0.198500 0.002055
v 0.303334 0.217977 -0.024120
v 0.293207 0.220368 -0.052336
v 0.071902 -0.295494 0.183008
v 0.086829 -0.319535 0.096315
v 0.142792 -0.331624 0.040231
v 0.129534 -0.321324 0.111365
v 0.097785 -0.285689 0.187652
v 0.164785 -0.324250 0.037692
v 0.173143 -0.299312 0.107820
v 0.119170 -0.332213 0.005358
v 0.161285 -0.336620 0.002472
v 0.184838 -0.327765 -0.012789
v -0.330267 -0.186659 -0.072261
v -0.304291 -0.204684 -0.117976
v -0.308382 -0.219242 -0.064607
v -0.287544 -0.222140 -0.122077
v -0.269645 -0.240266 -0.086501
v -0.309465 -0.181244 -0.156965
v -0.286736 -0.212844 -0.159221
v -0.255881 -0.239872 -0.169276
v -0.347094 0.142421 -0.102196
v -0.395372 0.099009 -0.091289
v -0.404989 0.068097 -0.099783
v 0.008266 0.349339 0.057749
v 0.047478 0.364705 0.028990
v 0.092150 0.347857 0.024157
v -0.198305 0.268999 -0.081298
v -0.148998 0.309041 -0.087942
v -0.110725 0.325643 -0.071906
v 0.162605 0.184691 0.267763
v 0.182334 0.160683 0.287250
v 0.204338 0.135647 0.298152
v 0.250295 -0.010692 0.287328
v 0.234431 0.020239 0.315307
v 0.217358 0.044733 0.330704
v -0.095468 -0.021293 0.358163
v -0.048119 -0.080750 0.350305
v -0.036182 -0.026512 0.374856
v -0.021394 -0.079521 0.352900
v 0.016980 -0.020261 0.367547
v -0.089867 -0.133466 0.320442
v -0.019730 -0.211901 0.289085
v -0.025994 -0.146865 0.323469
v 0.006816 -0.204085 0.293590
v 0.022447 -0.121903 0.324551
v -0.010054 -0.268280 0.229291
v 0.035363 -0.260054 0.250393
v 0.075362 -0.233088 0.259076
v -0.388581 -0.016865 0.133585
v -0.401719 0.002666 0.057937
v -0.402340 -0.028925 0.078765
v -0.388958 -0.042317 0.136475
v -0.385664 -0.071220 0.070394
v -0.077000 0.238860 0.241897
v -0.114534 0.224461 0.245022
v -0.150593 0.209340 0.228725
v -0.350115 0.010629 0.178410
v -0.357227 -0.019283 0.186718
v -0.352664 -0.060323 0.181437
v -0.388960 0.046377 0.046399
v -0.407113 0.032336 -0.009420
v -0.353095 0.062030 0.121833
v -0.338514 0.127181 0.046008
v -0.304196 0.072389 0.198531
v -0.352887 -0.142851 0.074449
v -0.372747 -0.120143 0.020314
v -0.294558 -0.207082 0.072484
v -0.334153 -0.138909 0.122253
v -0.296938 -0.118309 0.186120
v -0.369186 -0.124198 -0.065092
v -0.393860 -0.034102 -0.051091
v -0.401272 0.027304 -0.089203
v -0.243000 -0.256046 0.037036
v -0.168528 -0.295726 -0.039559
v -0.218841 -0.270858 -0.088517
v -0.214324 -0.266716 -0.155686
v -0.348830 -0.132543 -0.127765
v 0.154891 -0.179457 0.232491
v 0.208288 -0.213125 0.176499
v 0.272344 -0.191519 0.157899
v 0.223646 -0.251243 0.133297
v 0.246526 -0.282472 0.055075
v 0.126986 -0.144868 0.294529
v -0.118840 -0.257104 0.188041
v -0.065478 -0.293882 0.147192
v -0.012105 -0.310721 0.091961
v 0.044726 -0.327025 0.031593
v 0.219611 -0.303601 -0.017479
v 0.278507 -0.262395 0.004624
v 0.190850 -0.315584 -0.052260
v 0.043249 -0.330688 -0.006848
v 0.159218 0.290392 -0.079099
v 0.154679 0.313996 0.007365
v 0.248912 0.249044 -0.069771
v 0.148477 0.311253 0.037664
v -0.056185 0.336464 -0.081632
v -0.067550 0.346573 -0.003154
v -0.140021 0.302339 0.079901
v -0.053285 0.332086 0.086508
v -0.030342 0.327822 0.116833
v 0.072013 0.297334 -0.116023
v -0.031649 0.318978 -0.116708
v -0.102705 0.299719 -0.185650
v 0.327982 -0.019612 -0.190485
v 0.272579 -0.030834 -0.225740
v 0.275447 0.033747 -0.251144
v 0.201711 -0.073654 -0.263567
v 0.243669 -0.155956 -0.209805
v 0.349133 -0.184193 -0.027269
v 0.316955 -0.230427 0.007902
v 0.326336 -0.210170 -0.052621
v 0.291930 -0.239843 -0.042851
v 0.212802 -0.216370 -0.174177
v -0.195655 -0.254937 -0.199547
v -0.166277 -0.208304 -0.251019
v 0.029969 -0.269840 -0.211501
v -0.015645 -0.302608 -0.182046
v -0.055240 -0.321885 -0.131619
v -0.102026 -0.314374 -0.077963
v 0.113899 -0.240977 -0.209312
v 0.090144 -0.254914 -0.206830
v 0.013033 -0.199687 -0.289269
v 0.137899 -0.296560 -0.130828
v 0.121275 -0.324770 -0.087536
v -0.009963 -0.117769 -0.346931
v -0.115579 -0.118623 -0.333495
v -0.218090 -0.116763 -0.263680
v -0.226292 0.195292 -0.211937
v -0.142634 0.260792 -0.238018
v -0.200419 0.168432 -0.273861
v -0.142474 0.108061 -0.320969
v -0.088259 0.078248 -0.350499
v -0.008578 0.232080 -0.260691
v 0.040062 0.195827 -0.287303
v -0.096458 0.266851 -0.240384
v -0.327572 -0.120453 -0.181885
v 0.124414 0.183712 -0.274940
v 0.210483 0.184219 -0.230110
v 0.100569 0.065587 -0.338430
v 0.191711 0.043786 -0.302238
v 0.266201 0.168490 -0.207794
v 0.375600 0.082863 -0.044952
v 0.290770 0.165588 -0.177174
v 0.288604 0.184798 -0.113796
v -0.280427 0.207871 -0.030395
v -0.279430 0.211734 -0.102718
v -0.240726 0.223899 0.061760
v -0.208078 0.215614 0.157318
v -0.176339 -0.044304 0.306563
v -0.188626 -0.111241 0.263470
v 0.091656 -0.043071 0.340278
v 0.118714 -0.099870 0.324847
v 0.208343 -0.072841 0.300054
v -0.188382 -0.197445 0.195425
v 0.348209 -0.073845 0.099529
v 0.317393 -0.140084 0.134620
v 0.261606 -0.075093 0.227136
v 0.266601 -0.117452 0.201157
v 0.250632 -0.107092 0.238198
v 0.015086 0.068498 -0.362227
v 0.056152 0.138029 -0.337461
v 0.271666 0.170318 0.164558
v 0.236230 0.118235 0.267003
v 0.286653 0.094060 0.183080
v 0.357595 0.071576 0.056915
v 0.327916 0.012376 0.138890
v 0.274893 -0.043303 0.213083
v 0.207645 0.085896 0.326129
v 0.170086 0.058295 0.350383
v 0.295208 0.197814 0.070546
v 0.342067 0.145089 0.020572
v 0.124379 0.308459 0.083819
v 0.186883 0.287405 0.081486
v 0.239779 0.239244 0.129488
v 0.205841 0.271242 0.109484
v 0.191611 0.254769 0.175617
v 0.062865 -0.334707 -0.057436
v -0.387041 0.036699 -0.136365
v -0.270912 0.194405 -0.148615
v 0.019237 0.145746 0.335751
v -0.075039 0.096802 0.351196
v 0.056448 0.078555 0.367778
v 0.094950 0.016533 0.354411
v -0.210317 0.087077 0.296216
v -0.169660 0.020656 0.319436
v -0.226293 0.159495 0.230230
v 0.001256 0.227308 0.259390
v -0.013913 0.275563 0.185576
v 0.101850 0.195406 0.260532
v -0.314103 0.100786 -0.172098
v 0.149830 0.235839 0.218895
v 0.109672 0.307206 0.105979
v 0.057177 0.305757 0.124252
v 0.085616 -0.135544 -0.298340
v -0.287061 0.020494 -0.246407
v 0.207809 0.209610 -0.192879
v -0.403874 -0.033295 0.013124
v -0.405639 -0.016351 0.009185
v -0.316821 -0.216950 0.017789
v 0.037654 0.360859 -0.007116
v -0.124193 -0.303058 -0.179888
v 0.228293 -0.283092 -0.085671
v -0.041585 -0.211239 -0.308144
v -0.114030 0.222440 -0.287869
v -0.266368 -0.207366 -0.201268
v 0.333825 0.118475 -0.218065
v 0.348457 0.105063 -0.200277
v 0.335716 0.097028 -0.222248
v -0.168338 0.322172 -0.008375
v 0.320284 -0.222705 0.092442
v -0.012505 0.148681 -0.354971
v 0.247157 0.045584 0.285584
v 0.244836 0.270494 0.031617
v 0.147300 -0.337758 -0.025338
v -0.402113 0.101560 -0.036977
v -0.032537 0.038513 0.387699
v -0.103822 0.166607 0.315439
v -0.147603 0.293209 -0.169847
v 0.219385 0.206275 0.224644
v 0.058855 0.351761 0.056595
v -0.304009 -0.003979 0.253636
v -0.120468 0.288420 0.173277
v 0.217116 -0.013111 0.328287
v 0.406325 -0.037245 -0.076150
v 0.406218 -0.032600 -0.059350
v 0.402681 -0.052484 -0.060693
v -0.380827 0.087601 -0.132698
v -0.367790 0.103289 -0.130718
v 0.142368 0.120938 0.350040
v 0.112887 0.134469 -0.315766
v 0.109276 0.120544 -0.321742
v 0.221589 0.126752 -0.268545
v 0.219665 0.107392 -0.276768
v 0.379086 0.027717 -0.152678
v 0.383295 0.041278 -0.128073
v 0.332559 0.147606 -0.138203
v 0.343218 0.136341 -0.122867
v 0.368504 -0.107449 -0.096201
v 0.368553 -0.094700 -0.115322
v 0.375616 -0.121381 0.027878
v 0.378510 -0.140439 0.008242
v 0.291263 -0.212776 -0.126304
v 0.299484 -0.217640 -0.106569
v -0.074098 -0.267565 -0.250483
v -0.096747 -0.260621 -0.251692
v -0.054875 0.189453 -0.316884
v -0.070136 0.175832 -0.324443
v 0.304461 0.213046 -0.015269
v 0.299831 0.221358 -0.033318
v 0.115499 -0.323782 0.108279
v 0.142656 -0.314414 0.111070
v 0.149947 -0.338097 0.003674
v 0.170119 -0.333593 -0.001218
v -0.317221 -0.211151 -0.064075
v -0.298322 -0.225929 -0.067877
v -0.292905 -0.203135 -0.157872
v -0.278407 -0.221526 -0.162421
v -0.384255 0.112549 -0.091439
v -0.401785 0.087459 -0.092797
v 0.035364 0.360621 0.035111
v 0.060676 0.361685 0.025553
v -0.160218 0.299974 -0.087730
v -0.138316 0.313216 -0.084484
v 0.176073 0.168910 0.281459
v 0.189179 0.152491 0.291815
v 0.241262 0.011412 0.309001
v 0.228613 0.028071 0.320011
v -0.051115 -0.025597 0.373512
v -0.022263 -0.024504 0.373812
v -0.040924 -0.145797 0.320483
v -0.014106 -0.143570 0.326109
v 0.022827 -0.261412 0.245061
v 0.048237 -0.255952 0.254382
v -0.403196 -0.017992 0.074967
v -0.397335 -0.040534 0.078369
v -0.103738 0.228064 0.244882
v -0.125229 0.220931 0.242579
v -0.354649 -0.010025 0.185007
v -0.356264 -0.030029 0.186949
v -0.403861 0.037490 0.021302
v -0.371393 0.077891 0.053755
v -0.338337 0.044686 0.167744
v -0.365714 -0.129727 0.051505
v -0.326605 -0.174038 0.076588
v -0.335500 -0.105813 0.165377
v -0.379329 -0.103307 -0.019275
v -0.405464 0.019291 -0.043527
v -0.269465 -0.234216 0.066215
v -0.215536 -0.277512 -0.044458
v -0.216191 -0.267918 -0.125203
v -0.348609 -0.146449 -0.088678
v 0.197861 -0.178275 0.212650
v 0.249600 -0.227200 0.142083
v 0.228264 -0.266288 0.098148
v 0.110509 -0.185965 0.260214
v -0.060175 -0.275193 0.196033
v -0.069599 -0.306895 0.099090
v 0.041943 -0.321952 0.074725
v 0.258524 -0.277784 0.009919
v 0.202438 -0.313694 -0.037397
v 0.067279 -0.330507 0.007564
v 0.178681 0.299352 -0.030659
v 0.149720 0.315427 0.023904
v -0.057000 0.344893 -0.045366
v -0.087078 0.337649 0.058482
v -0.042405 0.330781 0.103982
v 0.121012 0.295503 -0.104202
v 0.015172 0.308505 -0.115444
v -0.062637 0.320634 -0.115420
v 0.301041 -0.002516 -0.216939
v 0.223416 -0.036900 -0.269820
v 0.196016 -0.111328 -0.256054
v 0.361811 -0.148522 -0.039634
v 0.359497 -0.030219 -0.163265
v 0.334175 -0.211801 -0.003831
v 0.304637 -0.221085 -0.067535
v 0.252249 -0.194936 -0.169124
v -0.206296 -0.263705 -0.178396
v -0.179825 -0.234179 -0.222798
v -0.013332 -0.283865 -0.216102
v -0.032864 -0.319709 -0.155172
v -0.079082 -0.322654 -0.107072
v -0.131641 -0.305937 -0.056136
v 0.291474 -0.250119 -0.002782
v 0.160650 -0.231963 -0.187780
v 0.076301 -0.242409 -0.227571
v 0.092416 -0.268583 -0.192384
v 0.168223 -0.316668 -0.078338
v -0.003503 -0.157863 -0.327067
v -0.054354 -0.105409 -0.350176
v -0.162377 -0.165060 -0.275814
v -0.175384 0.228877 -0.241986
v -0.181102 0.128853 -0.300255
v -0.106046 0.112091 -0.334704
v 0.001015 0.206315 -0.279857
v -0.053571 0.249707 -0.245605
v -0.122913 0.276189 -0.231393
v -0.279370 -0.108193 -0.224609
v -0.333254 -0.144028 -0.155742
v 0.184630 0.173735 -0.254380
v 0.164475 0.063654 -0.311267
v 0.220363 0.035052 -0.290601
v 0.228088 0.184830 -0.215958
v 0.369905 0.082659 -0.092362
v 0.275759 0.170331 -0.193838
v 0.305305 0.166710 -0.149381
v -0.280824 0.211570 -0.067091
v -0.181654 0.262504 0.094041
v -0.285882 0.191929 0.010290
v -0.176213 -0.079179 0.290135
v 0.098959 -0.078254 0.333460
v 0.165290 -0.087963 0.318039
v -0.175680 -0.238108 0.166008
v -0.240994 -0.122354 0.226336
v 0.350514 -0.118123 0.083865
v 0.275074 -0.113469 0.193000
v 0.262359 -0.130995 0.197363
v -0.039037 0.062186 -0.361388
v 0.053953 0.103111 -0.353060
v 0.065868 0.166908 -0.312300
v 0.257100 0.127029 0.224248
v 0.313921 0.055122 0.153362
v 0.306059 -0.023762 0.171025
v 0.221417 0.103033 0.299525
v 0.194907 0.071019 0.343811
v 0.259520 -0.044108 0.248505
v 0.280980 0.215438 -0.078303
v 0.316661 0.184134 0.030398
v 0.152079 0.303212 0.059625
v 0.259942 0.214977 0.122132
v 0.201085 0.281412 0.094738
v 0.220412 0.253736 0.136485
v 0.088877 -0.334260 -0.077284
v 0.045036 -0.333858 -0.032257
v -0.400391 0.041456 -0.109455
v -0.271617 0.203536 -0.128099
v 0.001043 0.107732 0.354464
v 0.110348 0.049990 0.357937
v 0.092658 -0.012080 0.351087
v -0.156335 0.069130 0.327554
v -0.176661 -0.011387 0.312589
v -0.244869 0.103215 0.260212
v -0.195801 0.193726 0.206885
v -0.031916 0.245926 0.227015
v 0.036671 0.181938 0.305271
v -0.268885 0.173041 -0.171204
v 0.168302 0.250610 0.197295
v 0.141825 0.206164 0.246308
v 0.114620 0.309012 0.096567
v 0.092527 0.306901 0.114200
v -0.006416 0.313728 0.134870
v 0.366930 0.098409 0.005388
v 0.233888 -0.081355 0.271891
v -0.357085 0.059530 -0.161826
vn 0.3741 -0.3818 -0.8451
vn 0.2872 -0.5165 -0.8067
vn 0.4025 -0.3310 -0.8535
vn -0.7522 -0.0394 -0.6578
vn -0.6865 0.3292 -0.6483
vn -0.5585 -0.0644 -0.8270
vn 0.5088 0.7940 -0.3327
vn 0.5127 0.7936 -0.3275
vn 0.2912 0.8224 -0.4887
vn -0.9049 -0.4253 0.0124
vn -0.9598 -0.2742 0.0591
vn -0.9192 -0.3444 -0.1909
vn -0.9978 -0.0662 0.0055
vn -0.9981 0.0400 -0.0472
vn -0.9817 -0.0737 -0.1755
vn -0.8461 -0.5329 0.0091
vn -0.6570 -0.7491 0.0844
vn -0.4415 -0.8888 0.1232
vn -0.4957 -0.8640 0.0879
vn -0.6749 -0.6979 0.2398
vn -0.7581 -0.6190 0.2052
vn -0.8317 -0.5440 0.1107
vn -0.1846 0.9824 0.0274
vn -0.1143 0.9690 -0.2190
vn 0.3072 0.8599 -0.4078
vn 0.2774 0.9123 -0.3013
vn 0.1512 0.8845 -0.4414
vn 0.2280 0.8579 -0.4605
vn 0.0121 0.9661 -0.2578
vn -0.0598 0.9980 0.0198
vn -0.2775 -0.7707 -0.5736
vn -0.1553 -0.8501 -0.5033
vn -0.0429 -0.8848 -0.4639
vn -0.1784 -0.9596 -0.2174
vn -0.1990 -0.9694 -0.1436
vn -0.2653 -0.9563 -0.1229
vn -0.2814 -0.9546 -0.0979
vn -0.2974 -0.9064 -0.3000
vn 0.4374 -0.6755 -0.5936
vn 0.5716 -0.7148 -0.4030
vn 0.6385 -0.7514 -0.1665
vn 0.5745 -0.8150 -0.0753
vn 0.7173 -0.6872 -0.1151
vn 0.4296 -0.8103 -0.3985
vn 0.3768 -0.7725 -0.5111
vn 0.4429 -0.6538 -0.6135
vn 0.3932 -0.7059 -0.5892
vn 0.2660 -0.6851 -0.6781
vn 0.0109 -0.5851 -0.8109
vn -0.2900 -0.5415 -0.7891
vn -0.1120 -0.5207 -0.8464
vn 0.0446 -0.4881 -0.8716
vn 0.2920 -0.6375 -0.7130
vn 0.3607 -0.5192 -0.7748
vn 0.1399 0.6089 -0.7808
vn -0.1222 0.5093 -0.8519
vn -0.2492 0.3520 -0.9022
vn -0.4314 0.4591 -0.7766
vn -0.3944 0.5695 -0.7213
vn -0.0448 0.6421 -0.7653
vn -0.4994 -0.6179 -0.6073
vn -0.7251 -0.3949 -0.5642
vn -0.7612 -0.3384 -0.5532
vn -0.5902 -0.3628 -0.7212
vn -0.4610 -0.5268 -0.7141
vn 0.5087 0.6605 -0.5523
vn 0.7326 0.6237 -0.2727
vn 0.6659 0.4463 -0.5978
vn 0.4401 0.4509 -0.7765
vn 0.9016 0.4311 -0.0365
vn 0.9149 0.2585 -0.3099
vn 0.9337 0.1269 -0.3347
vn 0.9262 0.3688 -0.0788
vn 0.5584 -0.1540 -0.8152
vn 0.4699 -0.0022 -0.8827
vn 0.7135 -0.0960 -0.6940
vn 0.7874 -0.0501 -0.6144
vn -0.3297 0.9426 -0.0523
vn -0.5460 0.8041 -0.2353
vn -0.6934 0.7001 -0.1704
vn -0.6499 0.7333 0.2000
vn -0.5229 0.8028 0.2864
vn 0.8825 -0.4583 0.1055
vn 0.8410 -0.5102 0.1800
vn 0.7877 -0.3022 0.5368
vn 0.6140 -0.4601 0.6413
vn 0.6828 -0.3943 0.6151
vn 0.5441 -0.6646 0.5122
vn 0.6093 -0.7626 0.2174
vn 0.5243 -0.8073 0.2708
vn 0.8022 -0.5680 0.1838
vn -0.2698 0.3278 -0.9054
vn -0.0515 0.6637 -0.7462
vn 0.1084 0.7405 -0.6632
vn 0.1100 0.6469 -0.7546
vn -0.0548 0.2360 -0.9702
vn 0.8482 0.1668 0.5027
vn 0.8954 0.1000 0.4339
vn 0.9311 0.0518 0.3611
vn 0.9323 0.0253 0.3609
vn 0.9218 0.1181 0.3692
vn 0.8807 0.1809 0.4378
vn 0.7572 0.5815 0.2976
vn 0.6731 0.6705 0.3119
vn 0.4888 0.8699 -0.0658
vn 0.5431 0.8388 -0.0384
vn 0.4851 0.7643 0.4248
vn 0.4151 0.8976 0.1484
vn 0.5895 0.7828 0.1994
vn 0.7145 0.6520 0.2537
vn 0.2749 -0.9220 -0.2727
vn 0.0864 -0.9901 -0.1103
vn -0.0866 -0.9953 0.0422
vn -0.0367 -0.9978 0.0548
vn 0.2271 -0.9630 -0.1453
vn -0.7171 0.6943 -0.0604
vn -0.8786 0.4767 -0.0271
vn -0.9855 0.1091 0.1297
vn -0.9883 0.1125 0.1035
vn -0.9416 0.2209 0.2543
vn -0.7428 0.6037 0.2895
vn -0.7394 0.6638 0.1130
vn -0.3830 0.0907 0.9193
vn -0.0170 -0.0789 0.9967
vn 0.0966 -0.0587 0.9936
vn -0.0104 0.3163 0.9486
vn -0.1803 0.3248 0.9284
vn -0.1025 0.7669 0.6335
vn -0.4024 0.6999 0.5901
vn -0.4608 0.6533 0.6007
vn -0.4532 0.5300 0.7168
vn -0.2769 0.4704 0.8379
vn -0.1230 0.6503 0.7496
vn -0.6013 0.7828 -0.1600
vn -0.4578 0.8810 -0.1195
vn -0.3058 0.9381 -0.1627
vn -0.3622 0.9234 -0.1274
vn -0.6548 0.7094 -0.2608
vn -0.6429 0.6990 -0.3131
vn -0.6513 0.6926 -0.3101
vn 0.3336 0.7082 0.6222
vn 0.5534 0.6187 0.5577
vn 0.7321 0.4300 0.5284
vn 0.6948 0.5372 0.4782
vn 0.6858 0.6142 0.3903
vn 0.5884 0.6469 0.4851
vn 0.3374 0.8955 0.2901
vn 0.1895 0.8999 0.3927
vn 0.0266 0.9131 0.4070
vn 0.2197 0.8176 0.5322
vn 0.0851 0.8324 0.5476
vn 0.3196 0.8990 0.2993
vn -0.7170 0.3092 0.6247
vn -0.7511 -0.0792 0.6554
vn -0.5781 -0.4058 0.7079
vn -0.5858 -0.4955 0.6413
vn -0.5587 -0.3381 0.7573
vn -0.5649 0.1043 0.8185
vn -0.6604 0.2575 0.7054
vn -0.6769 0.6316 0.3780
vn -0.3489 0.7173 0.6031
vn -0.0348 0.8015 0.5970
vn -0.1063 0.9073 0.4068
vn -0.1597 0.9117 0.3786
vn -0.6091 0.7665 0.2035
vn 0.6004 -0.3953 0.6951
vn 0.5080 -0.0880 0.8569
vn 0.3262 -0.1427 0.9345
vn 0.2280 -0.2184 0.9489
vn 0.2521 -0.2067 0.9454
vn 0.2459 -0.2567 0.9347
vn 0.4478 -0.2924 0.8450
vn 0.9252 0.1110 0.3629
vn 0.7148 -0.3415 0.6103
vn 0.8805 -0.2012 -0.4292
vn 0.9651 0.0203 -0.2610
vn 0.9716 -0.1711 -0.1637
vn 0.9052 -0.2894 -0.3112
vn 0.9006 0.2910 0.3228
vn 0.9789 0.0285 0.2025
vn 0.9625 0.0922 0.2553
vn 0.9650 0.2559 0.0576
vn 0.9088 -0.3528 -0.2228
vn 0.9154 -0.3933 -0.0856
vn 0.9338 -0.3564 0.0306
vn 0.9624 -0.2446 -0.1181
vn -0.7387 0.2983 -0.6044
vn -0.7148 0.4852 -0.5035
vn -0.4904 0.4272 -0.7596
vn -0.6133 0.6084 -0.5037
vn -0.5519 0.5899 -0.5894
vn -0.4835 0.5111 -0.7107
vn 0.4263 0.4442 0.7880
vn 0.2159 0.7247 0.6544
vn 0.0522 0.7754 0.6294
vn 0.0773 0.7304 0.6787
vn 0.1046 0.2773 0.9551
vn 0.2335 0.2077 0.9499
vn 0.4343 0.4072 -0.8035
vn 0.4406 0.3241 -0.8372
vn 0.4328 0.3643 -0.8246
vn 0.4266 0.2714 -0.8627
vn 0.4182 0.2954 -0.8590
vn 0.4486 0.2174 -0.8669
vn 0.3599 0.3383 -0.8695
vn 0.4031 0.4847 -0.7763
vn 0.3671 0.3984 -0.8405
vn 0.3680 0.3695 -0.8532
vn 0.3747 0.3129 -0.8727
vn 0.3853 0.1977 -0.9014
vn 0.4128 -0.0360 -0.9101
vn 0.4004 0.2128 -0.8913
vn 0.8615 -0.1675 -0.4793
vn 0.6792 -0.2415 -0.6931
vn 0.8791 -0.0134 -0.4765
vn 0.9447 0.0352 -0.3261
vn 0.9546 0.2814 -0.0976
vn 0.9381 0.2917 -0.1866
vn 0.8944 0.4442 -0.0519
vn 0.8819 0.4293 0.1950
vn 0.5593 0.7922 -0.2440
vn 0.5826 0.7694 -0.2619
vn 0.6936 0.6830 -0.2287
vn 0.7727 0.6149 -0.1577
vn 0.9068 0.4103 -0.0971
vn 0.8303 0.5375 -0.1472
vn 0.9211 0.3854 -0.0548
vn 0.9339 0.3440 -0.0975
vn 0.8522 -0.4553 -0.2578
vn 0.8419 -0.4667 -0.2710
vn 0.8420 -0.5115 -0.1717
vn 0.8581 -0.4797 -0.1834
vn 0.8562 -0.3206 -0.4051
vn 0.8059 -0.4107 -0.4264
vn 0.7388 -0.3144 -0.5961
vn 0.8310 -0.2642 -0.4896
vn 0.8805 0.1202 0.4585
vn 0.9009 -0.1343 0.4127
vn 0.9072 -0.1212 0.4028
vn 0.9281 -0.0430 0.3697
vn 0.9608 -0.2437 0.1322
vn 0.9032 -0.4141 0.1130
vn 0.8300 -0.5577 0.0005
vn 0.9171 -0.3757 -0.1335
vn 0.3740 -0.6992 -0.6093
vn 0.5920 -0.4624 -0.6601
vn 0.7179 -0.4975 -0.4869
vn 0.4870 -0.7466 -0.4532
vn 0.5581 -0.7599 -0.3334
vn 0.8190 -0.5169 -0.2491
vn 0.8082 -0.5286 -0.2597
vn 0.6424 -0.7480 -0.1669
vn 0.1776 -0.8157 -0.5505
vn 0.0449 -0.8766 -0.4791
vn -0.1395 -0.8217 -0.5526
vn 0.0180 -0.8239 -0.5665
vn -0.3149 -0.6993 -0.6418
vn -0.2299 -0.7713 -0.5935
vn -0.4318 -0.6092 -0.6652
vn -0.5005 -0.5455 -0.6722
vn 0.1177 0.7807 -0.6138
vn 0.1189 0.7513 -0.6492
vn 0.0151 0.6690 -0.7431
vn -0.0355 0.6811 -0.7314
vn -0.2811 0.4737 -0.8346
vn -0.1799 0.5382 -0.8234
vn -0.3702 0.3395 -0.8647
vn -0.3596 0.3688 -0.8571
vn 0.8211 0.4690 0.3253
vn 0.8763 0.4588 0.1468
vn 0.8449 0.5347 -0.0180
vn 0.8543 0.3868 0.3473
vn 0.7396 0.6636 -0.1122
vn 0.7490 0.6257 -0.2180
vn 0.6798 0.6525 -0.3349
vn 0.6252 0.7361 -0.2596
vn -0.1710 -0.9566 0.2358
vn -0.1707 -0.9844 0.0419
vn 0.1381 -0.9762 0.1671
vn 0.0499 -0.9261 0.3740
vn 0.4263 -0.7385 0.5224
vn 0.4851 -0.8333 0.2652
vn 0.4441 -0.8596 0.2528
vn 0.4637 -0.6902 0.5555
vn -0.1820 -0.9733 0.1397
vn -0.1522 -0.9808 0.1217
vn 0.0815 -0.9946 0.0650
vn 0.1444 -0.9693 0.1990
vn 0.4720 -0.8454 0.2500
vn 0.3481 -0.9366 0.0402
vn 0.3981 -0.9104 -0.1126
vn 0.4622 -0.8528 0.2430
vn -0.8653 -0.4818 -0.1383
vn -0.8129 -0.5233 -0.2556
vn -0.7287 -0.6444 -0.2316
vn -0.7338 -0.6578 -0.1701
vn -0.5551 -0.8143 -0.1693
vn -0.6265 -0.7562 -0.1890
vn -0.5546 -0.8204 -0.1390
vn -0.5238 -0.8371 -0.1580
vn -0.7999 -0.5552 -0.2276
vn -0.7840 -0.4336 -0.4441
vn -0.8572 -0.4082 -0.3140
vn -0.8106 -0.5344 -0.2393
vn -0.7036 -0.6856 -0.1869
vn -0.7068 -0.6597 -0.2555
vn -0.5840 -0.7258 -0.3635
vn -0.6222 -0.7724 -0.1272
vn -0.6609 0.6973 -0.2774
vn -0.6265 0.6786 -0.3834
vn -0.7088 0.6195 -0.3375
vn -0.7579 0.5915 -0.2753
vn -0.8744 0.4260 -0.2324
vn -0.8070 0.4803 -0.3435
vn -0.8848 0.2811 -0.3716
vn -0.9577 0.2176 -0.1883
vn -0.1826 0.9524 0.2440
vn -0.1443 0.9435 0.2984
vn -0.1206 0.9407 0.3170
vn -0.2025 0.9523 0.2282
vn 0.2577 0.9605 0.1048
vn 0.2963 0.9174 0.2657
vn 0.3821 0.8966 0.2238
vn 0.4123 0.9109 0.0136
vn -0.6074 0.7808 -0.1465
vn -0.6530 0.7045 -0.2781
vn -0.5921 0.7476 -0.3008
vn -0.5430 0.8131 -0.2095
vn -0.3569 0.9086 -0.2170
vn -0.3386 0.8894 -0.3069
vn -0.2523 0.9205 -0.2985
vn -0.2970 0.9305 -0.2143
vn 0.0393 0.7133 0.6998
vn 0.1453 0.7751 0.6149
vn 0.2926 0.7390 0.6069
vn 0.0592 0.6706 0.7395
vn 0.4054 0.4851 0.7748
vn 0.3960 0.6942 0.6010
vn 0.5030 0.5818 0.6391
vn 0.5722 0.4728 0.6701
vn 0.8739 -0.0696 0.4811
vn 0.9406 0.0846 0.3288
vn 0.8605 0.1776 0.4775
vn 0.7476 0.0799 0.6594
vn 0.6454 0.1407 0.7507
vn 0.7843 0.1506 0.6018
vn 0.7762 0.1365 0.6156
vn 0.5977 0.0143 0.8016
vn -0.3979 -0.1877 0.8980
vn -0.2502 -0.3200 0.9138
vn -0.1626 -0.3770 0.9118
vn -0.1058 -0.2985 0.9485
vn 0.0968 -0.3088 0.9462
vn 0.1079 -0.3546 0.9288
vn 0.2823 -0.3985 0.8726
vn 0.1584 -0.3353 0.9287
vn -0.1367 -0.4041 0.9045
vn -0.2124 -0.5205 0.8270
vn -0.1884 -0.4731 0.8606
vn -0.2136 -0.4279 0.8782
vn 0.0083 -0.4009 0.9161
vn 0.0441 -0.4424 0.8957
vn 0.1594 -0.3745 0.9134
vn 0.2916 -0.3049 0.9067
vn -0.2007 -0.7288 0.6547
vn -0.0997 -0.9248 0.3672
vn -0.0496 -0.8948 0.4437
vn -0.1503 -0.7180 0.6796
vn 0.0825 -0.5822 0.8089
vn 0.2659 -0.7705 0.5794
vn 0.4592 -0.6403 0.6157
vn 0.2116 -0.4996 0.8400
vn -0.9306 0.2812 0.2342
vn -0.9895 0.1239 0.0748
vn -0.9949 -0.0841 0.0556
vn -0.9691 0.1162 0.2177
vn -0.9543 -0.2503 0.1632
vn -0.9256 -0.3776 0.0283
vn -0.9276 -0.3727 0.0256
vn -0.9135 -0.3874 0.1239
vn -0.1043 0.7305 0.6749
vn -0.1103 0.7566 0.6445
vn -0.1933 0.6955 0.6920
vn -0.3515 0.6917 0.6309
vn -0.3337 0.6831 0.6496
vn -0.4306 0.6240 0.6520
vn -0.6301 0.5539 0.5441
vn -0.5133 0.6361 0.5761
vn -0.8195 0.3183 0.4766
vn -0.8043 0.3793 0.4575
vn -0.8142 0.3046 0.4943
vn -0.8198 0.2663 0.5070
vn -0.7700 -0.1319 0.6243
vn -0.8208 -0.0970 0.5629
vn -0.7922 -0.3522 0.4984
vn -0.6685 -0.2888 0.6853
vn -0.8985 0.3366 0.2818
vn -0.8836 0.3184 0.3433
vn -0.9908 0.1037 0.0874
vn -0.9956 0.0238 0.0902
vn -0.8409 0.4454 0.3074
vn -0.7916 0.5304 0.3035
vn -0.7001 0.5432 0.4635
vn -0.8499 0.3120 0.4248
vn -0.7848 0.4419 0.4346
vn -0.7727 0.4675 0.4295
vn -0.7979 0.4246 0.4278
vn -0.8999 -0.4022 0.1684
vn -0.9460 -0.3173 0.0659
vn -0.8870 -0.4556 0.0753
vn -0.8579 -0.4790 0.1859
vn -0.5940 -0.6700 0.4453
vn -0.7560 -0.5580 0.3423
vn -0.6871 -0.5859 0.4297
vn -0.6255 -0.6087 0.4881
vn -0.5416 -0.4639 0.7011
vn -0.7677 -0.4910 0.4119
vn -0.5406 -0.6561 0.5266
vn -0.8918 -0.4487 -0.0582
vn -0.9085 -0.4174 0.0176
vn -0.9571 -0.2877 0.0359
vn -0.9596 -0.2665 -0.0898
vn -0.9591 -0.2390 -0.1519
vn -0.9780 -0.1717 -0.1183
vn -0.9966 -0.0801 -0.0200
vn -1.0000 -0.0040 0.0014
vn -0.9922 -0.1210 -0.0308
vn -0.9631 -0.2160 -0.1607
vn -0.6308 -0.6342 0.4471
vn -0.5468 -0.6980 0.4625
vn -0.4622 -0.8659 0.1912
vn -0.4282 -0.8762 0.2213
vn -0.3630 -0.9233 0.1254
vn -0.4582 -0.8848 0.0847
vn -0.4728 -0.8808 -0.0266
vn -0.4844 -0.8720 -0.0707
vn -0.3711 -0.9285 0.0097
vn -0.5150 -0.8464 -0.1355
vn -0.5167 -0.8517 -0.0876
vn -0.5151 -0.8540 -0.0735
vn -0.5304 -0.8417 -0.1012
vn -0.8307 -0.5112 -0.2206
vn -0.8453 -0.5075 -0.1672
vn -0.9041 -0.3485 -0.2473
vn 0.3821 -0.6641 0.6426
vn 0.4103 -0.5540 0.7244
vn 0.4464 -0.6045 0.6598
vn 0.3997 -0.5609 0.7250
vn 0.4284 -0.5966 0.6787
vn 0.3590 -0.6146 0.7024
vn 0.4225 -0.5482 0.7218
vn 0.4343 -0.7334 0.5229
vn 0.4338 -0.8357 0.3368
vn 0.3092 -0.8666 0.3917
vn 0.2745 -0.8601 0.4300
vn 0.4393 -0.6859 0.5801
vn 0.4104 -0.5365 0.7374
vn 0.5536 -0.4855 0.6766
vn -0.2969 -0.7610 0.5768
vn -0.3316 -0.8744 0.3541
vn -0.0777 -0.9357 0.3443
vn -0.2939 -0.9430 0.1564
vn -0.1663 -0.9839 0.0649
vn -0.0459 -0.9670 0.2505
vn -0.1509 -0.9809 0.1228
vn 0.0038 -0.9936 0.1125
vn -0.0974 -0.9554 0.2788
vn 0.4861 -0.8708 0.0733
vn 0.6580 -0.7282 -0.1914
vn 0.5876 -0.7835 -0.2021
vn 0.5260 -0.8505 0.0078
vn 0.5292 -0.8462 0.0616
vn 0.5765 -0.8120 0.0910
vn 0.4030 -0.8900 -0.2133
vn 0.4723 -0.8550 -0.2141
vn 0.6382 -0.7602 -0.1214
vn -0.1196 -0.9879 0.0988
vn -0.0369 -0.9938 0.1053
vn -0.0099 -0.9859 0.1670
vn 0.3908 0.8783 -0.2754
vn 0.4314 0.8892 -0.1525
vn 0.3922 0.9060 -0.1593
vn 0.4577 0.8534 -0.2496
vn 0.4155 0.8064 -0.4208
vn 0.4926 0.8408 0.2243
vn 0.2895 0.9335 0.2114
vn 0.3314 0.9435 0.0061
vn 0.4817 0.8759 0.0276
vn -0.2282 0.9470 -0.2261
vn -0.1729 0.9672 -0.1859
vn -0.1931 0.9756 -0.1045
vn -0.1388 0.9677 -0.2104
vn -0.1691 0.9831 0.0707
vn -0.3935 0.8377 0.3786
vn -0.5129 0.8291 0.2225
vn -0.1642 0.9299 0.3291
vn -0.1058 0.9542 0.2798
vn -0.2002 0.9749 0.0976
vn -0.1920 0.9263 0.3242
vn -0.1669 0.8990 0.4050
vn -0.0918 0.9535 0.2872
vn -0.1686 0.9617 0.2161
vn 0.1584 0.8679 -0.4709
vn 0.3076 0.8704 -0.3845
vn 0.4590 0.8047 -0.3764
vn 0.2136 0.8378 -0.5025
vn 0.1675 0.9100 -0.3792
vn 0.2068 0.8586 -0.4691
vn 0.1537 0.8686 -0.4710
vn 0.2579 0.8669 -0.4266
vn 0.0889 0.9318 -0.3519
vn -0.0277 0.9688 -0.2465
vn -0.0893 0.9466 -0.3099
vn 0.0380 0.9055 -0.4226
vn 0.0826 0.8947 -0.4389
vn 0.5553 -0.2359 -0.7975
vn 0.6282 -0.3088 -0.7141
vn 0.5987 -0.2685 -0.7547
vn 0.6117 -0.3035 -0.7305
vn 0.5760 -0.2726 -0.7707
vn 0.3931 -0.3987 -0.8286
vn 0.5448 -0.2460 -0.8017
vn 0.4281 -0.3321 -0.8405
vn 0.4199 -0.3046 -0.8549
vn 0.8204 -0.4817 -0.3079
vn 0.8313 -0.5408 -0.1286
vn 0.8615 -0.4377 -0.2573
vn 0.8290 -0.2339 -0.5080
vn 0.6711 -0.2782 -0.6872
vn 0.6451 -0.2072 -0.7355
vn 0.8974 -0.4411 -0.0042
vn 0.7679 -0.6304 -0.1136
vn 0.6799 -0.7206 -0.1358
vn 0.8312 -0.5073 -0.2276
vn 0.5917 -0.7674 -0.2469
vn 0.6505 -0.7349 -0.1917
vn 0.7303 -0.5923 -0.3405
vn 0.4156 -0.6837 -0.5998
vn 0.4541 -0.6132 -0.6463
vn 0.5782 -0.4911 -0.6515
vn -0.4995 -0.8522 -0.1559
vn -0.4307 -0.7674 -0.4750
vn -0.4143 -0.6715 -0.6144
vn -0.5278 -0.7542 -0.3907
vn -0.3648 -0.5895 -0.7207
vn -0.3247 -0.6614 -0.6762
vn -0.2660 -0.6516 -0.7103
vn -0.4052 -0.5962 -0.6931
vn 0.2239 -0.8052 -0.5491
vn 0.0320 -0.8723 -0.4879
vn 0.2284 -0.7528 -0.6174
vn 0.1402 -0.8789 -0.4560
vn -0.0346 -0.9827 -0.1819
vn -0.0727 -0.9708 -0.2284
vn 0.0337 -0.8625 -0.5049
vn -0.1225 -0.9923 -0.0152
vn -0.1899 -0.9763 0.1036
vn -0.2590 -0.9651 -0.0372
vn -0.1657 -0.9785 -0.1229
vn -0.2162 -0.9686 0.1231
vn -0.2129 -0.9678 0.1343
vn -0.2139 -0.9759 0.0444
vn -0.2534 -0.9671 0.0232
vn 0.5619 -0.8110 -0.1627
vn 0.6160 -0.7657 -0.1852
vn 0.6206 -0.7669 -0.1637
vn 0.6371 -0.7539 -0.1603
vn 0.6292 -0.7631 -0.1474
vn 0.3981 -0.6899 -0.6046
vn 0.4100 -0.6645 -0.6248
vn 0.3247 -0.6321 -0.7036
vn 0.3411 -0.6843 -0.6445
vn 0.3286 -0.7423 -0.5840
vn 0.4539 -0.5729 -0.6824
vn 0.4055 -0.5455 -0.7334
vn 0.4149 -0.5116 -0.7524
vn 0.3953 -0.5116 -0.7629
vn 0.3777 -0.6915 -0.6157
vn 0.3820 -0.7090 -0.5928
vn 0.2305 -0.7889 -0.5697
vn 0.1996 -0.8043 -0.5597
vn 0.3244 -0.6872 -0.6500
vn 0.3410 -0.9035 -0.2597
vn 0.2884 -0.8896 -0.3541
vn 0.2427 -0.8528 -0.4625
vn 0.3792 -0.7785 -0.5001
vn 0.3949 -0.8352 -0.3828
vn 0.4205 -0.4972 -0.7589
vn 0.4692 -0.4818 -0.7401
vn 0.3301 -0.3909 -0.8592
vn 0.3705 -0.3438 -0.8629
vn -0.0044 -0.2729 -0.9620
vn -0.1682 -0.2456 -0.9547
vn -0.2756 -0.0784 -0.9581
vn 0.0781 -0.0992 -0.9920
vn -0.3109 -0.4576 -0.8330
vn -0.3999 -0.2597 -0.8790
vn -0.5463 -0.2629 -0.7952
vn -0.5229 -0.3858 -0.7601
vn -0.4973 -0.4849 -0.7194
vn -0.6521 0.6496 -0.3908
vn -0.6430 0.6333 -0.4307
vn -0.4881 0.5834 -0.6491
vn -0.4772 0.5304 -0.7007
vn -0.7285 0.4628 -0.5051
vn -0.6756 0.2713 -0.6855
vn -0.4067 0.3971 -0.8228
vn -0.2986 0.3078 -0.9034
vn -0.4307 0.1245 -0.8939
vn -0.3614 0.3422 -0.8674
vn -0.3518 0.2913 -0.8896
vn -0.4108 0.1447 -0.9002
vn 0.1549 0.7147 -0.6821
vn 0.2036 0.7420 -0.6388
vn 0.1370 0.8050 -0.5772
vn 0.1743 0.7209 -0.6707
vn 0.2276 0.7732 -0.5919
vn 0.1518 0.7983 -0.5828
vn 0.1956 0.7722 -0.6045
vn -0.3559 0.7595 -0.5445
vn -0.0117 0.8860 -0.4635
vn 0.1146 0.8574 -0.5018
vn -0.0025 0.7908 -0.6121
vn -0.3570 0.6857 -0.6344
vn -0.5856 -0.1508 -0.7964
vn -0.6689 -0.2845 -0.6867
vn -0.7024 -0.1338 -0.6991
vn -0.5376 -0.2129 -0.8159
vn -0.8191 -0.5292 -0.2215
vn -0.8658 -0.2931 -0.4056
vn -0.7196 -0.4359 -0.5406
vn 0.2919 0.7688 -0.5690
vn 0.3755 0.6543 -0.6564
vn 0.3244 0.5938 -0.7364
vn 0.4073 0.2015 -0.8908
vn 0.4617 0.1901 -0.8664
vn 0.3703 0.0061 -0.9289
vn 0.5246 0.0499 -0.8499
vn 0.5774 -0.1180 -0.8079
vn 0.3497 0.0432 -0.9359
vn 0.2780 0.7169 -0.6394
vn 0.4638 0.7841 -0.4124
vn 0.4124 0.7700 -0.4869
vn 0.8943 0.4378 -0.0926
vn 0.9889 0.1482 -0.0027
vn 0.9069 0.3979 -0.1385
vn 0.4200 0.8481 -0.3230
vn 0.4560 0.8299 -0.3215
vn 0.4969 0.8057 -0.3224
vn 0.5248 0.8195 -0.2305
vn 0.5191 0.8211 -0.2372
vn 0.5608 0.7792 -0.2799
vn -0.6354 0.7648 -0.1067
vn -0.5638 0.8233 -0.0659
vn -0.6482 0.7542 -0.1045
vn -0.5917 0.8061 0.0066
vn -0.6400 0.7153 0.2807
vn -0.6253 0.7107 0.3225
vn -0.6066 0.7530 0.2552
vn -0.5567 0.7265 0.4027
vn -0.6248 0.6743 0.3937
vn -0.7047 0.6791 0.2055
vn -0.7422 0.6353 0.2132
vn -0.7263 0.6867 0.0304
vn -0.5775 0.7604 0.2973
vn -0.6139 0.6913 0.3811
vn -0.3721 -0.4304 0.8224
vn -0.4444 -0.5153 0.7328
vn -0.5171 -0.4787 0.7096
vn -0.5016 -0.3643 0.7846
vn 0.0683 -0.2525 0.9652
vn 0.0754 -0.3418 0.9368
vn 0.1397 -0.2576 0.9561
vn 0.0938 -0.2650 0.9597
vn 0.2667 -0.5043 0.8213
vn 0.4477 -0.5593 0.6977
vn 0.4195 -0.4862 0.7666
vn 0.2410 -0.3398 0.9091
vn -0.4828 -0.6372 0.6008
vn -0.5436 -0.5879 0.5991
vn -0.3704 -0.8408 0.3948
vn -0.4763 -0.4634 0.7473
vn -0.5332 -0.4647 0.7069
vn -0.5107 -0.6320 0.5829
vn -0.4890 -0.5413 0.6840
vn 0.8507 -0.1253 0.5105
vn 0.8683 -0.1045 0.4848
vn 0.9364 0.0364 0.3490
vn 0.7255 -0.2752 0.6308
vn 0.9636 0.0041 0.2674
vn 0.6044 -0.5303 0.5945
vn 0.7946 -0.1194 0.5952
vn 0.7640 -0.1977 0.6142
vn 0.8721 -0.2354 0.4290
vn 0.8863 -0.2228 0.4061
vn 0.6575 -0.4236 0.6231
vn 0.6149 -0.3540 0.7047
vn 0.3985 -0.5112 0.7615
vn -0.2651 -0.0034 -0.9642
vn -0.2698 0.1059 -0.9571
vn -0.0287 -0.0599 -0.9978
vn 0.0615 -0.0706 -0.9956
vn 0.2206 -0.0010 -0.9754
vn 0.4470 0.3126 -0.8382
vn 0.3425 0.3116 -0.8863
vn 0.4095 0.1918 -0.8919
vn 0.2683 0.0047 -0.9633
vn 0.3525 0.6357 -0.6868
vn 0.1982 0.7496 -0.6315
vn 0.1994 0.7694 -0.6068
vn 0.3252 0.5936 -0.7361
vn 0.2749 0.5640 -0.7787
vn 0.8627 0.2682 0.4288
vn 0.8005 0.3147 0.5100
vn 0.8459 0.2882 0.4488
vn 0.8868 0.1909 0.4210
vn 0.8305 0.2802 0.4814
vn 0.8709 0.1786 0.4579
vn 0.8546 0.1848 0.4853
vn 0.8428 -0.0098 0.5381
vn 0.9296 0.0410 0.3662
vn 0.8545 0.0898 0.5117
vn 0.8755 -0.0918 0.4744
vn 0.8319 -0.0558 0.5521
vn 0.9221 0.0414 0.3847
vn 0.7439 0.3837 0.5472
vn 0.6577 0.4020 0.6370
vn 0.7443 0.3041 0.5946
vn 0.7893 0.3361 0.5138
vn 0.5560 0.3562 0.7510
vn 0.2842 0.0375 0.9580
vn 0.3792 -0.0206 0.9251
vn 0.6954 0.2394 0.6776
vn 0.9467 -0.1150 0.3009
vn 0.8394 -0.1161 0.5310
vn 0.9354 -0.0793 0.3447
vn 0.6002 0.6701 -0.4367
vn 0.6017 0.7229 -0.3398
vn 0.6023 0.6706 -0.4332
vn 0.7343 0.6653 0.1349
vn 0.8263 0.5121 0.2344
vn 0.8326 0.5532 0.0266
vn 0.5068 0.8331 0.2216
vn 0.4982 0.7973 0.3409
vn 0.3208 0.9443 0.0733
vn 0.3463 0.9265 0.1472
vn 0.3208 0.8456 0.4268
vn 0.7408 0.6304 0.2319
vn 0.7573 0.6028 0.2510
vn 0.7480 0.5935 0.2971
vn 0.8212 0.5028 0.2700
vn 0.7575 0.5506 0.3507
vn 0.3698 0.9246 0.0916
vn 0.4736 0.8316 0.2900
vn 0.4801 0.8380 0.2592
vn 0.3576 0.9287 0.0977
vn 0.4956 0.8118 0.3088
vn 0.5165 0.7909 0.3280
vn 0.6716 0.6699 0.3166
vn 0.6705 0.6923 0.2667
vn 0.5404 0.7857 0.3009
vn 0.1145 -0.9473 -0.2992
vn -0.0367 -0.9979 -0.0539
vn 0.0009 -0.9926 -0.1215
vn 0.1680 -0.9031 -0.3953
vn -0.1359 -0.9845 0.1108
vn -0.0906 -0.9947 0.0479
vn -0.0481 -0.9985 0.0273
vn -0.0448 -0.9907 0.1285
vn -0.9766 -0.1329 -0.1692
vn -0.9063 -0.0266 -0.4218
vn -0.9360 -0.1588 -0.3141
vn -0.5944 0.7388 -0.3175
vn -0.6030 0.6941 -0.3933
vn -0.6675 0.6431 -0.3753
vn -0.6697 0.6511 -0.3573
vn 0.0336 0.4150 0.9092
vn -0.0843 0.2643 0.9607
vn -0.0841 0.5216 0.8490
vn 0.0074 0.4917 0.8707
vn -0.0381 0.3090 0.9503
vn -0.0472 0.5037 0.8626
vn 0.1517 -0.1065 0.9827
vn 0.1146 -0.0592 0.9916
vn 0.2489 0.1805 0.9516
vn 0.3088 -0.1846 0.9330
vn 0.1200 -0.1060 0.9871
vn 0.1661 -0.1095 0.9800
vn 0.2799 -0.2635 0.9231
vn 0.1956 -0.4195 0.8864
vn 0.0858 -0.2226 0.9711
vn 0.1091 -0.1887 0.9760
vn -0.3317 0.1658 0.9287
vn -0.4416 0.2431 0.8636
vn -0.4674 0.1895 0.8635
vn -0.3719 0.0158 0.9281
vn -0.4920 0.0125 0.8705
vn -0.3832 0.3728 0.8451
vn -0.3097 -0.1220 0.9430
vn -0.3105 -0.1864 0.9321
vn -0.4868 -0.1974 0.8509
vn -0.4988 -0.0860 0.8625
vn -0.7310 0.4385 0.5228
vn -0.6305 0.3613 0.6870
vn -0.5365 0.4775 0.6958
vn -0.5082 0.5731 0.6429
vn -0.7373 0.4903 0.4648
vn -0.6125 0.6929 0.3803
vn -0.4570 0.7103 0.5354
vn -0.5517 0.6656 0.5026
vn -0.0282 0.7715 0.6356
vn 0.0417 0.8402 0.5407
vn 0.0701 0.7980 0.5986
vn 0.2297 0.7466 0.6243
vn -0.0220 0.7517 0.6591
vn 0.0712 0.6617 0.7464
vn 0.1002 0.6697 0.7359
vn 0.1903 0.7716 0.6070
vn -0.5892 0.4193 -0.6907
vn -0.6442 0.5140 -0.5664
vn -0.6093 0.6292 -0.4826
vn -0.6763 0.6493 -0.3480
vn -0.7090 0.4200 -0.5665
vn 0.2751 0.8159 0.5086
vn 0.0757 0.7687 0.6352
vn 0.1126 0.7354 0.6682
vn 0.2727 0.8424 0.4648
vn 0.0326 0.6980 0.7154
vn 0.0595 0.7678 0.6379
vn 0.0602 0.6974 0.7142
vn 0.1841 0.9436 0.2751
vn 0.2340 0.9595 0.1569
vn 0.4394 0.7892 0.4290
vn 0.4307 0.8111 0.3959
vn 0.0036 0.8689 0.4949
vn 0.1321 0.9278 0.3489
vn 0.1574 0.7945 0.5865
vn 0.1564 0.8086 0.5672
vn -0.0034 0.8403 0.5421
vn 0.0662 0.7945 0.6036
vn 0.1233 0.8262 0.5497
vn 0.2024 0.7885 0.5808
vn 0.0506 0.8801 0.4721
vn 0.9074 0.3240 0.2677
vn 0.9760 0.1148 0.1852
vn 0.8910 0.4532 0.0256
vn 0.5326 -0.5292 0.6605
vn 0.5488 -0.5347 0.6426
vn 0.5365 -0.5358 0.6520
vn 0.5290 -0.5513 0.6452
vn -0.6824 0.1006 -0.7240
vn -0.5181 0.3891 -0.7617
vn -0.6513 0.3852 -0.6538
vn -0.7141 -0.0098 -0.7000
s 0
f 53//1 260//1 685//1 259//1
f 18//2 261//2 685//2 260//2
f 39//3 259//3 685//3 261//3
f 5//4 266//4 686//4 265//4
f 36//5 267//5 686//5 266//5
f 48//6 265//6 686//6 267//6
f 1//7 264//7 687//7 268//7
f 14//8 263//8 687//8 264//8
f 22//9 268//9 687//9 263//9
f 58//10 278//10 688//10 277//10
f 61//11 281//11 688//11 278//11
f 60//12 277//12 688//12 281//12
f 61//13 279//13 689//13 281//13
f 59//14 280//14 689//14 279//14
f 60//15 281//15 689//15 280//15
f 62//16 283//16 690//16 282//16
f 68//17 284//17 690//17 283//17
f 63//18 285//18 690//18 284//18
f 64//19 286//19 690//19 285//19
f 65//20 287//20 690//20 286//20
f 66//21 288//21 690//21 287//21
f 67//22 282//22 690//22 288//22
f 75//23 290//23 691//23 289//23
f 82//24 291//24 691//24 290//24
f 76//25 292//25 691//25 291//25
f 77//26 293//26 691//26 292//26
f 78//27 294//27 691//27 293//27
f 79//28 295//28 691//28 294//28
f 80//29 296//29 691//29 295//29
f 81//30 289//30 691//30 296//30
f 86//31 298//31 692//31 297//31
f 93//32 299//32 692//32 298//32
f 87//33 300//33 692//33 299//33
f 88//34 301//34 692//34 300//34
f 89//35 302//35 692//35 301//35
f 90//36 303//36 692//36 302//36
f 91//37 304//37 692//37 303//37
f 92//38 297//38 692//38 304//38
f 94//39 306//39 693//39 305//39
f 102//40 307//40 693//40 306//40
f 95//41 308//41 693//41 307//41
f 96//42 309//42 693//42 308//42
f 97//43 310//43 693//43 309//43
f 98//44 311//44 693//44 310//44
f 99//45 312//45 693//45 311//45
f 100//46 313//46 693//46 312//46
f 101//47 305//47 693//47 313//47
f 103//48 315//48 694//48 314//48
f 109//49 316//49 694//49 315//49
f 104//50 317//50 694//50 316//50
f 105//51 318//51 694//51 317//51
f 106//52 319//52 694//52 318//52
f 107//53 320//53 694//53 319//53
f 108//54 314//54 694//54 320//54
f 110//55 322//55 695//55 321//55
f 115//56 323//56 695//56 322//56
f 111//57 324//57 695//57 323//57
f 112//58 325//58 695//58 324//58
f 113//59 326//59 695//59 325//59
f 114//60 321//60 695//60 326//60
f 116//61 328//61 696//61 327//61
f 120//62 329//62 696//62 328//62
f 117//63 330//63 696//63 329//63
f 118//64 331//64 696//64 330//64
f 119//65 327//65 696//65 331//65
f 121//66 333//66 697//66 332//66
f 333//67 124//67 334//67 697//67
f 697//68 334//68 125//68 335//68
f 332//69 697//69 335//69 127//69
f 122//70 337//70 698//70 336//70
f 337//71 126//71 338//71 698//71
f 698//72 338//72 125//72 334//72
f 336//73 698//73 334//73 124//73
f 123//74 340//74 699//74 339//74
f 340//75 127//75 335//75 699//75
f 699//76 335//76 125//76 338//76
f 339//77 699//77 338//77 126//77
f 128//78 342//78 700//78 341//78
f 132//79 343//79 700//79 342//79
f 129//80 344//80 700//80 343//80
f 130//81 345//81 700//81 344//81
f 131//82 341//82 700//82 345//82
f 136//83 347//83 701//83 346//83
f 144//84 348//84 701//84 347//84
f 137//85 349//85 701//85 348//85
f 138//86 350//86 701//86 349//86
f 139//87 351//87 701//87 350//87
f 140//88 352//88 701//88 351//88
f 141//89 353//89 701//89 352//89
f 142//90 354//90 701//90 353//90
f 143//91 346//91 701//91 354//91
f 145//92 356//92 702//92 355//92
f 149//93 357//93 702//93 356//93
f 146//94 358//94 702//94 357//94
f 147//95 359//95 702//95 358//95
f 148//96 355//96 702//96 359//96
f 150//97 361//97 703//97 360//97
f 155//98 362//98 703//98 361//98
f 151//99 363//99 703//99 362//99
f 152//100 364//100 703//100 363//100
f 153//101 365//101 703//101 364//101
f 154//102 360//102 703//102 365//102
f 156//103 367//103 704//103 366//103
f 163//104 368//104 704//104 367//104
f 157//105 369//105 704//105 368//105
f 158//106 370//106 704//106 369//106
f 159//107 371//107 704//107 370//107
f 160//108 372//108 704//108 371//108
f 161//109 373//109 704//109 372//109
f 162//110 366//110 704//110 373//110
f 164//111 375//111 705//111 374//111
f 168//112 376//112 705//112 375//112
f 165//113 377//113 705//113 376//113
f 166//114 378//114 705//114 377//114
f 167//115 374//115 705//115 378//115
f 169//116 380//116 706//116 379//116
f 175//117 381//117 706//117 380//117
f 170//118 382//118 706//118 381//118
f 171//119 383//119 706//119 382//119
f 172//120 384//120 706//120 383//120
f 173//121 385//121 706//121 384//121
f 174//122 379//122 706//122 385//122
f 176//123 387//123 707//123 386//123
f 180//124 388//124 707//124 387//124
f 177//125 389//125 707//125 388//125
f 178//126 390//126 707//126 389//126
f 179//127 386//127 707//127 390//127
f 181//128 392//128 708//128 391//128
f 186//129 393//129 708//129 392//129
f 182//130 394//130 708//130 393//130
f 183//131 395//131 708//131 394//131
f 184//132 396//132 708//132 395//132
f 185//133 391//133 708//133 396//133
f 187//134 398//134 709//134 397//134
f 193//135 399//135 709//135 398//135
f 188//136 400//136 709//136 399//136
f 189//137 401//137 709//137 400//137
f 190//138 402//138 709//138 401//138
f 191//139 403//139 709//139 402//139
f 192//140 397//140 709//140 403//140
f 194//141 405//141 710//141 404//141
f 199//142 406//142 710//142 405//142
f 195//143 407//143 710//143 406//143
f 196//144 408//144 710//144 407//144
f 197//145 409//145 710//145 408//145
f 198//146 404//146 710//146 409//146
f 200//147 411//147 711//147 410//147
f 205//148 412//148 711//148 411//148
f 201//149 413//149 711//149 412//149
f 202//150 414//150 711//150 413//150
f 203//151 415//151 711//151 414//151
f 204//152 410//152 711//152 415//152
f 212//153 417//153 712//153 416//153
f 218//154 418//154 712//154 417//154
f 213//155 419//155 712//155 418//155
f 214//156 420//156 712//156 419//156
f 215//157 421//157 712//157 420//157
f 216//158 422//158 712//158 421//158
f 217//159 416//159 712//159 422//159
f 219//160 424//160 713//160 423//160
f 224//161 425//161 713//161 424//161
f 220//162 426//162 713//162 425//162
f 221//163 427//163 713//163 426//163
f 222//164 428//164 713//164 427//164
f 223//165 423//165 713//165 428//165
f 228//166 430//166 714//166 429//166
f 236//167 431//167 714//167 430//167
f 229//168 432//168 714//168 431//168
f 230//169 433//169 714//169 432//169
f 231//170 434//170 714//170 433//170
f 232//171 435//171 714//171 434//171
f 233//172 436//172 714//172 435//172
f 234//173 437//173 714//173 436//173
f 235//174 429//174 714//174 437//174
f 237//175 439//175 715//175 438//175
f 439//176 240//176 440//176 715//176
f 715//177 440//177 241//177 441//177
f 438//178 715//178 441//178 243//178
f 238//179 443//179 716//179 442//179
f 443//180 242//180 444//180 716//180
f 716//181 444//181 241//181 440//181
f 442//182 716//182 440//182 240//182
f 239//183 446//183 717//183 445//183
f 446//184 243//184 441//184 717//184
f 717//185 441//185 241//185 444//185
f 445//186 717//186 444//186 242//186
f 244//187 448//187 718//187 447//187
f 247//188 451//188 718//188 448//188
f 246//189 447//189 718//189 451//189
f 247//190 449//190 719//190 451//190
f 245//191 450//191 719//191 449//191
f 246//192 451//192 719//192 450//192
f 248//193 453//193 720//193 452//193
f 253//194 454//194 720//194 453//194
f 249//195 455//195 720//195 454//195
f 250//196 456//196 720//196 455//196
f 251//197 457//197 720//197 456//197
f 252//198 452//198 720//198 457//198
f 254//199 459//199 721//199 458//199
f 257//200 462//200 721//200 459//200
f 256//201 458//201 721//201 462//201
f 257//202 460//202 722//202 462//202
f 255//203 461//203 722//203 460//203
f 256//204 462//204 722//204 461//204
f 254//205 463//205 723//205 459//205
f 463//206 121//206 332//206 723//206
f 723//207 332//207 127//207 464//207
f 459//208 723//208 464//208 257//208
f 257//209 464//209 724//209 460//209
f 464//210 127//210 340//210 724//210
f 724//211 340//211 123//211 465//211
f 460//212 724//212 465//212 255//212
f 237//213 466//213 725//213 439//213
f 466//214 123//214 339//214 725//214
f 725//215 339//215 126//215 467//215
f 439//216 725//216 467//216 240//216
f 240//217 467//217 726//217 442//217
f 467//218 126//218 337//218 726//218
f 726//219 337//219 122//219 468//219
f 442//220 726//220 468//220 238//220
f 121//221 469//221 727//221 333//221
f 469//222 209//222 470//222 727//222
f 727//223 470//223 211//223 471//223
f 333//224 727//224 471//224 124//224
f 124//225 471//225 728//225 336//225
f 471//226 211//226 472//226 728//226
f 728//227 472//227 210//227 473//227
f 336//228 728//228 473//228 122//228
f 239//229 474//229 729//229 446//229
f 474//230 83//230 475//230 729//230
f 729//231 475//231 85//231 476//231
f 446//232 729//232 476//232 243//232
f 243//233 476//233 730//233 438//233
f 476//234 85//234 477//234 730//234
f 730//235 477//235 84//235 478//235
f 438//236 730//236 478//236 237//236
f 238//237 479//237 731//237 443//237
f 479//238 137//238 348//238 731//238
f 731//239 348//239 144//239 480//239
f 443//240 731//240 480//240 242//240
f 242//241 480//241 732//241 445//241
f 480//242 144//242 347//242 732//242
f 732//243 347//243 136//243 481//243
f 445//244 732//244 481//244 239//244
f 94//245 482//245 733//245 306//245
f 482//246 84//246 477//246 733//246
f 733//247 477//247 85//247 483//247
f 306//248 733//248 483//248 102//248
f 102//249 483//249 734//249 307//249
f 483//250 85//250 475//250 734//250
f 734//251 475//251 83//251 484//251
f 307//252 734//252 484//252 95//252
f 103//253 485//253 735//253 315//253
f 485//254 87//254 299//254 735//254
f 735//255 299//255 93//255 486//255
f 315//256 735//256 486//256 109//256
f 109//257 486//257 736//257 316//257
f 486//258 93//258 298//258 736//258
f 736//259 298//259 86//259 487//259
f 316//260 736//260 487//260 104//260
f 110//261 488//261 737//261 322//261
f 488//262 146//262 357//262 737//262
f 737//263 357//263 149//263 489//263
f 322//264 737//264 489//264 115//264
f 115//265 489//265 738//265 323//265
f 489//266 149//266 356//266 738//266
f 738//267 356//267 145//267 490//267
f 323//268 738//268 490//268 111//268
f 156//269 491//269 739//269 367//269
f 491//270 210//270 472//270 739//270
f 739//271 472//271 211//271 492//271
f 367//272 739//272 492//272 163//272
f 163//273 492//273 740//273 368//273
f 492//274 211//274 470//274 740//274
f 740//275 470//275 209//275 493//275
f 368//276 740//276 493//276 157//276
f 70//277 495//277 741//277 494//277
f 495//278 72//278 496//278 741//278
f 741//279 496//279 74//279 497//279
f 494//280 741//280 497//280 71//280
f 71//281 497//281 742//281 498//281
f 497//282 74//282 499//282 742//282
f 742//283 499//283 73//283 500//283
f 498//284 742//284 500//284 69//284
f 72//285 501//285 743//285 496//285
f 501//286 165//286 376//286 743//286
f 743//287 376//287 168//287 502//287
f 496//288 743//288 502//288 74//288
f 74//289 502//289 744//289 499//289
f 502//290 168//290 375//290 744//290
f 744//291 375//291 164//291 503//291
f 499//292 744//292 503//292 73//292
f 62//293 504//293 745//293 283//293
f 504//294 225//294 505//294 745//294
f 745//295 505//295 227//295 506//295
f 283//296 745//296 506//296 68//296
f 68//297 506//297 746//297 284//297
f 506//298 227//298 507//298 746//298
f 746//299 507//299 226//299 508//299
f 284//300 746//300 508//300 63//300
f 225//301 509//301 747//301 505//301
f 509//302 117//302 329//302 747//302
f 747//303 329//303 120//303 510//303
f 505//304 747//304 510//304 227//304
f 227//305 510//305 748//305 507//305
f 510//306 120//306 328//306 748//306
f 748//307 328//307 116//307 511//307
f 507//308 748//308 511//308 226//308
f 169//309 512//309 749//309 380//309
f 512//310 245//310 449//310 749//310
f 749//311 449//311 247//311 513//311
f 380//312 749//312 513//312 175//312
f 175//313 513//313 750//313 381//313
f 513//314 247//314 448//314 750//314
f 750//315 448//315 244//315 514//315
f 381//316 750//316 514//316 170//316
f 75//317 515//317 751//317 290//317
f 515//318 201//318 412//318 751//318
f 751//319 412//319 205//319 516//319
f 290//320 751//320 516//320 82//320
f 82//321 516//321 752//321 291//321
f 516//322 205//322 411//322 752//322
f 752//323 411//323 200//323 517//323
f 291//324 752//324 517//324 76//324
f 187//325 518//325 753//325 398//325
f 518//326 129//326 343//326 753//326
f 753//327 343//327 132//327 519//327
f 398//328 753//328 519//328 193//328
f 193//329 519//329 754//329 399//329
f 519//330 132//330 342//330 754//330
f 754//331 342//331 128//331 520//331
f 399//332 754//332 520//332 188//332
f 194//333 521//333 755//333 405//333
f 521//334 249//334 454//334 755//334
f 755//335 454//335 253//335 522//335
f 405//336 755//336 522//336 199//336
f 199//337 522//337 756//337 406//337
f 522//338 253//338 453//338 756//338
f 756//339 453//339 248//339 523//339
f 406//340 756//340 523//340 195//340
f 228//341 524//341 757//341 430//341
f 524//342 151//342 362//342 757//342
f 757//343 362//343 155//343 525//343
f 430//344 757//344 525//344 236//344
f 236//345 525//345 758//345 431//345
f 525//346 155//346 361//346 758//346
f 758//347 361//347 150//347 526//347
f 431//348 758//348 526//348 229//348
f 176//349 527//349 759//349 387//349
f 527//350 206//350 528//350 759//350
f 759//351 528//351 208//351 529//351
f 387//352 759//352 529//352 180//352
f 180//353 529//353 760//353 388//353
f 529//354 208//354 530//354 760//354
f 760//355 530//355 207//355 531//355
f 388//356 760//356 531//356 177//356
f 206//357 532//357 761//357 528//357
f 532//358 133//358 533//358 761//358
f 761//359 533//359 135//359 534//359
f 528//360 761//360 534//360 208//360
f 208//361 534//361 762//361 530//361
f 534//362 135//362 535//362 762//362
f 762//363 535//363 134//363 536//363
f 530//364 762//364 536//364 207//364
f 133//365 537//365 763//365 533//365
f 537//366 70//366 494//366 763//366
f 763//367 494//367 71//367 538//367
f 533//368 763//368 538//368 135//368
f 135//369 538//369 764//369 535//369
f 538//370 71//370 498//370 764//370
f 764//371 498//371 69//371 539//371
f 535//372 764//372 539//372 134//372
f 56//373 541//373 765//373 540//373
f 541//374 59//374 279//374 765//374
f 765//375 279//375 61//375 542//375
f 540//376 765//376 542//376 57//376
f 57//377 542//377 766//377 543//377
f 542//378 61//378 278//378 766//378
f 766//379 278//379 58//379 544//379
f 543//380 766//380 544//380 55//380
f 181//381 545//381 767//381 392//381
f 545//382 220//382 425//382 767//382
f 767//383 425//383 224//383 546//383
f 392//384 767//384 546//384 186//384
f 186//385 546//385 768//385 393//385
f 546//386 224//386 424//386 768//386
f 768//387 424//387 219//387 547//387
f 393//388 768//388 547//388 182//388
f 212//389 548//389 769//389 417//389
f 548//390 56//390 540//390 769//390
f 769//391 540//391 57//391 549//391
f 417//392 769//392 549//392 218//392
f 218//393 549//393 770//393 418//393
f 549//394 57//394 543//394 770//394
f 770//395 543//395 55//395 550//395
f 418//396 770//396 550//396 213//396
f 56//397 551//397 771//397 541//397
f 551//398 172//398 383//398 771//398
f 771//399 383//399 171//399 552//399
f 541//400 771//400 552//400 59//400
f 56//401 553//401 772//401 551//401
f 553//402 51//402 554//402 772//402
f 772//403 554//403 173//403 384//403
f 551//404 772//404 384//404 172//404
f 212//405 555//405 773//405 548//405
f 51//406 553//406 773//406 555//406
f 56//407 548//407 773//407 553//407
f 55//408 544//408 774//408 556//408
f 544//409 58//409 557//409 774//409
f 774//410 557//410 67//410 288//410
f 556//411 774//411 288//411 66//411
f 15//412 559//412 775//412 558//412
f 559//413 55//413 556//413 775//413
f 775//414 556//414 66//414 287//414
f 558//415 775//415 287//415 65//415
f 213//416 550//416 776//416 560//416
f 55//417 559//417 776//417 550//417
f 15//418 560//418 776//418 559//418
f 62//419 282//419 777//419 561//419
f 67//420 557//420 777//420 282//420
f 58//421 277//421 777//421 557//421
f 60//422 562//422 777//422 277//422
f 5//423 561//423 777//423 562//423
f 60//424 280//424 778//424 562//424
f 59//425 552//425 778//425 280//425
f 171//426 382//426 778//426 552//426
f 170//427 563//427 778//427 382//427
f 5//428 562//428 778//428 563//428
f 15//429 558//429 779//429 275//429
f 558//430 65//430 286//430 779//430
f 779//431 286//431 64//431 564//431
f 275//432 779//432 564//432 20//432
f 20//433 564//433 780//433 565//433
f 64//434 285//434 780//434 564//434
f 63//435 566//435 780//435 285//435
f 91//436 303//436 780//436 566//436
f 90//437 565//437 780//437 303//437
f 63//438 508//438 781//438 566//438
f 508//439 226//439 567//439 781//439
f 781//440 567//440 92//440 304//440
f 566//441 781//441 304//441 91//441
f 225//442 504//442 782//442 568//442
f 62//443 561//443 782//443 504//443
f 5//444 568//444 782//444 561//444
f 9//445 569//445 783//445 274//445
f 69//446 570//446 783//446 569//446
f 11//447 274//447 783//447 570//447
f 11//448 570//448 784//448 571//448
f 570//449 69//449 572//449 784//449
f 784//450 572//450 140//450 351//450
f 571//451 784//451 351//451 139//451
f 69//452 500//452 785//452 572//452
f 500//453 73//453 573//453 785//453
f 785//454 573//454 141//454 352//454
f 572//455 785//455 352//455 140//455
f 9//456 574//456 786//456 569//456
f 134//457 539//457 786//457 574//457
f 69//458 569//458 786//458 539//458
f 133//459 575//459 787//459 537//459
f 20//460 576//460 787//460 575//460
f 70//461 537//461 787//461 576//461
f 20//462 272//462 788//462 576//462
f 3//463 577//463 788//463 272//463
f 70//464 576//464 788//464 577//464
f 3//465 578//465 789//465 577//465
f 72//466 495//466 789//466 578//466
f 70//467 577//467 789//467 495//467
f 73//468 579//468 790//468 573//468
f 97//469 309//469 790//469 579//469
f 96//470 580//470 790//470 309//470
f 142//471 353//471 790//471 580//471
f 141//472 573//472 790//472 353//472
f 73//473 503//473 791//473 579//473
f 503//474 164//474 581//474 791//474
f 791//475 581//475 98//475 310//475
f 579//476 791//476 310//476 97//476
f 3//477 582//477 792//477 578//477
f 165//478 501//478 792//478 582//478
f 72//479 578//479 792//479 501//479
f 77//480 292//480 793//480 583//480
f 76//481 584//481 793//481 292//481
f 158//482 369//482 793//482 584//482
f 157//483 585//483 793//483 369//483
f 1//484 583//484 793//484 585//484
f 200//485 586//485 794//485 517//485
f 586//486 159//486 370//486 794//486
f 794//487 370//487 158//487 584//487
f 517//488 794//488 584//488 76//488
f 188//489 520//489 795//489 587//489
f 520//490 128//490 588//490 795//490
f 795//491 588//491 81//491 296//491
f 587//492 795//492 296//492 80//492
f 128//493 341//493 796//493 588//493
f 131//494 589//494 796//494 341//494
f 223//495 428//495 796//495 589//495
f 222//496 590//496 796//496 428//496
f 75//497 289//497 796//497 590//497
f 81//498 588//498 796//498 289//498
f 222//499 427//499 797//499 590//499
f 427//500 221//500 591//500 797//500
f 797//501 591//501 201//501 515//501
f 590//502 797//502 515//502 75//502
f 78//503 293//503 798//503 592//503
f 293//504 77//504 583//504 798//504
f 798//505 583//505 1//505 268//505
f 592//506 798//506 268//506 22//506
f 42//507 593//507 799//507 269//507
f 593//508 79//508 294//508 799//508
f 799//509 294//509 78//509 592//509
f 269//510 799//510 592//510 22//510
f 42//511 594//511 800//511 593//511
f 189//512 400//512 800//512 594//512
f 188//513 587//513 800//513 400//513
f 80//514 295//514 800//514 587//514
f 79//515 593//515 800//515 295//515
f 84//516 596//516 801//516 595//516
f 31//517 597//517 801//517 596//517
f 123//518 595//518 801//518 597//518
f 31//519 596//519 802//519 258//519
f 84//520 598//520 802//520 596//520
f 39//521 258//521 802//521 598//521
f 84//522 599//522 803//522 598//522
f 53//523 259//523 803//523 599//523
f 39//524 598//524 803//524 259//524
f 239//525 481//525 804//525 474//525
f 136//526 600//526 804//526 481//526
f 83//527 474//527 804//527 600//527
f 237//528 478//528 805//528 466//528
f 84//529 595//529 805//529 478//529
f 123//530 466//530 805//530 595//530
f 136//531 346//531 806//531 600//531
f 346//532 143//532 601//532 806//532
f 806//533 601//533 54//533 602//533
f 600//534 806//534 602//534 83//534
f 54//535 603//535 807//535 602//535
f 95//536 484//536 807//536 603//536
f 83//537 602//537 807//537 484//537
f 94//538 604//538 808//538 482//538
f 53//539 599//539 808//539 604//539
f 84//540 482//540 808//540 599//540
f 226//541 511//541 809//541 567//541
f 511//542 116//542 605//542 809//542
f 809//543 605//543 86//543 297//543
f 567//544 809//544 297//544 92//544
f 86//545 605//545 810//545 487//545
f 605//546 116//546 327//546 810//546
f 810//547 327//547 119//547 606//547
f 487//548 810//548 606//548 104//548
f 30//549 608//549 811//549 607//549
f 87//550 485//550 811//550 608//550
f 103//551 607//551 811//551 485//551
f 30//552 270//552 812//552 608//552
f 270//553 29//553 609//553 812//553
f 812//554 609//554 88//554 300//554
f 608//555 812//555 300//555 87//555
f 29//556 271//556 813//556 609//556
f 271//557 3//557 610//557 813//557
f 813//558 610//558 89//558 301//558
f 609//559 813//559 301//559 88//559
f 3//560 272//560 814//560 610//560
f 272//561 20//561 565//561 814//561
f 814//562 565//562 90//562 302//562
f 610//563 814//563 302//563 89//563
f 96//564 308//564 815//564 580//564
f 95//565 603//565 815//565 308//565
f 54//566 601//566 815//566 603//566
f 143//567 354//567 815//567 601//567
f 142//568 580//568 815//568 354//568
f 94//569 305//569 816//569 604//569
f 305//570 101//570 611//570 816//570
f 816//571 611//571 18//571 260//571
f 604//572 816//572 260//572 53//572
f 101//573 313//573 817//573 611//573
f 100//574 612//574 817//574 313//574
f 108//575 320//575 817//575 612//575
f 107//576 613//576 817//576 320//576
f 18//577 611//577 817//577 613//577
f 100//578 312//578 818//578 612//578
f 99//579 614//579 818//579 312//579
f 30//580 607//580 818//580 614//580
f 103//581 314//581 818//581 607//581
f 108//582 612//582 818//582 314//582
f 164//583 374//583 819//583 581//583
f 167//584 615//584 819//584 374//584
f 30//585 614//585 819//585 615//585
f 99//586 311//586 819//586 614//586
f 98//587 581//587 819//587 311//587
f 18//588 613//588 820//588 261//588
f 613//589 107//589 319//589 820//589
f 820//590 319//590 106//590 616//590
f 261//591 820//591 616//591 39//591
f 106//592 318//592 821//592 616//592
f 318//593 105//593 617//593 821//593
f 821//594 617//594 48//594 262//594
f 616//595 821//595 262//595 39//595
f 119//596 331//596 822//596 606//596
f 118//597 618//597 822//597 331//597
f 48//598 617//598 822//598 618//598
f 105//599 317//599 822//599 617//599
f 104//600 606//600 822//600 317//600
f 191//601 402//601 823//601 619//601
f 190//602 620//602 823//602 402//602
f 113//603 325//603 823//603 620//603
f 112//604 621//604 823//604 325//604
f 36//605 619//605 823//605 621//605
f 36//606 621//606 824//606 267//606
f 621//607 112//607 324//607 824//607
f 824//608 324//608 111//608 622//608
f 267//609 824//609 622//609 48//609
f 111//610 490//610 825//610 622//610
f 145//611 623//611 825//611 490//611
f 48//612 622//612 825//612 623//612
f 110//613 624//613 826//613 488//613
f 22//614 625//614 826//614 624//614
f 146//615 488//615 826//615 625//615
f 110//616 321//616 827//616 624//616
f 321//617 114//617 626//617 827//617
f 827//618 626//618 42//618 269//618
f 624//619 827//619 269//619 22//619
f 190//620 401//620 828//620 620//620
f 189//621 594//621 828//621 401//621
f 42//622 626//622 828//622 594//622
f 114//623 326//623 828//623 626//623
f 113//624 620//624 828//624 326//624
f 118//625 330//625 829//625 618//625
f 330//626 117//626 627//626 829//626
f 829//627 627//627 5//627 265//627
f 618//628 829//628 265//628 48//628
f 225//629 568//629 830//629 509//629
f 5//630 627//630 830//630 568//630
f 117//631 509//631 830//631 627//631
f 22//632 629//632 831//632 628//632
f 121//633 463//633 831//633 629//633
f 254//634 628//634 831//634 463//634
f 255//635 465//635 832//635 630//635
f 123//636 631//636 832//636 465//636
f 39//637 630//637 832//637 631//637
f 123//638 597//638 833//638 631//638
f 31//639 258//639 833//639 597//639
f 39//640 631//640 833//640 258//640
f 22//641 263//641 834//641 629//641
f 14//642 632//642 834//642 263//642
f 121//643 629//643 834//643 632//643
f 210//644 633//644 835//644 473//644
f 238//645 468//645 835//645 633//645
f 122//646 473//646 835//646 468//646
f 14//647 264//647 836//647 632//647
f 1//648 634//648 836//648 264//648
f 121//649 632//649 836//649 634//649
f 1//650 635//650 837//650 634//650
f 209//651 469//651 837//651 635//651
f 121//652 634//652 837//652 469//652
f 129//653 518//653 838//653 636//653
f 518//654 187//654 637//654 838//654
f 838//655 637//655 169//655 379//655
f 636//656 838//656 379//656 174//656
f 51//657 639//657 839//657 638//657
f 219//658 423//658 839//658 639//658
f 223//659 589//659 839//659 423//659
f 131//660 345//660 839//660 589//660
f 130//661 638//661 839//661 345//661
f 51//662 638//662 840//662 554//662
f 130//663 344//663 840//663 638//663
f 129//664 636//664 840//664 344//664
f 174//665 385//665 840//665 636//665
f 173//666 554//666 840//666 385//666
f 215//667 420//667 841//667 640//667
f 420//668 214//668 641//668 841//668
f 841//669 641//669 133//669 532//669
f 640//670 841//670 532//670 206//670
f 207//671 536//671 842//671 642//671
f 536//672 134//672 643//672 842//672
f 842//673 643//673 232//673 434//673
f 642//674 842//674 434//674 231//674
f 134//675 574//675 843//675 643//675
f 574//676 9//676 644//676 843//676
f 843//677 644//677 233//677 435//677
f 643//678 843//678 435//678 232//678
f 133//679 645//679 844//679 575//679
f 15//680 275//680 844//680 645//680
f 20//681 575//681 844//681 275//681
f 214//682 419//682 845//682 641//682
f 419//683 213//683 560//683 845//683
f 845//684 560//684 15//684 645//684
f 641//685 845//685 645//685 133//685
f 28//686 647//686 846//686 646//686
f 137//687 479//687 846//687 647//687
f 238//688 646//688 846//688 479//688
f 28//689 648//689 847//689 647//689
f 228//690 429//690 847//690 648//690
f 235//691 649//691 847//691 429//691
f 138//692 349//692 847//692 649//692
f 137//693 647//693 847//693 349//693
f 235//694 437//694 848//694 649//694
f 234//695 650//695 848//695 437//695
f 11//696 571//696 848//696 650//696
f 139//697 350//697 848//697 571//697
f 138//698 649//698 848//698 350//698
f 48//699 623//699 849//699 262//699
f 623//700 145//700 355//700 849//700
f 849//701 355//701 148//701 651//701
f 262//702 849//702 651//702 39//702
f 148//703 359//703 850//703 651//703
f 147//704 652//704 850//704 359//704
f 256//705 461//705 850//705 652//705
f 255//706 630//706 850//706 461//706
f 39//707 651//707 850//707 630//707
f 147//708 358//708 851//708 652//708
f 146//709 625//709 851//709 358//709
f 22//710 628//710 851//710 625//710
f 254//711 458//711 851//711 628//711
f 256//712 652//712 851//712 458//712
f 196//713 407//713 852//713 653//713
f 195//714 654//714 852//714 407//714
f 154//715 365//715 852//715 654//715
f 153//716 655//716 852//716 365//716
f 45//717 653//717 852//717 655//717
f 45//718 655//718 853//718 656//718
f 655//719 153//719 364//719 853//719
f 853//720 364//720 152//720 657//720
f 656//721 853//721 657//721 238//721
f 152//722 363//722 854//722 657//722
f 363//723 151//723 658//723 854//723
f 854//724 658//724 28//724 646//724
f 657//725 854//725 646//725 238//725
f 195//726 523//726 855//726 654//726
f 523//727 248//727 659//727 855//727
f 855//728 659//728 150//728 360//728
f 654//729 855//729 360//729 154//729
f 248//730 452//730 856//730 659//730
f 452//731 252//731 660//731 856//731
f 856//732 660//732 229//732 526//732
f 659//733 856//733 526//733 150//733
f 228//734 648//734 857//734 524//734
f 28//735 658//735 857//735 648//735
f 151//736 524//736 857//736 658//736
f 1//737 585//737 858//737 635//737
f 157//738 493//738 858//738 585//738
f 209//739 635//739 858//739 493//739
f 156//740 661//740 859//740 491//740
f 45//741 662//741 859//741 661//741
f 210//742 491//742 859//742 662//742
f 200//743 410//743 860//743 586//743
f 204//744 663//744 860//744 410//744
f 43//745 664//745 860//745 663//745
f 160//746 371//746 860//746 664//746
f 159//747 586//747 860//747 371//747
f 156//748 366//748 861//748 661//748
f 162//749 665//749 861//749 366//749
f 197//750 408//750 861//750 665//750
f 196//751 653//751 861//751 408//751
f 45//752 661//752 861//752 653//752
f 43//753 273//753 862//753 664//753
f 273//754 35//754 666//754 862//754
f 862//755 666//755 161//755 372//755
f 664//756 862//756 372//756 160//756
f 35//757 667//757 863//757 666//757
f 198//758 409//758 863//758 667//758
f 197//759 665//759 863//759 409//759
f 162//760 373//760 863//760 665//760
f 161//761 666//761 863//761 373//761
f 167//762 378//762 864//762 615//762
f 378//763 166//763 668//763 864//763
f 864//764 668//764 29//764 270//764
f 615//765 864//765 270//765 30//765
f 3//766 271//766 865//766 582//766
f 271//767 29//767 668//767 865//767
f 865//768 668//768 166//768 377//768
f 582//769 865//769 377//769 165//769
f 170//770 514//770 866//770 563//770
f 244//771 669//771 866//771 514//771
f 5//772 563//772 866//772 669//772
f 187//773 397//773 867//773 637//773
f 397//774 192//774 670//774 867//774
f 867//775 670//775 245//775 512//775
f 637//776 867//776 512//776 169//776
f 185//777 396//777 868//777 671//777
f 184//778 672//778 868//778 396//778
f 179//779 390//779 868//779 672//779
f 178//780 673//780 868//780 390//780
f 251//781 456//781 868//781 673//781
f 250//782 671//782 868//782 456//782
f 252//783 457//783 869//783 660//783
f 251//784 673//784 869//784 457//784
f 178//785 389//785 869//785 673//785
f 177//786 674//786 869//786 389//786
f 230//787 432//787 869//787 674//787
f 229//788 660//788 869//788 432//788
f 177//789 531//789 870//789 674//789
f 531//790 207//790 642//790 870//790
f 870//791 642//791 231//791 433//791
f 674//792 870//792 433//792 230//792
f 184//793 395//793 871//793 672//793
f 183//794 675//794 871//794 395//794
f 217//795 422//795 871//795 675//795
f 216//796 676//796 871//796 422//796
f 176//797 386//797 871//797 676//797
f 179//798 672//798 871//798 386//798
f 216//799 421//799 872//799 676//799
f 421//800 215//800 640//800 872//800
f 872//801 640//801 206//801 527//801
f 676//802 872//802 527//802 176//802
f 212//803 416//803 873//803 555//803
f 217//804 675//804 873//804 416//804
f 183//805 394//805 873//805 675//805
f 182//806 677//806 873//806 394//806
f 51//807 555//807 873//807 677//807
f 51//808 677//808 874//808 639//808
f 182//809 547//809 874//809 677//809
f 219//810 639//810 874//810 547//810
f 181//811 678//811 875//811 545//811
f 23//812 679//812 875//812 678//812
f 220//813 545//813 875//813 679//813
f 23//814 678//814 876//814 680//814
f 181//815 391//815 876//815 678//815
f 185//816 671//816 876//816 391//816
f 250//817 455//817 876//817 671//817
f 249//818 680//818 876//818 455//818
f 246//819 450//819 877//819 681//819
f 245//820 670//820 877//820 450//820
f 192//821 403//821 877//821 670//821
f 191//822 619//822 877//822 403//822
f 36//823 681//823 877//823 619//823
f 35//824 276//824 878//824 667//824
f 276//825 23//825 682//825 878//825
f 878//826 682//826 194//826 404//826
f 667//827 878//827 404//827 198//827
f 23//828 680//828 879//828 682//828
f 249//829 521//829 879//829 680//829
f 194//830 682//830 879//830 521//830
f 35//831 273//831 880//831 683//831
f 273//832 43//832 663//832 880//832
f 880//833 663//833 204//833 415//833
f 683//834 880//834 415//834 203//834
f 23//835 276//835 881//835 684//835
f 276//836 35//836 683//836 881//836
f 881//837 683//837 203//837 414//837
f 684//838 881//838 414//838 202//838
f 221//839 426//839 882//839 591//839
f 220//840 679//840 882//840 426//840
f 23//841 684//841 882//841 679//841
f 202//842 413//842 882//842 684//842
f 201//843 591//843 882//843 413//843
f 45//844 656//844 883//844 662//844
f 238//845 633//845 883//845 656//845
f 210//846 662//846 883//846 633//846
f 9//847 274//847 884//847 644//847
f 274//848 11//848 650//848 884//848
f 884//849 650//849 234//849 436//849
f 644//850 884//850 436//850 233//850
f 244//851 447//851 885//851 669//851
f 447//852 246//852 681//852 885//852
f 885//853 681//853 36//853 266//853
f 669//854 885//854 266//854 5//854
