# Blender 5.2.2 LTS
# www.blender.org
o brick
v -0.450000 -0.480000 0.445000
v -0.450000 -0.445000 0.480000
v -0.485000 -0.445000 0.445000
v -0.450000 -0.469749 0.469749
v -0.470207 -0.465207 0.465207
v -0.474749 -0.445000 0.469749
v -0.474749 -0.469749 0.445000
v -0.450000 -0.055000 0.480000
v -0.450000 -0.020000 0.445000
v -0.485000 -0.055000 0.445000
v -0.450000 -0.030251 0.469749
v -0.470207 -0.034793 0.465207
v -0.474749 -0.030251 0.445000
v -0.474749 -0.055000 0.469749
v -0.450000 -0.480000 -0.445000
v -0.485000 -0.445000 -0.445000
v -0.450000 -0.445000 -0.480000
v -0.474749 -0.469749 -0.445000
v -0.470207 -0.465207 -0.465207
v -0.474749 -0.445000 -0.469749
v -0.450000 -0.469749 -0.469749
v -0.450000 -0.020000 -0.445000
v -0.450000 -0.055000 -0.480000
v -0.485000 -0.055000 -0.445000
v -0.450000 -0.030251 -0.469749
v -0.470207 -0.034793 -0.465207
v -0.474749 -0.055000 -0.469749
v -0.474749 -0.030251 -0.445000
v -0.050000 -0.480000 0.445000
v -0.015000 -0.445000 0.445000
v -0.050000 -0.445000 0.480000
v -0.025251 -0.469749 0.445000
v -0.029793 -0.465207 0.465207
v -0.025251 -0.445000 0.469749
v -0.050000 -0.469749 0.469749
v -0.050000 -0.020000 0.445000
v -0.050000 -0.055000 0.480000
v -0.015000 -0.055000 0.445000
v -0.050000 -0.030251 0.469749
v -0.029793 -0.034793 0.465207
v -0.025251 -0.055000 0.469749
v -0.025251 -0.030251 0.445000
v -0.050000 -0.480000 -0.445000
v -0.050000 -0.445000 -0.480000
v -0.015000 -0.445000 -0.445000
v -0.050000 -0.469749 -0.469749
v -0.029793 -0.465207 -0.465207
v -0.025251 -0.445000 -0.469749
v -0.025251 -0.469749 -0.445000
v -0.050000 -0.020000 -0.445000
v -0.015000 -0.055000 -0.445000
v -0.050000 -0.055000 -0.480000
v -0.025251 -0.030251 -0.445000
v -0.029793 -0.034793 -0.465207
v -0.025251 -0.055000 -0.469749
v -0.050000 -0.030251 -0.469749
v 0.050000 -0.480000 0.445000
v 0.050000 -0.445000 0.480000
v 0.015000 -0.445000 0.445000
v 0.050000 -0.469749 0.469749
v 0.029793 -0.465207 0.465207
v 0.025251 -0.445000 0.469749
v 0.025251 -0.469749 0.445000
v 0.050000 -0.055000 0.480000
v 0.050000 -0.020000 0.445000
v 0.015000 -0.055000 0.445000
v 0.050000 -0.030251 0.469749
v 0.029793 -0.034793 0.465207
v 0.025251 -0.030251 0.445000
v 0.025251 -0.055000 0.469749
v 0.050000 -0.480000 -0.445000
v 0.015000 -0.445000 -0.445000
v 0.050000 -0.445000 -0.480000
v 0.025251 -0.469749 -0.445000
v 0.029793 -0.465207 -0.465207
v 0.025251 -0.445000 -0.469749
v 0.050000 -0.469749 -0.469749
v 0.050000 -0.020000 -0.445000
v 0.050000 -0.055000 -0.480000
v 0.015000 -0.055000 -0.445000
v 0.050000 -0.030251 -0.469749
v 0.029793 -0.034793 -0.465207
v 0.025251 -0.055000 -0.469749
v 0.025251 -0.030251 -0.445000
v 0.450000 -0.480000 0.445000
v 0.485000 -0.445000 0.445000
v 0.450000 -0.445000 0.480000
v 0.474749 -0.469749 0.445000
v 0.470207 -0.465207 0.465207
v 0.474749 -0.445000 0.469749
v 0.450000 -0.469749 0.469749
v 0.450000 -0.020000 0.445000
v 0.450000 -0.055000 0.480000
v 0.485000 -0.055000 0.445000
v 0.450000 -0.030251 0.469749
v 0.470207 -0.034793 0.465207
v 0.474749 -0.055000 0.469749
v 0.474749 -0.030251 0.445000
v 0.450000 -0.480000 -0.445000
v 0.450000 -0.445000 -0.480000
v 0.485000 -0.445000 -0.445000
v 0.450000 -0.469749 -0.469749
v 0.470207 -0.465207 -0.465207
v 0.474749 -0.445000 -0.469749
v 0.474749 -0.469749 -0.445000
v 0.450000 -0.020000 -0.445000
v 0.485000 -0.055000 -0.445000
v 0.450000 -0.055000 -0.480000
v 0.474749 -0.030251 -0.445000
v 0.470207 -0.034793 -0.465207
v 0.474749 -0.055000 -0.469749
v 0.450000 -0.030251 -0.469749
v -0.450000 0.020000 0.445000
v -0.450000 0.055000 0.480000
v -0.485000 0.055000 0.445000
v -0.450000 0.030251 0.469749
v -0.470207 0.034793 0.465207
v -0.474749 0.055000 0.469749
v -0.474749 0.030251 0.445000
v -0.450000 0.445000 0.480000
v -0.450000 0.480000 0.445000
v -0.485000 0.445000 0.445000
v -0.450000 0.469749 0.469749
v -0.470207 0.465207 0.465207
v -0.474749 0.469749 0.445000
v -0.474749 0.445000 0.469749
v -0.450000 0.020000 -0.445000
v -0.485000 0.055000 -0.445000
v -0.450000 0.055000 -0.480000
v -0.474749 0.030251 -0.445000
v -0.470207 0.034793 -0.465207
v -0.474749 0.055000 -0.469749
v -0.450000 0.030251 -0.469749
v -0.450000 0.480000 -0.445000
v -0.450000 0.445000 -0.480000
v -0.485000 0.445000 -0.445000
v -0.450000 0.469749 -0.469749
v -0.470207 0.465207 -0.465207
v -0.474749 0.445000 -0.469749
v -0.474749 0.469749 -0.445000
v -0.320000 0.020000 0.445000
v -0.285000 0.055000 0.445000
v -0.320000 0.055000 0.480000
v -0.295251 0.030251 0.445000
v -0.299793 0.034793 0.465207
v -0.295251 0.055000 0.469749
v -0.320000 0.030251 0.469749
v -0.320000 0.480000 0.445000
v -0.320000 0.445000 0.480000
v -0.285000 0.445000 0.445000
v -0.320000 0.469749 0.469749
v -0.299793 0.465207 0.465207
v -0.295251 0.445000 0.469749
v -0.295251 0.469749 0.445000
v -0.320000 0.020000 -0.445000
v -0.320000 0.055000 -0.480000
v -0.285000 0.055000 -0.445000
v -0.320000 0.030251 -0.469749
v -0.299793 0.034793 -0.465207
v -0.295251 0.055000 -0.469749
v -0.295251 0.030251 -0.445000
v -0.320000 0.480000 -0.445000
v -0.285000 0.445000 -0.445000
v -0.320000 0.445000 -0.480000
v -0.295251 0.469749 -0.445000
v -0.299793 0.465207 -0.465207
v -0.295251 0.445000 -0.469749
v -0.320000 0.469749 -0.469749
v -0.225000 0.020000 0.445000
v -0.225000 0.055000 0.480000
v -0.260000 0.055000 0.445000
v -0.225000 0.030251 0.469749
v -0.245207 0.034793 0.465207
v -0.249749 0.055000 0.469749
v -0.249749 0.030251 0.445000
v -0.225000 0.445000 0.480000
v -0.225000 0.480000 0.445000
v -0.260000 0.445000 0.445000
v -0.225000 0.469749 0.469749
v -0.245207 0.465207 0.465207
v -0.249749 0.469749 0.445000
v -0.249749 0.445000 0.469749
v -0.225000 0.020000 -0.445000
v -0.260000 0.055000 -0.445000
v -0.225000 0.055000 -0.480000
v -0.249749 0.030251 -0.445000
v -0.245207 0.034793 -0.465207
v -0.249749 0.055000 -0.469749
v -0.225000 0.030251 -0.469749
v -0.225000 0.480000 -0.445000
v -0.225000 0.445000 -0.480000
v -0.260000 0.445000 -0.445000
v -0.225000 0.469749 -0.469749
v -0.245207 0.465207 -0.465207
v -0.249749 0.445000 -0.469749
v -0.249749 0.469749 -0.445000
v 0.225000 0.020000 0.445000
v 0.260000 0.055000 0.445000
v 0.225000 0.055000 0.480000
v 0.249749 0.030251 0.445000
v 0.245207 0.034793 0.465207
v 0.249749 0.055000 0.469749
v 0.225000 0.030251 0.469749
v 0.225000 0.480000 0.445000
v 0.225000 0.445000 0.480000
v 0.260000 0.445000 0.445000
v 0.225000 0.469749 0.469749
v 0.245207 0.465207 0.465207
v 0.249749 0.445000 0.469749
v 0.249749 0.469749 0.445000
v 0.225000 0.020000 -0.445000
v 0.225000 0.055000 -0.480000
v 0.260000 0.055000 -0.445000
v 0.225000 0.030251 -0.469749
v 0.245207 0.034793 -0.465207
v 0.249749 0.055000 -0.469749
v 0.249749 0.030251 -0.445000
v 0.225000 0.480000 -0.445000
v 0.260000 0.445000 -0.445000
v 0.225000 0.445000 -0.480000
v 0.249749 0.469749 -0.445000
v 0.245207 0.465207 -0.465207
v 0.249749 0.445000 -0.469749
v 0.225000 0.469749 -0.469749
v 0.320000 0.020000 0.445000
v 0.320000 0.055000 0.480000
v 0.285000 0.055000 0.445000
v 0.320000 0.030251 0.469749
v 0.299793 0.034793 0.465207
v 0.295251 0.055000 0.469749
v 0.295251 0.030251 0.445000
v 0.320000 0.445000 0.480000
v 0.320000 0.480000 0.445000
v 0.285000 0.445000 0.445000
v 0.320000 0.469749 0.469749
v 0.299793 0.465207 0.465207
v 0.295251 0.469749 0.445000
v 0.295251 0.445000 0.469749
v 0.320000 0.020000 -0.445000
v 0.285000 0.055000 -0.445000
v 0.320000 0.055000 -0.480000
v 0.295251 0.030251 -0.445000
v 0.299793 0.034793 -0.465207
v 0.295251 0.055000 -0.469749
v 0.320000 0.030251 -0.469749
v 0.320000 0.480000 -0.445000
v 0.320000 0.445000 -0.480000
v 0.285000 0.445000 -0.445000
v 0.320000 0.469749 -0.469749
v 0.299793 0.465207 -0.465207
v 0.295251 0.445000 -0.469749
v 0.295251 0.469749 -0.445000
v 0.450000 0.020000 0.445000
v 0.485000 0.055000 0.445000
v 0.450000 0.055000 0.480000
v 0.474749 0.030251 0.445000
v 0.470207 0.034793 0.465207
v 0.474749 0.055000 0.469749
v 0.450000 0.030251 0.469749
v 0.450000 0.480000 0.445000
v 0.450000 0.445000 0.480000
v 0.485000 0.445000 0.445000
v 0.450000 0.469749 0.469749
v 0.470207 0.465207 0.465207
v 0.474749 0.445000 0.469749
v 0.474749 0.469749 0.445000
v 0.450000 0.020000 -0.445000
v 0.450000 0.055000 -0.480000
v 0.485000 0.055000 -0.445000
v 0.450000 0.030251 -0.469749
v 0.470207 0.034793 -0.465207
v 0.474749 0.055000 -0.469749
v 0.474749 0.030251 -0.445000
v 0.450000 0.480000 -0.445000
v 0.485000 0.445000 -0.445000
v 0.450000 0.445000 -0.480000
v 0.474749 0.469749 -0.445000
v 0.470207 0.465207 -0.465207
v 0.474749 0.445000 -0.469749
v 0.450000 0.469749 -0.469749
vn -0.3251 -0.8881 0.3251
vn -0.3251 -0.3251 0.8881
vn -0.8881 -0.3251 0.3251
vn -0.3251 0.3251 0.8881
vn -0.3251 0.8881 0.3251
vn -0.8881 0.3251 0.3251
vn -0.3251 -0.8881 -0.3251
vn -0.8881 -0.3251 -0.3251
vn -0.3251 -0.3251 -0.8881
vn -0.3251 0.8881 -0.3251
vn -0.3251 0.3251 -0.8881
vn -0.8881 0.3251 -0.3251
vn 0.3251 -0.8881 0.3251
vn 0.8881 -0.3251 0.3251
vn 0.3251 -0.3251 0.8881
vn 0.3251 0.8881 0.3251
vn 0.3251 0.3251 0.8881
vn 0.8881 0.3251 0.3251
vn 0.3251 -0.8881 -0.3251
vn 0.3251 -0.3251 -0.8881
vn 0.8881 -0.3251 -0.3251
vn 0.3251 0.8881 -0.3251
vn 0.8881 0.3251 -0.3251
vn 0.3251 0.3251 -0.8881
vn -0.3827 -0.9239 -0.0000
vn -0.9239 -0.3827 -0.0000
vn -0.3827 -0.0000 0.9239
vn -0.9239 -0.0000 0.3827
vn -0.3827 0.9239 -0.0000
vn -0.9239 0.3827 -0.0000
vn -0.3827 -0.0000 -0.9239
vn -0.9239 -0.0000 -0.3827
vn -0.0000 -0.9239 -0.3827
vn -0.0000 -0.3827 -0.9239
vn -0.0000 0.9239 -0.3827
vn -0.0000 0.3827 -0.9239
vn 0.9239 -0.0000 -0.3827
vn 0.3827 -0.0000 -0.9239
vn 0.3827 -0.9239 -0.0000
vn 0.9239 -0.3827 -0.0000
vn 0.3827 0.9239 -0.0000
vn 0.9239 0.3827 -0.0000
vn 0.3827 -0.0000 0.9239
vn 0.9239 -0.0000 0.3827
vn -0.0000 -0.9239 0.3827
vn -0.0000 -0.3827 0.9239
vn -0.0000 0.9239 0.3827
vn -0.0000 0.3827 0.9239
vn -0.0000 -1.0000 -0.0000
vn -1.0000 -0.0000 -0.0000
vn -0.0000 -0.0000 1.0000
vn -0.0000 1.0000 -0.0000
vn -0.0000 -0.0000 -1.0000
vn 1.0000 -0.0000 -0.0000
vt 0.143617 0.740885
vt 0.143617 0.750000
vt 0.132869 0.750000
vt 0.125000 0.740885
vt 0.394022 0.981383
vt 0.394022 1.000000
vt 0.383040 1.000000
vt 0.375000 0.981383
vt 0.394022 0.009115
vt 0.375000 0.009115
vt 0.375000 0.003852
vt 0.394022 0.000000
vt 0.605978 0.981383
vt 0.625000 0.981383
vt 0.625000 0.992131
vt 0.605978 1.000000
vt 0.856383 0.740885
vt 0.875000 0.740885
vt 0.875000 0.746148
vt 0.856383 0.750000
vt 0.605978 0.009115
vt 0.605978 0.000000
vt 0.616961 0.000000
vt 0.625000 0.009115
vt 0.143617 0.509115
vt 0.125000 0.509115
vt 0.125000 0.503852
vt 0.143617 0.500000
vt 0.394022 0.240885
vt 0.394022 0.250000
vt 0.379020 0.253934
vt 0.375000 0.240885
vt 0.394022 0.268617
vt 0.375000 0.268617
vt 0.856383 0.509115
vt 0.856383 0.500000
vt 0.867131 0.500000
vt 0.875000 0.509115
vt 0.605978 0.268617
vt 0.605978 0.250000
vt 0.620980 0.248074
vt 0.625000 0.268617
vt 0.605978 0.240885
vt 0.625000 0.240885
vt 0.356383 0.740885
vt 0.375000 0.740885
vt 0.377680 0.751339
vt 0.365691 0.759309
vt 0.394022 0.740885
vt 0.394022 0.750000
vt 0.394022 0.768617
vt 0.643617 0.740885
vt 0.634309 0.759309
vt 0.624943 0.748716
vt 0.625000 0.740885
vt 0.605978 0.768617
vt 0.605978 0.750000
vt 0.605978 0.740885
vt 0.356383 0.509115
vt 0.365691 0.490691
vt 0.375057 0.501284
vt 0.375000 0.509115
vt 0.394022 0.481383
vt 0.394022 0.500000
vt 0.394022 0.509115
vt 0.643617 0.509115
vt 0.625000 0.509115
vt 0.622320 0.498661
vt 0.634309 0.490691
vt 0.605978 0.509115
vt 0.605978 0.500000
vt 0.605978 0.481383
vt 0.143617 0.750000
vt 0.132868 0.750000
vt 0.605978 0.981383
vt 0.625000 0.992132
vt 0.143617 0.500000
vt 0.394022 0.268617
vt 0.375000 0.268617
vt 0.867132 0.500000
vt 0.625000 0.268617
vt 0.394022 0.768617
vt 0.634308 0.490691
vt 0.605978 0.481383
vt 0.168750 0.740885
vt 0.168750 0.750000
vt 0.143491 0.750000
vt 0.394022 0.956250
vt 0.375000 0.956250
vt 0.394022 0.009115
vt 0.605978 0.956250
vt 0.625000 0.956250
vt 0.625000 0.981509
vt 0.605978 1.000000
vt 0.831250 0.740885
vt 0.831250 0.750000
vt 0.605978 0.000000
vt 0.168750 0.509115
vt 0.168750 0.500000
vt 0.379020 0.259245
vt 0.394022 0.293750
vt 0.375000 0.293750
vt 0.831250 0.509115
vt 0.831250 0.500000
vt 0.856509 0.500000
vt 0.605978 0.293750
vt 0.625000 0.293750
vt 0.331250 0.740885
vt 0.377680 0.754880
vt 0.353125 0.771875
vt 0.394022 0.793750
vt 0.668750 0.740885
vt 0.646875 0.771875
vt 0.628484 0.748716
vt 0.605978 0.793750
vt 0.331250 0.509115
vt 0.353125 0.478125
vt 0.371516 0.501284
vt 0.394022 0.456250
vt 0.394022 0.509115
vt 0.668750 0.509115
vt 0.622320 0.495120
vt 0.646875 0.478125
vt 0.605978 0.456250
vt 0.141827 0.740885
vt 0.141827 0.750000
vt 0.132112 0.750000
vt 0.394022 0.983173
vt 0.375000 0.983173
vt 0.605978 0.983173
vt 0.625000 0.983173
vt 0.625000 0.992888
vt 0.858173 0.740885
vt 0.858173 0.750000
vt 0.141827 0.509115
vt 0.141827 0.500000
vt 0.379020 0.253556
vt 0.394022 0.266827
vt 0.375000 0.266827
vt 0.858173 0.509115
vt 0.858173 0.500000
vt 0.867888 0.500000
vt 0.605978 0.266827
vt 0.625000 0.266827
vt 0.358173 0.740885
vt 0.377680 0.751087
vt 0.366587 0.758413
vt 0.394022 0.766827
vt 0.641827 0.740885
vt 0.633413 0.758413
vt 0.624691 0.748716
vt 0.605978 0.766827
vt 0.358173 0.509115
vt 0.366587 0.491587
vt 0.375309 0.501284
vt 0.394022 0.483173
vt 0.641827 0.509115
vt 0.622320 0.498913
vt 0.633413 0.491587
vt 0.605978 0.483173
s 0
f 1/1/1 4/2/1 5/3/1 7/4/1
f 2/5/2 6/6/2 5/7/2 4/8/2
f 3/9/3 7/10/3 5/11/3 6/12/3
f 8/13/4 11/14/4 12/15/4 14/16/4
f 9/17/5 13/18/5 12/19/5 11/20/5
f 10/21/6 14/22/6 12/23/6 13/24/6
f 15/25/7 18/26/7 19/27/7 21/28/7
f 16/29/8 20/30/8 19/31/8 18/32/8
f 17/33/9 21/34/9 19/31/9 20/30/9
f 22/35/10 25/36/10 26/37/10 28/38/10
f 23/39/11 27/40/11 26/41/11 25/42/11
f 24/43/12 28/44/12 26/41/12 27/40/12
f 29/45/13 32/46/13 33/47/13 35/48/13
f 30/49/14 34/50/14 33/47/14 32/46/14
f 31/51/15 35/48/15 33/47/15 34/50/15
f 36/52/16 39/53/16 40/54/16 42/55/16
f 37/56/17 41/57/17 40/54/17 39/53/17
f 38/58/18 42/55/18 40/54/18 41/57/18
f 43/59/19 46/60/19 47/61/19 49/62/19
f 44/63/20 48/64/20 47/61/20 46/60/20
f 45/65/21 49/62/21 47/61/21 48/64/21
f 50/66/22 53/67/22 54/68/22 56/69/22
f 51/70/23 55/71/23 54/68/23 53/67/23
f 52/72/24 56/69/24 54/68/24 55/71/24
f 57/1/1 60/73/1 61/74/1 63/4/1
f 58/5/2 62/6/2 61/7/2 60/8/2
f 59/9/3 63/10/3 61/11/3 62/12/3
f 64/75/4 67/14/4 68/76/4 70/16/4
f 65/17/5 69/18/5 68/19/5 67/20/5
f 66/21/6 70/22/6 68/23/6 69/24/6
f 71/25/7 74/26/7 75/27/7 77/77/7
f 72/29/8 76/30/8 75/31/8 74/32/8
f 73/78/9 77/79/9 75/31/9 76/30/9
f 78/35/10 81/36/10 82/80/10 84/38/10
f 79/39/11 83/40/11 82/41/11 81/81/11
f 80/43/12 84/44/12 82/41/12 83/40/12
f 85/45/13 88/46/13 89/47/13 91/48/13
f 86/49/14 90/50/14 89/47/14 88/46/14
f 87/82/15 91/48/15 89/47/15 90/50/15
f 92/52/16 95/53/16 96/54/16 98/55/16
f 93/56/17 97/57/17 96/54/17 95/53/17
f 94/58/18 98/55/18 96/54/18 97/57/18
f 99/59/19 102/60/19 103/61/19 105/62/19
f 100/63/20 104/64/20 103/61/20 102/60/20
f 101/65/21 105/62/21 103/61/21 104/64/21
f 106/66/22 109/67/22 110/68/22 112/83/22
f 107/70/23 111/71/23 110/68/23 109/67/23
f 108/84/24 112/83/24 110/68/24 111/71/24
f 113/85/1 116/86/1 117/87/1 119/4/1
f 114/88/2 118/6/2 117/7/2 116/89/2
f 115/90/3 119/10/3 117/11/3 118/12/3
f 120/91/4 123/92/4 124/93/4 126/94/4
f 121/95/5 125/18/5 124/19/5 123/96/5
f 122/21/6 126/97/6 124/23/6 125/24/6
f 127/98/7 130/26/7 131/27/7 133/99/7
f 128/29/8 132/30/8 131/100/8 130/32/8
f 129/101/9 133/102/9 131/100/9 132/30/9
f 134/103/10 137/104/10 138/105/10 140/38/10
f 135/106/11 139/40/11 138/41/11 137/107/11
f 136/43/12 140/44/12 138/41/12 139/40/12
f 141/108/13 144/46/13 145/109/13 147/110/13
f 142/49/14 146/50/14 145/109/14 144/46/14
f 143/111/15 147/110/15 145/109/15 146/50/15
f 148/112/16 151/113/16 152/114/16 154/55/16
f 149/115/17 153/57/17 152/114/17 151/113/17
f 150/58/18 154/55/18 152/114/18 153/57/18
f 155/116/19 158/117/19 159/118/19 161/62/19
f 156/119/20 160/64/20 159/118/20 158/117/20
f 157/120/21 161/62/21 159/118/21 160/64/21
f 162/121/22 165/67/22 166/122/22 168/123/22
f 163/70/23 167/71/23 166/122/23 165/67/23
f 164/124/24 168/123/24 166/122/24 167/71/24
f 169/125/1 172/126/1 173/127/1 175/4/1
f 170/128/2 174/6/2 173/7/2 172/129/2
f 171/90/3 175/10/3 173/11/3 174/12/3
f 176/130/4 179/131/4 180/132/4 182/94/4
f 177/133/5 181/18/5 180/19/5 179/134/5
f 178/21/6 182/97/6 180/23/6 181/24/6
f 183/135/7 186/26/7 187/27/7 189/136/7
f 184/29/8 188/30/8 187/137/8 186/32/8
f 185/138/9 189/139/9 187/137/9 188/30/9
f 190/140/10 193/141/10 194/142/10 196/38/10
f 191/143/11 195/40/11 194/41/11 193/144/11
f 192/43/12 196/44/12 194/41/12 195/40/12
f 197/145/13 200/46/13 201/146/13 203/147/13
f 198/49/14 202/50/14 201/146/14 200/46/14
f 199/148/15 203/147/15 201/146/15 202/50/15
f 204/149/16 207/150/16 208/151/16 210/55/16
f 205/152/17 209/57/17 208/151/17 207/150/17
f 206/58/18 210/55/18 208/151/18 209/57/18
f 211/153/19 214/154/19 215/155/19 217/62/19
f 212/156/20 216/64/20 215/155/20 214/154/20
f 213/120/21 217/62/21 215/155/21 216/64/21
f 218/157/22 221/67/22 222/158/22 224/159/22
f 219/70/23 223/71/23 222/158/23 221/67/23
f 220/160/24 224/159/24 222/158/24 223/71/24
f 225/85/1 228/86/1 229/87/1 231/4/1
f 226/88/2 230/6/2 229/7/2 228/89/2
f 227/90/3 231/10/3 229/11/3 230/12/3
f 232/91/4 235/92/4 236/93/4 238/94/4
f 233/95/5 237/18/5 236/19/5 235/96/5
f 234/21/6 238/97/6 236/23/6 237/24/6
f 239/98/7 242/26/7 243/27/7 245/99/7
f 240/29/8 244/30/8 243/100/8 242/32/8
f 241/101/9 245/102/9 243/100/9 244/30/9
f 246/103/10 249/104/10 250/105/10 252/38/10
f 247/106/11 251/40/11 250/41/11 249/107/11
f 248/43/12 252/44/12 250/41/12 251/40/12
f 253/108/13 256/46/13 257/109/13 259/110/13
f 254/49/14 258/50/14 257/109/14 256/46/14
f 255/111/15 259/110/15 257/109/15 258/50/15
f 260/112/16 263/113/16 264/114/16 266/55/16
f 261/115/17 265/57/17 264/114/17 263/113/17
f 262/58/18 266/55/18 264/114/18 265/57/18
f 267/116/19 270/117/19 271/118/19 273/62/19
f 268/119/20 272/64/20 271/118/20 270/117/20
f 269/120/21 273/62/21 271/118/21 272/64/21
f 274/121/22 277/67/22 278/122/22 280/123/22
f 275/70/23 279/71/23 278/122/23 277/67/23
f 276/124/24 280/123/24 278/122/24 279/71/24
f 15/25/25 1/1/25 7/4/25 18/26/25
f 18/32/26 7/10/26 3/9/26 16/29/26
f 2/5/27 8/13/27 14/16/27 6/6/27
f 6/12/28 14/22/28 10/21/28 3/9/28
f 9/17/29 22/35/29 28/38/29 13/18/29
f 13/24/30 28/44/30 24/43/30 10/21/30
f 23/39/31 17/33/31 20/30/31 27/40/31
f 27/40/32 20/30/32 16/29/32 24/43/32
f 43/59/33 15/25/33 21/28/33 46/60/33
f 46/60/34 21/34/34 17/33/34 44/63/34
f 22/35/35 50/66/35 56/69/35 25/36/35
f 25/42/36 56/69/36 52/72/36 23/39/36
f 51/70/37 45/65/37 48/64/37 55/71/37
f 55/71/38 48/64/38 44/63/38 52/72/38
f 29/45/39 43/59/39 49/62/39 32/46/39
f 32/46/40 49/62/40 45/65/40 30/49/40
f 50/66/41 36/52/41 42/55/41 53/67/41
f 53/67/42 42/55/42 38/58/42 51/70/42
f 37/56/43 31/51/43 34/50/43 41/57/43
f 41/57/44 34/50/44 30/49/44 38/58/44
f 1/1/45 29/45/45 35/48/45 4/2/45
f 4/8/46 35/48/46 31/51/46 2/5/46
f 36/52/47 9/17/47 11/20/47 39/53/47
f 39/53/48 11/14/48 8/13/48 37/56/48
f 71/25/25 57/1/25 63/4/25 74/26/25
f 74/32/26 63/10/26 59/9/26 72/29/26
f 58/5/27 64/75/27 70/16/27 62/6/27
f 62/12/28 70/22/28 66/21/28 59/9/28
f 65/17/29 78/35/29 84/38/29 69/18/29
f 69/24/30 84/44/30 80/43/30 66/21/30
f 79/39/31 73/78/31 76/30/31 83/40/31
f 83/40/32 76/30/32 72/29/32 80/43/32
f 99/59/33 71/25/33 77/77/33 102/60/33
f 102/60/34 77/79/34 73/78/34 100/63/34
f 78/35/35 106/66/35 112/83/35 81/36/35
f 81/81/36 112/83/36 108/84/36 79/39/36
f 107/70/37 101/65/37 104/64/37 111/71/37
f 111/71/38 104/64/38 100/63/38 108/84/38
f 85/45/39 99/59/39 105/62/39 88/46/39
f 88/46/40 105/62/40 101/65/40 86/49/40
f 106/66/41 92/52/41 98/55/41 109/67/41
f 109/67/42 98/55/42 94/58/42 107/70/42
f 93/56/43 87/82/43 90/50/43 97/57/43
f 97/57/44 90/50/44 86/49/44 94/58/44
f 57/1/45 85/45/45 91/48/45 60/73/45
f 60/8/46 91/48/46 87/82/46 58/5/46
f 92/52/47 65/17/47 67/20/47 95/53/47
f 95/53/48 67/14/48 64/75/48 93/56/48
f 127/98/25 113/85/25 119/4/25 130/26/25
f 130/32/26 119/10/26 115/90/26 128/29/26
f 114/88/27 120/91/27 126/94/27 118/6/27
f 118/12/28 126/97/28 122/21/28 115/90/28
f 121/95/29 134/103/29 140/38/29 125/18/29
f 125/24/30 140/44/30 136/43/30 122/21/30
f 135/106/31 129/101/31 132/30/31 139/40/31
f 139/40/32 132/30/32 128/29/32 136/43/32
f 155/116/33 127/98/33 133/99/33 158/117/33
f 158/117/34 133/102/34 129/101/34 156/119/34
f 134/103/35 162/121/35 168/123/35 137/104/35
f 137/107/36 168/123/36 164/124/36 135/106/36
f 163/70/37 157/120/37 160/64/37 167/71/37
f 167/71/38 160/64/38 156/119/38 164/124/38
f 141/108/39 155/116/39 161/62/39 144/46/39
f 144/46/40 161/62/40 157/120/40 142/49/40
f 162/121/41 148/112/41 154/55/41 165/67/41
f 165/67/42 154/55/42 150/58/42 163/70/42
f 149/115/43 143/111/43 146/50/43 153/57/43
f 153/57/44 146/50/44 142/49/44 150/58/44
f 113/85/45 141/108/45 147/110/45 116/86/45
f 116/89/46 147/110/46 143/111/46 114/88/46
f 148/112/47 121/95/47 123/96/47 151/113/47
f 151/113/48 123/92/48 120/91/48 149/115/48
f 183/135/25 169/125/25 175/4/25 186/26/25
f 186/32/26 175/10/26 171/90/26 184/29/26
f 170/128/27 176/130/27 182/94/27 174/6/27
f 174/12/28 182/97/28 178/21/28 171/90/28
f 177/133/29 190/140/29 196/38/29 181/18/29
f 181/24/30 196/44/30 192/43/30 178/21/30
f 191/143/31 185/138/31 188/30/31 195/40/31
f 195/40/32 188/30/32 184/29/32 192/43/32
f 211/153/33 183/135/33 189/136/33 214/154/33
f 214/154/34 189/139/34 185/138/34 212/156/34
f 190/140/35 218/157/35 224/159/35 193/141/35
f 193/144/36 224/159/36 220/160/36 191/143/36
f 219/70/37 213/120/37 216/64/37 223/71/37
f 223/71/38 216/64/38 212/156/38 220/160/38
f 197/145/39 211/153/39 217/62/39 200/46/39
f 200/46/40 217/62/40 213/120/40 198/49/40
f 218/157/41 204/149/41 210/55/41 221/67/41
f 221/67/42 210/55/42 206/58/42 219/70/42
f 205/152/43 199/148/43 202/50/43 209/57/43
f 209/57/44 202/50/44 198/49/44 206/58/44
f 169/125/45 197/145/45 203/147/45 172/126/45
f 172/129/46 203/147/46 199/148/46 170/128/46
f 204/149/47 177/133/47 179/134/47 207/150/47
f 207/150/48 179/131/48 176/130/48 205/152/48
f 239/98/25 225/85/25 231/4/25 242/26/25
f 242/32/26 231/10/26 227/90/26 240/29/26
f 226/88/27 232/91/27 238/94/27 230/6/27
f 230/12/28 238/97/28 234/21/28 227/90/28
f 233/95/29 246/103/29 252/38/29 237/18/29
f 237/24/30 252/44/30 248/43/30 234/21/30
f 247/106/31 241/101/31 244/30/31 251/40/31
f 251/40/32 244/30/32 240/29/32 248/43/32
f 267/116/33 239/98/33 245/99/33 270/117/33
f 270/117/34 245/102/34 241/101/34 268/119/34
f 246/103/35 274/121/35 280/123/35 249/104/35
f 249/107/36 280/123/36 276/124/36 247/106/36
f 275/70/37 269/120/37 272/64/37 279/71/37
f 279/71/38 272/64/38 268/119/38 276/124/38
f 253/108/39 267/116/39 273/62/39 256/46/39
f 256/46/40 273/62/40 269/120/40 254/49/40
f 274/121/41 260/112/41 266/55/41 277/67/41
f 277/67/42 266/55/42 262/58/42 275/70/42
f 261/115/43 255/111/43 258/50/43 265/57/43
f 265/57/44 258/50/44 254/49/44 262/58/44
f 225/85/45 253/108/45 259/110/45 228/86/45
f 228/89/46 259/110/46 255/111/46 226/88/46
f 260/112/47 233/95/47 235/96/47 263/113/47
f 263/113/48 235/92/48 232/91/48 261/115/48
f 15/25/49 43/59/49 29/45/49 1/1/49
f 3/9/50 10/21/50 24/43/50 16/29/50
f 31/51/51 37/56/51 8/13/51 2/5/51
f 50/66/52 22/35/52 9/17/52 36/52/52
f 17/33/53 23/39/53 52/72/53 44/63/53
f 45/65/54 51/70/54 38/58/54 30/49/54
f 71/25/49 99/59/49 85/45/49 57/1/49
f 59/9/50 66/21/50 80/43/50 72/29/50
f 87/82/51 93/56/51 64/75/51 58/5/51
f 106/66/52 78/35/52 65/17/52 92/52/52
f 73/78/53 79/39/53 108/84/53 100/63/53
f 101/65/54 107/70/54 94/58/54 86/49/54
f 127/98/49 155/116/49 141/108/49 113/85/49
f 115/90/50 122/21/50 136/43/50 128/29/50
f 143/111/51 149/115/51 120/91/51 114/88/51
f 162/121/52 134/103/52 121/95/52 148/112/52
f 129/101/53 135/106/53 164/124/53 156/119/53
f 157/120/54 163/70/54 150/58/54 142/49/54
f 183/135/49 211/153/49 197/145/49 169/125/49
f 171/90/50 178/21/50 192/43/50 184/29/50
f 199/148/51 205/152/51 176/130/51 170/128/51
f 218/157/52 190/140/52 177/133/52 204/149/52
f 185/138/53 191/143/53 220/160/53 212/156/53
f 213/120/54 219/70/54 206/58/54 198/49/54
f 239/98/49 267/116/49 253/108/49 225/85/49
f 227/90/50 234/21/50 248/43/50 240/29/50
f 255/111/51 261/115/51 232/91/51 226/88/51
f 274/121/52 246/103/52 233/95/52 260/112/52
f 241/101/53 247/106/53 276/124/53 268/119/53
f 269/120/54 275/70/54 262/58/54 254/49/54
