# Blender 5.2.2 LTS
# www.blender.org
o dirt
v -0.483354 -0.483354 0.483354
v -0.502341 0.502341 0.502341
v -0.499561 -0.499561 -0.499561
v -0.494589 0.494589 -0.494589
v 0.484699 -0.484699 0.484699
v 0.488239 0.488239 0.488239
v 0.493571 -0.493571 -0.493571
v 0.485834 0.485834 -0.485834
v -0.483242 -0.483242 -0.245130
v -0.485225 -0.485225 0.000066
v -0.503710 -0.503710 0.245055
v -0.496350 -0.245001 0.496439
v -0.504796 0.000193 0.504796
v -0.487597 0.244986 0.487597
v -0.494810 0.494798 0.244893
v -0.475817 0.475817 0.000139
v -0.490904 0.490904 -0.244966
v -0.508711 0.244809 -0.508728
v -0.501680 -0.000448 -0.501680
v -0.485208 -0.244944 -0.485241
v 0.245019 -0.487390 -0.487390
v -0.000003 -0.489349 -0.489349
v -0.244975 -0.492901 -0.492895
v -0.244943 0.492028 -0.491992
v -0.000034 0.481623 -0.481623
v 0.245065 0.482297 -0.482297
v 0.493756 0.245063 -0.493786
v 0.501936 -0.000092 -0.501936
v 0.496796 -0.245135 -0.496814
v 0.506410 -0.506410 0.245179
v 0.483237 -0.483237 0.000227
v 0.492765 -0.492791 -0.244930
v 0.487589 0.487561 -0.244969
v 0.479672 0.479672 0.000051
v 0.506404 0.506404 0.244714
v 0.487310 0.245034 0.487265
v 0.486050 -0.000022 0.486050
v 0.490488 -0.244994 0.490496
v -0.244989 -0.491773 0.491786
v -0.000017 -0.485313 0.485313
v 0.244993 -0.490466 0.490473
v 0.245050 0.484847 0.484746
v -0.000094 0.481157 0.481156
v -0.245136 0.486994 0.486972
v -0.482454 -0.245004 0.245094
v -0.482167 0.000025 0.245128
v -0.486964 0.245013 0.245056
v -0.494289 -0.244990 0.000007
v -0.508591 0.000039 0.000249
v -0.465209 0.244336 -0.000128
v -0.500360 -0.245209 -0.245059
v -0.480888 -0.000124 -0.245088
v -0.477592 0.244878 -0.245604
v -0.245098 -0.245022 -0.474114
v -0.244731 -0.000413 -0.504971
v -0.245633 0.244571 -0.469472
v 0.000049 -0.244930 -0.481503
v 0.000023 0.000045 -0.482930
v -0.000053 0.245075 -0.496190
v 0.245084 -0.244989 -0.486877
v 0.245334 0.000121 -0.476825
v 0.244990 0.245004 -0.491132
v 0.488567 -0.244993 -0.245026
v 0.488903 -0.000000 -0.245019
v 0.489919 0.244999 -0.245001
v 0.475491 -0.245048 0.000126
v 0.508020 -0.000279 -0.000034
v 0.506872 0.245362 -0.000168
v 0.480160 -0.245029 0.245043
v 0.485747 0.000104 0.244895
v 0.483138 0.245052 0.244819
v 0.245008 -0.245011 0.494088
v 0.245016 0.000018 0.493074
v 0.244993 0.244927 0.484007
v -0.000056 -0.245057 0.500924
v 0.000038 -0.000289 0.472242
v -0.000059 0.245031 0.479685
v -0.244876 -0.245028 0.501761
v -0.245678 -0.000533 0.470425
v -0.245100 0.245059 0.487124
v -0.245084 -0.508970 -0.244817
v 0.000121 -0.495446 -0.245003
v 0.245023 -0.495514 -0.244987
v -0.244983 -0.486176 -0.000045
v 0.000041 -0.503818 0.000249
v 0.244971 -0.487931 -0.000004
v -0.244994 -0.491868 0.245009
v -0.000019 -0.478732 0.244834
v 0.245044 -0.487421 0.244984
v 0.245004 0.490619 -0.245006
v 0.000034 0.497757 -0.245091
v -0.245001 0.490139 -0.244999
v 0.245025 0.493334 -0.000016
v -0.000012 0.493165 0.000026
v -0.244761 0.477436 -0.000027
v 0.245105 0.482095 0.244917
v -0.000015 0.475923 0.244832
v -0.245160 0.482317 0.245130
vn -0.5772 -0.5759 0.5789
vn -0.5703 0.5766 0.5851
vn -0.5823 -0.5572 -0.5920
vn -0.5691 0.5869 -0.5759
vn 0.5746 -0.5661 0.5911
vn 0.5605 0.5667 0.6039
vn 0.5696 -0.5802 -0.5822
vn 0.5664 0.5895 -0.5759
vn -0.7134 -0.7005 0.0183
vn -0.7078 -0.7064 -0.0048
vn -0.7090 -0.7052 -0.0026
vn -0.7127 0.0008 0.7015
vn -0.7062 0.0206 0.7077
vn -0.7001 -0.0184 0.7138
vn -0.7064 0.7052 -0.0608
vn -0.7194 0.6946 -0.0071
vn -0.7125 0.6984 0.0677
vn -0.7107 0.0131 -0.7033
vn -0.7124 -0.0120 -0.7017
vn -0.7002 -0.0111 -0.7139
vn -0.0150 -0.6971 -0.7169
vn 0.0085 -0.6807 -0.7325
vn 0.0083 -0.6775 -0.7355
vn 0.0222 0.6984 -0.7154
vn -0.0020 0.6987 -0.7154
vn 0.0026 0.7092 -0.7050
vn 0.7016 0.0201 -0.7123
vn 0.6988 0.0002 -0.7153
vn 0.6998 -0.0012 -0.7144
vn 0.7159 -0.6981 -0.0144
vn 0.7216 -0.6923 -0.0075
vn 0.7126 -0.7010 0.0294
vn 0.6984 0.7157 -0.0080
vn 0.6961 0.7177 -0.0153
vn 0.7007 0.7134 0.0076
vn 0.7026 -0.0116 0.7115
vn 0.7178 0.0097 0.6961
vn 0.7139 0.0104 0.7001
vn 0.0113 -0.7193 0.6946
vn 0.0106 -0.7291 0.6843
vn -0.0109 -0.7141 0.7000
vn -0.0372 0.7025 0.7107
vn 0.0057 0.7124 0.7017
vn 0.0495 0.7084 0.7040
vn -1.0000 -0.0008 0.0016
vn -0.9999 0.0146 -0.0076
vn -0.9994 0.0049 -0.0336
vn -0.9999 -0.0121 0.0073
vn -0.9992 0.0388 0.0031
vn -0.9997 0.0213 -0.0122
vn -0.9999 -0.0109 -0.0055
vn -0.9996 0.0266 0.0090
vn -0.9988 0.0095 0.0478
vn 0.0181 -0.0107 -0.9998
vn 0.0263 -0.0144 -0.9995
vn 0.0268 0.0171 -0.9995
vn 0.0040 0.0057 -1.0000
vn 0.0111 -0.0148 -0.9998
vn -0.0029 0.0055 -1.0000
vn -0.0267 0.0101 -0.9996
vn -0.0249 -0.0103 -0.9996
vn -0.0090 0.0036 -1.0000
vn 0.9996 -0.0128 0.0233
vn 0.9999 -0.0159 -0.0027
vn 0.9996 0.0243 -0.0134
vn 0.9999 -0.0130 0.0039
vn 0.9994 -0.0341 0.0109
vn 0.9998 0.0194 -0.0010
vn 1.0000 0.0071 -0.0045
vn 0.9995 -0.0174 0.0246
vn 0.9996 -0.0074 0.0263
vn 0.0040 0.0032 1.0000
vn -0.0125 0.0228 0.9997
vn -0.0184 0.0028 0.9998
vn -0.0030 0.0226 0.9997
vn -0.0176 0.0341 0.9993
vn -0.0072 -0.0133 0.9999
vn 0.0104 0.0173 0.9998
vn 0.0339 0.0298 0.9990
vn 0.0346 -0.0204 0.9992
vn -0.0169 -0.9998 0.0071
vn 0.0158 -0.9998 -0.0116
vn 0.0111 -0.9999 -0.0026
vn -0.0129 -0.9998 0.0157
vn 0.0073 -0.9995 0.0299
vn 0.0084 -0.9999 0.0103
vn 0.0147 -0.9999 0.0049
vn 0.0043 -0.9999 0.0147
vn -0.0170 -0.9998 0.0062
vn 0.0153 0.9998 -0.0144
vn -0.0035 0.9999 -0.0105
vn -0.0091 0.9998 0.0184
vn 0.0037 0.9999 0.0107
vn -0.0163 0.9994 0.0306
vn -0.0115 0.9998 0.0174
vn -0.0274 0.9996 0.0102
vn -0.0068 0.9999 0.0115
vn 0.0206 0.9996 -0.0168
vt 0.437500 0.062500
vt 0.500000 0.062500
vt 0.500000 0.125000
vt 0.437500 0.125000
vt 0.562500 0.062500
vt 0.562500 0.125000
vt 0.500000 0.187500
vt 0.437500 0.187500
vt 0.562500 0.187500
vt 0.375000 0.000000
vt 0.437500 0.000000
vt 0.375000 0.062500
vt 0.500000 0.000000
vt 0.562500 0.000000
vt 0.625000 0.000000
vt 0.625000 0.062500
vt 0.625000 0.125000
vt 0.625000 0.187500
vt 0.625000 0.250000
vt 0.562500 0.250000
vt 0.500000 0.250000
vt 0.437500 0.250000
vt 0.375000 0.187500
vt 0.375000 0.250000
vt 0.375000 0.125000
vt 0.437500 0.312500
vt 0.500000 0.312500
vt 0.500000 0.375000
vt 0.437500 0.375000
vt 0.562500 0.312500
vt 0.562500 0.375000
vt 0.500000 0.437500
vt 0.437500 0.437500
vt 0.562500 0.437500
vt 0.375000 0.312500
vt 0.625000 0.312500
vt 0.625000 0.375000
vt 0.625000 0.437500
vt 0.625000 0.500000
vt 0.562500 0.500000
vt 0.500000 0.500000
vt 0.437500 0.500000
vt 0.375000 0.437500
vt 0.375000 0.500000
vt 0.375000 0.375000
vt 0.437500 0.562500
vt 0.500000 0.562500
vt 0.500000 0.625000
vt 0.437500 0.625000
vt 0.562500 0.562500
vt 0.562500 0.625000
vt 0.500000 0.687500
vt 0.437500 0.687500
vt 0.562500 0.687500
vt 0.375000 0.562500
vt 0.625000 0.562500
vt 0.625000 0.625000
vt 0.625000 0.687500
vt 0.625000 0.750000
vt 0.562500 0.750000
vt 0.500000 0.750000
vt 0.437500 0.750000
vt 0.375000 0.687500
vt 0.375000 0.750000
vt 0.375000 0.625000
vt 0.437500 0.812500
vt 0.500000 0.812500
vt 0.500000 0.875000
vt 0.437500 0.875000
vt 0.562500 0.812500
vt 0.562500 0.875000
vt 0.500000 0.937500
vt 0.437500 0.937500
vt 0.562500 0.937500
vt 0.375000 0.812500
vt 0.625000 0.812500
vt 0.625000 0.875000
vt 0.625000 0.937500
vt 0.625000 1.000000
vt 0.562500 1.000000
vt 0.500000 1.000000
vt 0.437500 1.000000
vt 0.375000 0.937500
vt 0.375000 1.000000
vt 0.375000 0.875000
vt 0.187500 0.562500
vt 0.250000 0.562500
vt 0.250000 0.625000
vt 0.187500 0.625000
vt 0.312500 0.562500
vt 0.312500 0.625000
vt 0.250000 0.687500
vt 0.187500 0.687500
vt 0.312500 0.687500
vt 0.125000 0.500000
vt 0.187500 0.500000
vt 0.125000 0.562500
vt 0.250000 0.500000
vt 0.312500 0.500000
vt 0.312500 0.750000
vt 0.250000 0.750000
vt 0.187500 0.750000
vt 0.125000 0.687500
vt 0.125000 0.750000
vt 0.125000 0.625000
vt 0.687500 0.562500
vt 0.750000 0.562500
vt 0.750000 0.625000
vt 0.687500 0.625000
vt 0.812500 0.562500
vt 0.812500 0.625000
vt 0.750000 0.687500
vt 0.687500 0.687500
vt 0.812500 0.687500
vt 0.687500 0.500000
vt 0.750000 0.500000
vt 0.812500 0.500000
vt 0.875000 0.500000
vt 0.875000 0.562500
vt 0.875000 0.625000
vt 0.875000 0.687500
vt 0.875000 0.750000
vt 0.812500 0.750000
vt 0.750000 0.750000
vt 0.687500 0.750000
s 1
f 45/1/45 46/2/46 49/3/49 48/4/48
f 46/2/46 47/5/47 50/6/50 49/3/49
f 48/4/48 49/3/49 52/7/52 51/8/51
f 49/3/49 50/6/50 53/9/53 52/7/52
f 1/10/1 12/11/12 45/1/45 11/12/11
f 12/11/12 13/13/13 46/2/46 45/1/45
f 13/13/13 14/14/14 47/5/47 46/2/46
f 14/14/14 2/15/2 15/16/15 47/5/47
f 47/5/47 15/16/15 16/17/16 50/6/50
f 50/6/50 16/17/16 17/18/17 53/9/53
f 53/9/53 17/18/17 4/19/4 18/20/18
f 52/7/52 53/9/53 18/20/18 19/21/19
f 51/8/51 52/7/52 19/21/19 20/22/20
f 9/23/9 51/8/51 20/22/20 3/24/3
f 10/25/10 48/4/48 51/8/51 9/23/9
f 11/12/11 45/1/45 48/4/48 10/25/10
f 54/26/54 55/27/55 58/28/58 57/29/57
f 55/27/55 56/30/56 59/31/59 58/28/58
f 57/29/57 58/28/58 61/32/61 60/33/60
f 58/28/58 59/31/59 62/34/62 61/32/61
f 3/24/3 20/22/20 54/26/54 23/35/23
f 20/22/20 19/21/19 55/27/55 54/26/54
f 19/21/19 18/20/18 56/30/56 55/27/55
f 18/20/18 4/19/4 24/36/24 56/30/56
f 56/30/56 24/36/24 25/37/25 59/31/59
f 59/31/59 25/37/25 26/38/26 62/34/62
f 62/34/62 26/38/26 8/39/8 27/40/27
f 61/32/61 62/34/62 27/40/27 28/41/28
f 60/33/60 61/32/61 28/41/28 29/42/29
f 21/43/21 60/33/60 29/42/29 7/44/7
f 22/45/22 57/29/57 60/33/60 21/43/21
f 23/35/23 54/26/54 57/29/57 22/45/22
f 63/46/63 64/47/64 67/48/67 66/49/66
f 64/47/64 65/50/65 68/51/68 67/48/67
f 66/49/66 67/48/67 70/52/70 69/53/69
f 67/48/67 68/51/68 71/54/71 70/52/70
f 7/44/7 29/42/29 63/46/63 32/55/32
f 29/42/29 28/41/28 64/47/64 63/46/63
f 28/41/28 27/40/27 65/50/65 64/47/64
f 27/40/27 8/39/8 33/56/33 65/50/65
f 65/50/65 33/56/33 34/57/34 68/51/68
f 68/51/68 34/57/34 35/58/35 71/54/71
f 71/54/71 35/58/35 6/59/6 36/60/36
f 70/52/70 71/54/71 36/60/36 37/61/37
f 69/53/69 70/52/70 37/61/37 38/62/38
f 30/63/30 69/53/69 38/62/38 5/64/5
f 31/65/31 66/49/66 69/53/69 30/63/30
f 32/55/32 63/46/63 66/49/66 31/65/31
f 72/66/72 73/67/73 76/68/76 75/69/75
f 73/67/73 74/70/74 77/71/77 76/68/76
f 75/69/75 76/68/76 79/72/79 78/73/78
f 76/68/76 77/71/77 80/74/80 79/72/79
f 5/64/5 38/62/38 72/66/72 41/75/41
f 38/62/38 37/61/37 73/67/73 72/66/72
f 37/61/37 36/60/36 74/70/74 73/67/73
f 36/60/36 6/59/6 42/76/42 74/70/74
f 74/70/74 42/76/42 43/77/43 77/71/77
f 77/71/77 43/77/43 44/78/44 80/74/80
f 80/74/80 44/78/44 2/79/2 14/80/14
f 79/72/79 80/74/80 14/80/14 13/81/13
f 78/73/78 79/72/79 13/81/13 12/82/12
f 39/83/39 78/73/78 12/82/12 1/84/1
f 40/85/40 75/69/75 78/73/78 39/83/39
f 41/75/41 72/66/72 75/69/75 40/85/40
f 81/86/81 82/87/82 85/88/85 84/89/84
f 82/87/82 83/90/83 86/91/86 85/88/85
f 84/89/84 85/88/85 88/92/88 87/93/87
f 85/88/85 86/91/86 89/94/89 88/92/88
f 3/95/3 23/96/23 81/86/81 9/97/9
f 23/96/23 22/98/22 82/87/82 81/86/81
f 22/98/22 21/99/21 83/90/83 82/87/82
f 21/99/21 7/44/7 32/55/32 83/90/83
f 83/90/83 32/55/32 31/65/31 86/91/86
f 86/91/86 31/65/31 30/63/30 89/94/89
f 89/94/89 30/63/30 5/64/5 41/100/41
f 88/92/88 89/94/89 41/100/41 40/101/40
f 87/93/87 88/92/88 40/101/40 39/102/39
f 11/103/11 87/93/87 39/102/39 1/104/1
f 10/105/10 84/89/84 87/93/87 11/103/11
f 9/97/9 81/86/81 84/89/84 10/105/10
f 90/106/90 91/107/91 94/108/94 93/109/93
f 91/107/91 92/110/92 95/111/95 94/108/94
f 93/109/93 94/108/94 97/112/97 96/113/96
f 94/108/94 95/111/95 98/114/98 97/112/97
f 8/39/8 26/115/26 90/106/90 33/56/33
f 26/115/26 25/116/25 91/107/91 90/106/90
f 25/116/25 24/117/24 92/110/92 91/107/91
f 24/117/24 4/118/4 17/119/17 92/110/92
f 92/110/92 17/119/17 16/120/16 95/111/95
f 95/111/95 16/120/16 15/121/15 98/114/98
f 98/114/98 15/121/15 2/122/2 44/123/44
f 97/112/97 98/114/98 44/123/44 43/124/43
f 96/113/96 97/112/97 43/124/43 42/125/42
f 35/58/35 96/113/96 42/125/42 6/59/6
f 34/57/34 93/109/93 96/113/96 35/58/35
f 33/56/33 90/106/90 93/109/93 34/57/34
