# Blender 5.2.2 LTS
# www.blender.org
o exit
v -0.440000 -0.480000 0.330000
v -0.440000 -0.460000 0.350000
v -0.460000 -0.460000 0.330000
v -0.440000 -0.474142 0.344142
v -0.451547 -0.471547 0.341547
v -0.454142 -0.460000 0.344142
v -0.454142 -0.474142 0.330000
v -0.440000 -0.420000 0.350000
v -0.440000 -0.400000 0.330000
v -0.460000 -0.420000 0.330000
v -0.440000 -0.405858 0.344142
v -0.451547 -0.408453 0.341547
v -0.454142 -0.405858 0.330000
v -0.454142 -0.420000 0.344142
v -0.440000 -0.480000 -0.330000
v -0.460000 -0.460000 -0.330000
v -0.440000 -0.460000 -0.350000
v -0.454142 -0.474142 -0.330000
v -0.451547 -0.471547 -0.341547
v -0.454142 -0.460000 -0.344142
v -0.440000 -0.474142 -0.344142
v -0.440000 -0.400000 -0.330000
v -0.440000 -0.420000 -0.350000
v -0.460000 -0.420000 -0.330000
v -0.440000 -0.405858 -0.344142
v -0.451547 -0.408453 -0.341547
v -0.454142 -0.420000 -0.344142
v -0.454142 -0.405858 -0.330000
v -0.280000 -0.480000 0.330000
v -0.260000 -0.460000 0.330000
v -0.280000 -0.460000 0.350000
v -0.265858 -0.474142 0.330000
v -0.268453 -0.471547 0.341547
v -0.265858 -0.460000 0.344142
v -0.280000 -0.474142 0.344142
v -0.280000 -0.400000 0.330000
v -0.280000 -0.420000 0.350000
v -0.260000 -0.420000 0.330000
v -0.280000 -0.405858 0.344142
v -0.268453 -0.408453 0.341547
v -0.265858 -0.420000 0.344142
v -0.265858 -0.405858 0.330000
v -0.280000 -0.480000 -0.330000
v -0.280000 -0.460000 -0.350000
v -0.260000 -0.460000 -0.330000
v -0.280000 -0.474142 -0.344142
v -0.268453 -0.471547 -0.341547
v -0.265858 -0.460000 -0.344142
v -0.265858 -0.474142 -0.330000
v -0.280000 -0.400000 -0.330000
v -0.260000 -0.420000 -0.330000
v -0.280000 -0.420000 -0.350000
v -0.265858 -0.405858 -0.330000
v -0.268453 -0.408453 -0.341547
v -0.265858 -0.420000 -0.344142
v -0.280000 -0.405858 -0.344142
v -0.410000 -0.400000 0.330000
v -0.410000 -0.380000 0.350000
v -0.430000 -0.380000 0.330000
v -0.410000 -0.394142 0.344142
v -0.421547 -0.391547 0.341547
v -0.424142 -0.380000 0.344142
v -0.424142 -0.394142 0.330000
v -0.410000 0.180000 0.350000
v -0.410000 0.200000 0.330000
v -0.430000 0.180000 0.330000
v -0.410000 0.194142 0.344142
v -0.421547 0.191547 0.341547
v -0.424142 0.194142 0.330000
v -0.424142 0.180000 0.344142
v -0.410000 -0.400000 -0.330000
v -0.430000 -0.380000 -0.330000
v -0.410000 -0.380000 -0.350000
v -0.424142 -0.394142 -0.330000
v -0.421547 -0.391547 -0.341547
v -0.424142 -0.380000 -0.344142
v -0.410000 -0.394142 -0.344142
v -0.410000 0.200000 -0.330000
v -0.410000 0.180000 -0.350000
v -0.430000 0.180000 -0.330000
v -0.410000 0.194142 -0.344142
v -0.421547 0.191547 -0.341547
v -0.424142 0.180000 -0.344142
v -0.424142 0.194142 -0.330000
v -0.310000 -0.400000 0.330000
v -0.290000 -0.380000 0.330000
v -0.310000 -0.380000 0.350000
v -0.295858 -0.394142 0.330000
v -0.298453 -0.391547 0.341547
v -0.295858 -0.380000 0.344142
v -0.310000 -0.394142 0.344142
v -0.310000 0.200000 0.330000
v -0.310000 0.180000 0.350000
v -0.290000 0.180000 0.330000
v -0.310000 0.194142 0.344142
v -0.298453 0.191547 0.341547
v -0.295858 0.180000 0.344142
v -0.295858 0.194142 0.330000
v -0.310000 -0.400000 -0.330000
v -0.310000 -0.380000 -0.350000
v -0.290000 -0.380000 -0.330000
v -0.310000 -0.394142 -0.344142
v -0.298453 -0.391547 -0.341547
v -0.295858 -0.380000 -0.344142
v -0.295858 -0.394142 -0.330000
v -0.310000 0.200000 -0.330000
v -0.290000 0.180000 -0.330000
v -0.310000 0.180000 -0.350000
v -0.295858 0.194142 -0.330000
v -0.298453 0.191547 -0.341547
v -0.295858 0.180000 -0.344142
v -0.310000 0.194142 -0.344142
v -0.440000 0.190000 0.330000
v -0.440000 0.210000 0.350000
v -0.460000 0.210000 0.330000
v -0.440000 0.195858 0.344142
v -0.451547 0.198453 0.341547
v -0.454142 0.210000 0.344142
v -0.454142 0.195858 0.330000
v -0.440000 0.230000 0.350000
v -0.440000 0.250000 0.330000
v -0.460000 0.230000 0.330000
v -0.440000 0.244142 0.344142
v -0.451547 0.241547 0.341547
v -0.454142 0.244142 0.330000
v -0.454142 0.230000 0.344142
v -0.440000 0.190000 -0.330000
v -0.460000 0.210000 -0.330000
v -0.440000 0.210000 -0.350000
v -0.454142 0.195858 -0.330000
v -0.451547 0.198453 -0.341547
v -0.454142 0.210000 -0.344142
v -0.440000 0.195858 -0.344142
v -0.440000 0.250000 -0.330000
v -0.440000 0.230000 -0.350000
v -0.460000 0.230000 -0.330000
v -0.440000 0.244142 -0.344142
v -0.451547 0.241547 -0.341547
v -0.454142 0.230000 -0.344142
v -0.454142 0.244142 -0.330000
v -0.280000 0.190000 0.330000
v -0.260000 0.210000 0.330000
v -0.280000 0.210000 0.350000
v -0.265858 0.195858 0.330000
v -0.268453 0.198453 0.341547
v -0.265858 0.210000 0.344142
v -0.280000 0.195858 0.344142
v -0.280000 0.250000 0.330000
v -0.280000 0.230000 0.350000
v -0.260000 0.230000 0.330000
v -0.280000 0.244142 0.344142
v -0.268453 0.241547 0.341547
v -0.265858 0.230000 0.344142
v -0.265858 0.244142 0.330000
v -0.280000 0.190000 -0.330000
v -0.280000 0.210000 -0.350000
v -0.260000 0.210000 -0.330000
v -0.280000 0.195858 -0.344142
v -0.268453 0.198453 -0.341547
v -0.265858 0.210000 -0.344142
v -0.265858 0.195858 -0.330000
v -0.280000 0.250000 -0.330000
v -0.260000 0.230000 -0.330000
v -0.280000 0.230000 -0.350000
v -0.265858 0.244142 -0.330000
v -0.268453 0.241547 -0.341547
v -0.265858 0.230000 -0.344142
v -0.280000 0.244142 -0.344142
v 0.280000 -0.480000 0.330000
v 0.280000 -0.460000 0.350000
v 0.260000 -0.460000 0.330000
v 0.280000 -0.474142 0.344142
v 0.268453 -0.471547 0.341547
v 0.265858 -0.460000 0.344142
v 0.265858 -0.474142 0.330000
v 0.280000 -0.420000 0.350000
v 0.280000 -0.400000 0.330000
v 0.260000 -0.420000 0.330000
v 0.280000 -0.405858 0.344142
v 0.268453 -0.408453 0.341547
v 0.265858 -0.405858 0.330000
v 0.265858 -0.420000 0.344142
v 0.280000 -0.480000 -0.330000
v 0.260000 -0.460000 -0.330000
v 0.280000 -0.460000 -0.350000
v 0.265858 -0.474142 -0.330000
v 0.268453 -0.471547 -0.341547
v 0.265858 -0.460000 -0.344142
v 0.280000 -0.474142 -0.344142
v 0.280000 -0.400000 -0.330000
v 0.280000 -0.420000 -0.350000
v 0.260000 -0.420000 -0.330000
v 0.280000 -0.405858 -0.344142
v 0.268453 -0.408453 -0.341547
v 0.265858 -0.420000 -0.344142
v 0.265858 -0.405858 -0.330000
v 0.440000 -0.480000 0.330000
v 0.460000 -0.460000 0.330000
v 0.440000 -0.460000 0.350000
v 0.454142 -0.474142 0.330000
v 0.451547 -0.471547 0.341547
v 0.454142 -0.460000 0.344142
v 0.440000 -0.474142 0.344142
v 0.440000 -0.400000 0.330000
v 0.440000 -0.420000 0.350000
v 0.460000 -0.420000 0.330000
v 0.440000 -0.405858 0.344142
v 0.451547 -0.408453 0.341547
v 0.454142 -0.420000 0.344142
v 0.454142 -0.405858 0.330000
v 0.440000 -0.480000 -0.330000
v 0.440000 -0.460000 -0.350000
v 0.460000 -0.460000 -0.330000
v 0.440000 -0.474142 -0.344142
v 0.451547 -0.471547 -0.341547
v 0.454142 -0.460000 -0.344142
v 0.454142 -0.474142 -0.330000
v 0.440000 -0.400000 -0.330000
v 0.460000 -0.420000 -0.330000
v 0.440000 -0.420000 -0.350000
v 0.454142 -0.405858 -0.330000
v 0.451547 -0.408453 -0.341547
v 0.454142 -0.420000 -0.344142
v 0.440000 -0.405858 -0.344142
v 0.310000 -0.400000 0.330000
v 0.310000 -0.380000 0.350000
v 0.290000 -0.380000 0.330000
v 0.310000 -0.394142 0.344142
v 0.298453 -0.391547 0.341547
v 0.295858 -0.380000 0.344142
v 0.295858 -0.394142 0.330000
v 0.310000 0.180000 0.350000
v 0.310000 0.200000 0.330000
v 0.290000 0.180000 0.330000
v 0.310000 0.194142 0.344142
v 0.298453 0.191547 0.341547
v 0.295858 0.194142 0.330000
v 0.295858 0.180000 0.344142
v 0.310000 -0.400000 -0.330000
v 0.290000 -0.380000 -0.330000
v 0.310000 -0.380000 -0.350000
v 0.295858 -0.394142 -0.330000
v 0.298453 -0.391547 -0.341547
v 0.295858 -0.380000 -0.344142
v 0.310000 -0.394142 -0.344142
v 0.310000 0.200000 -0.330000
v 0.310000 0.180000 -0.350000
v 0.290000 0.180000 -0.330000
v 0.310000 0.194142 -0.344142
v 0.298453 0.191547 -0.341547
v 0.295858 0.180000 -0.344142
v 0.295858 0.194142 -0.330000
v 0.410000 -0.400000 0.330000
v 0.430000 -0.380000 0.330000
v 0.410000 -0.380000 0.350000
v 0.424142 -0.394142 0.330000
v 0.421547 -0.391547 0.341547
v 0.424142 -0.380000 0.344142
v 0.410000 -0.394142 0.344142
v 0.410000 0.200000 0.330000
v 0.410000 0.180000 0.350000
v 0.430000 0.180000 0.330000
v 0.410000 0.194142 0.344142
v 0.421547 0.191547 0.341547
v 0.424142 0.180000 0.344142
v 0.424142 0.194142 0.330000
v 0.410000 -0.400000 -0.330000
v 0.410000 -0.380000 -0.350000
v 0.430000 -0.380000 -0.330000
v 0.410000 -0.394142 -0.344142
v 0.421547 -0.391547 -0.341547
v 0.424142 -0.380000 -0.344142
v 0.424142 -0.394142 -0.330000
v 0.410000 0.200000 -0.330000
v 0.430000 0.180000 -0.330000
v 0.410000 0.180000 -0.350000
v 0.424142 0.194142 -0.330000
v 0.421547 0.191547 -0.341547
v 0.424142 0.180000 -0.344142
v 0.410000 0.194142 -0.344142
v 0.280000 0.190000 0.330000
v 0.280000 0.210000 0.350000
v 0.260000 0.210000 0.330000
v 0.280000 0.195858 0.344142
v 0.268453 0.198453 0.341547
v 0.265858 0.210000 0.344142
v 0.265858 0.195858 0.330000
v 0.280000 0.230000 0.350000
v 0.280000 0.250000 0.330000
v 0.260000 0.230000 0.330000
v 0.280000 0.244142 0.344142
v 0.268453 0.241547 0.341547
v 0.265858 0.244142 0.330000
v 0.265858 0.230000 0.344142
v 0.280000 0.190000 -0.330000
v 0.260000 0.210000 -0.330000
v 0.280000 0.210000 -0.350000
v 0.265858 0.195858 -0.330000
v 0.268453 0.198453 -0.341547
v 0.265858 0.210000 -0.344142
v 0.280000 0.195858 -0.344142
v 0.280000 0.250000 -0.330000
v 0.280000 0.230000 -0.350000
v 0.260000 0.230000 -0.330000
v 0.280000 0.244142 -0.344142
v 0.268453 0.241547 -0.341547
v 0.265858 0.230000 -0.344142
v 0.265858 0.244142 -0.330000
v 0.440000 0.190000 0.330000
v 0.460000 0.210000 0.330000
v 0.440000 0.210000 0.350000
v 0.454142 0.195858 0.330000
v 0.451547 0.198453 0.341547
v 0.454142 0.210000 0.344142
v 0.440000 0.195858 0.344142
v 0.440000 0.250000 0.330000
v 0.440000 0.230000 0.350000
v 0.460000 0.230000 0.330000
v 0.440000 0.244142 0.344142
v 0.451547 0.241547 0.341547
v 0.454142 0.230000 0.344142
v 0.454142 0.244142 0.330000
v 0.440000 0.190000 -0.330000
v 0.440000 0.210000 -0.350000
v 0.460000 0.210000 -0.330000
v 0.440000 0.195858 -0.344142
v 0.451547 0.198453 -0.341547
v 0.454142 0.210000 -0.344142
v 0.454142 0.195858 -0.330000
v 0.440000 0.250000 -0.330000
v 0.460000 0.230000 -0.330000
v 0.440000 0.230000 -0.350000
v 0.454142 0.244142 -0.330000
v 0.451547 0.241547 -0.341547
v 0.454142 0.230000 -0.344142
v 0.440000 0.244142 -0.344142
v 0.272716 0.345052 0.340000
v 0.292214 0.349502 0.360000
v 0.287764 0.369001 0.340000
v 0.278427 0.346355 0.354142
v 0.278387 0.358190 0.351547
v 0.289067 0.363290 0.354142
v 0.275280 0.360143 0.340000
v 0.389707 0.371754 0.360000
v 0.409206 0.376204 0.340000
v 0.385257 0.391253 0.340000
v 0.403495 0.374901 0.354142
v 0.398395 0.385581 0.351547
v 0.400348 0.388689 0.340000
v 0.386560 0.385542 0.354142
v 0.272716 0.345052 -0.340000
v 0.287764 0.369001 -0.340000
v 0.292214 0.349502 -0.360000
v 0.275280 0.360143 -0.340000
v 0.278387 0.358190 -0.351547
v 0.289067 0.363290 -0.354142
v 0.278427 0.346355 -0.354142
v 0.409206 0.376204 -0.340000
v 0.389707 0.371754 -0.360000
v 0.385257 0.391253 -0.340000
v 0.403495 0.374901 -0.354142
v 0.398395 0.385581 -0.351547
v 0.386560 0.385542 -0.354142
v 0.400348 0.388689 -0.340000
v 0.292743 0.257308 0.340000
v 0.316692 0.242260 0.340000
v 0.312241 0.261758 0.360000
v 0.301600 0.244824 0.340000
v 0.303553 0.247932 0.351547
v 0.315388 0.247971 0.354142
v 0.298454 0.258612 0.354142
v 0.429232 0.288461 0.340000
v 0.409734 0.284011 0.360000
v 0.414184 0.264512 0.340000
v 0.423521 0.287158 0.354142
v 0.423561 0.275323 0.351547
v 0.412881 0.270223 0.354142
v 0.426668 0.273370 0.340000
v 0.292743 0.257308 -0.340000
v 0.312241 0.261758 -0.360000
v 0.316692 0.242260 -0.340000
v 0.298454 0.258612 -0.354142
v 0.303553 0.247932 -0.351547
v 0.315388 0.247971 -0.354142
v 0.301600 0.244824 -0.340000
v 0.429232 0.288461 -0.340000
v 0.414184 0.264512 -0.340000
v 0.409734 0.284011 -0.360000
v 0.426668 0.273370 -0.340000
v 0.423561 0.275323 -0.351547
v 0.412881 0.270223 -0.354142
v 0.423521 0.287158 -0.354142
v 0.198674 0.428585 0.340000
v 0.214311 0.441055 0.360000
v 0.201841 0.456692 0.340000
v 0.203254 0.432237 0.354142
v 0.198083 0.442883 0.351547
v 0.205493 0.452112 0.354142
v 0.194436 0.443294 0.340000
v 0.292494 0.503404 0.360000
v 0.308131 0.515874 0.340000
v 0.280024 0.519041 0.340000
v 0.303551 0.512221 0.354142
v 0.294322 0.519631 0.351547
v 0.294733 0.523278 0.340000
v 0.283676 0.514461 0.354142
v 0.198674 0.428585 -0.340000
v 0.201841 0.456692 -0.340000
v 0.214311 0.441055 -0.360000
v 0.194436 0.443294 -0.340000
v 0.198083 0.442883 -0.351547
v 0.205493 0.452112 -0.354142
v 0.203254 0.432237 -0.354142
v 0.308131 0.515874 -0.340000
v 0.292494 0.503404 -0.360000
v 0.280024 0.519041 -0.340000
v 0.303551 0.512221 -0.354142
v 0.294322 0.519631 -0.351547
v 0.283676 0.514461 -0.354142
v 0.294733 0.523278 -0.340000
v 0.254788 0.358220 0.340000
v 0.282895 0.355053 0.340000
v 0.270425 0.370690 0.360000
v 0.268185 0.350816 0.340000
v 0.268596 0.354463 0.351547
v 0.279242 0.359633 0.354142
v 0.259368 0.361873 0.354142
v 0.364245 0.445509 0.340000
v 0.348608 0.433039 0.360000
v 0.361078 0.417402 0.340000
v 0.359665 0.441857 0.354142
v 0.364835 0.431211 0.351547
v 0.357425 0.421982 0.354142
v 0.368482 0.430800 0.340000
v 0.254788 0.358220 -0.340000
v 0.270425 0.370690 -0.360000
v 0.282895 0.355053 -0.340000
v 0.259368 0.361873 -0.354142
v 0.268596 0.354463 -0.351547
v 0.279242 0.359633 -0.354142
v 0.268185 0.350816 -0.340000
v 0.364245 0.445509 -0.340000
v 0.361078 0.417402 -0.340000
v 0.348608 0.433039 -0.360000
v 0.368482 0.430800 -0.340000
v 0.364835 0.431211 -0.351547
v 0.357425 0.421982 -0.354142
v 0.359665 0.441857 -0.354142
v 0.085283 0.476748 0.340000
v 0.093960 0.494767 0.360000
v 0.075941 0.503445 0.340000
v 0.087824 0.482025 0.354142
v 0.078547 0.489374 0.351547
v 0.081219 0.500903 0.354142
v 0.075083 0.488161 0.340000
v 0.137349 0.584864 0.360000
v 0.146026 0.602883 0.340000
v 0.119329 0.593542 0.340000
v 0.143485 0.597606 0.354142
v 0.131955 0.600277 0.351547
v 0.130743 0.603742 0.340000
v 0.124607 0.591000 0.354142
v 0.085283 0.476748 -0.340000
v 0.075941 0.503445 -0.340000
v 0.093960 0.494767 -0.360000
v 0.075083 0.488161 -0.340000
v 0.078547 0.489374 -0.351547
v 0.081219 0.500903 -0.354142
v 0.087824 0.482025 -0.354142
v 0.146026 0.602883 -0.340000
v 0.137349 0.584864 -0.360000
v 0.119329 0.593542 -0.340000
v 0.143485 0.597606 -0.354142
v 0.131955 0.600277 -0.351547
v 0.124607 0.591000 -0.354142
v 0.130743 0.603742 -0.340000
v 0.166370 0.437698 0.340000
v 0.193067 0.447040 0.340000
v 0.175048 0.455717 0.360000
v 0.181653 0.436840 0.340000
v 0.180441 0.440304 0.351547
v 0.187789 0.449581 0.354142
v 0.168912 0.442976 0.354142
v 0.227114 0.563834 0.340000
v 0.218436 0.545814 0.360000
v 0.236455 0.537137 0.340000
v 0.224572 0.558556 0.354142
v 0.233849 0.551208 0.351547
v 0.231178 0.539678 0.354142
v 0.237314 0.552420 0.340000
v 0.166370 0.437698 -0.340000
v 0.175048 0.455717 -0.360000
v 0.193067 0.447040 -0.340000
v 0.168912 0.442976 -0.354142
v 0.180441 0.440304 -0.351547
v 0.187789 0.449581 -0.354142
v 0.181653 0.436840 -0.340000
v 0.227114 0.563834 -0.340000
v 0.236455 0.537137 -0.340000
v 0.218436 0.545814 -0.360000
v 0.237314 0.552420 -0.340000
v 0.233849 0.551208 -0.351547
v 0.231178 0.539678 -0.354142
v 0.224572 0.558556 -0.354142
v -0.060000 0.450000 0.380000
v -0.060000 0.470000 0.400000
v -0.080000 0.470000 0.380000
v -0.060000 0.455858 0.394142
v -0.071547 0.458453 0.391547
v -0.074142 0.470000 0.394142
v -0.074142 0.455858 0.380000
v -0.060000 0.630000 0.400000
v -0.060000 0.650000 0.380000
v -0.080000 0.630000 0.380000
v -0.060000 0.644142 0.394142
v -0.071547 0.641547 0.391547
v -0.074142 0.644142 0.380000
v -0.074142 0.630000 0.394142
v -0.060000 0.450000 -0.380000
v -0.080000 0.470000 -0.380000
v -0.060000 0.470000 -0.400000
v -0.074142 0.455858 -0.380000
v -0.071547 0.458453 -0.391547
v -0.074142 0.470000 -0.394142
v -0.060000 0.455858 -0.394142
v -0.060000 0.650000 -0.380000
v -0.060000 0.630000 -0.400000
v -0.080000 0.630000 -0.380000
v -0.060000 0.644142 -0.394142
v -0.071547 0.641547 -0.391547
v -0.074142 0.630000 -0.394142
v -0.074142 0.644142 -0.380000
v 0.060000 0.450000 0.380000
v 0.080000 0.470000 0.380000
v 0.060000 0.470000 0.400000
v 0.074142 0.455858 0.380000
v 0.071547 0.458453 0.391547
v 0.074142 0.470000 0.394142
v 0.060000 0.455858 0.394142
v 0.060000 0.650000 0.380000
v 0.060000 0.630000 0.400000
v 0.080000 0.630000 0.380000
v 0.060000 0.644142 0.394142
v 0.071547 0.641547 0.391547
v 0.074142 0.630000 0.394142
v 0.074142 0.644142 0.380000
v 0.060000 0.450000 -0.380000
v 0.060000 0.470000 -0.400000
v 0.080000 0.470000 -0.380000
v 0.060000 0.455858 -0.394142
v 0.071547 0.458453 -0.391547
v 0.074142 0.470000 -0.394142
v 0.074142 0.455858 -0.380000
v 0.060000 0.650000 -0.380000
v 0.080000 0.630000 -0.380000
v 0.060000 0.630000 -0.400000
v 0.074142 0.644142 -0.380000
v 0.071547 0.641547 -0.391547
v 0.074142 0.630000 -0.394142
v 0.060000 0.644142 -0.394142
v -0.166370 0.437698 0.340000
v -0.175048 0.455717 0.360000
v -0.193067 0.447040 0.340000
v -0.168912 0.442976 0.354142
v -0.180441 0.440304 0.351547
v -0.187789 0.449581 0.354142
v -0.181653 0.436840 0.340000
v -0.218436 0.545814 0.360000
v -0.227114 0.563834 0.340000
v -0.236455 0.537137 0.340000
v -0.224572 0.558556 0.354142
v -0.233849 0.551208 0.351547
v -0.237314 0.552420 0.340000
v -0.231178 0.539678 0.354142
v -0.166370 0.437698 -0.340000
v -0.193067 0.447040 -0.340000
v -0.175048 0.455717 -0.360000
v -0.181653 0.436840 -0.340000
v -0.180441 0.440304 -0.351547
v -0.187789 0.449581 -0.354142
v -0.168912 0.442976 -0.354142
v -0.227114 0.563834 -0.340000
v -0.218436 0.545814 -0.360000
v -0.236455 0.537137 -0.340000
v -0.224572 0.558556 -0.354142
v -0.233849 0.551208 -0.351547
v -0.231178 0.539678 -0.354142
v -0.237314 0.552420 -0.340000
v -0.085283 0.476748 0.340000
v -0.075941 0.503445 0.340000
v -0.093960 0.494767 0.360000
v -0.075083 0.488161 0.340000
v -0.078547 0.489374 0.351547
v -0.081219 0.500903 0.354142
v -0.087824 0.482025 0.354142
v -0.146026 0.602883 0.340000
v -0.137349 0.584864 0.360000
v -0.119329 0.593542 0.340000
v -0.143485 0.597606 0.354142
v -0.131955 0.600277 0.351547
v -0.124607 0.591000 0.354142
v -0.130743 0.603742 0.340000
v -0.085283 0.476748 -0.340000
v -0.093960 0.494767 -0.360000
v -0.075941 0.503445 -0.340000
v -0.087824 0.482025 -0.354142
v -0.078547 0.489374 -0.351547
v -0.081219 0.500903 -0.354142
v -0.075083 0.488161 -0.340000
v -0.146026 0.602883 -0.340000
v -0.119329 0.593542 -0.340000
v -0.137349 0.584864 -0.360000
v -0.130743 0.603742 -0.340000
v -0.131955 0.600277 -0.351547
v -0.124607 0.591000 -0.354142
v -0.143485 0.597606 -0.354142
v -0.254788 0.358220 0.340000
v -0.270425 0.370690 0.360000
v -0.282895 0.355053 0.340000
v -0.259368 0.361873 0.354142
v -0.268596 0.354463 0.351547
v -0.279242 0.359633 0.354142
v -0.268185 0.350816 0.340000
v -0.348608 0.433039 0.360000
v -0.364245 0.445509 0.340000
v -0.361078 0.417402 0.340000
v -0.359665 0.441857 0.354142
v -0.364835 0.431211 0.351547
v -0.368482 0.430800 0.340000
v -0.357425 0.421982 0.354142
v -0.254788 0.358220 -0.340000
v -0.282895 0.355053 -0.340000
v -0.270425 0.370690 -0.360000
v -0.268185 0.350816 -0.340000
v -0.268596 0.354463 -0.351547
v -0.279242 0.359633 -0.354142
v -0.259368 0.361873 -0.354142
v -0.364245 0.445509 -0.340000
v -0.348608 0.433039 -0.360000
v -0.361078 0.417402 -0.340000
v -0.359665 0.441857 -0.354142
v -0.364835 0.431211 -0.351547
v -0.357425 0.421982 -0.354142
v -0.368482 0.430800 -0.340000
v -0.198674 0.428585 0.340000
v -0.201841 0.456692 0.340000
v -0.214311 0.441055 0.360000
v -0.194436 0.443294 0.340000
v -0.198083 0.442883 0.351547
v -0.205493 0.452112 0.354142
v -0.203254 0.432237 0.354142
v -0.308131 0.515874 0.340000
v -0.292494 0.503404 0.360000
v -0.280024 0.519041 0.340000
v -0.303551 0.512221 0.354142
v -0.294322 0.519631 0.351547
v -0.283676 0.514461 0.354142
v -0.294733 0.523278 0.340000
v -0.198674 0.428585 -0.340000
v -0.214311 0.441055 -0.360000
v -0.201841 0.456692 -0.340000
v -0.203254 0.432237 -0.354142
v -0.198083 0.442883 -0.351547
v -0.205493 0.452112 -0.354142
v -0.194436 0.443294 -0.340000
v -0.308131 0.515874 -0.340000
v -0.280024 0.519041 -0.340000
v -0.292494 0.503404 -0.360000
v -0.294733 0.523278 -0.340000
v -0.294322 0.519631 -0.351547
v -0.283676 0.514461 -0.354142
v -0.303551 0.512221 -0.354142
v -0.292743 0.257308 0.340000
v -0.312241 0.261758 0.360000
v -0.316692 0.242260 0.340000
v -0.298454 0.258612 0.354142
v -0.303553 0.247932 0.351547
v -0.315388 0.247971 0.354142
v -0.301600 0.244824 0.340000
v -0.409734 0.284011 0.360000
v -0.429232 0.288461 0.340000
v -0.414184 0.264512 0.340000
v -0.423521 0.287158 0.354142
v -0.423561 0.275323 0.351547
v -0.426668 0.273370 0.340000
v -0.412881 0.270223 0.354142
v -0.292743 0.257308 -0.340000
v -0.316692 0.242260 -0.340000
v -0.312241 0.261758 -0.360000
v -0.301600 0.244824 -0.340000
v -0.303553 0.247932 -0.351547
v -0.315388 0.247971 -0.354142
v -0.298454 0.258612 -0.354142
v -0.429232 0.288461 -0.340000
v -0.409734 0.284011 -0.360000
v -0.414184 0.264512 -0.340000
v -0.423521 0.287158 -0.354142
v -0.423561 0.275323 -0.351547
v -0.412881 0.270223 -0.354142
v -0.426668 0.273370 -0.340000
v -0.272716 0.345052 0.340000
v -0.287764 0.369001 0.340000
v -0.292214 0.349502 0.360000
v -0.275280 0.360143 0.340000
v -0.278387 0.358190 0.351547
v -0.289067 0.363290 0.354142
v -0.278427 0.346355 0.354142
v -0.409206 0.376204 0.340000
v -0.389707 0.371754 0.360000
v -0.385257 0.391253 0.340000
v -0.403495 0.374901 0.354142
v -0.398395 0.385581 0.351547
v -0.386560 0.385542 0.354142
v -0.400348 0.388689 0.340000
v -0.272716 0.345052 -0.340000
v -0.292214 0.349502 -0.360000
v -0.287764 0.369001 -0.340000
v -0.278427 0.346355 -0.354142
v -0.278387 0.358190 -0.351547
v -0.289067 0.363290 -0.354142
v -0.275280 0.360143 -0.340000
v -0.409206 0.376204 -0.340000
v -0.385257 0.391253 -0.340000
v -0.389707 0.371754 -0.360000
v -0.400348 0.388689 -0.340000
v -0.398395 0.385581 -0.351547
v -0.386560 0.385542 -0.354142
v -0.403495 0.374901 -0.354142
vn -0.3251 -0.8881 0.3251
vn -0.3251 -0.3251 0.8881
vn -0.8881 -0.3251 0.3251
vn -0.3251 0.3251 0.8881
vn -0.3251 0.8881 0.3251
vn -0.8881 0.3251 0.3251
vn -0.3251 -0.8881 -0.3251
vn -0.8881 -0.3251 -0.3251
vn -0.3251 -0.3251 -0.8881
vn -0.3251 0.8881 -0.3251
vn -0.3251 0.3251 -0.8881
vn -0.8881 0.3251 -0.3251
vn 0.3251 -0.8881 0.3251
vn 0.8881 -0.3251 0.3251
vn 0.3251 -0.3251 0.8881
vn 0.3251 0.8881 0.3251
vn 0.3251 0.3251 0.8881
vn 0.8881 0.3251 0.3251
vn 0.3251 -0.8881 -0.3251
vn 0.3251 -0.3251 -0.8881
vn 0.8881 -0.3251 -0.3251
vn 0.3251 0.8881 -0.3251
vn 0.8881 0.3251 -0.3251
vn 0.3251 0.3251 -0.8881
vn -0.9381 0.1193 0.3251
vn -0.3892 0.2446 0.8881
vn -0.5145 0.7935 0.3251
vn 0.2446 0.3892 0.8881
vn 0.7935 0.5145 0.3251
vn 0.1193 0.9381 0.3251
vn -0.9381 0.1193 -0.3251
vn -0.5145 0.7935 -0.3251
vn -0.3892 0.2446 -0.8881
vn 0.7935 0.5145 -0.3251
vn 0.2446 0.3892 -0.8881
vn 0.1193 0.9381 -0.3251
vn -0.7935 -0.5145 0.3251
vn -0.1193 -0.9381 0.3251
vn -0.2446 -0.3892 0.8881
vn 0.9381 -0.1193 0.3251
vn 0.3892 -0.2446 0.8881
vn 0.5145 -0.7935 0.3251
vn -0.7935 -0.5145 -0.3251
vn -0.2446 -0.3892 -0.8881
vn -0.1193 -0.9381 -0.3251
vn 0.9381 -0.1193 -0.3251
vn 0.5145 -0.7935 -0.3251
vn 0.3892 -0.2446 -0.8881
vn -0.8970 -0.2996 0.3251
vn -0.4568 0.0515 0.8881
vn -0.8078 0.4917 0.3251
vn 0.0515 0.4568 0.8881
vn 0.4917 0.8078 0.3251
vn -0.2996 0.8970 0.3251
vn -0.8970 -0.2996 -0.3251
vn -0.8078 0.4917 -0.3251
vn -0.4568 0.0515 -0.8881
vn 0.4917 0.8078 -0.3251
vn 0.0515 0.4568 -0.8881
vn -0.2996 0.8970 -0.3251
vn -0.4917 -0.8078 0.3251
vn 0.2996 -0.8970 0.3251
vn -0.0515 -0.4568 0.8881
vn 0.8970 0.2996 0.3251
vn 0.4568 -0.0515 0.8881
vn 0.8078 -0.4917 0.3251
vn -0.4917 -0.8078 -0.3251
vn -0.0515 -0.4568 -0.8881
vn 0.2996 -0.8970 -0.3251
vn 0.8970 0.2996 -0.3251
vn 0.8078 -0.4917 -0.3251
vn 0.4568 -0.0515 -0.8881
vn -0.6782 -0.6591 0.3251
vn -0.4339 -0.1518 0.8881
vn -0.9412 0.0925 0.3251
vn -0.1518 0.4339 0.8881
vn 0.0925 0.9412 0.3251
vn -0.6591 0.6782 0.3251
vn -0.6782 -0.6591 -0.3251
vn -0.9412 0.0925 -0.3251
vn -0.4339 -0.1518 -0.8881
vn 0.0925 0.9412 -0.3251
vn -0.1518 0.4339 -0.8881
vn -0.6591 0.6782 -0.3251
vn -0.0925 -0.9412 0.3251
vn 0.6591 -0.6782 0.3251
vn 0.1518 -0.4339 0.8881
vn 0.6782 0.6591 0.3251
vn 0.4339 0.1518 0.8881
vn 0.9412 -0.0925 0.3251
vn -0.0925 -0.9412 -0.3251
vn 0.1518 -0.4339 -0.8881
vn 0.6591 -0.6782 -0.3251
vn 0.6782 0.6591 -0.3251
vn 0.9412 -0.0925 -0.3251
vn 0.4339 0.1518 -0.8881
vn 0.0925 -0.9412 0.3251
vn -0.1518 -0.4339 0.8881
vn -0.6591 -0.6782 0.3251
vn -0.4339 0.1518 0.8881
vn -0.6782 0.6591 0.3251
vn -0.9412 -0.0925 0.3251
vn 0.0925 -0.9412 -0.3251
vn -0.6591 -0.6782 -0.3251
vn -0.1518 -0.4339 -0.8881
vn -0.6782 0.6591 -0.3251
vn -0.4339 0.1518 -0.8881
vn -0.9412 -0.0925 -0.3251
vn 0.6782 -0.6591 0.3251
vn 0.9412 0.0925 0.3251
vn 0.4339 -0.1518 0.8881
vn -0.0925 0.9412 0.3251
vn 0.1518 0.4339 0.8881
vn 0.6591 0.6782 0.3251
vn 0.6782 -0.6591 -0.3251
vn 0.4339 -0.1518 -0.8881
vn 0.9412 0.0925 -0.3251
vn -0.0925 0.9412 -0.3251
vn 0.6591 0.6782 -0.3251
vn 0.1518 0.4339 -0.8881
vn 0.4917 -0.8078 0.3251
vn 0.0515 -0.4568 0.8881
vn -0.2996 -0.8970 0.3251
vn -0.4568 -0.0515 0.8881
vn -0.8970 0.2996 0.3251
vn -0.8078 -0.4917 0.3251
vn 0.4917 -0.8078 -0.3251
vn -0.2996 -0.8970 -0.3251
vn 0.0515 -0.4568 -0.8881
vn -0.8970 0.2996 -0.3251
vn -0.4568 -0.0515 -0.8881
vn -0.8078 -0.4917 -0.3251
vn 0.8970 -0.2996 0.3251
vn 0.8078 0.4917 0.3251
vn 0.4568 0.0515 0.8881
vn -0.4917 0.8078 0.3251
vn -0.0515 0.4568 0.8881
vn 0.2996 0.8970 0.3251
vn 0.8970 -0.2996 -0.3251
vn 0.4568 0.0515 -0.8881
vn 0.8078 0.4917 -0.3251
vn -0.4917 0.8078 -0.3251
vn 0.2996 0.8970 -0.3251
vn -0.0515 0.4568 -0.8881
vn 0.7935 -0.5145 0.3251
vn 0.2446 -0.3892 0.8881
vn 0.1193 -0.9381 0.3251
vn -0.3892 -0.2446 0.8881
vn -0.9381 -0.1193 0.3251
vn -0.5145 -0.7935 0.3251
vn 0.7935 -0.5145 -0.3251
vn 0.1193 -0.9381 -0.3251
vn 0.2446 -0.3892 -0.8881
vn -0.9381 -0.1193 -0.3251
vn -0.3892 -0.2446 -0.8881
vn -0.5145 -0.7935 -0.3251
vn 0.9381 0.1193 0.3251
vn 0.5145 0.7935 0.3251
vn 0.3892 0.2446 0.8881
vn -0.7935 0.5145 0.3251
vn -0.2446 0.3892 0.8881
vn -0.1193 0.9381 0.3251
vn 0.9381 0.1193 -0.3251
vn 0.3892 0.2446 -0.8881
vn 0.5145 0.7935 -0.3251
vn -0.7935 0.5145 -0.3251
vn -0.1193 0.9381 -0.3251
vn -0.2446 0.3892 -0.8881
vn -0.3827 -0.9239 -0.0000
vn -0.9239 -0.3827 -0.0000
vn -0.3827 -0.0000 0.9239
vn -0.9239 -0.0000 0.3827
vn -0.3827 0.9239 -0.0000
vn -0.9239 0.3827 -0.0000
vn -0.3827 -0.0000 -0.9239
vn -0.9239 -0.0000 -0.3827
vn -0.0000 -0.9239 -0.3827
vn -0.0000 -0.3827 -0.9239
vn -0.0000 0.9239 -0.3827
vn -0.0000 0.3827 -0.9239
vn 0.9239 -0.0000 -0.3827
vn 0.3827 -0.0000 -0.9239
vn 0.3827 -0.9239 -0.0000
vn 0.9239 -0.3827 -0.0000
vn 0.3827 0.9239 -0.0000
vn 0.9239 0.3827 -0.0000
vn 0.3827 -0.0000 0.9239
vn 0.9239 -0.0000 0.3827
vn -0.0000 -0.9239 0.3827
vn -0.0000 -0.3827 0.9239
vn -0.0000 0.9239 0.3827
vn -0.0000 0.3827 0.9239
vn -0.9859 0.1675 -0.0000
vn -0.5787 0.8156 -0.0000
vn -0.0852 0.3731 0.9239
vn -0.2056 0.9007 0.3827
vn 0.8156 0.5787 -0.0000
vn 0.1675 0.9859 -0.0000
vn -0.0852 0.3731 -0.9239
vn -0.2056 0.9007 -0.3827
vn -0.9007 -0.2056 -0.3827
vn -0.3731 -0.0852 -0.9239
vn 0.9007 0.2056 -0.3827
vn 0.3731 0.0852 -0.9239
vn 0.2056 -0.9007 -0.3827
vn 0.0852 -0.3731 -0.9239
vn -0.8156 -0.5787 -0.0000
vn -0.1675 -0.9859 -0.0000
vn 0.9859 -0.1675 -0.0000
vn 0.5787 -0.8156 -0.0000
vn 0.0852 -0.3731 0.9239
vn 0.2056 -0.9007 0.3827
vn -0.9007 -0.2056 0.3827
vn -0.3731 -0.0852 0.9239
vn 0.9007 0.2056 0.3827
vn 0.3731 0.0852 0.9239
vn -0.9609 -0.2768 -0.0000
vn -0.8752 0.4837 -0.0000
vn -0.2386 0.2992 0.9239
vn -0.5760 0.7223 0.3827
vn 0.4837 0.8752 -0.0000
vn -0.2768 0.9609 -0.0000
vn -0.2386 0.2992 -0.9239
vn -0.5760 0.7223 -0.3827
vn -0.7223 -0.5760 -0.3827
vn -0.2992 -0.2386 -0.9239
vn 0.7223 0.5760 -0.3827
vn 0.2992 0.2386 -0.9239
vn 0.5760 -0.7223 -0.3827
vn 0.2386 -0.2992 -0.9239
vn -0.4837 -0.8752 -0.0000
vn 0.2768 -0.9609 -0.0000
vn 0.9609 0.2768 -0.0000
vn 0.8752 -0.4837 -0.0000
vn 0.2386 -0.2992 0.9239
vn 0.5760 -0.7223 0.3827
vn -0.7223 -0.5760 0.3827
vn -0.2992 -0.2386 0.9239
vn 0.7223 0.5760 0.3827
vn 0.2992 0.2386 0.9239
vn -0.7456 -0.6663 -0.0000
vn -0.9984 0.0561 -0.0000
vn -0.3448 0.1660 0.9239
vn -0.8324 0.4009 0.3827
vn 0.0561 0.9984 -0.0000
vn -0.6663 0.7456 -0.0000
vn -0.3448 0.1660 -0.9239
vn -0.8324 0.4009 -0.3827
vn -0.4009 -0.8324 -0.3827
vn -0.1660 -0.3448 -0.9239
vn 0.4009 0.8324 -0.3827
vn 0.1660 0.3448 -0.9239
vn 0.8324 -0.4009 -0.3827
vn 0.3448 -0.1660 -0.9239
vn -0.0561 -0.9984 -0.0000
vn 0.6663 -0.7456 -0.0000
vn 0.7456 0.6663 -0.0000
vn 0.9984 -0.0561 -0.0000
vn 0.3448 -0.1660 0.9239
vn 0.8324 -0.4009 0.3827
vn -0.4009 -0.8324 0.3827
vn -0.1660 -0.3448 0.9239
vn 0.4009 0.8324 0.3827
vn 0.1660 0.3448 0.9239
vn 0.0561 -0.9984 -0.0000
vn -0.6663 -0.7456 -0.0000
vn -0.3448 -0.1660 0.9239
vn -0.8324 -0.4009 0.3827
vn -0.7456 0.6663 -0.0000
vn -0.9984 -0.0561 -0.0000
vn -0.3448 -0.1660 -0.9239
vn -0.8324 -0.4009 -0.3827
vn 0.4009 -0.8324 -0.3827
vn 0.1660 -0.3448 -0.9239
vn -0.4009 0.8324 -0.3827
vn -0.1660 0.3448 -0.9239
vn 0.8324 0.4009 -0.3827
vn 0.3448 0.1660 -0.9239
vn 0.7456 -0.6663 -0.0000
vn 0.9984 0.0561 -0.0000
vn -0.0561 0.9984 -0.0000
vn 0.6664 0.7456 -0.0000
vn 0.3448 0.1660 0.9239
vn 0.8324 0.4009 0.3827
vn 0.4009 -0.8324 0.3827
vn 0.1660 -0.3448 0.9239
vn -0.4009 0.8324 0.3827
vn -0.1660 0.3448 0.9239
vn 0.4837 -0.8752 -0.0000
vn -0.2768 -0.9609 -0.0000
vn -0.2386 -0.2992 0.9239
vn -0.5760 -0.7223 0.3827
vn -0.9609 0.2768 -0.0000
vn -0.8752 -0.4837 -0.0000
vn -0.2386 -0.2992 -0.9239
vn -0.5760 -0.7223 -0.3827
vn 0.7223 -0.5760 -0.3827
vn 0.2992 -0.2386 -0.9239
vn -0.7223 0.5760 -0.3827
vn -0.2992 0.2386 -0.9239
vn 0.5760 0.7223 -0.3827
vn 0.2386 0.2992 -0.9239
vn 0.9609 -0.2768 -0.0000
vn 0.8752 0.4837 -0.0000
vn -0.4837 0.8752 -0.0000
vn 0.2768 0.9609 -0.0000
vn 0.2386 0.2992 0.9239
vn 0.5760 0.7223 0.3827
vn 0.7223 -0.5760 0.3827
vn 0.2992 -0.2386 0.9239
vn -0.7223 0.5760 0.3827
vn -0.2992 0.2386 0.9239
vn 0.8156 -0.5787 -0.0000
vn 0.1675 -0.9859 -0.0000
vn -0.0852 -0.3731 0.9239
vn -0.2056 -0.9007 0.3827
vn -0.9859 -0.1675 -0.0000
vn -0.5787 -0.8156 -0.0000
vn -0.0852 -0.3731 -0.9239
vn -0.2056 -0.9007 -0.3827
vn 0.9007 -0.2056 -0.3827
vn 0.3731 -0.0852 -0.9239
vn -0.9007 0.2056 -0.3827
vn -0.3731 0.0852 -0.9239
vn 0.2056 0.9007 -0.3827
vn 0.0852 0.3731 -0.9239
vn 0.9859 0.1675 -0.0000
vn 0.5787 0.8156 -0.0000
vn -0.8156 0.5787 -0.0000
vn -0.1675 0.9859 -0.0000
vn 0.0852 0.3731 0.9239
vn 0.2056 0.9007 0.3827
vn 0.9007 -0.2056 0.3827
vn 0.3731 -0.0852 0.9239
vn -0.9007 0.2056 0.3827
vn -0.3731 0.0852 0.9239
vn -0.0000 -1.0000 -0.0000
vn -1.0000 -0.0000 -0.0000
vn -0.0000 -0.0000 1.0000
vn -0.0000 1.0000 -0.0000
vn -0.0000 -0.0000 -1.0000
vn 1.0000 -0.0000 -0.0000
vn -0.9749 -0.2225 -0.0000
vn -0.2225 0.9749 -0.0000
vn 0.9749 0.2225 -0.0000
vn 0.2225 -0.9749 -0.0000
vn -0.7818 -0.6235 -0.0000
vn -0.6235 0.7818 -0.0000
vn 0.7818 0.6235 -0.0000
vn 0.6235 -0.7818 -0.0000
vn -0.4339 -0.9010 -0.0000
vn -0.9010 0.4339 -0.0000
vn 0.4339 0.9010 -0.0000
vn 0.9010 -0.4339 -0.0000
vn 0.4339 -0.9010 -0.0000
vn -0.9010 -0.4339 -0.0000
vn -0.4339 0.9010 -0.0000
vn 0.9010 0.4339 -0.0000
vn 0.7818 -0.6235 -0.0000
vn -0.6235 -0.7818 -0.0000
vn -0.7818 0.6235 -0.0000
vn 0.6235 0.7818 -0.0000
vn 0.9749 -0.2225 -0.0000
vn -0.2225 -0.9749 -0.0000
vn -0.9749 0.2225 -0.0000
vn 0.2225 0.9749 -0.0000
vt 0.150000 0.742857
vt 0.150000 0.750000
vt 0.135566 0.750000
vt 0.125000 0.742857
vt 0.437500 0.975000
vt 0.437500 1.000000
vt 0.401416 1.000000
vt 0.375000 0.975000
vt 0.437500 0.007143
vt 0.375000 0.007143
vt 0.375000 0.003019
vt 0.437500 0.000000
vt 0.562500 0.975000
vt 0.625000 0.975000
vt 0.625000 0.989434
vt 0.562500 1.000000
vt 0.850000 0.742857
vt 0.875000 0.742857
vt 0.875000 0.746981
vt 0.850000 0.750000
vt 0.562500 0.007143
vt 0.562500 0.000000
vt 0.598584 0.000000
vt 0.625000 0.007143
vt 0.150000 0.507143
vt 0.125000 0.507143
vt 0.125000 0.503019
vt 0.150000 0.500000
vt 0.437500 0.242857
vt 0.437500 0.250000
vt 0.388208 0.255283
vt 0.375000 0.242857
vt 0.437500 0.275000
vt 0.375000 0.275000
vt 0.850000 0.507143
vt 0.850000 0.500000
vt 0.864434 0.500000
vt 0.875000 0.507143
vt 0.562500 0.275000
vt 0.562500 0.250000
vt 0.611792 0.248491
vt 0.625000 0.275000
vt 0.562500 0.242857
vt 0.625000 0.242857
vt 0.350000 0.742857
vt 0.375000 0.742857
vt 0.383805 0.752516
vt 0.362500 0.762500
vt 0.437500 0.742857
vt 0.437500 0.750000
vt 0.437500 0.775000
vt 0.650000 0.742857
vt 0.637500 0.762500
vt 0.619717 0.748994
vt 0.625000 0.742857
vt 0.562500 0.775000
vt 0.562500 0.750000
vt 0.562500 0.742857
vt 0.350000 0.507143
vt 0.362500 0.487500
vt 0.380283 0.501006
vt 0.375000 0.507143
vt 0.437500 0.475000
vt 0.437500 0.500000
vt 0.437500 0.507143
vt 0.650000 0.507143
vt 0.625000 0.507143
vt 0.616195 0.497484
vt 0.637500 0.487500
vt 0.562500 0.507143
vt 0.562500 0.500000
vt 0.562500 0.475000
vt 0.160714 0.742857
vt 0.160714 0.750000
vt 0.140095 0.750000
vt 0.383333 0.964286
vt 0.383333 1.000000
vt 0.378522 1.000000
vt 0.375000 0.964286
vt 0.383333 0.007143
vt 0.383333 0.000000
vt 0.616667 0.964286
vt 0.625000 0.964286
vt 0.625000 0.984905
vt 0.616667 1.000000
vt 0.839286 0.742857
vt 0.839286 0.750000
vt 0.616667 0.007143
vt 0.616667 0.000000
vt 0.621478 0.000000
vt 0.160714 0.507143
vt 0.160714 0.500000
vt 0.383333 0.242857
vt 0.383333 0.250000
vt 0.376761 0.257547
vt 0.383333 0.285714
vt 0.375000 0.285714
vt 0.839286 0.507143
vt 0.839286 0.500000
vt 0.859905 0.500000
vt 0.616667 0.285714
vt 0.616667 0.250000
vt 0.623239 0.248491
vt 0.625000 0.285714
vt 0.616667 0.242857
vt 0.339286 0.742857
vt 0.376174 0.754025
vt 0.357143 0.767857
vt 0.383333 0.742857
vt 0.383333 0.750000
vt 0.383333 0.785714
vt 0.660714 0.742857
vt 0.642857 0.767857
vt 0.628858 0.748994
vt 0.616667 0.785714
vt 0.616667 0.750000
vt 0.616667 0.742857
vt 0.339286 0.507143
vt 0.357143 0.482143
vt 0.371142 0.501006
vt 0.383333 0.464286
vt 0.383333 0.500000
vt 0.383333 0.507143
vt 0.660714 0.507143
vt 0.623826 0.495975
vt 0.642857 0.482143
vt 0.616667 0.507143
vt 0.616667 0.500000
vt 0.616667 0.464286
vt 0.458333 0.975000
vt 0.458333 1.000000
vt 0.410221 1.000000
vt 0.458333 0.007143
vt 0.458333 0.000000
vt 0.541667 0.975000
vt 0.541667 1.000000
vt 0.541667 0.007143
vt 0.541667 0.000000
vt 0.589779 0.000000
vt 0.458333 0.242857
vt 0.458333 0.250000
vt 0.392610 0.255283
vt 0.458333 0.275000
vt 0.541667 0.275000
vt 0.541667 0.250000
vt 0.607390 0.248491
vt 0.541667 0.242857
vt 0.386740 0.752516
vt 0.458333 0.742857
vt 0.458333 0.750000
vt 0.458333 0.775000
vt 0.616782 0.748994
vt 0.541667 0.775000
vt 0.541667 0.750000
vt 0.541667 0.742857
vt 0.383218 0.501006
vt 0.458333 0.475000
vt 0.458333 0.500000
vt 0.458333 0.507143
vt 0.613260 0.497484
vt 0.541667 0.507143
vt 0.541667 0.500000
vt 0.541667 0.475000
vt 0.150000 0.500000
vt 0.388208 0.255283
vt 0.375000 0.275000
vt 0.362500 0.762500
vt 0.616195 0.497484
vt 0.637500 0.487500
vt 0.392610 0.255283
vt 0.613260 0.497484
vt 0.163462 0.743056
vt 0.163462 0.750000
vt 0.141256 0.750000
vt 0.125000 0.743056
vt 0.410714 0.961538
vt 0.410714 1.000000
vt 0.390095 1.000000
vt 0.375000 0.961538
vt 0.410714 0.006944
vt 0.375000 0.006944
vt 0.375000 0.002935
vt 0.410714 0.000000
vt 0.589286 0.961539
vt 0.625000 0.961538
vt 0.625000 0.983744
vt 0.589286 1.000000
vt 0.836538 0.743056
vt 0.875000 0.743056
vt 0.875000 0.747065
vt 0.836538 0.750000
vt 0.589286 0.006944
vt 0.589286 0.000000
vt 0.609905 0.000000
vt 0.625000 0.006944
vt 0.163462 0.506944
vt 0.125000 0.506944
vt 0.125000 0.502935
vt 0.163462 0.500000
vt 0.410714 0.243056
vt 0.410714 0.250000
vt 0.382547 0.258128
vt 0.375000 0.243056
vt 0.410714 0.288462
vt 0.375000 0.288462
vt 0.836538 0.506944
vt 0.836538 0.500000
vt 0.858744 0.500000
vt 0.875000 0.506944
vt 0.589286 0.288462
vt 0.589286 0.250000
vt 0.617453 0.248532
vt 0.625000 0.288462
vt 0.589286 0.243056
vt 0.625000 0.243056
vt 0.336538 0.743056
vt 0.375000 0.743056
vt 0.380032 0.754440
vt 0.355769 0.769231
vt 0.410714 0.743056
vt 0.410714 0.750000
vt 0.410714 0.788462
vt 0.663462 0.743056
vt 0.644231 0.769231
vt 0.625387 0.749022
vt 0.625000 0.743056
vt 0.589286 0.788462
vt 0.589286 0.750000
vt 0.589286 0.743056
vt 0.336538 0.506944
vt 0.355769 0.480769
vt 0.374613 0.500978
vt 0.375000 0.506944
vt 0.410714 0.461538
vt 0.410714 0.500000
vt 0.410714 0.506944
vt 0.663462 0.506944
vt 0.625000 0.506944
vt 0.619969 0.495560
vt 0.644231 0.480769
vt 0.589286 0.506944
vt 0.589286 0.500000
vt 0.589286 0.461538
vt 0.163462 0.743056
vt 0.163462 0.750000
vt 0.141256 0.750000
vt 0.410714 0.961538
vt 0.375000 0.961538
vt 0.410714 0.006944
vt 0.589286 0.961538
vt 0.625000 0.961538
vt 0.625000 0.983744
vt 0.589286 1.000000
vt 0.836539 0.743056
vt 0.836538 0.750000
vt 0.589286 0.000000
vt 0.163462 0.506944
vt 0.163462 0.500000
vt 0.410714 0.250000
vt 0.382547 0.258128
vt 0.410714 0.288462
vt 0.375000 0.288462
vt 0.836538 0.506944
vt 0.836538 0.500000
vt 0.858744 0.500000
vt 0.589286 0.288461
vt 0.589286 0.250000
vt 0.617453 0.248532
vt 0.625000 0.288462
vt 0.589286 0.243056
vt 0.336539 0.743056
vt 0.380032 0.754440
vt 0.410714 0.743056
vt 0.410714 0.750000
vt 0.663462 0.743056
vt 0.625387 0.749022
vt 0.589286 0.788461
vt 0.589286 0.750000
vt 0.589286 0.743056
vt 0.336539 0.506944
vt 0.355769 0.480769
vt 0.410714 0.461538
vt 0.410714 0.500000
vt 0.410714 0.506944
vt 0.663462 0.506944
vt 0.619968 0.495560
vt 0.589286 0.461538
vt 0.163462 0.743056
vt 0.163462 0.750000
vt 0.141256 0.750000
vt 0.410714 0.961538
vt 0.375000 0.961539
vt 0.410714 0.006944
vt 0.589286 0.961538
vt 0.625000 0.983744
vt 0.589286 1.000000
vt 0.589286 0.006944
vt 0.163462 0.506944
vt 0.163462 0.500000
vt 0.410714 0.288462
vt 0.836539 0.500000
vt 0.589286 0.288462
vt 0.589286 0.250000
vt 0.625000 0.288461
vt 0.336538 0.743056
vt 0.355769 0.769231
vt 0.410714 0.743056
vt 0.410714 0.750000
vt 0.410714 0.788462
vt 0.663462 0.743056
vt 0.644231 0.769231
vt 0.625387 0.749022
vt 0.589286 0.750000
vt 0.589286 0.743056
vt 0.336538 0.506944
vt 0.355769 0.480769
vt 0.410714 0.461538
vt 0.410714 0.500000
vt 0.410714 0.506944
vt 0.663462 0.506944
vt 0.619969 0.495560
vt 0.589286 0.506944
vt 0.589286 0.461538
vt 0.156250 0.743750
vt 0.156250 0.750000
vt 0.138208 0.750000
vt 0.125000 0.743750
vt 0.400000 0.968750
vt 0.400000 1.000000
vt 0.385566 1.000000
vt 0.375000 0.968750
vt 0.400000 0.006250
vt 0.375000 0.006250
vt 0.375000 0.002642
vt 0.400000 0.000000
vt 0.600000 0.968750
vt 0.625000 0.968750
vt 0.625000 0.986792
vt 0.600000 1.000000
vt 0.843750 0.743750
vt 0.875000 0.743750
vt 0.875000 0.747358
vt 0.843750 0.750000
vt 0.600000 0.006250
vt 0.600000 0.000000
vt 0.614434 0.000000
vt 0.625000 0.006250
vt 0.156250 0.506250
vt 0.125000 0.506250
vt 0.125000 0.502642
vt 0.156250 0.500000
vt 0.400000 0.243750
vt 0.400000 0.250000
vt 0.380283 0.256604
vt 0.375000 0.243750
vt 0.400000 0.281250
vt 0.375000 0.281250
vt 0.843750 0.506250
vt 0.843750 0.500000
vt 0.861792 0.500000
vt 0.875000 0.506250
vt 0.600000 0.281250
vt 0.600000 0.250000
vt 0.619717 0.248679
vt 0.625000 0.281250
vt 0.600000 0.243750
vt 0.625000 0.243750
vt 0.343750 0.743750
vt 0.375000 0.743750
vt 0.378522 0.753522
vt 0.359375 0.765625
vt 0.400000 0.743750
vt 0.400000 0.750000
vt 0.400000 0.781250
vt 0.656250 0.743750
vt 0.640625 0.765625
vt 0.625880 0.749119
vt 0.625000 0.743750
vt 0.600000 0.781250
vt 0.600000 0.750000
vt 0.600000 0.743750
vt 0.343750 0.506250
vt 0.359375 0.484375
vt 0.374119 0.500881
vt 0.375000 0.506250
vt 0.400000 0.468750
vt 0.400000 0.500000
vt 0.400000 0.506250
vt 0.656250 0.506250
vt 0.625000 0.506250
vt 0.621478 0.496478
vt 0.640625 0.484375
vt 0.600000 0.506250
vt 0.600000 0.500000
vt 0.600000 0.468750
vt 0.163461 0.750000
vt 0.141256 0.750000
vt 0.410714 0.006944
vt 0.589286 1.000000
vt 0.836538 0.743056
vt 0.589286 0.000000
vt 0.609905 0.000000
vt 0.163462 0.500000
vt 0.410714 0.243056
vt 0.382547 0.258128
vt 0.836538 0.506944
vt 0.625000 0.288461
vt 0.336538 0.743056
vt 0.355769 0.769231
vt 0.410714 0.743056
vt 0.589286 0.788462
vt 0.589286 0.750000
vt 0.663462 0.506944
vt 0.619968 0.495560
vt 0.644231 0.480769
vt 0.589286 0.461538
vt 0.163461 0.743056
vt 0.141256 0.750000
vt 0.410714 0.961538
vt 0.410714 1.000000
vt 0.410714 0.000000
vt 0.589286 0.961538
vt 0.589286 1.000000
vt 0.836538 0.743056
vt 0.836538 0.750000
vt 0.589286 0.006944
vt 0.163461 0.506944
vt 0.163461 0.500000
vt 0.410714 0.250000
vt 0.375000 0.288462
vt 0.836538 0.500000
vt 0.589286 0.288462
vt 0.617453 0.248532
vt 0.625000 0.288462
vt 0.589286 0.243056
vt 0.380032 0.754440
vt 0.355769 0.769231
vt 0.410714 0.750000
vt 0.410714 0.788461
vt 0.644231 0.769231
vt 0.589286 0.788462
vt 0.355769 0.480769
vt 0.663462 0.506944
vt 0.619969 0.495560
vt 0.644231 0.480769
vt 0.589286 0.506944
vt 0.589286 0.461539
vt 0.163462 0.750000
vt 0.141256 0.750000
vt 0.410714 0.961539
vt 0.410714 0.006944
vt 0.410714 0.000000
vt 0.589286 0.961538
vt 0.836538 0.743056
vt 0.836538 0.750000
vt 0.609905 0.000000
vt 0.163462 0.506944
vt 0.410714 0.243056
vt 0.410714 0.250000
vt 0.858744 0.500000
vt 0.589286 0.250000
vt 0.410714 0.788462
vt 0.644231 0.769231
vt 0.410714 0.461538
vt 0.589286 0.461538
s 0
f 1/1/1 4/2/1 5/3/1 7/4/1
f 2/5/2 6/6/2 5/7/2 4/8/2
f 3/9/3 7/10/3 5/11/3 6/12/3
f 8/13/4 11/14/4 12/15/4 14/16/4
f 9/17/5 13/18/5 12/19/5 11/20/5
f 10/21/6 14/22/6 12/23/6 13/24/6
f 15/25/7 18/26/7 19/27/7 21/28/7
f 16/29/8 20/30/8 19/31/8 18/32/8
f 17/33/9 21/34/9 19/31/9 20/30/9
f 22/35/10 25/36/10 26/37/10 28/38/10
f 23/39/11 27/40/11 26/41/11 25/42/11
f 24/43/12 28/44/12 26/41/12 27/40/12
f 29/45/13 32/46/13 33/47/13 35/48/13
f 30/49/14 34/50/14 33/47/14 32/46/14
f 31/51/15 35/48/15 33/47/15 34/50/15
f 36/52/16 39/53/16 40/54/16 42/55/16
f 37/56/17 41/57/17 40/54/17 39/53/17
f 38/58/18 42/55/18 40/54/18 41/57/18
f 43/59/19 46/60/19 47/61/19 49/62/19
f 44/63/20 48/64/20 47/61/20 46/60/20
f 45/65/21 49/62/21 47/61/21 48/64/21
f 50/66/22 53/67/22 54/68/22 56/69/22
f 51/70/23 55/71/23 54/68/23 53/67/23
f 52/72/24 56/69/24 54/68/24 55/71/24
f 57/73/1 60/74/1 61/75/1 63/4/1
f 58/76/2 62/77/2 61/78/2 60/79/2
f 59/80/3 63/10/3 61/11/3 62/81/3
f 64/82/4 67/83/4 68/84/4 70/85/4
f 65/86/5 69/18/5 68/19/5 67/87/5
f 66/88/6 70/89/6 68/90/6 69/24/6
f 71/91/7 74/26/7 75/27/7 77/92/7
f 72/93/8 76/94/8 75/95/8 74/32/8
f 73/96/9 77/97/9 75/95/9 76/94/9
f 78/98/10 81/99/10 82/100/10 84/38/10
f 79/101/11 83/102/11 82/103/11 81/104/11
f 80/105/12 84/44/12 82/103/12 83/102/12
f 85/106/13 88/46/13 89/107/13 91/108/13
f 86/109/14 90/110/14 89/107/14 88/46/14
f 87/111/15 91/108/15 89/107/15 90/110/15
f 92/112/16 95/113/16 96/114/16 98/55/16
f 93/115/17 97/116/17 96/114/17 95/113/17
f 94/117/18 98/55/18 96/114/18 97/116/18
f 99/118/19 102/119/19 103/120/19 105/62/19
f 100/121/20 104/122/20 103/120/20 102/119/20
f 101/123/21 105/62/21 103/120/21 104/122/21
f 106/124/22 109/67/22 110/125/22 112/126/22
f 107/127/23 111/128/23 110/125/23 109/67/23
f 108/129/24 112/126/24 110/125/24 111/128/24
f 113/1/1 116/2/1 117/3/1 119/4/1
f 114/130/2 118/131/2 117/132/2 116/8/2
f 115/133/3 119/10/3 117/11/3 118/134/3
f 120/135/4 123/14/4 124/15/4 126/136/4
f 121/17/5 125/18/5 124/19/5 123/20/5
f 122/137/6 126/138/6 124/139/6 125/24/6
f 127/25/7 130/26/7 131/27/7 133/28/7
f 128/140/8 132/141/8 131/142/8 130/32/8
f 129/143/9 133/34/9 131/142/9 132/141/9
f 134/35/10 137/36/10 138/37/10 140/38/10
f 135/144/11 139/145/11 138/146/11 137/42/11
f 136/147/12 140/44/12 138/146/12 139/145/12
f 141/45/13 144/46/13 145/148/13 147/48/13
f 142/149/14 146/150/14 145/148/14 144/46/14
f 143/151/15 147/48/15 145/148/15 146/150/15
f 148/52/16 151/53/16 152/152/16 154/55/16
f 149/153/17 153/154/17 152/152/17 151/53/17
f 150/155/18 154/55/18 152/152/18 153/154/18
f 155/59/19 158/60/19 159/156/19 161/62/19
f 156/157/20 160/158/20 159/156/20 158/60/20
f 157/159/21 161/62/21 159/156/21 160/158/21
f 162/66/22 165/67/22 166/160/22 168/69/22
f 163/161/23 167/162/23 166/160/23 165/67/23
f 164/163/24 168/69/24 166/160/24 167/162/24
f 169/1/1 172/2/1 173/3/1 175/4/1
f 170/5/2 174/6/2 173/7/2 172/8/2
f 171/9/3 175/10/3 173/11/3 174/12/3
f 176/13/4 179/14/4 180/15/4 182/16/4
f 177/17/5 181/18/5 180/19/5 179/20/5
f 178/21/6 182/22/6 180/23/6 181/24/6
f 183/25/7 186/26/7 187/27/7 189/164/7
f 184/29/8 188/30/8 187/165/8 186/32/8
f 185/33/9 189/166/9 187/165/9 188/30/9
f 190/35/10 193/36/10 194/37/10 196/38/10
f 191/39/11 195/40/11 194/41/11 193/42/11
f 192/43/12 196/44/12 194/41/12 195/40/12
f 197/45/13 200/46/13 201/47/13 203/167/13
f 198/49/14 202/50/14 201/47/14 200/46/14
f 199/51/15 203/167/15 201/47/15 202/50/15
f 204/52/16 207/53/16 208/54/16 210/55/16
f 205/56/17 209/57/17 208/54/17 207/53/17
f 206/58/18 210/55/18 208/54/18 209/57/18
f 211/59/19 214/60/19 215/61/19 217/62/19
f 212/63/20 216/64/20 215/61/20 214/60/20
f 213/65/21 217/62/21 215/61/21 216/64/21
f 218/66/22 221/67/22 222/168/22 224/169/22
f 219/70/23 223/71/23 222/168/23 221/67/23
f 220/72/24 224/169/24 222/168/24 223/71/24
f 225/73/1 228/74/1 229/75/1 231/4/1
f 226/76/2 230/77/2 229/78/2 228/79/2
f 227/80/3 231/10/3 229/11/3 230/81/3
f 232/82/4 235/83/4 236/84/4 238/85/4
f 233/86/5 237/18/5 236/19/5 235/87/5
f 234/88/6 238/89/6 236/90/6 237/24/6
f 239/91/7 242/26/7 243/27/7 245/92/7
f 240/93/8 244/94/8 243/95/8 242/32/8
f 241/96/9 245/97/9 243/95/9 244/94/9
f 246/98/10 249/99/10 250/100/10 252/38/10
f 247/101/11 251/102/11 250/103/11 249/104/11
f 248/105/12 252/44/12 250/103/12 251/102/12
f 253/106/13 256/46/13 257/107/13 259/108/13
f 254/109/14 258/110/14 257/107/14 256/46/14
f 255/111/15 259/108/15 257/107/15 258/110/15
f 260/112/16 263/113/16 264/114/16 266/55/16
f 261/115/17 265/116/17 264/114/17 263/113/17
f 262/117/18 266/55/18 264/114/18 265/116/18
f 267/118/19 270/119/19 271/120/19 273/62/19
f 268/121/20 272/122/20 271/120/20 270/119/20
f 269/123/21 273/62/21 271/120/21 272/122/21
f 274/124/22 277/67/22 278/125/22 280/126/22
f 275/127/23 279/128/23 278/125/23 277/67/23
f 276/129/24 280/126/24 278/125/24 279/128/24
f 281/1/1 284/2/1 285/3/1 287/4/1
f 282/130/2 286/131/2 285/132/2 284/8/2
f 283/133/3 287/10/3 285/11/3 286/134/3
f 288/135/4 291/14/4 292/15/4 294/136/4
f 289/17/5 293/18/5 292/19/5 291/20/5
f 290/137/6 294/138/6 292/139/6 293/24/6
f 295/25/7 298/26/7 299/27/7 301/164/7
f 296/140/8 300/141/8 299/170/8 298/32/8
f 297/143/9 301/166/9 299/170/9 300/141/9
f 302/35/10 305/36/10 306/37/10 308/38/10
f 303/144/11 307/145/11 306/146/11 305/42/11
f 304/147/12 308/44/12 306/146/12 307/145/12
f 309/45/13 312/46/13 313/148/13 315/167/13
f 310/149/14 314/150/14 313/148/14 312/46/14
f 311/151/15 315/167/15 313/148/15 314/150/15
f 316/52/16 319/53/16 320/152/16 322/55/16
f 317/153/17 321/154/17 320/152/17 319/53/17
f 318/155/18 322/55/18 320/152/18 321/154/18
f 323/59/19 326/60/19 327/156/19 329/62/19
f 324/157/20 328/158/20 327/156/20 326/60/20
f 325/159/21 329/62/21 327/156/21 328/158/21
f 330/66/22 333/67/22 334/171/22 336/169/22
f 331/161/23 335/162/23 334/171/23 333/67/23
f 332/163/24 336/169/24 334/171/24 335/162/24
f 337/172/25 340/173/25 341/174/25 343/175/25
f 338/176/26 342/177/26 341/178/26 340/179/26
f 339/180/27 343/181/27 341/182/27 342/183/27
f 344/184/28 347/185/28 348/186/28 350/187/28
f 345/188/29 349/189/29 348/190/29 347/191/29
f 346/192/30 350/193/30 348/194/30 349/195/30
f 351/196/31 354/197/31 355/198/31 357/199/31
f 352/200/32 356/201/32 355/202/32 354/203/32
f 353/204/33 357/205/33 355/202/33 356/201/33
f 358/206/34 361/207/34 362/208/34 364/209/34
f 359/210/35 363/211/35 362/212/35 361/213/35
f 360/214/36 364/215/36 362/212/36 363/211/36
f 365/216/37 368/217/37 369/218/37 371/219/37
f 366/220/38 370/221/38 369/218/38 368/217/38
f 367/222/39 371/219/39 369/218/39 370/221/39
f 372/223/40 375/224/40 376/225/40 378/226/40
f 373/227/41 377/228/41 376/225/41 375/224/41
f 374/229/42 378/226/42 376/225/42 377/228/42
f 379/230/43 382/231/43 383/232/43 385/233/43
f 380/234/44 384/235/44 383/232/44 382/231/44
f 381/236/45 385/233/45 383/232/45 384/235/45
f 386/237/46 389/238/46 390/239/46 392/240/46
f 387/241/47 391/242/47 390/239/47 389/238/47
f 388/243/48 392/240/48 390/239/48 391/242/48
f 393/244/49 396/245/49 397/246/49 399/175/49
f 394/247/50 398/177/50 397/178/50 396/248/50
f 395/249/51 399/181/51 397/182/51 398/183/51
f 400/250/52 403/251/52 404/252/52 406/253/52
f 401/254/53 405/189/53 404/190/53 403/255/53
f 402/192/54 406/256/54 404/194/54 405/195/54
f 407/257/55 410/197/55 411/198/55 413/258/55
f 408/200/56 412/259/56 411/260/56 410/203/56
f 409/261/57 413/262/57 411/260/57 412/259/57
f 414/263/58 417/264/58 418/265/58 420/209/58
f 415/266/59 419/267/59 418/268/59 417/269/59
f 416/270/60 420/215/60 418/268/60 419/267/60
f 421/271/61 424/217/61 425/272/61 427/219/61
f 422/273/62 426/274/62 425/272/62 424/217/62
f 423/222/63 427/219/63 425/272/63 426/274/63
f 428/275/64 431/224/64 432/276/64 434/226/64
f 429/277/65 433/278/65 432/276/65 431/224/65
f 430/279/66 434/226/66 432/276/66 433/278/66
f 435/280/67 438/281/67 439/232/67 441/233/67
f 436/282/68 440/283/68 439/232/68 438/281/68
f 437/284/69 441/233/69 439/232/69 440/283/69
f 442/285/70 445/238/70 446/286/70 448/240/70
f 443/241/71 447/242/71 446/286/71 445/238/71
f 444/287/72 448/240/72 446/286/72 447/242/72
f 449/288/73 452/289/73 453/290/73 455/175/73
f 450/291/74 454/177/74 453/178/74 452/292/74
f 451/293/75 455/181/75 453/182/75 454/183/75
f 456/294/76 459/185/76 460/295/76 462/296/76
f 457/188/77 461/189/77 460/190/77 459/255/77
f 458/297/78 462/256/78 460/194/78 461/195/78
f 463/298/79 466/197/79 467/198/79 469/299/79
f 464/200/80 468/201/80 467/202/80 466/203/80
f 465/300/81 469/205/81 467/202/81 468/201/81
f 470/206/82 473/301/82 474/265/82 476/209/82
f 471/302/83 475/303/83 474/268/83 473/304/83
f 472/214/84 476/215/84 474/268/84 475/303/84
f 477/305/85 480/217/85 481/218/85 483/306/85
f 478/307/86 482/308/86 481/218/86 480/217/86
f 479/309/87 483/306/87 481/218/87 482/308/87
f 484/310/88 487/311/88 488/312/88 490/226/88
f 485/227/89 489/313/89 488/312/89 487/311/89
f 486/314/90 490/226/90 488/312/90 489/313/90
f 491/315/91 494/316/91 495/232/91 497/233/91
f 492/317/92 496/318/92 495/232/92 494/316/92
f 493/319/93 497/233/93 495/232/93 496/318/93
f 498/320/94 501/238/94 502/321/94 504/240/94
f 499/322/95 503/242/95 502/321/95 501/238/95
f 500/323/96 504/240/96 502/321/96 503/242/96
f 505/324/1 508/325/1 509/326/1 511/327/1
f 506/328/2 510/329/2 509/330/2 508/331/2
f 507/332/3 511/333/3 509/334/3 510/335/3
f 512/336/4 515/337/4 516/338/4 518/339/4
f 513/340/5 517/341/5 516/342/5 515/343/5
f 514/344/6 518/345/6 516/346/6 517/347/6
f 519/348/7 522/349/7 523/350/7 525/351/7
f 520/352/8 524/353/8 523/354/8 522/355/8
f 521/356/9 525/357/9 523/354/9 524/353/9
f 526/358/10 529/359/10 530/360/10 532/361/10
f 527/362/11 531/363/11 530/364/11 529/365/11
f 528/366/12 532/367/12 530/364/12 531/363/12
f 533/368/13 536/369/13 537/370/13 539/371/13
f 534/372/14 538/373/14 537/370/14 536/369/14
f 535/374/15 539/371/15 537/370/15 538/373/15
f 540/375/16 543/376/16 544/377/16 546/378/16
f 541/379/17 545/380/17 544/377/17 543/376/17
f 542/381/18 546/378/18 544/377/18 545/380/18
f 547/382/19 550/383/19 551/384/19 553/385/19
f 548/386/20 552/387/20 551/384/20 550/383/20
f 549/388/21 553/385/21 551/384/21 552/387/21
f 554/389/22 557/390/22 558/391/22 560/392/22
f 555/393/23 559/394/23 558/391/23 557/390/23
f 556/395/24 560/392/24 558/391/24 559/394/24
f 561/244/97 564/396/97 565/397/97 567/175/97
f 562/247/98 566/177/98 565/178/98 564/292/98
f 563/398/99 567/181/99 565/182/99 566/183/99
f 568/250/100 571/251/100 572/295/100 574/399/100
f 569/400/101 573/189/101 572/190/101 571/191/101
f 570/297/102 574/401/102 572/402/102 573/195/102
f 575/257/103 578/197/103 579/198/103 581/403/103
f 576/404/104 580/201/104 579/405/104 578/203/104
f 577/261/105 581/205/105 579/405/105 580/201/105
f 582/406/106 585/264/106 586/265/106 588/209/106
f 583/210/107 587/211/107 586/212/107 585/407/107
f 584/214/108 588/215/108 586/212/108 587/211/108
f 589/408/109 592/217/109 593/272/109 595/409/109
f 590/410/110 594/308/110 593/272/110 592/217/110
f 591/222/111 595/409/111 593/272/111 594/308/111
f 596/310/112 599/311/112 600/276/112 602/226/112
f 597/411/113 601/412/113 600/276/113 599/311/113
f 598/314/114 602/226/114 600/276/114 601/412/114
f 603/230/115 606/316/115 607/232/115 609/233/115
f 604/234/116 608/318/116 607/232/116 606/316/116
f 605/284/117 609/233/117 607/232/117 608/318/117
f 610/413/118 613/238/118 614/414/118 616/415/118
f 611/322/119 615/242/119 614/414/119 613/238/119
f 612/416/120 616/415/120 614/414/120 615/242/120
f 617/417/121 620/396/121 621/418/121 623/175/121
f 618/419/122 622/420/122 621/178/122 620/248/122
f 619/180/123 623/181/123 621/182/123 622/421/123
f 624/422/124 627/185/124 628/295/124 630/423/124
f 625/424/125 629/189/125 628/190/125 627/425/125
f 626/426/126 630/256/126 628/194/126 629/195/126
f 631/427/127 634/197/127 635/198/127 637/428/127
f 632/200/128 636/429/128 635/202/128 634/203/128
f 633/300/129 637/430/129 635/202/129 636/429/129
f 638/263/130 641/431/130 642/208/130 644/209/130
f 639/432/131 643/267/131 642/433/131 641/434/131
f 640/435/132 644/215/132 642/433/132 643/267/132
f 645/305/133 648/217/133 649/436/133 651/437/133
f 646/410/134 650/438/134 649/436/134 648/217/134
f 647/439/135 651/437/135 649/436/135 650/438/135
f 652/275/136 655/440/136 656/276/136 658/226/136
f 653/441/137 657/278/137 656/276/137 655/440/137
f 654/314/138 658/226/138 656/276/138 657/278/138
f 659/315/139 662/442/139 663/232/139 665/233/139
f 660/317/140 664/318/140 663/232/140 662/442/140
f 661/284/141 665/233/141 663/232/141 664/318/141
f 666/443/142 669/238/142 670/444/142 672/445/142
f 667/446/143 671/242/143 670/444/143 669/238/143
f 668/447/144 672/445/144 670/444/144 671/242/144
f 673/244/145 676/448/145 677/449/145 679/175/145
f 674/450/146 678/420/146 677/178/146 676/248/146
f 675/451/147 679/181/147 677/182/147 678/452/147
f 680/453/148 683/185/148 684/186/148 686/423/148
f 681/454/149 685/189/149 684/190/149 683/455/149
f 682/426/150 686/256/150 684/456/150 685/195/150
f 687/457/151 690/197/151 691/198/151 693/428/151
f 688/458/152 692/459/152 691/405/152 690/203/152
f 689/300/153 693/430/153 691/405/153 692/459/153
f 694/406/154 697/431/154 698/460/154 700/209/154
f 695/210/155 699/461/155 698/268/155 697/213/155
f 696/435/156 700/215/156 698/268/156 699/461/156
f 701/408/157 704/217/157 705/272/157 707/409/157
f 702/273/158 706/308/158 705/272/158 704/217/158
f 703/462/159 707/409/159 705/272/159 706/308/159
f 708/275/160 711/463/160 712/276/160 714/226/160
f 709/227/161 713/313/161 712/276/161 711/463/161
f 710/314/162 714/226/162 712/276/162 713/313/162
f 715/230/163 718/231/163 719/232/163 721/233/163
f 716/464/164 720/318/164 719/232/164 718/231/164
f 717/284/165 721/233/165 719/232/165 720/318/165
f 722/413/166 725/238/166 726/321/166 728/240/166
f 723/322/167 727/242/167 726/321/167 725/238/167
f 724/465/168 728/240/168 726/321/168 727/242/168
f 15/25/169 1/1/169 7/4/169 18/26/169
f 18/32/170 7/10/170 3/9/170 16/29/170
f 2/5/171 8/13/171 14/16/171 6/6/171
f 6/12/172 14/22/172 10/21/172 3/9/172
f 9/17/173 22/35/173 28/38/173 13/18/173
f 13/24/174 28/44/174 24/43/174 10/21/174
f 23/39/175 17/33/175 20/30/175 27/40/175
f 27/40/176 20/30/176 16/29/176 24/43/176
f 43/59/177 15/25/177 21/28/177 46/60/177
f 46/60/178 21/34/178 17/33/178 44/63/178
f 22/35/179 50/66/179 56/69/179 25/36/179
f 25/42/180 56/69/180 52/72/180 23/39/180
f 51/70/181 45/65/181 48/64/181 55/71/181
f 55/71/182 48/64/182 44/63/182 52/72/182
f 29/45/183 43/59/183 49/62/183 32/46/183
f 32/46/184 49/62/184 45/65/184 30/49/184
f 50/66/185 36/52/185 42/55/185 53/67/185
f 53/67/186 42/55/186 38/58/186 51/70/186
f 37/56/187 31/51/187 34/50/187 41/57/187
f 41/57/188 34/50/188 30/49/188 38/58/188
f 1/1/189 29/45/189 35/48/189 4/2/189
f 4/8/190 35/48/190 31/51/190 2/5/190
f 36/52/191 9/17/191 11/20/191 39/53/191
f 39/53/192 11/14/192 8/13/192 37/56/192
f 71/91/169 57/73/169 63/4/169 74/26/169
f 74/32/170 63/10/170 59/80/170 72/93/170
f 58/76/171 64/82/171 70/85/171 62/77/171
f 62/81/172 70/89/172 66/88/172 59/80/172
f 65/86/173 78/98/173 84/38/173 69/18/173
f 69/24/174 84/44/174 80/105/174 66/88/174
f 79/101/175 73/96/175 76/94/175 83/102/175
f 83/102/176 76/94/176 72/93/176 80/105/176
f 99/118/177 71/91/177 77/92/177 102/119/177
f 102/119/178 77/97/178 73/96/178 100/121/178
f 78/98/179 106/124/179 112/126/179 81/99/179
f 81/104/180 112/126/180 108/129/180 79/101/180
f 107/127/181 101/123/181 104/122/181 111/128/181
f 111/128/182 104/122/182 100/121/182 108/129/182
f 85/106/183 99/118/183 105/62/183 88/46/183
f 88/46/184 105/62/184 101/123/184 86/109/184
f 106/124/185 92/112/185 98/55/185 109/67/185
f 109/67/186 98/55/186 94/117/186 107/127/186
f 93/115/187 87/111/187 90/110/187 97/116/187
f 97/116/188 90/110/188 86/109/188 94/117/188
f 57/73/189 85/106/189 91/108/189 60/74/189
f 60/79/190 91/108/190 87/111/190 58/76/190
f 92/112/191 65/86/191 67/87/191 95/113/191
f 95/113/192 67/83/192 64/82/192 93/115/192
f 127/25/169 113/1/169 119/4/169 130/26/169
f 130/32/170 119/10/170 115/133/170 128/140/170
f 114/130/171 120/135/171 126/136/171 118/131/171
f 118/134/172 126/138/172 122/137/172 115/133/172
f 121/17/173 134/35/173 140/38/173 125/18/173
f 125/24/174 140/44/174 136/147/174 122/137/174
f 135/144/175 129/143/175 132/141/175 139/145/175
f 139/145/176 132/141/176 128/140/176 136/147/176
f 155/59/177 127/25/177 133/28/177 158/60/177
f 158/60/178 133/34/178 129/143/178 156/157/178
f 134/35/179 162/66/179 168/69/179 137/36/179
f 137/42/180 168/69/180 164/163/180 135/144/180
f 163/161/181 157/159/181 160/158/181 167/162/181
f 167/162/182 160/158/182 156/157/182 164/163/182
f 141/45/183 155/59/183 161/62/183 144/46/183
f 144/46/184 161/62/184 157/159/184 142/149/184
f 162/66/185 148/52/185 154/55/185 165/67/185
f 165/67/186 154/55/186 150/155/186 163/161/186
f 149/153/187 143/151/187 146/150/187 153/154/187
f 153/154/188 146/150/188 142/149/188 150/155/188
f 113/1/189 141/45/189 147/48/189 116/2/189
f 116/8/190 147/48/190 143/151/190 114/130/190
f 148/52/191 121/17/191 123/20/191 151/53/191
f 151/53/192 123/14/192 120/135/192 149/153/192
f 183/25/169 169/1/169 175/4/169 186/26/169
f 186/32/170 175/10/170 171/9/170 184/29/170
f 170/5/171 176/13/171 182/16/171 174/6/171
f 174/12/172 182/22/172 178/21/172 171/9/172
f 177/17/173 190/35/173 196/38/173 181/18/173
f 181/24/174 196/44/174 192/43/174 178/21/174
f 191/39/175 185/33/175 188/30/175 195/40/175
f 195/40/176 188/30/176 184/29/176 192/43/176
f 211/59/177 183/25/177 189/164/177 214/60/177
f 214/60/178 189/166/178 185/33/178 212/63/178
f 190/35/179 218/66/179 224/169/179 193/36/179
f 193/42/180 224/169/180 220/72/180 191/39/180
f 219/70/181 213/65/181 216/64/181 223/71/181
f 223/71/182 216/64/182 212/63/182 220/72/182
f 197/45/183 211/59/183 217/62/183 200/46/183
f 200/46/184 217/62/184 213/65/184 198/49/184
f 218/66/185 204/52/185 210/55/185 221/67/185
f 221/67/186 210/55/186 206/58/186 219/70/186
f 205/56/187 199/51/187 202/50/187 209/57/187
f 209/57/188 202/50/188 198/49/188 206/58/188
f 169/1/189 197/45/189 203/167/189 172/2/189
f 172/8/190 203/167/190 199/51/190 170/5/190
f 204/52/191 177/17/191 179/20/191 207/53/191
f 207/53/192 179/14/192 176/13/192 205/56/192
f 239/91/169 225/73/169 231/4/169 242/26/169
f 242/32/170 231/10/170 227/80/170 240/93/170
f 226/76/171 232/82/171 238/85/171 230/77/171
f 230/81/172 238/89/172 234/88/172 227/80/172
f 233/86/173 246/98/173 252/38/173 237/18/173
f 237/24/174 252/44/174 248/105/174 234/88/174
f 247/101/175 241/96/175 244/94/175 251/102/175
f 251/102/176 244/94/176 240/93/176 248/105/176
f 267/118/177 239/91/177 245/92/177 270/119/177
f 270/119/178 245/97/178 241/96/178 268/121/178
f 246/98/179 274/124/179 280/126/179 249/99/179
f 249/104/180 280/126/180 276/129/180 247/101/180
f 275/127/181 269/123/181 272/122/181 279/128/181
f 279/128/182 272/122/182 268/121/182 276/129/182
f 253/106/183 267/118/183 273/62/183 256/46/183
f 256/46/184 273/62/184 269/123/184 254/109/184
f 274/124/185 260/112/185 266/55/185 277/67/185
f 277/67/186 266/55/186 262/117/186 275/127/186
f 261/115/187 255/111/187 258/110/187 265/116/187
f 265/116/188 258/110/188 254/109/188 262/117/188
f 225/73/189 253/106/189 259/108/189 228/74/189
f 228/79/190 259/108/190 255/111/190 226/76/190
f 260/112/191 233/86/191 235/87/191 263/113/191
f 263/113/192 235/83/192 232/82/192 261/115/192
f 295/25/169 281/1/169 287/4/169 298/26/169
f 298/32/170 287/10/170 283/133/170 296/140/170
f 282/130/171 288/135/171 294/136/171 286/131/171
f 286/134/172 294/138/172 290/137/172 283/133/172
f 289/17/173 302/35/173 308/38/173 293/18/173
f 293/24/174 308/44/174 304/147/174 290/137/174
f 303/144/175 297/143/175 300/141/175 307/145/175
f 307/145/176 300/141/176 296/140/176 304/147/176
f 323/59/177 295/25/177 301/164/177 326/60/177
f 326/60/178 301/166/178 297/143/178 324/157/178
f 302/35/179 330/66/179 336/169/179 305/36/179
f 305/42/180 336/169/180 332/163/180 303/144/180
f 331/161/181 325/159/181 328/158/181 335/162/181
f 335/162/182 328/158/182 324/157/182 332/163/182
f 309/45/183 323/59/183 329/62/183 312/46/183
f 312/46/184 329/62/184 325/159/184 310/149/184
f 330/66/185 316/52/185 322/55/185 333/67/185
f 333/67/186 322/55/186 318/155/186 331/161/186
f 317/153/187 311/151/187 314/150/187 321/154/187
f 321/154/188 314/150/188 310/149/188 318/155/188
f 281/1/189 309/45/189 315/167/189 284/2/189
f 284/8/190 315/167/190 311/151/190 282/130/190
f 316/52/191 289/17/191 291/20/191 319/53/191
f 319/53/192 291/14/192 288/135/192 317/153/192
f 351/196/193 337/172/193 343/175/193 354/197/193
f 354/203/194 343/181/194 339/180/194 352/200/194
f 338/176/195 344/184/195 350/187/195 342/177/195
f 342/183/196 350/193/196 346/192/196 339/180/196
f 345/188/197 358/206/197 364/209/197 349/189/197
f 349/195/198 364/215/198 360/214/198 346/192/198
f 359/210/199 353/204/199 356/201/199 363/211/199
f 363/211/200 356/201/200 352/200/200 360/214/200
f 379/230/201 351/196/201 357/199/201 382/231/201
f 382/231/202 357/205/202 353/204/202 380/234/202
f 358/206/203 386/237/203 392/240/203 361/207/203
f 361/213/204 392/240/204 388/243/204 359/210/204
f 387/241/205 381/236/205 384/235/205 391/242/205
f 391/242/206 384/235/206 380/234/206 388/243/206
f 365/216/207 379/230/207 385/233/207 368/217/207
f 368/217/208 385/233/208 381/236/208 366/220/208
f 386/237/209 372/223/209 378/226/209 389/238/209
f 389/238/210 378/226/210 374/229/210 387/241/210
f 373/227/211 367/222/211 370/221/211 377/228/211
f 377/228/212 370/221/212 366/220/212 374/229/212
f 337/172/213 365/216/213 371/219/213 340/173/213
f 340/179/214 371/219/214 367/222/214 338/176/214
f 372/223/215 345/188/215 347/191/215 375/224/215
f 375/224/216 347/185/216 344/184/216 373/227/216
f 407/257/217 393/244/217 399/175/217 410/197/217
f 410/203/218 399/181/218 395/249/218 408/200/218
f 394/247/219 400/250/219 406/253/219 398/177/219
f 398/183/220 406/256/220 402/192/220 395/249/220
f 401/254/221 414/263/221 420/209/221 405/189/221
f 405/195/222 420/215/222 416/270/222 402/192/222
f 415/266/223 409/261/223 412/259/223 419/267/223
f 419/267/224 412/259/224 408/200/224 416/270/224
f 435/280/225 407/257/225 413/258/225 438/281/225
f 438/281/226 413/262/226 409/261/226 436/282/226
f 414/263/227 442/285/227 448/240/227 417/264/227
f 417/269/228 448/240/228 444/287/228 415/266/228
f 443/241/229 437/284/229 440/283/229 447/242/229
f 447/242/230 440/283/230 436/282/230 444/287/230
f 421/271/231 435/280/231 441/233/231 424/217/231
f 424/217/232 441/233/232 437/284/232 422/273/232
f 442/285/233 428/275/233 434/226/233 445/238/233
f 445/238/234 434/226/234 430/279/234 443/241/234
f 429/277/235 423/222/235 426/274/235 433/278/235
f 433/278/236 426/274/236 422/273/236 430/279/236
f 393/244/237 421/271/237 427/219/237 396/245/237
f 396/248/238 427/219/238 423/222/238 394/247/238
f 428/275/239 401/254/239 403/255/239 431/224/239
f 431/224/240 403/251/240 400/250/240 429/277/240
f 463/298/241 449/288/241 455/175/241 466/197/241
f 466/203/242 455/181/242 451/293/242 464/200/242
f 450/291/243 456/294/243 462/296/243 454/177/243
f 454/183/244 462/256/244 458/297/244 451/293/244
f 457/188/245 470/206/245 476/209/245 461/189/245
f 461/195/246 476/215/246 472/214/246 458/297/246
f 471/302/247 465/300/247 468/201/247 475/303/247
f 475/303/248 468/201/248 464/200/248 472/214/248
f 491/315/249 463/298/249 469/299/249 494/316/249
f 494/316/250 469/205/250 465/300/250 492/317/250
f 470/206/251 498/320/251 504/240/251 473/301/251
f 473/304/252 504/240/252 500/323/252 471/302/252
f 499/322/253 493/319/253 496/318/253 503/242/253
f 503/242/254 496/318/254 492/317/254 500/323/254
f 477/305/255 491/315/255 497/233/255 480/217/255
f 480/217/256 497/233/256 493/319/256 478/307/256
f 498/320/257 484/310/257 490/226/257 501/238/257
f 501/238/258 490/226/258 486/314/258 499/322/258
f 485/227/259 479/309/259 482/308/259 489/313/259
f 489/313/260 482/308/260 478/307/260 486/314/260
f 449/288/261 477/305/261 483/306/261 452/289/261
f 452/292/262 483/306/262 479/309/262 450/291/262
f 484/310/263 457/188/263 459/255/263 487/311/263
f 487/311/264 459/185/264 456/294/264 485/227/264
f 519/348/169 505/324/169 511/327/169 522/349/169
f 522/355/170 511/333/170 507/332/170 520/352/170
f 506/328/171 512/336/171 518/339/171 510/329/171
f 510/335/172 518/345/172 514/344/172 507/332/172
f 513/340/173 526/358/173 532/361/173 517/341/173
f 517/347/174 532/367/174 528/366/174 514/344/174
f 527/362/175 521/356/175 524/353/175 531/363/175
f 531/363/176 524/353/176 520/352/176 528/366/176
f 547/382/177 519/348/177 525/351/177 550/383/177
f 550/383/178 525/357/178 521/356/178 548/386/178
f 526/358/179 554/389/179 560/392/179 529/359/179
f 529/365/180 560/392/180 556/395/180 527/362/180
f 555/393/181 549/388/181 552/387/181 559/394/181
f 559/394/182 552/387/182 548/386/182 556/395/182
f 533/368/183 547/382/183 553/385/183 536/369/183
f 536/369/184 553/385/184 549/388/184 534/372/184
f 554/389/185 540/375/185 546/378/185 557/390/185
f 557/390/186 546/378/186 542/381/186 555/393/186
f 541/379/187 535/374/187 538/373/187 545/380/187
f 545/380/188 538/373/188 534/372/188 542/381/188
f 505/324/189 533/368/189 539/371/189 508/325/189
f 508/331/190 539/371/190 535/374/190 506/328/190
f 540/375/191 513/340/191 515/343/191 543/376/191
f 543/376/192 515/337/192 512/336/192 541/379/192
f 575/257/265 561/244/265 567/175/265 578/197/265
f 578/203/266 567/181/266 563/398/266 576/404/266
f 562/247/267 568/250/267 574/399/267 566/177/267
f 566/183/268 574/401/268 570/297/268 563/398/268
f 569/400/269 582/406/269 588/209/269 573/189/269
f 573/195/270 588/215/270 584/214/270 570/297/270
f 583/210/271 577/261/271 580/201/271 587/211/271
f 587/211/272 580/201/272 576/404/272 584/214/272
f 603/230/273 575/257/273 581/403/273 606/316/273
f 606/316/274 581/205/274 577/261/274 604/234/274
f 582/406/275 610/413/275 616/415/275 585/264/275
f 585/407/276 616/415/276 612/416/276 583/210/276
f 611/322/277 605/284/277 608/318/277 615/242/277
f 615/242/278 608/318/278 604/234/278 612/416/278
f 589/408/279 603/230/279 609/233/279 592/217/279
f 592/217/280 609/233/280 605/284/280 590/410/280
f 610/413/281 596/310/281 602/226/281 613/238/281
f 613/238/282 602/226/282 598/314/282 611/322/282
f 597/411/283 591/222/283 594/308/283 601/412/283
f 601/412/284 594/308/284 590/410/284 598/314/284
f 561/244/285 589/408/285 595/409/285 564/396/285
f 564/292/286 595/409/286 591/222/286 562/247/286
f 596/310/287 569/400/287 571/191/287 599/311/287
f 599/311/288 571/251/288 568/250/288 597/411/288
f 631/427/289 617/417/289 623/175/289 634/197/289
f 634/203/290 623/181/290 619/180/290 632/200/290
f 618/419/291 624/422/291 630/423/291 622/420/291
f 622/421/292 630/256/292 626/426/292 619/180/292
f 625/424/293 638/263/293 644/209/293 629/189/293
f 629/195/294 644/215/294 640/435/294 626/426/294
f 639/432/295 633/300/295 636/429/295 643/267/295
f 643/267/296 636/429/296 632/200/296 640/435/296
f 659/315/297 631/427/297 637/428/297 662/442/297
f 662/442/298 637/430/298 633/300/298 660/317/298
f 638/263/299 666/443/299 672/445/299 641/431/299
f 641/434/300 672/445/300 668/447/300 639/432/300
f 667/446/301 661/284/301 664/318/301 671/242/301
f 671/242/302 664/318/302 660/317/302 668/447/302
f 645/305/303 659/315/303 665/233/303 648/217/303
f 648/217/304 665/233/304 661/284/304 646/410/304
f 666/443/305 652/275/305 658/226/305 669/238/305
f 669/238/306 658/226/306 654/314/306 667/446/306
f 653/441/307 647/439/307 650/438/307 657/278/307
f 657/278/308 650/438/308 646/410/308 654/314/308
f 617/417/309 645/305/309 651/437/309 620/396/309
f 620/248/310 651/437/310 647/439/310 618/419/310
f 652/275/311 625/424/311 627/425/311 655/440/311
f 655/440/312 627/185/312 624/422/312 653/441/312
f 687/457/313 673/244/313 679/175/313 690/197/313
f 690/203/314 679/181/314 675/451/314 688/458/314
f 674/450/315 680/453/315 686/423/315 678/420/315
f 678/452/316 686/256/316 682/426/316 675/451/316
f 681/454/317 694/406/317 700/209/317 685/189/317
f 685/195/318 700/215/318 696/435/318 682/426/318
f 695/210/319 689/300/319 692/459/319 699/461/319
f 699/461/320 692/459/320 688/458/320 696/435/320
f 715/230/321 687/457/321 693/428/321 718/231/321
f 718/231/322 693/430/322 689/300/322 716/464/322
f 694/406/323 722/413/323 728/240/323 697/431/323
f 697/213/324 728/240/324 724/465/324 695/210/324
f 723/322/325 717/284/325 720/318/325 727/242/325
f 727/242/326 720/318/326 716/464/326 724/465/326
f 701/408/327 715/230/327 721/233/327 704/217/327
f 704/217/328 721/233/328 717/284/328 702/273/328
f 722/413/329 708/275/329 714/226/329 725/238/329
f 725/238/330 714/226/330 710/314/330 723/322/330
f 709/227/331 703/462/331 706/308/331 713/313/331
f 713/313/332 706/308/332 702/273/332 710/314/332
f 673/244/333 701/408/333 707/409/333 676/448/333
f 676/248/334 707/409/334 703/462/334 674/450/334
f 708/275/335 681/454/335 683/455/335 711/463/335
f 711/463/336 683/185/336 680/453/336 709/227/336
f 15/25/337 43/59/337 29/45/337 1/1/337
f 3/9/338 10/21/338 24/43/338 16/29/338
f 31/51/339 37/56/339 8/13/339 2/5/339
f 50/66/340 22/35/340 9/17/340 36/52/340
f 17/33/341 23/39/341 52/72/341 44/63/341
f 45/65/342 51/70/342 38/58/342 30/49/342
f 71/91/337 99/118/337 85/106/337 57/73/337
f 59/80/338 66/88/338 80/105/338 72/93/338
f 87/111/339 93/115/339 64/82/339 58/76/339
f 106/124/340 78/98/340 65/86/340 92/112/340
f 73/96/341 79/101/341 108/129/341 100/121/341
f 101/123/342 107/127/342 94/117/342 86/109/342
f 127/25/337 155/59/337 141/45/337 113/1/337
f 115/133/338 122/137/338 136/147/338 128/140/338
f 143/151/339 149/153/339 120/135/339 114/130/339
f 162/66/340 134/35/340 121/17/340 148/52/340
f 129/143/341 135/144/341 164/163/341 156/157/341
f 157/159/342 163/161/342 150/155/342 142/149/342
f 183/25/337 211/59/337 197/45/337 169/1/337
f 171/9/338 178/21/338 192/43/338 184/29/338
f 199/51/339 205/56/339 176/13/339 170/5/339
f 218/66/340 190/35/340 177/17/340 204/52/340
f 185/33/341 191/39/341 220/72/341 212/63/341
f 213/65/342 219/70/342 206/58/342 198/49/342
f 239/91/337 267/118/337 253/106/337 225/73/337
f 227/80/338 234/88/338 248/105/338 240/93/338
f 255/111/339 261/115/339 232/82/339 226/76/339
f 274/124/340 246/98/340 233/86/340 260/112/340
f 241/96/341 247/101/341 276/129/341 268/121/341
f 269/123/342 275/127/342 262/117/342 254/109/342
f 295/25/337 323/59/337 309/45/337 281/1/337
f 283/133/338 290/137/338 304/147/338 296/140/338
f 311/151/339 317/153/339 288/135/339 282/130/339
f 330/66/340 302/35/340 289/17/340 316/52/340
f 297/143/341 303/144/341 332/163/341 324/157/341
f 325/159/342 331/161/342 318/155/342 310/149/342
f 351/196/343 379/230/343 365/216/343 337/172/343
f 339/180/344 346/192/344 360/214/344 352/200/344
f 367/222/339 373/227/339 344/184/339 338/176/339
f 386/237/345 358/206/345 345/188/345 372/223/345
f 353/204/341 359/210/341 388/243/341 380/234/341
f 381/236/346 387/241/346 374/229/346 366/220/346
f 407/257/347 435/280/347 421/271/347 393/244/347
f 395/249/348 402/192/348 416/270/348 408/200/348
f 423/222/339 429/277/339 400/250/339 394/247/339
f 442/285/349 414/263/349 401/254/349 428/275/349
f 409/261/341 415/266/341 444/287/341 436/282/341
f 437/284/350 443/241/350 430/279/350 422/273/350
f 463/298/351 491/315/351 477/305/351 449/288/351
f 451/293/352 458/297/352 472/214/352 464/200/352
f 479/309/339 485/227/339 456/294/339 450/291/339
f 498/320/353 470/206/353 457/188/353 484/310/353
f 465/300/341 471/302/341 500/323/341 492/317/341
f 493/319/354 499/322/354 486/314/354 478/307/354
f 519/348/337 547/382/337 533/368/337 505/324/337
f 507/332/338 514/344/338 528/366/338 520/352/338
f 535/374/339 541/379/339 512/336/339 506/328/339
f 554/389/340 526/358/340 513/340/340 540/375/340
f 521/356/341 527/362/341 556/395/341 548/386/341
f 549/388/342 555/393/342 542/381/342 534/372/342
f 575/257/355 603/230/355 589/408/355 561/244/355
f 563/398/356 570/297/356 584/214/356 576/404/356
f 591/222/339 597/411/339 568/250/339 562/247/339
f 610/413/357 582/406/357 569/400/357 596/310/357
f 577/261/341 583/210/341 612/416/341 604/234/341
f 605/284/358 611/322/358 598/314/358 590/410/358
f 631/427/359 659/315/359 645/305/359 617/417/359
f 619/180/360 626/426/360 640/435/360 632/200/360
f 647/439/339 653/441/339 624/422/339 618/419/339
f 666/443/361 638/263/361 625/424/361 652/275/361
f 633/300/341 639/432/341 668/447/341 660/317/341
f 661/284/362 667/446/362 654/314/362 646/410/362
f 687/457/363 715/230/363 701/408/363 673/244/363
f 675/451/364 682/426/364 696/435/364 688/458/364
f 703/462/339 709/227/339 680/453/339 674/450/339
f 722/413/365 694/406/365 681/454/365 708/275/365
f 689/300/341 695/210/341 724/465/341 716/464/341
f 717/284/366 723/322/366 710/314/366 702/273/366
