# Blender 5.2.2 LTS
# www.blender.org
o steel
v -0.435000 -0.495000 0.435000
v -0.435000 -0.435000 0.495000
v -0.495000 -0.435000 0.435000
v -0.435000 -0.486984 0.464961
v -0.464961 -0.486984 0.435000
v -0.463693 -0.479198 0.463693
v -0.464961 -0.435000 0.486984
v -0.435000 -0.464961 0.486984
v -0.463693 -0.463693 0.479198
v -0.486984 -0.464961 0.435000
v -0.486984 -0.435000 0.464961
v -0.479198 -0.463693 0.463693
v -0.435000 0.435000 0.495000
v -0.435000 0.495000 0.435000
v -0.495000 0.435000 0.435000
v -0.435000 0.464961 0.486984
v -0.464961 0.435000 0.486984
v -0.463693 0.463693 0.479198
v -0.464961 0.486984 0.435000
v -0.435000 0.486984 0.464961
v -0.463693 0.479198 0.463693
v -0.486984 0.435000 0.464961
v -0.486984 0.464961 0.435000
v -0.479198 0.463693 0.463693
v -0.435000 -0.495000 -0.435000
v -0.495000 -0.435000 -0.435000
v -0.435000 -0.435000 -0.495000
v -0.464961 -0.486984 -0.435000
v -0.435000 -0.486984 -0.464961
v -0.463693 -0.479198 -0.463693
v -0.486984 -0.435000 -0.464961
v -0.486984 -0.464961 -0.435000
v -0.479198 -0.463693 -0.463693
v -0.435000 -0.464961 -0.486984
v -0.464961 -0.435000 -0.486984
v -0.463693 -0.463693 -0.479198
v -0.435000 0.495000 -0.435000
v -0.435000 0.435000 -0.495000
v -0.495000 0.435000 -0.435000
v -0.435000 0.486984 -0.464961
v -0.464961 0.486984 -0.435000
v -0.463693 0.479198 -0.463693
v -0.464961 0.435000 -0.486984
v -0.435000 0.464961 -0.486984
v -0.463693 0.463693 -0.479198
v -0.486984 0.464961 -0.435000
v -0.486984 0.435000 -0.464961
v -0.479198 0.463693 -0.463693
v 0.435000 -0.495000 0.435000
v 0.495000 -0.435000 0.435000
v 0.435000 -0.435000 0.495000
v 0.464961 -0.486984 0.435000
v 0.435000 -0.486984 0.464961
v 0.463693 -0.479198 0.463693
v 0.486984 -0.435000 0.464961
v 0.486984 -0.464961 0.435000
v 0.479198 -0.463693 0.463693
v 0.435000 -0.464961 0.486984
v 0.464961 -0.435000 0.486984
v 0.463693 -0.463693 0.479198
v 0.435000 0.495000 0.435000
v 0.435000 0.435000 0.495000
v 0.495000 0.435000 0.435000
v 0.435000 0.486984 0.464961
v 0.464961 0.486984 0.435000
v 0.463693 0.479198 0.463693
v 0.464961 0.435000 0.486984
v 0.435000 0.464961 0.486984
v 0.463693 0.463693 0.479198
v 0.486984 0.464961 0.435000
v 0.486984 0.435000 0.464961
v 0.479198 0.463693 0.463693
v 0.435000 -0.495000 -0.435000
v 0.435000 -0.435000 -0.495000
v 0.495000 -0.435000 -0.435000
v 0.435000 -0.486984 -0.464961
v 0.464961 -0.486984 -0.435000
v 0.463693 -0.479198 -0.463693
v 0.464961 -0.435000 -0.486984
v 0.435000 -0.464961 -0.486984
v 0.463693 -0.463693 -0.479198
v 0.486984 -0.464961 -0.435000
v 0.486984 -0.435000 -0.464961
v 0.479198 -0.463693 -0.463693
v 0.435000 0.495000 -0.435000
v 0.495000 0.435000 -0.435000
v 0.435000 0.435000 -0.495000
v 0.464961 0.486984 -0.435000
v 0.435000 0.486984 -0.464961
v 0.463693 0.479198 -0.463693
v 0.486984 0.435000 -0.464961
v 0.486984 0.464961 -0.435000
v 0.479198 0.463693 -0.463693
v 0.435000 0.464961 -0.486984
v 0.464961 0.435000 -0.486984
v 0.463693 0.463693 -0.479198
v -0.320000 -0.260000 0.500000
v -0.320000 -0.380000 0.500000
v -0.302366 -0.268038 0.475729
v -0.289458 -0.290000 0.457962
v -0.284733 -0.320000 0.451459
v -0.289458 -0.350000 0.457962
v -0.302366 -0.371962 0.475729
v -0.291468 -0.268038 0.490729
v -0.270582 -0.290000 0.483943
v -0.262937 -0.320000 0.481459
v -0.270582 -0.350000 0.483943
v -0.291468 -0.371962 0.490729
v -0.291468 -0.268038 0.509270
v -0.270582 -0.290000 0.516057
v -0.262937 -0.320000 0.518541
v -0.270582 -0.350000 0.516057
v -0.291468 -0.371962 0.509270
v -0.302366 -0.268038 0.524271
v -0.289458 -0.290000 0.542038
v -0.284733 -0.320000 0.548541
v -0.289458 -0.350000 0.542038
v -0.302366 -0.371962 0.524271
v -0.320000 -0.268038 0.530000
v -0.320000 -0.290000 0.551962
v -0.320000 -0.320000 0.560000
v -0.320000 -0.350000 0.551962
v -0.320000 -0.371962 0.530000
v -0.337634 -0.268038 0.524271
v -0.350542 -0.290000 0.542038
v -0.355267 -0.320000 0.548541
v -0.350542 -0.350000 0.542038
v -0.337634 -0.371962 0.524271
v -0.348532 -0.268038 0.509270
v -0.369418 -0.290000 0.516057
v -0.377063 -0.320000 0.518541
v -0.369418 -0.350000 0.516057
v -0.348532 -0.371962 0.509270
v -0.348532 -0.268038 0.490729
v -0.369418 -0.290000 0.483943
v -0.377063 -0.320000 0.481459
v -0.369418 -0.350000 0.483943
v -0.348532 -0.371962 0.490729
v -0.337634 -0.268038 0.475729
v -0.350542 -0.290000 0.457962
v -0.355267 -0.320000 0.451459
v -0.350542 -0.350000 0.457962
v -0.337634 -0.371962 0.475729
v -0.320000 -0.268038 0.470000
v -0.320000 -0.290000 0.448038
v -0.320000 -0.320000 0.440000
v -0.320000 -0.350000 0.448038
v -0.320000 -0.371962 0.470000
v -0.320000 0.380000 0.500000
v -0.320000 0.260000 0.500000
v -0.302366 0.371962 0.475729
v -0.289458 0.350000 0.457962
v -0.284733 0.320000 0.451459
v -0.289458 0.290000 0.457962
v -0.302366 0.268038 0.475729
v -0.291468 0.371962 0.490729
v -0.270582 0.350000 0.483943
v -0.262937 0.320000 0.481459
v -0.270582 0.290000 0.483943
v -0.291468 0.268038 0.490729
v -0.291468 0.371962 0.509270
v -0.270582 0.350000 0.516057
v -0.262937 0.320000 0.518541
v -0.270582 0.290000 0.516057
v -0.291468 0.268038 0.509270
v -0.302366 0.371962 0.524271
v -0.289458 0.350000 0.542038
v -0.284733 0.320000 0.548541
v -0.289458 0.290000 0.542038
v -0.302366 0.268038 0.524271
v -0.320000 0.371962 0.530000
v -0.320000 0.350000 0.551962
v -0.320000 0.320000 0.560000
v -0.320000 0.290000 0.551962
v -0.320000 0.268038 0.530000
v -0.337634 0.371962 0.524271
v -0.350542 0.350000 0.542038
v -0.355267 0.320000 0.548541
v -0.350542 0.290000 0.542038
v -0.337634 0.268038 0.524271
v -0.348532 0.371962 0.509270
v -0.369418 0.350000 0.516057
v -0.377063 0.320000 0.518541
v -0.369418 0.290000 0.516057
v -0.348532 0.268038 0.509270
v -0.348532 0.371962 0.490729
v -0.369418 0.350000 0.483943
v -0.377063 0.320000 0.481459
v -0.369418 0.290000 0.483943
v -0.348532 0.268038 0.490729
v -0.337634 0.371962 0.475729
v -0.350542 0.350000 0.457962
v -0.355267 0.320000 0.451459
v -0.350542 0.290000 0.457962
v -0.337634 0.268038 0.475729
v -0.320000 0.371962 0.470000
v -0.320000 0.350000 0.448038
v -0.320000 0.320000 0.440000
v -0.320000 0.290000 0.448038
v -0.320000 0.268038 0.470000
v 0.320000 -0.260000 0.500000
v 0.320000 -0.380000 0.500000
v 0.337634 -0.268038 0.475729
v 0.350542 -0.290000 0.457962
v 0.355267 -0.320000 0.451459
v 0.350542 -0.350000 0.457962
v 0.337634 -0.371962 0.475729
v 0.348532 -0.268038 0.490729
v 0.369418 -0.290000 0.483943
v 0.377063 -0.320000 0.481459
v 0.369418 -0.350000 0.483943
v 0.348532 -0.371962 0.490729
v 0.348532 -0.268038 0.509270
v 0.369418 -0.290000 0.516057
v 0.377063 -0.320000 0.518541
v 0.369418 -0.350000 0.516057
v 0.348532 -0.371962 0.509270
v 0.337634 -0.268038 0.524271
v 0.350542 -0.290000 0.542038
v 0.355267 -0.320000 0.548541
v 0.350542 -0.350000 0.542038
v 0.337634 -0.371962 0.524271
v 0.320000 -0.268038 0.530000
v 0.320000 -0.290000 0.551962
v 0.320000 -0.320000 0.560000
v 0.320000 -0.350000 0.551962
v 0.320000 -0.371962 0.530000
v 0.302366 -0.268038 0.524271
v 0.289458 -0.290000 0.542038
v 0.284733 -0.320000 0.548541
v 0.289458 -0.350000 0.542038
v 0.302366 -0.371962 0.524271
v 0.291468 -0.268038 0.509270
v 0.270582 -0.290000 0.516057
v 0.262937 -0.320000 0.518541
v 0.270582 -0.350000 0.516057
v 0.291468 -0.371962 0.509270
v 0.291468 -0.268038 0.490729
v 0.270582 -0.290000 0.483943
v 0.262937 -0.320000 0.481459
v 0.270582 -0.350000 0.483943
v 0.291468 -0.371962 0.490729
v 0.302366 -0.268038 0.475729
v 0.289458 -0.290000 0.457962
v 0.284733 -0.320000 0.451459
v 0.289458 -0.350000 0.457962
v 0.302366 -0.371962 0.475729
v 0.320000 -0.268038 0.470000
v 0.320000 -0.290000 0.448038
v 0.320000 -0.320000 0.440000
v 0.320000 -0.350000 0.448038
v 0.320000 -0.371962 0.470000
v 0.320000 0.380000 0.500000
v 0.320000 0.260000 0.500000
v 0.337634 0.371962 0.475729
v 0.350542 0.350000 0.457962
v 0.355267 0.320000 0.451459
v 0.350542 0.290000 0.457962
v 0.337634 0.268038 0.475729
v 0.348532 0.371962 0.490729
v 0.369418 0.350000 0.483943
v 0.377063 0.320000 0.481459
v 0.369418 0.290000 0.483943
v 0.348532 0.268038 0.490729
v 0.348532 0.371962 0.509270
v 0.369418 0.350000 0.516057
v 0.377063 0.320000 0.518541
v 0.369418 0.290000 0.516057
v 0.348532 0.268038 0.509270
v 0.337634 0.371962 0.524271
v 0.350542 0.350000 0.542038
v 0.355267 0.320000 0.548541
v 0.350542 0.290000 0.542038
v 0.337634 0.268038 0.524271
v 0.320000 0.371962 0.530000
v 0.320000 0.350000 0.551962
v 0.320000 0.320000 0.560000
v 0.320000 0.290000 0.551962
v 0.320000 0.268038 0.530000
v 0.302366 0.371962 0.524271
v 0.289458 0.350000 0.542038
v 0.284733 0.320000 0.548541
v 0.289458 0.290000 0.542038
v 0.302366 0.268038 0.524271
v 0.291468 0.371962 0.509270
v 0.270582 0.350000 0.516057
v 0.262937 0.320000 0.518541
v 0.270582 0.290000 0.516057
v 0.291468 0.268038 0.509270
v 0.291468 0.371962 0.490729
v 0.270582 0.350000 0.483943
v 0.262937 0.320000 0.481459
v 0.270582 0.290000 0.483943
v 0.291468 0.268038 0.490729
v 0.302366 0.371962 0.475729
v 0.289458 0.350000 0.457962
v 0.284733 0.320000 0.451459
v 0.289458 0.290000 0.457962
v 0.302366 0.268038 0.475729
v 0.320000 0.371962 0.470000
v 0.320000 0.350000 0.448038
v 0.320000 0.320000 0.440000
v 0.320000 0.290000 0.448038
v 0.320000 0.268038 0.470000
v -0.230000 -0.230000 0.520000
v -0.230000 0.230000 0.520000
v -0.230000 -0.230000 0.480000
v -0.230000 0.230000 0.480000
v 0.230000 -0.230000 0.520000
v 0.230000 0.230000 0.520000
v 0.230000 -0.230000 0.480000
v 0.230000 0.230000 0.480000
vn -0.2566 -0.9318 0.2566
vn -0.2178 -0.6901 0.6901
vn -0.2566 -0.2566 0.9318
vn -0.6901 -0.2178 0.6901
vn -0.9318 -0.2566 0.2566
vn -0.6901 -0.6901 0.2178
vn -0.5774 -0.5774 0.5774
vn -0.2566 0.2566 0.9318
vn -0.2178 0.6901 0.6901
vn -0.2566 0.9318 0.2566
vn -0.6901 0.6901 0.2178
vn -0.9318 0.2566 0.2566
vn -0.6901 0.2178 0.6901
vn -0.5774 0.5774 0.5774
vn -0.2566 -0.9318 -0.2566
vn -0.6901 -0.6901 -0.2178
vn -0.9318 -0.2566 -0.2566
vn -0.6901 -0.2178 -0.6901
vn -0.2566 -0.2566 -0.9318
vn -0.2178 -0.6901 -0.6901
vn -0.5774 -0.5774 -0.5774
vn -0.2566 0.9318 -0.2566
vn -0.2178 0.6901 -0.6901
vn -0.2566 0.2566 -0.9318
vn -0.6901 0.2178 -0.6901
vn -0.9318 0.2566 -0.2566
vn -0.6901 0.6901 -0.2178
vn -0.5774 0.5774 -0.5774
vn 0.2566 -0.9318 0.2566
vn 0.6901 -0.6901 0.2178
vn 0.9318 -0.2566 0.2566
vn 0.6901 -0.2178 0.6901
vn 0.2566 -0.2566 0.9318
vn 0.2178 -0.6901 0.6901
vn 0.5774 -0.5774 0.5774
vn 0.2566 0.9318 0.2566
vn 0.2178 0.6901 0.6901
vn 0.2566 0.2566 0.9318
vn 0.6901 0.2178 0.6901
vn 0.9318 0.2566 0.2566
vn 0.6901 0.6901 0.2178
vn 0.5774 0.5774 0.5774
vn 0.2566 -0.9318 -0.2566
vn 0.2178 -0.6901 -0.6901
vn 0.2566 -0.2566 -0.9318
vn 0.6901 -0.2178 -0.6901
vn 0.9318 -0.2566 -0.2566
vn 0.6901 -0.6901 -0.2178
vn 0.5774 -0.5774 -0.5774
vn 0.2566 0.9318 -0.2566
vn 0.6901 0.6901 -0.2178
vn 0.9318 0.2566 -0.2566
vn 0.6901 0.2178 -0.6901
vn 0.2566 0.2566 -0.9318
vn 0.2178 0.6901 -0.6901
vn 0.5774 0.5774 -0.5774
vn -0.2585 -0.9660 -0.0000
vn -0.7071 -0.7071 -0.0000
vn -0.9660 -0.2585 -0.0000
vn -0.2585 -0.0000 0.9660
vn -0.7071 -0.0000 0.7071
vn -0.9660 -0.0000 0.2585
vn -0.2585 0.9660 -0.0000
vn -0.7071 0.7071 -0.0000
vn -0.9660 0.2585 -0.0000
vn -0.2585 -0.0000 -0.9660
vn -0.7071 -0.0000 -0.7071
vn -0.9660 -0.0000 -0.2585
vn -0.0000 -0.9660 -0.2585
vn -0.0000 -0.7071 -0.7071
vn -0.0000 -0.2585 -0.9660
vn -0.0000 0.9660 -0.2585
vn -0.0000 0.7071 -0.7071
vn -0.0000 0.2585 -0.9660
vn 0.9660 -0.0000 -0.2585
vn 0.7071 -0.0000 -0.7071
vn 0.2585 -0.0000 -0.9660
vn 0.2585 -0.9660 -0.0000
vn 0.7071 -0.7071 -0.0000
vn 0.9660 -0.2585 -0.0000
vn 0.2585 0.9660 -0.0000
vn 0.7071 0.7071 -0.0000
vn 0.9660 0.2585 -0.0000
vn 0.2585 -0.0000 0.9660
vn 0.7071 -0.0000 0.7071
vn 0.9660 -0.0000 0.2585
vn -0.0000 -0.9660 0.2585
vn -0.0000 -0.7071 0.7071
vn -0.0000 -0.2585 0.9660
vn -0.0000 0.9660 0.2585
vn -0.0000 0.7071 0.7071
vn -0.0000 0.2585 0.9660
vn -0.0000 -1.0000 -0.0000
vn -1.0000 -0.0000 -0.0000
vn -0.0000 -0.0000 1.0000
vn -0.0000 1.0000 -0.0000
vn -0.0000 -0.0000 -1.0000
vn 1.0000 -0.0000 -0.0000
vn 0.2239 -0.6892 -0.6892
vn 0.2994 0.2469 -0.9216
vn 0.0838 0.9625 -0.2579
vn 0.0838 -0.9625 -0.2579
vn 0.2994 -0.2469 -0.9216
vn 0.2239 0.6892 -0.6892
vn 0.5862 -0.6892 -0.4259
vn 0.7840 0.2469 -0.5696
vn 0.2194 0.9625 -0.1594
vn 0.2194 -0.9625 -0.1594
vn 0.7840 -0.2469 -0.5696
vn 0.5862 0.6892 -0.4259
vn 0.9690 0.2469 -0.0000
vn 0.2712 0.9625 -0.0000
vn 0.2712 -0.9625 -0.0000
vn 0.9690 -0.2469 -0.0000
vn 0.7246 0.6892 -0.0000
vn 0.7246 -0.6892 -0.0000
vn 0.2194 0.9625 0.1594
vn 0.2194 -0.9625 0.1594
vn 0.7840 -0.2469 0.5696
vn 0.5862 0.6892 0.4259
vn 0.5862 -0.6892 0.4259
vn 0.7840 0.2469 0.5696
vn 0.0838 -0.9625 0.2579
vn 0.2994 -0.2469 0.9216
vn 0.2239 0.6892 0.6892
vn 0.2239 -0.6892 0.6892
vn 0.2994 0.2469 0.9216
vn 0.0838 0.9625 0.2579
vn -0.0838 -0.9625 0.2579
vn -0.2994 -0.2469 0.9216
vn -0.2239 0.6892 0.6892
vn -0.2239 -0.6892 0.6892
vn -0.2994 0.2469 0.9216
vn -0.0838 0.9625 0.2579
vn -0.2194 -0.9625 0.1594
vn -0.7840 -0.2469 0.5696
vn -0.5862 0.6892 0.4259
vn -0.5862 -0.6892 0.4259
vn -0.7840 0.2469 0.5696
vn -0.2194 0.9625 0.1594
vn -0.9690 -0.2469 -0.0000
vn -0.7246 0.6892 -0.0000
vn -0.7246 -0.6892 -0.0000
vn -0.9690 0.2469 -0.0000
vn -0.2712 0.9625 -0.0000
vn -0.2712 -0.9625 -0.0000
vn -0.5862 0.6892 -0.4259
vn -0.5862 -0.6892 -0.4259
vn -0.7840 0.2469 -0.5696
vn -0.2194 0.9625 -0.1594
vn -0.2194 -0.9625 -0.1594
vn -0.7840 -0.2469 -0.5696
vn -0.2239 -0.6892 -0.6892
vn -0.2994 0.2469 -0.9216
vn -0.0838 0.9625 -0.2579
vn -0.0838 -0.9625 -0.2579
vn -0.2994 -0.2469 -0.9216
vn -0.2239 0.6892 -0.6892
vt 0.140152 0.734848
vt 0.140152 0.742414
vt 0.132906 0.742094
vt 0.132586 0.734848
vt 0.140152 0.750000
vt 0.132906 0.750000
vt 0.390152 0.984848
vt 0.390152 1.000000
vt 0.375000 0.992094
vt 0.375000 0.984848
vt 0.390152 0.000000
vt 0.390152 0.007586
vt 0.375000 0.007906
vt 0.375000 0.000000
vt 0.390152 0.015152
vt 0.375000 0.015152
vt 0.125000 0.734848
vt 0.125000 0.742094
vt 0.609848 0.984848
vt 0.617414 0.984848
vt 0.617094 1.000000
vt 0.609848 1.000000
vt 0.625000 0.984848
vt 0.625000 1.000000
vt 0.859848 0.734848
vt 0.875000 0.734848
vt 0.875000 0.742094
vt 0.859848 0.750000
vt 0.625000 0.015152
vt 0.617414 0.015152
vt 0.617094 0.007906
vt 0.625000 0.007906
vt 0.609848 0.015152
vt 0.609848 0.007586
vt 0.609848 0.000000
vt 0.617094 0.000000
vt 0.140152 0.515152
vt 0.132586 0.515152
vt 0.132906 0.507906
vt 0.140152 0.507586
vt 0.125000 0.515152
vt 0.125000 0.507906
vt 0.390152 0.234848
vt 0.390152 0.242414
vt 0.375000 0.242094
vt 0.375000 0.234848
vt 0.390152 0.257586
vt 0.375000 0.257906
vt 0.390152 0.265152
vt 0.375000 0.265152
vt 0.140152 0.500000
vt 0.132906 0.500000
vt 0.859848 0.515152
vt 0.859848 0.500000
vt 0.875000 0.507906
vt 0.875000 0.515152
vt 0.625000 0.265152
vt 0.617414 0.265152
vt 0.617094 0.254932
vt 0.625000 0.244729
vt 0.609848 0.265152
vt 0.609848 0.257586
vt 0.609848 0.242414
vt 0.617094 0.242094
vt 0.609848 0.234848
vt 0.617414 0.234848
vt 0.625000 0.234848
vt 0.359848 0.734848
vt 0.367414 0.734848
vt 0.367094 0.742094
vt 0.359848 0.742414
vt 0.382586 0.734848
vt 0.379932 0.742094
vt 0.390152 0.734848
vt 0.390152 0.742414
vt 0.390152 0.757586
vt 0.371047 0.753953
vt 0.390152 0.765152
vt 0.367424 0.757576
vt 0.640152 0.734848
vt 0.632576 0.757576
vt 0.628953 0.753953
vt 0.632586 0.734848
vt 0.617414 0.765152
vt 0.617094 0.757906
vt 0.609848 0.765152
vt 0.609848 0.757586
vt 0.609848 0.742414
vt 0.617094 0.745068
vt 0.609848 0.734848
vt 0.617414 0.734848
vt 0.359848 0.515152
vt 0.359848 0.507586
vt 0.367094 0.507906
vt 0.367414 0.515152
vt 0.367424 0.492424
vt 0.371047 0.496047
vt 0.390152 0.484848
vt 0.390152 0.492414
vt 0.390152 0.507586
vt 0.379932 0.507906
vt 0.390152 0.515152
vt 0.382586 0.515152
vt 0.640152 0.515152
vt 0.632586 0.515152
vt 0.628953 0.496047
vt 0.632576 0.492424
vt 0.617414 0.515152
vt 0.617094 0.504932
vt 0.609848 0.515152
vt 0.609848 0.507586
vt 0.609848 0.492414
vt 0.617094 0.492094
vt 0.609848 0.484848
vt 0.617414 0.484848
vt 0.700000 0.166667
vt 0.700000 0.333333
vt 0.600000 0.333333
vt 0.600000 0.166667
vt 0.700000 0.500000
vt 0.700000 0.666667
vt 0.600000 0.666667
vt 0.600000 0.500000
vt 0.700000 0.833333
vt 0.650000 1.000000
vt 0.600000 0.833333
vt 0.650000 0.000000
vt 0.500000 0.333333
vt 0.500000 0.166667
vt 0.500000 0.666667
vt 0.500000 0.500000
vt 0.550000 1.000000
vt 0.500000 0.833333
vt 0.550000 0.000000
vt 0.400000 0.666667
vt 0.400000 0.500000
vt 0.450000 1.000000
vt 0.400000 0.833333
vt 0.450000 0.000000
vt 0.400000 0.166667
vt 0.400000 0.333333
vt 0.350000 1.000000
vt 0.300000 0.833333
vt 0.350000 0.000000
vt 0.300000 0.166667
vt 0.300000 0.500000
vt 0.300000 0.333333
vt 0.300000 0.666667
vt 0.250000 0.000000
vt 0.200000 0.166667
vt 0.200000 0.500000
vt 0.200000 0.333333
vt 0.200000 0.833333
vt 0.200000 0.666667
vt 0.250000 1.000000
vt 0.150000 0.000000
vt 0.100000 0.166667
vt 0.100000 0.500000
vt 0.100000 0.333333
vt 0.100000 0.833333
vt 0.100000 0.666667
vt 0.150000 1.000000
vt 0.050000 0.000000
vt 0.000000 0.166667
vt 0.000000 0.500000
vt 0.000000 0.333333
vt 0.000000 0.833333
vt 0.000000 0.666667
vt 0.050000 1.000000
vt 1.000000 0.333333
vt 1.000000 0.500000
vt 0.900000 0.500000
vt 0.900000 0.333333
vt 1.000000 0.666667
vt 1.000000 0.833333
vt 0.900000 0.833333
vt 0.900000 0.666667
vt 1.000000 0.166667
vt 0.900000 0.166667
vt 0.950000 1.000000
vt 0.950000 0.000000
vt 0.800000 0.833333
vt 0.800000 0.666667
vt 0.800000 0.333333
vt 0.800000 0.166667
vt 0.800000 0.500000
vt 0.850000 1.000000
vt 0.850000 0.000000
vt 0.750000 1.000000
vt 0.750000 0.000000
vt 0.625000 0.000000
vt 0.625000 0.250000
vt 0.375000 0.250000
vt 0.625000 0.500000
vt 0.375000 0.500000
vt 0.625000 0.750000
vt 0.375000 0.750000
vt 0.375000 1.000000
vt 0.125000 0.500000
vt 0.125000 0.750000
vt 0.875000 0.500000
vt 0.875000 0.750000
s 0
f 1/1/1 4/2/1 6/3/1 5/4/1
f 4/2/2 8/5/2 9/6/2 6/3/2
f 2/7/3 7/8/3 9/9/3 8/10/3
f 7/11/4 11/12/4 12/13/4 9/14/4
f 3/15/5 10/16/5 12/13/5 11/12/5
f 10/17/6 5/4/6 6/3/6 12/18/6
f 6/3/7 9/6/7 12/18/7
f 13/19/8 16/20/8 18/21/8 17/22/8
f 16/20/9 20/23/9 21/24/9 18/21/9
f 14/25/10 19/26/10 21/27/10 20/28/10
f 19/29/11 23/30/11 24/31/11 21/32/11
f 15/33/12 22/34/12 24/31/12 23/30/12
f 22/34/13 17/35/13 18/36/13 24/31/13
f 18/36/14 21/32/14 24/31/14
f 25/37/15 28/38/15 30/39/15 29/40/15
f 28/38/16 32/41/16 33/42/16 30/39/16
f 26/43/17 31/44/17 33/45/17 32/46/17
f 31/44/18 35/47/18 36/48/18 33/45/18
f 27/49/19 34/50/19 36/48/19 35/47/19
f 34/51/20 29/40/20 30/39/20 36/52/20
f 30/39/21 33/42/21 36/52/21
f 37/53/22 40/54/22 42/55/22 41/56/22
f 40/57/23 44/58/23 45/59/23 42/60/23
f 38/61/24 43/62/24 45/59/24 44/58/24
f 43/62/25 47/63/25 48/64/25 45/59/25
f 39/65/26 46/66/26 48/64/26 47/63/26
f 46/66/27 41/67/27 42/60/27 48/64/27
f 42/60/28 45/59/28 48/64/28
f 49/68/29 52/69/29 54/70/29 53/71/29
f 52/69/30 56/72/30 57/73/30 54/70/30
f 50/74/31 55/75/31 57/73/31 56/72/31
f 55/75/32 59/76/32 60/77/32 57/73/32
f 51/78/33 58/79/33 60/77/33 59/76/33
f 58/79/34 53/71/34 54/70/34 60/77/34
f 54/70/35 57/73/35 60/77/35
f 61/80/36 64/81/36 66/82/36 65/83/36
f 64/81/37 68/84/37 69/85/37 66/82/37
f 62/86/38 67/87/38 69/85/38 68/84/38
f 67/87/39 71/88/39 72/89/39 69/85/39
f 63/90/40 70/91/40 72/89/40 71/88/40
f 70/91/41 65/83/41 66/82/41 72/89/41
f 66/82/42 69/85/42 72/89/42
f 73/92/43 76/93/43 78/94/43 77/95/43
f 76/93/44 80/96/44 81/97/44 78/94/44
f 74/98/45 79/99/45 81/97/45 80/96/45
f 79/99/46 83/100/46 84/101/46 81/97/46
f 75/102/47 82/103/47 84/101/47 83/100/47
f 82/103/48 77/95/48 78/94/48 84/101/48
f 78/94/49 81/97/49 84/101/49
f 85/104/50 88/105/50 90/106/50 89/107/50
f 88/105/51 92/108/51 93/109/51 90/106/51
f 86/110/52 91/111/52 93/109/52 92/108/52
f 91/111/53 95/112/53 96/113/53 93/109/53
f 87/114/54 94/115/54 96/113/54 95/112/54
f 94/115/55 89/107/55 90/106/55 96/113/55
f 90/106/56 93/109/56 96/113/56
f 25/37/57 1/1/57 5/4/57 28/38/57
f 28/38/58 5/4/58 10/17/58 32/41/58
f 32/46/59 10/16/59 3/15/59 26/43/59
f 2/7/60 13/19/60 17/22/60 7/8/60
f 7/11/61 17/35/61 22/34/61 11/12/61
f 11/12/62 22/34/62 15/33/62 3/15/62
f 14/25/63 37/53/63 41/56/63 19/26/63
f 19/29/64 41/67/64 46/66/64 23/30/64
f 23/30/65 46/66/65 39/65/65 15/33/65
f 38/61/66 27/49/66 35/47/66 43/62/66
f 43/62/67 35/47/67 31/44/67 47/63/67
f 47/63/68 31/44/68 26/43/68 39/65/68
f 73/92/69 25/37/69 29/40/69 76/93/69
f 76/93/70 29/40/70 34/51/70 80/96/70
f 80/96/71 34/50/71 27/49/71 74/98/71
f 37/53/72 85/104/72 89/107/72 40/54/72
f 40/57/73 89/107/73 94/115/73 44/58/73
f 44/58/74 94/115/74 87/114/74 38/61/74
f 86/110/75 75/102/75 83/100/75 91/111/75
f 91/111/76 83/100/76 79/99/76 95/112/76
f 95/112/77 79/99/77 74/98/77 87/114/77
f 49/68/78 73/92/78 77/95/78 52/69/78
f 52/69/79 77/95/79 82/103/79 56/72/79
f 56/72/80 82/103/80 75/102/80 50/74/80
f 85/104/81 61/80/81 65/83/81 88/105/81
f 88/105/82 65/83/82 70/91/82 92/108/82
f 92/108/83 70/91/83 63/90/83 86/110/83
f 62/86/84 51/78/84 59/76/84 67/87/84
f 67/87/85 59/76/85 55/75/85 71/88/85
f 71/88/86 55/75/86 50/74/86 63/90/86
f 1/1/87 49/68/87 53/71/87 4/2/87
f 4/2/88 53/71/88 58/79/88 8/5/88
f 8/10/89 58/79/89 51/78/89 2/7/89
f 61/80/90 14/25/90 20/28/90 64/81/90
f 64/81/91 20/23/91 16/20/91 68/84/91
f 68/84/92 16/20/92 13/19/92 62/86/92
f 25/37/93 73/92/93 49/68/93 1/1/93
f 3/15/94 15/33/94 39/65/94 26/43/94
f 51/78/95 62/86/95 13/19/95 2/7/95
f 85/104/96 37/53/96 14/25/96 61/80/96
f 27/49/97 38/61/97 87/114/97 74/98/97
f 75/102/98 86/110/98 63/90/98 50/74/98
f 148/116/99 147/117/99 102/118/99 103/119/99
f 146/120/100 145/121/100 100/122/100 101/123/100
f 144/124/101 97/125/101 99/126/101
f 98/127/102 148/116/102 103/119/102
f 147/117/103 146/120/103 101/123/103 102/118/103
f 145/121/104 144/124/104 99/126/104 100/122/104
f 103/119/105 102/118/105 107/128/105 108/129/105
f 101/123/106 100/122/106 105/130/106 106/131/106
f 99/126/107 97/132/107 104/133/107
f 98/134/108 103/119/108 108/129/108
f 102/118/109 101/123/109 106/131/109 107/128/109
f 100/122/110 99/126/110 104/133/110 105/130/110
f 106/131/111 105/130/111 110/135/111 111/136/111
f 104/133/112 97/137/112 109/138/112
f 98/139/113 108/129/113 113/140/113
f 107/128/114 106/131/114 111/136/114 112/141/114
f 105/130/115 104/133/115 109/138/115 110/135/115
f 108/129/116 107/128/116 112/141/116 113/140/116
f 109/138/117 97/142/117 114/143/117
f 98/144/118 113/140/118 118/145/118
f 112/141/119 111/136/119 116/146/119 117/147/119
f 110/135/120 109/138/120 114/143/120 115/148/120
f 113/140/121 112/141/121 117/147/121 118/145/121
f 111/136/122 110/135/122 115/148/122 116/146/122
f 98/149/123 118/145/123 123/150/123
f 117/147/124 116/146/124 121/151/124 122/152/124
f 115/148/125 114/143/125 119/153/125 120/154/125
f 118/145/126 117/147/126 122/152/126 123/150/126
f 116/146/127 115/148/127 120/154/127 121/151/127
f 114/143/128 97/155/128 119/153/128
f 98/156/129 123/150/129 128/157/129
f 122/152/130 121/151/130 126/158/130 127/159/130
f 120/154/131 119/153/131 124/160/131 125/161/131
f 123/150/132 122/152/132 127/159/132 128/157/132
f 121/151/133 120/154/133 125/161/133 126/158/133
f 119/153/134 97/162/134 124/160/134
f 98/163/135 128/157/135 133/164/135
f 127/159/136 126/158/136 131/165/136 132/166/136
f 125/161/137 124/160/137 129/167/137 130/168/137
f 128/157/138 127/159/138 132/166/138 133/164/138
f 126/158/139 125/161/139 130/168/139 131/165/139
f 124/160/140 97/169/140 129/167/140
f 132/170/141 131/171/141 136/172/141 137/173/141
f 130/174/142 129/175/142 134/176/142 135/177/142
f 133/178/143 132/170/143 137/173/143 138/179/143
f 131/171/144 130/174/144 135/177/144 136/172/144
f 129/175/145 97/180/145 134/176/145
f 98/181/146 133/178/146 138/179/146
f 135/177/147 134/176/147 139/182/147 140/183/147
f 138/179/148 137/173/148 142/184/148 143/185/148
f 136/172/149 135/177/149 140/183/149 141/186/149
f 134/176/150 97/187/150 139/182/150
f 98/188/151 138/179/151 143/185/151
f 137/173/152 136/172/152 141/186/152 142/184/152
f 143/185/153 142/184/153 147/117/153 148/116/153
f 141/186/154 140/183/154 145/121/154 146/120/154
f 139/182/155 97/189/155 144/124/155
f 98/190/156 143/185/156 148/116/156
f 142/184/157 141/186/157 146/120/157 147/117/157
f 140/183/158 139/182/158 144/124/158 145/121/158
f 196/124/101 149/125/101 151/126/101
f 150/127/102 200/116/102 155/119/102
f 199/117/103 198/120/103 153/123/103 154/118/103
f 197/121/104 196/124/104 151/126/104 152/122/104
f 200/116/99 199/117/99 154/118/99 155/119/99
f 198/120/100 197/121/100 152/122/100 153/123/100
f 150/134/108 155/119/108 160/129/108
f 154/118/109 153/123/109 158/131/109 159/128/109
f 152/122/110 151/126/110 156/133/110 157/130/110
f 155/119/105 154/118/105 159/128/105 160/129/105
f 153/123/106 152/122/106 157/130/106 158/131/106
f 151/126/107 149/132/107 156/133/107
f 159/128/114 158/131/114 163/136/114 164/141/114
f 157/130/115 156/133/115 161/138/115 162/135/115
f 160/129/116 159/128/116 164/141/116 165/140/116
f 158/131/111 157/130/111 162/135/111 163/136/111
f 156/133/112 149/137/112 161/138/112
f 150/139/113 160/129/113 165/140/113
f 162/135/120 161/138/120 166/143/120 167/148/120
f 165/140/121 164/141/121 169/147/121 170/145/121
f 163/136/122 162/135/122 167/148/122 168/146/122
f 161/138/117 149/142/117 166/143/117
f 150/144/118 165/140/118 170/145/118
f 164/141/119 163/136/119 168/146/119 169/147/119
f 170/145/126 169/147/126 174/152/126 175/150/126
f 168/146/127 167/148/127 172/154/127 173/151/127
f 166/143/128 149/155/128 171/153/128
f 150/149/123 170/145/123 175/150/123
f 169/147/124 168/146/124 173/151/124 174/152/124
f 167/148/125 166/143/125 171/153/125 172/154/125
f 175/150/132 174/152/132 179/159/132 180/157/132
f 173/151/133 172/154/133 177/161/133 178/158/133
f 171/153/134 149/162/134 176/160/134
f 150/156/129 175/150/129 180/157/129
f 174/152/130 173/151/130 178/158/130 179/159/130
f 172/154/131 171/153/131 176/160/131 177/161/131
f 180/157/138 179/159/138 184/166/138 185/164/138
f 178/158/139 177/161/139 182/168/139 183/165/139
f 176/160/140 149/169/140 181/167/140
f 150/163/135 180/157/135 185/164/135
f 179/159/136 178/158/136 183/165/136 184/166/136
f 177/161/137 176/160/137 181/167/137 182/168/137
f 185/178/143 184/170/143 189/173/143 190/179/143
f 183/171/144 182/174/144 187/177/144 188/172/144
f 181/175/145 149/180/145 186/176/145
f 150/181/146 185/178/146 190/179/146
f 184/170/141 183/171/141 188/172/141 189/173/141
f 182/174/142 181/175/142 186/176/142 187/177/142
f 188/172/149 187/177/149 192/183/149 193/186/149
f 186/176/150 149/187/150 191/182/150
f 150/188/151 190/179/151 195/185/151
f 189/173/152 188/172/152 193/186/152 194/184/152
f 187/177/147 186/176/147 191/182/147 192/183/147
f 190/179/148 189/173/148 194/184/148 195/185/148
f 191/182/155 149/189/155 196/124/155
f 150/190/156 195/185/156 200/116/156
f 194/184/157 193/186/157 198/120/157 199/117/157
f 192/183/158 191/182/158 196/124/158 197/121/158
f 195/185/153 194/184/153 199/117/153 200/116/153
f 193/186/154 192/183/154 197/121/154 198/120/154
f 249/121/104 248/124/104 203/126/104 204/122/104
f 252/116/99 251/117/99 206/118/99 207/119/99
f 250/120/100 249/121/100 204/122/100 205/123/100
f 248/124/101 201/125/101 203/126/101
f 202/127/102 252/116/102 207/119/102
f 251/117/103 250/120/103 205/123/103 206/118/103
f 207/119/105 206/118/105 211/128/105 212/129/105
f 205/123/106 204/122/106 209/130/106 210/131/106
f 203/126/107 201/132/107 208/133/107
f 202/134/108 207/119/108 212/129/108
f 206/118/109 205/123/109 210/131/109 211/128/109
f 204/122/110 203/126/110 208/133/110 209/130/110
f 212/129/116 211/128/116 216/141/116 217/140/116
f 210/131/111 209/130/111 214/135/111 215/136/111
f 208/133/112 201/137/112 213/138/112
f 202/139/113 212/129/113 217/140/113
f 211/128/114 210/131/114 215/136/114 216/141/114
f 209/130/115 208/133/115 213/138/115 214/135/115
f 215/136/122 214/135/122 219/148/122 220/146/122
f 213/138/117 201/142/117 218/143/117
f 202/144/118 217/140/118 222/145/118
f 216/141/119 215/136/119 220/146/119 221/147/119
f 214/135/120 213/138/120 218/143/120 219/148/120
f 217/140/121 216/141/121 221/147/121 222/145/121
f 218/143/128 201/155/128 223/153/128
f 202/149/123 222/145/123 227/150/123
f 221/147/124 220/146/124 225/151/124 226/152/124
f 219/148/125 218/143/125 223/153/125 224/154/125
f 222/145/126 221/147/126 226/152/126 227/150/126
f 220/146/127 219/148/127 224/154/127 225/151/127
f 202/156/129 227/150/129 232/157/129
f 226/152/130 225/151/130 230/158/130 231/159/130
f 224/154/131 223/153/131 228/160/131 229/161/131
f 227/150/132 226/152/132 231/159/132 232/157/132
f 225/151/133 224/154/133 229/161/133 230/158/133
f 223/153/134 201/162/134 228/160/134
f 202/163/135 232/157/135 237/164/135
f 231/159/136 230/158/136 235/165/136 236/166/136
f 229/161/137 228/160/137 233/167/137 234/168/137
f 232/157/138 231/159/138 236/166/138 237/164/138
f 230/158/139 229/161/139 234/168/139 235/165/139
f 228/160/140 201/169/140 233/167/140
f 202/181/146 237/178/146 242/179/146
f 236/170/141 235/171/141 240/172/141 241/173/141
f 234/174/142 233/175/142 238/176/142 239/177/142
f 237/178/143 236/170/143 241/173/143 242/179/143
f 235/171/144 234/174/144 239/177/144 240/172/144
f 233/175/145 201/180/145 238/176/145
f 241/173/152 240/172/152 245/186/152 246/184/152
f 239/177/147 238/176/147 243/182/147 244/183/147
f 242/179/148 241/173/148 246/184/148 247/185/148
f 240/172/149 239/177/149 244/183/149 245/186/149
f 238/176/150 201/187/150 243/182/150
f 202/188/151 242/179/151 247/185/151
f 244/183/158 243/182/158 248/124/158 249/121/158
f 247/185/153 246/184/153 251/117/153 252/116/153
f 245/186/154 244/183/154 249/121/154 250/120/154
f 243/182/155 201/189/155 248/124/155
f 202/190/156 247/185/156 252/116/156
f 246/184/157 245/186/157 250/120/157 251/117/157
f 304/116/99 303/117/99 258/118/99 259/119/99
f 302/120/100 301/121/100 256/122/100 257/123/100
f 300/124/101 253/125/101 255/126/101
f 254/127/102 304/116/102 259/119/102
f 303/117/103 302/120/103 257/123/103 258/118/103
f 301/121/104 300/124/104 255/126/104 256/122/104
f 255/126/107 253/132/107 260/133/107
f 254/134/108 259/119/108 264/129/108
f 258/118/109 257/123/109 262/131/109 263/128/109
f 256/122/110 255/126/110 260/133/110 261/130/110
f 259/119/105 258/118/105 263/128/105 264/129/105
f 257/123/106 256/122/106 261/130/106 262/131/106
f 254/139/113 264/129/113 269/140/113
f 263/128/114 262/131/114 267/136/114 268/141/114
f 261/130/115 260/133/115 265/138/115 266/135/115
f 264/129/116 263/128/116 268/141/116 269/140/116
f 262/131/111 261/130/111 266/135/111 267/136/111
f 260/133/112 253/137/112 265/138/112
f 254/144/118 269/140/118 274/145/118
f 268/141/119 267/136/119 272/146/119 273/147/119
f 266/135/120 265/138/120 270/143/120 271/148/120
f 269/140/121 268/141/121 273/147/121 274/145/121
f 267/136/122 266/135/122 271/148/122 272/146/122
f 265/138/117 253/142/117 270/143/117
f 254/149/123 274/145/123 279/150/123
f 273/147/124 272/146/124 277/151/124 278/152/124
f 271/148/125 270/143/125 275/153/125 276/154/125
f 274/145/126 273/147/126 278/152/126 279/150/126
f 272/146/127 271/148/127 276/154/127 277/151/127
f 270/143/128 253/155/128 275/153/128
f 278/152/130 277/151/130 282/158/130 283/159/130
f 276/154/131 275/153/131 280/160/131 281/161/131
f 279/150/132 278/152/132 283/159/132 284/157/132
f 277/151/133 276/154/133 281/161/133 282/158/133
f 275/153/134 253/162/134 280/160/134
f 254/156/129 279/150/129 284/157/129
f 281/161/137 280/160/137 285/167/137 286/168/137
f 284/157/138 283/159/138 288/166/138 289/164/138
f 282/158/139 281/161/139 286/168/139 287/165/139
f 280/160/140 253/169/140 285/167/140
f 254/163/135 284/157/135 289/164/135
f 283/159/136 282/158/136 287/165/136 288/166/136
f 289/178/143 288/170/143 293/173/143 294/179/143
f 287/171/144 286/174/144 291/177/144 292/172/144
f 285/175/145 253/180/145 290/176/145
f 254/181/146 289/178/146 294/179/146
f 288/170/141 287/171/141 292/172/141 293/173/141
f 286/174/142 285/175/142 290/176/142 291/177/142
f 294/179/148 293/173/148 298/184/148 299/185/148
f 292/172/149 291/177/149 296/183/149 297/186/149
f 290/176/150 253/187/150 295/182/150
f 254/188/151 294/179/151 299/185/151
f 293/173/152 292/172/152 297/186/152 298/184/152
f 291/177/147 290/176/147 295/182/147 296/183/147
f 299/185/153 298/184/153 303/117/153 304/116/153
f 297/186/154 296/183/154 301/121/154 302/120/154
f 295/182/155 253/189/155 300/124/155
f 254/190/156 299/185/156 304/116/156
f 298/184/157 297/186/157 302/120/157 303/117/157
f 296/183/158 295/182/158 300/124/158 301/121/158
f 305/14/94 306/191/94 308/192/94 307/193/94
f 307/193/97 308/192/97 312/194/97 311/195/97
f 311/195/98 312/194/98 310/196/98 309/197/98
f 309/197/95 310/196/95 306/24/95 305/198/95
f 307/199/93 311/195/93 309/197/93 305/200/93
f 312/194/96 308/201/96 306/202/96 310/196/96
