# Blender 5.2.2 LTS
# www.blender.org
o cannonball
v 0.000000 0.350000 0.000000
v 0.000000 0.341225 -0.077882
v 0.000000 0.218221 -0.273641
v 0.000000 0.077882 -0.341225
v 0.000000 0.000000 -0.350000
v 0.000000 -0.218221 -0.273641
v 0.000000 -0.341225 -0.077882
v 0.000000 -0.350000 0.000000
v 0.020157 0.341225 -0.075229
v 0.039304 0.315339 -0.146685
v 0.056480 0.273641 -0.210786
v 0.070823 0.218221 -0.264317
v 0.081616 0.151859 -0.304594
v 0.088315 0.077882 -0.329598
v 0.090587 0.000000 -0.338074
v 0.088315 -0.077882 -0.329598
v 0.081616 -0.151859 -0.304594
v 0.070823 -0.218221 -0.264317
v 0.056480 -0.273641 -0.210786
v 0.039304 -0.315339 -0.146685
v 0.020157 -0.341225 -0.075229
v 0.038941 0.341225 -0.067448
v 0.075930 0.315339 -0.131514
v 0.109111 0.273641 -0.188985
v 0.136820 0.218221 -0.236980
v 0.157670 0.151859 -0.273092
v 0.170612 0.077882 -0.295509
v 0.175000 0.000000 -0.303109
v 0.170612 -0.077882 -0.295509
v 0.157670 -0.151859 -0.273092
v 0.136820 -0.218221 -0.236980
v 0.109111 -0.273641 -0.188985
v 0.075930 -0.315339 -0.131514
v 0.038941 -0.341225 -0.067448
v 0.055071 0.341225 -0.055071
v 0.107381 0.315339 -0.107381
v 0.154306 0.273641 -0.154306
v 0.193493 0.218221 -0.193493
v 0.222978 0.151859 -0.222978
v 0.241282 0.077882 -0.241282
v 0.247487 0.000000 -0.247487
v 0.241282 -0.077882 -0.241282
v 0.222978 -0.151859 -0.222978
v 0.193493 -0.218221 -0.193493
v 0.154306 -0.273641 -0.154306
v 0.107381 -0.315339 -0.107381
v 0.055071 -0.341225 -0.055071
v 0.067448 0.341225 -0.038941
v 0.131514 0.315339 -0.075930
v 0.188985 0.273641 -0.109111
v 0.236980 0.218221 -0.136820
v 0.273092 0.151859 -0.157670
v 0.295509 0.077882 -0.170612
v 0.303109 0.000000 -0.175000
v 0.295509 -0.077882 -0.170612
v 0.273092 -0.151859 -0.157670
v 0.236980 -0.218221 -0.136820
v 0.188985 -0.273641 -0.109111
v 0.131514 -0.315339 -0.075930
v 0.067448 -0.341225 -0.038941
v 0.075229 0.341225 -0.020157
v 0.146685 0.315339 -0.039304
v 0.210786 0.273641 -0.056480
v 0.264317 0.218221 -0.070823
v 0.304594 0.151859 -0.081616
v 0.329598 0.077882 -0.088315
v 0.338074 0.000000 -0.090587
v 0.329598 -0.077882 -0.088315
v 0.304594 -0.151859 -0.081616
v 0.264317 -0.218221 -0.070823
v 0.210786 -0.273641 -0.056480
v 0.146685 -0.315339 -0.039304
v 0.075229 -0.341225 -0.020157
v 0.077882 0.341225 0.000000
v 0.151859 0.315339 -0.000000
v 0.218221 0.273641 -0.000000
v 0.273641 0.218221 0.000000
v 0.315339 0.151859 0.000000
v 0.341225 0.077882 0.000000
v 0.350000 0.000000 -0.000000
v 0.341225 -0.077882 0.000000
v 0.315339 -0.151859 0.000000
v 0.273641 -0.218221 0.000000
v 0.218221 -0.273641 -0.000000
v 0.151859 -0.315339 -0.000000
v 0.077882 -0.341225 0.000000
v 0.075229 0.341225 0.020157
v 0.146685 0.315339 0.039304
v 0.210786 0.273641 0.056480
v 0.264317 0.218221 0.070824
v 0.304594 0.151859 0.081616
v 0.329598 0.077882 0.088315
v 0.338074 0.000000 0.090587
v 0.329598 -0.077882 0.088315
v 0.304594 -0.151859 0.081616
v 0.264317 -0.218221 0.070824
v 0.210786 -0.273641 0.056480
v 0.146685 -0.315339 0.039304
v 0.075229 -0.341225 0.020157
v 0.067448 0.341225 0.038941
v 0.131514 0.315339 0.075930
v 0.188985 0.273641 0.109111
v 0.236980 0.218221 0.136820
v 0.273092 0.151859 0.157670
v 0.295509 0.077882 0.170612
v 0.303109 0.000000 0.175000
v 0.295509 -0.077882 0.170612
v 0.273092 -0.151859 0.157670
v 0.236980 -0.218221 0.136820
v 0.188985 -0.273641 0.109111
v 0.131514 -0.315339 0.075930
v 0.067448 -0.341225 0.038941
v 0.055071 0.341225 0.055071
v 0.107381 0.315339 0.107381
v 0.154306 0.273641 0.154306
v 0.193493 0.218221 0.193493
v 0.222978 0.151859 0.222978
v 0.241282 0.077882 0.241282
v 0.247487 0.000000 0.247487
v 0.241282 -0.077882 0.241282
v 0.222978 -0.151859 0.222978
v 0.193493 -0.218221 0.193493
v 0.154306 -0.273641 0.154306
v 0.107381 -0.315339 0.107381
v 0.055071 -0.341225 0.055071
v 0.038941 0.341225 0.067448
v 0.075930 0.315339 0.131514
v 0.109111 0.273641 0.188985
v 0.136820 0.218221 0.236980
v 0.157669 0.151859 0.273092
v 0.170612 0.077882 0.295509
v 0.175000 0.000000 0.303109
v 0.170612 -0.077882 0.295509
v 0.157669 -0.151859 0.273092
v 0.136820 -0.218221 0.236980
v 0.109111 -0.273641 0.188985
v 0.075930 -0.315339 0.131514
v 0.038941 -0.341225 0.067448
v 0.020157 0.341225 0.075229
v 0.039304 0.315339 0.146685
v 0.056480 0.273641 0.210786
v 0.070823 0.218221 0.264317
v 0.081616 0.151859 0.304594
v 0.088315 0.077882 0.329598
v 0.090587 0.000000 0.338074
v 0.088315 -0.077882 0.329598
v 0.081616 -0.151859 0.304594
v 0.070823 -0.218221 0.264317
v 0.056480 -0.273641 0.210786
v 0.039304 -0.315339 0.146685
v 0.020157 -0.341225 0.075229
v -0.000000 0.341225 0.077882
v 0.000000 0.315339 0.151859
v 0.000000 0.273641 0.218221
v -0.000000 0.218221 0.273641
v -0.000000 0.151859 0.315339
v -0.000000 0.077882 0.341225
v 0.000000 0.000000 0.350000
v -0.000000 -0.077882 0.341225
v -0.000000 -0.151859 0.315339
v -0.000000 -0.218221 0.273641
v 0.000000 -0.273641 0.218221
v 0.000000 -0.315339 0.151859
v -0.000000 -0.341225 0.077882
v -0.020157 0.341225 0.075229
v -0.039304 0.315339 0.146685
v -0.056480 0.273641 0.210786
v -0.070823 0.218221 0.264317
v -0.081616 0.151859 0.304594
v -0.088315 0.077882 0.329598
v -0.090587 0.000000 0.338074
v -0.088315 -0.077882 0.329598
v -0.081616 -0.151859 0.304594
v -0.070823 -0.218221 0.264317
v -0.056480 -0.273641 0.210786
v -0.039304 -0.315339 0.146685
v -0.020157 -0.341225 0.075229
v -0.038941 0.341225 0.067448
v -0.075930 0.315339 0.131514
v -0.109111 0.273641 0.188985
v -0.136820 0.218221 0.236980
v -0.157670 0.151859 0.273092
v -0.170612 0.077882 0.295509
v -0.175000 0.000000 0.303109
v -0.170612 -0.077882 0.295509
v -0.157670 -0.151859 0.273092
v -0.136820 -0.218221 0.236980
v -0.109111 -0.273641 0.188985
v -0.075930 -0.315339 0.131514
v -0.038941 -0.341225 0.067448
v -0.055071 0.341225 0.055071
v -0.107381 0.315339 0.107381
v -0.154306 0.273641 0.154306
v -0.193493 0.218221 0.193493
v -0.222978 0.151859 0.222978
v -0.241282 0.077882 0.241282
v -0.247487 0.000000 0.247487
v -0.241282 -0.077882 0.241282
v -0.222978 -0.151859 0.222978
v -0.193493 -0.218221 0.193493
v -0.154306 -0.273641 0.154306
v -0.107381 -0.315339 0.107381
v -0.055071 -0.341225 0.055071
v -0.067448 0.341225 0.038941
v -0.131514 0.315339 0.075930
v -0.188985 0.273641 0.109111
v -0.236980 0.218221 0.136820
v -0.273092 0.151859 0.157669
v -0.295509 0.077882 0.170612
v -0.303109 0.000000 0.175000
v -0.295509 -0.077882 0.170612
v -0.273092 -0.151859 0.157669
v -0.236980 -0.218221 0.136820
v -0.188985 -0.273641 0.109111
v -0.131514 -0.315339 0.075930
v -0.067448 -0.341225 0.038941
v -0.075229 0.341225 0.020157
v -0.146685 0.315339 0.039304
v -0.210786 0.273641 0.056480
v -0.264317 0.218221 0.070823
v -0.304594 0.151859 0.081616
v -0.329598 0.077882 0.088315
v -0.338074 0.000000 0.090587
v -0.329598 -0.077882 0.088315
v -0.304594 -0.151859 0.081616
v -0.264317 -0.218221 0.070823
v -0.210786 -0.273641 0.056480
v -0.146685 -0.315339 0.039304
v -0.075229 -0.341225 0.020157
v -0.077882 0.341225 -0.000000
v -0.151859 0.315339 0.000000
v -0.218221 0.273641 0.000000
v -0.273641 0.218221 -0.000000
v -0.315339 0.151859 -0.000000
v -0.341225 0.077882 -0.000000
v -0.350000 0.000000 0.000000
v -0.341225 -0.077882 -0.000000
v -0.315339 -0.151859 -0.000000
v -0.273641 -0.218221 -0.000000
v -0.218221 -0.273641 0.000000
v -0.151859 -0.315339 0.000000
v -0.077882 -0.341225 -0.000000
v -0.075229 0.341225 -0.020157
v -0.146685 0.315339 -0.039304
v -0.210786 0.273641 -0.056480
v -0.264317 0.218221 -0.070823
v -0.304594 0.151859 -0.081616
v -0.329598 0.077882 -0.088315
v -0.338074 0.000000 -0.090587
v -0.329598 -0.077882 -0.088315
v -0.304594 -0.151859 -0.081616
v -0.264317 -0.218221 -0.070823
v -0.210786 -0.273641 -0.056480
v -0.146685 -0.315339 -0.039304
v -0.075229 -0.341225 -0.020157
v -0.067448 0.341225 -0.038941
v -0.131514 0.315339 -0.075930
v -0.188985 0.273641 -0.109111
v -0.236980 0.218221 -0.136820
v -0.273092 0.151859 -0.157670
v -0.295509 0.077882 -0.170612
v -0.303109 0.000000 -0.175000
v -0.295509 -0.077882 -0.170612
v -0.273092 -0.151859 -0.157670
v -0.236980 -0.218221 -0.136820
v -0.188985 -0.273641 -0.109111
v -0.131514 -0.315339 -0.075930
v -0.067448 -0.341225 -0.038941
v -0.055071 0.341225 -0.055071
v -0.107381 0.315339 -0.107381
v -0.154306 0.273641 -0.154306
v -0.193493 0.218221 -0.193493
v -0.222978 0.151859 -0.222978
v -0.241282 0.077882 -0.241282
v -0.247487 0.000000 -0.247487
v -0.241282 -0.077882 -0.241282
v -0.222978 -0.151859 -0.222978
v -0.193493 -0.218221 -0.193493
v -0.154306 -0.273641 -0.154306
v -0.107381 -0.315339 -0.107381
v -0.055071 -0.341225 -0.055071
v -0.038941 0.341225 -0.067448
v -0.075930 0.315339 -0.131514
v -0.109111 0.273641 -0.188985
v -0.136820 0.218221 -0.236980
v -0.157669 0.151859 -0.273092
v -0.170612 0.077882 -0.295509
v -0.175000 0.000000 -0.303109
v -0.170612 -0.077882 -0.295509
v -0.157669 -0.151859 -0.273092
v -0.136820 -0.218221 -0.236980
v -0.109111 -0.273641 -0.188985
v -0.075930 -0.315339 -0.131514
v -0.038941 -0.341225 -0.067448
v -0.020157 0.341225 -0.075229
v -0.039304 0.315339 -0.146685
v -0.056480 0.273641 -0.210786
v -0.070823 0.218221 -0.264317
v -0.081616 0.151859 -0.304594
v -0.088315 0.077882 -0.329598
v -0.090587 0.000000 -0.338074
v -0.088315 -0.077882 -0.329598
v -0.081616 -0.151859 -0.304594
v -0.070823 -0.218221 -0.264317
v -0.056480 -0.273641 -0.210786
v -0.039304 -0.315339 -0.146685
v -0.020157 -0.341225 -0.075229
v -0.000000 0.315339 -0.151859
v -0.000000 0.273641 -0.218221
v 0.000000 0.151859 -0.315339
v 0.000000 -0.077882 -0.341225
v 0.000000 -0.151859 -0.315339
v -0.000000 -0.273641 -0.218221
v -0.000000 -0.315339 -0.151859
v 0.000000 0.300000 -0.080000
v 0.000000 0.420000 -0.080000
v 0.040000 0.300000 -0.069282
v 0.040000 0.420000 -0.069282
v 0.069282 0.300000 -0.040000
v 0.069282 0.420000 -0.040000
v 0.080000 0.300000 0.000000
v 0.080000 0.420000 0.000000
v 0.069282 0.300000 0.040000
v 0.069282 0.420000 0.040000
v 0.040000 0.300000 0.069282
v 0.040000 0.420000 0.069282
v 0.000000 0.300000 0.080000
v 0.000000 0.420000 0.080000
v -0.040000 0.300000 0.069282
v -0.040000 0.420000 0.069282
v -0.069282 0.300000 0.040000
v -0.069282 0.420000 0.040000
v -0.080000 0.300000 0.000000
v -0.080000 0.420000 0.000000
v -0.069282 0.300000 -0.040000
v -0.069282 0.420000 -0.040000
v -0.040000 0.300000 -0.069282
v -0.040000 0.420000 -0.069282
vn -0.0000 1.0000 -0.0000
vn -0.0000 0.9729 -0.2313
vn -0.0000 0.6190 -0.7854
vn -0.0000 0.2205 -0.9754
vn -0.0000 -0.0000 -1.0000
vn -0.0000 -0.6190 -0.7854
vn -0.0000 -0.9729 -0.2313
vn -0.0000 -1.0000 -0.0000
vn 0.0599 0.9729 -0.2235
vn 0.1142 0.8973 -0.4264
vn 0.1628 0.7773 -0.6077
vn 0.2033 0.6190 -0.7586
vn 0.2336 0.4303 -0.8719
vn 0.2524 0.2205 -0.9421
vn 0.2588 -0.0000 -0.9659
vn 0.2524 -0.2205 -0.9421
vn 0.2336 -0.4303 -0.8719
vn 0.2033 -0.6190 -0.7586
vn 0.1628 -0.7773 -0.6077
vn 0.1142 -0.8973 -0.4264
vn 0.0599 -0.9729 -0.2235
vn 0.1157 0.9729 -0.2004
vn 0.2207 0.8973 -0.3823
vn 0.3146 0.7773 -0.5448
vn 0.3927 0.6190 -0.6802
vn 0.4513 0.4303 -0.7818
vn 0.4877 0.2205 -0.8447
vn 0.5000 -0.0000 -0.8660
vn 0.4877 -0.2205 -0.8447
vn 0.4513 -0.4303 -0.7818
vn 0.3927 -0.6190 -0.6802
vn 0.3146 -0.7773 -0.5448
vn 0.2207 -0.8973 -0.3823
vn 0.1157 -0.9729 -0.2004
vn 0.1636 0.9729 -0.1636
vn 0.3121 0.8973 -0.3121
vn 0.4449 0.7773 -0.4449
vn 0.5554 0.6190 -0.5554
vn 0.6383 0.4303 -0.6383
vn 0.6897 0.2205 -0.6897
vn 0.7071 -0.0000 -0.7071
vn 0.6897 -0.2205 -0.6897
vn 0.6383 -0.4303 -0.6383
vn 0.5554 -0.6190 -0.5554
vn 0.4449 -0.7773 -0.4449
vn 0.3121 -0.8973 -0.3121
vn 0.1636 -0.9729 -0.1636
vn 0.2004 0.9729 -0.1157
vn 0.3823 0.8973 -0.2207
vn 0.5448 0.7773 -0.3146
vn 0.6802 0.6190 -0.3927
vn 0.7818 0.4303 -0.4513
vn 0.8447 0.2205 -0.4877
vn 0.8660 -0.0000 -0.5000
vn 0.8447 -0.2205 -0.4877
vn 0.7818 -0.4303 -0.4513
vn 0.6802 -0.6190 -0.3927
vn 0.5448 -0.7773 -0.3146
vn 0.3823 -0.8973 -0.2207
vn 0.2004 -0.9729 -0.1157
vn 0.2235 0.9729 -0.0599
vn 0.4264 0.8973 -0.1142
vn 0.6077 0.7773 -0.1628
vn 0.7586 0.6190 -0.2033
vn 0.8719 0.4303 -0.2336
vn 0.9421 0.2205 -0.2524
vn 0.9659 -0.0000 -0.2588
vn 0.9421 -0.2205 -0.2524
vn 0.8719 -0.4303 -0.2336
vn 0.7586 -0.6190 -0.2033
vn 0.6077 -0.7773 -0.1628
vn 0.4264 -0.8973 -0.1142
vn 0.2235 -0.9729 -0.0599
vn 0.2313 0.9729 -0.0000
vn 0.4414 0.8973 -0.0000
vn 0.6291 0.7773 -0.0000
vn 0.7854 0.6190 -0.0000
vn 0.9027 0.4303 -0.0000
vn 0.9754 0.2205 -0.0000
vn 1.0000 -0.0000 -0.0000
vn 0.9754 -0.2205 -0.0000
vn 0.9027 -0.4303 -0.0000
vn 0.7854 -0.6190 -0.0000
vn 0.6291 -0.7773 -0.0000
vn 0.4414 -0.8973 -0.0000
vn 0.2313 -0.9729 -0.0000
vn 0.2235 0.9729 0.0599
vn 0.4264 0.8973 0.1142
vn 0.6077 0.7773 0.1628
vn 0.7586 0.6190 0.2033
vn 0.8719 0.4303 0.2336
vn 0.9421 0.2205 0.2524
vn 0.9659 -0.0000 0.2588
vn 0.9421 -0.2205 0.2524
vn 0.8719 -0.4303 0.2336
vn 0.7586 -0.6190 0.2033
vn 0.6077 -0.7773 0.1628
vn 0.4264 -0.8973 0.1142
vn 0.2235 -0.9729 0.0599
vn 0.2004 0.9729 0.1157
vn 0.3823 0.8973 0.2207
vn 0.5448 0.7773 0.3146
vn 0.6802 0.6190 0.3927
vn 0.7818 0.4303 0.4513
vn 0.8447 0.2205 0.4877
vn 0.8660 -0.0000 0.5000
vn 0.8447 -0.2205 0.4877
vn 0.7818 -0.4303 0.4513
vn 0.6802 -0.6190 0.3927
vn 0.5448 -0.7773 0.3146
vn 0.3823 -0.8973 0.2207
vn 0.2004 -0.9729 0.1157
vn 0.1636 0.9729 0.1636
vn 0.3121 0.8973 0.3121
vn 0.4449 0.7773 0.4449
vn 0.5554 0.6190 0.5554
vn 0.6383 0.4303 0.6383
vn 0.6897 0.2205 0.6897
vn 0.7071 -0.0000 0.7071
vn 0.6897 -0.2205 0.6897
vn 0.6383 -0.4303 0.6383
vn 0.5554 -0.6190 0.5554
vn 0.4449 -0.7773 0.4449
vn 0.3121 -0.8973 0.3121
vn 0.1636 -0.9729 0.1636
vn 0.1157 0.9729 0.2004
vn 0.2207 0.8973 0.3823
vn 0.3146 0.7773 0.5448
vn 0.3927 0.6190 0.6802
vn 0.4513 0.4303 0.7818
vn 0.4877 0.2205 0.8447
vn 0.5000 -0.0000 0.8660
vn 0.4877 -0.2205 0.8447
vn 0.4513 -0.4303 0.7818
vn 0.3927 -0.6190 0.6802
vn 0.3146 -0.7773 0.5448
vn 0.2207 -0.8973 0.3823
vn 0.1157 -0.9729 0.2004
vn 0.0599 0.9729 0.2235
vn 0.1142 0.8973 0.4264
vn 0.1628 0.7773 0.6077
vn 0.2033 0.6190 0.7586
vn 0.2336 0.4303 0.8719
vn 0.2524 0.2205 0.9421
vn 0.2588 -0.0000 0.9659
vn 0.2524 -0.2205 0.9421
vn 0.2336 -0.4303 0.8719
vn 0.2033 -0.6190 0.7586
vn 0.1628 -0.7773 0.6077
vn 0.1142 -0.8973 0.4264
vn 0.0599 -0.9729 0.2235
vn -0.0000 0.9729 0.2313
vn -0.0000 0.8973 0.4414
vn -0.0000 0.7773 0.6291
vn -0.0000 0.6190 0.7854
vn -0.0000 0.4303 0.9027
vn -0.0000 0.2205 0.9754
vn -0.0000 -0.0000 1.0000
vn -0.0000 -0.2205 0.9754
vn -0.0000 -0.4303 0.9027
vn -0.0000 -0.6190 0.7854
vn -0.0000 -0.7773 0.6291
vn -0.0000 -0.8973 0.4414
vn -0.0000 -0.9729 0.2313
vn -0.0599 0.9729 0.2235
vn -0.1142 0.8973 0.4264
vn -0.1628 0.7773 0.6077
vn -0.2033 0.6190 0.7586
vn -0.2336 0.4303 0.8719
vn -0.2524 0.2205 0.9421
vn -0.2588 -0.0000 0.9659
vn -0.2524 -0.2205 0.9421
vn -0.2336 -0.4303 0.8719
vn -0.2033 -0.6190 0.7586
vn -0.1628 -0.7773 0.6077
vn -0.1142 -0.8973 0.4264
vn -0.0599 -0.9729 0.2235
vn -0.1157 0.9729 0.2004
vn -0.2207 0.8973 0.3823
vn -0.3146 0.7773 0.5448
vn -0.3927 0.6190 0.6802
vn -0.4513 0.4303 0.7818
vn -0.4877 0.2205 0.8447
vn -0.5000 -0.0000 0.8660
vn -0.4877 -0.2205 0.8447
vn -0.4513 -0.4303 0.7818
vn -0.3927 -0.6190 0.6802
vn -0.3146 -0.7773 0.5448
vn -0.2207 -0.8973 0.3823
vn -0.1157 -0.9729 0.2004
vn -0.1636 0.9729 0.1636
vn -0.3121 0.8973 0.3121
vn -0.4449 0.7773 0.4449
vn -0.5554 0.6190 0.5554
vn -0.6383 0.4303 0.6383
vn -0.6897 0.2205 0.6897
vn -0.7071 -0.0000 0.7071
vn -0.6897 -0.2205 0.6897
vn -0.6383 -0.4303 0.6383
vn -0.5554 -0.6190 0.5554
vn -0.4449 -0.7773 0.4449
vn -0.3121 -0.8973 0.3121
vn -0.1636 -0.9729 0.1636
vn -0.2004 0.9729 0.1157
vn -0.3823 0.8973 0.2207
vn -0.5448 0.7773 0.3146
vn -0.6802 0.6190 0.3927
vn -0.7818 0.4303 0.4513
vn -0.8447 0.2205 0.4877
vn -0.8660 -0.0000 0.5000
vn -0.8447 -0.2205 0.4877
vn -0.7818 -0.4303 0.4513
vn -0.6802 -0.6190 0.3927
vn -0.5448 -0.7773 0.3146
vn -0.3823 -0.8973 0.2207
vn -0.2004 -0.9729 0.1157
vn -0.2235 0.9729 0.0599
vn -0.4264 0.8973 0.1142
vn -0.6077 0.7773 0.1628
vn -0.7586 0.6190 0.2033
vn -0.8719 0.4303 0.2336
vn -0.9421 0.2205 0.2524
vn -0.9659 -0.0000 0.2588
vn -0.9421 -0.2205 0.2524
vn -0.8719 -0.4303 0.2336
vn -0.7586 -0.6190 0.2033
vn -0.6077 -0.7773 0.1628
vn -0.4264 -0.8973 0.1142
vn -0.2235 -0.9729 0.0599
vn -0.2313 0.9729 -0.0000
vn -0.4414 0.8973 -0.0000
vn -0.6291 0.7773 -0.0000
vn -0.7854 0.6190 -0.0000
vn -0.9027 0.4303 -0.0000
vn -0.9754 0.2205 -0.0000
vn -1.0000 -0.0000 -0.0000
vn -0.9754 -0.2205 -0.0000
vn -0.9027 -0.4303 -0.0000
vn -0.7854 -0.6190 -0.0000
vn -0.6291 -0.7773 -0.0000
vn -0.4414 -0.8973 -0.0000
vn -0.2313 -0.9729 -0.0000
vn -0.2235 0.9729 -0.0599
vn -0.4264 0.8973 -0.1142
vn -0.6077 0.7773 -0.1628
vn -0.7586 0.6190 -0.2033
vn -0.8719 0.4303 -0.2336
vn -0.9421 0.2205 -0.2524
vn -0.9659 -0.0000 -0.2588
vn -0.9421 -0.2205 -0.2524
vn -0.8719 -0.4303 -0.2336
vn -0.7586 -0.6190 -0.2033
vn -0.6077 -0.7773 -0.1628
vn -0.4264 -0.8973 -0.1142
vn -0.2235 -0.9729 -0.0599
vn -0.2004 0.9729 -0.1157
vn -0.3823 0.8973 -0.2207
vn -0.5448 0.7773 -0.3146
vn -0.6802 0.6190 -0.3927
vn -0.7818 0.4303 -0.4513
vn -0.8447 0.2205 -0.4877
vn -0.8660 -0.0000 -0.5000
vn -0.8447 -0.2205 -0.4877
vn -0.7818 -0.4303 -0.4513
vn -0.6802 -0.6190 -0.3927
vn -0.5448 -0.7773 -0.3146
vn -0.3823 -0.8973 -0.2207
vn -0.2004 -0.9729 -0.1157
vn -0.1636 0.9729 -0.1636
vn -0.3121 0.8973 -0.3121
vn -0.4449 0.7773 -0.4449
vn -0.5554 0.6190 -0.5554
vn -0.6383 0.4303 -0.6383
vn -0.6897 0.2205 -0.6897
vn -0.7071 -0.0000 -0.7071
vn -0.6897 -0.2205 -0.6897
vn -0.6383 -0.4303 -0.6383
vn -0.5554 -0.6190 -0.5554
vn -0.4449 -0.7773 -0.4449
vn -0.3121 -0.8973 -0.3121
vn -0.1636 -0.9729 -0.1636
vn -0.1157 0.9729 -0.2004
vn -0.2207 0.8973 -0.3823
vn -0.3146 0.7773 -0.5448
vn -0.3927 0.6190 -0.6802
vn -0.4513 0.4303 -0.7818
vn -0.4877 0.2205 -0.8447
vn -0.5000 -0.0000 -0.8660
vn -0.4877 -0.2205 -0.8447
vn -0.4513 -0.4303 -0.7818
vn -0.3927 -0.6190 -0.6802
vn -0.3146 -0.7773 -0.5448
vn -0.2207 -0.8973 -0.3823
vn -0.1157 -0.9729 -0.2004
vn -0.0599 0.9729 -0.2235
vn -0.1142 0.8973 -0.4264
vn -0.1628 0.7773 -0.6077
vn -0.2033 0.6190 -0.7586
vn -0.2336 0.4303 -0.8719
vn -0.2524 0.2205 -0.9421
vn -0.2588 -0.0000 -0.9659
vn -0.2524 -0.2205 -0.9421
vn -0.2336 -0.4303 -0.8719
vn -0.2033 -0.6190 -0.7586
vn -0.1628 -0.7773 -0.6077
vn -0.1142 -0.8973 -0.4264
vn -0.0599 -0.9729 -0.2235
vn -0.0000 0.8973 -0.4414
vn -0.0000 0.7773 -0.6291
vn -0.0000 0.4303 -0.9027
vn -0.0000 -0.2205 -0.9754
vn -0.0000 -0.4303 -0.9027
vn -0.0000 -0.7773 -0.6291
vn -0.0000 -0.8973 -0.4414
vn -0.0000 -0.6532 -0.7572
vn -0.0000 0.6532 -0.7572
vn 0.3786 -0.6532 -0.6557
vn 0.3786 0.6532 -0.6557
vn 0.6557 -0.6532 -0.3786
vn 0.6557 0.6532 -0.3786
vn 0.7572 -0.6532 -0.0000
vn 0.7572 0.6532 -0.0000
vn 0.6557 -0.6532 0.3786
vn 0.6557 0.6532 0.3786
vn 0.3786 -0.6532 0.6557
vn 0.3786 0.6532 0.6557
vn -0.0000 -0.6532 0.7572
vn -0.0000 0.6532 0.7572
vn -0.3786 -0.6532 0.6557
vn -0.3786 0.6532 0.6557
vn -0.6557 -0.6532 0.3786
vn -0.6557 0.6532 0.3786
vn -0.7572 -0.6532 -0.0000
vn -0.7572 0.6532 -0.0000
vn -0.6557 -0.6532 -0.3786
vn -0.6557 0.6532 -0.3786
vn -0.3786 -0.6532 -0.6557
vn -0.3786 0.6532 -0.6557
vt 0.750000 0.571429
vt 0.750000 0.642857
vt 0.708333 0.642857
vt 0.708333 0.571429
vt 0.729167 0.000000
vt 0.750000 0.071429
vt 0.708333 0.071429
vt 0.750000 0.500000
vt 0.708333 0.500000
vt 0.750000 0.428571
vt 0.708333 0.428571
vt 0.750000 0.928571
vt 0.729167 1.000000
vt 0.708333 0.928571
vt 0.750000 0.357143
vt 0.708333 0.357143
vt 0.750000 0.857143
vt 0.708333 0.857143
vt 0.750000 0.285714
vt 0.708333 0.285714
vt 0.750000 0.785714
vt 0.708333 0.785714
vt 0.750000 0.214286
vt 0.708333 0.214286
vt 0.750000 0.714286
vt 0.708333 0.714286
vt 0.750000 0.142857
vt 0.708333 0.142857
vt 0.687500 0.000000
vt 0.666667 0.071429
vt 0.666667 0.571429
vt 0.666667 0.500000
vt 0.666667 0.428571
vt 0.687500 1.000000
vt 0.666667 0.928571
vt 0.666667 0.357143
vt 0.666667 0.857143
vt 0.666667 0.285714
vt 0.666667 0.785714
vt 0.666667 0.214286
vt 0.666667 0.714286
vt 0.666667 0.142857
vt 0.666667 0.642857
vt 0.625000 0.500000
vt 0.625000 0.428571
vt 0.645833 1.000000
vt 0.625000 0.928571
vt 0.625000 0.357143
vt 0.625000 0.857143
vt 0.625000 0.285714
vt 0.625000 0.785714
vt 0.625000 0.214286
vt 0.625000 0.714286
vt 0.625000 0.142857
vt 0.625000 0.642857
vt 0.625000 0.071429
vt 0.625000 0.571429
vt 0.645833 0.000000
vt 0.583333 0.500000
vt 0.583333 0.428571
vt 0.604167 1.000000
vt 0.583333 0.928571
vt 0.583333 0.357143
vt 0.583333 0.857143
vt 0.583333 0.285714
vt 0.583333 0.785714
vt 0.583333 0.214286
vt 0.583333 0.714286
vt 0.583333 0.142857
vt 0.583333 0.642857
vt 0.583333 0.071429
vt 0.583333 0.571429
vt 0.604167 0.000000
vt 0.562500 1.000000
vt 0.541667 0.928571
vt 0.541667 0.428571
vt 0.541667 0.357143
vt 0.541667 0.857143
vt 0.541667 0.285714
vt 0.541667 0.785714
vt 0.541667 0.214286
vt 0.541667 0.714286
vt 0.541667 0.142857
vt 0.541667 0.642857
vt 0.541667 0.071429
vt 0.541667 0.571429
vt 0.562500 0.000000
vt 0.541667 0.500000
vt 0.500000 0.428571
vt 0.500000 0.357143
vt 0.500000 0.928571
vt 0.500000 0.857143
vt 0.500000 0.285714
vt 0.500000 0.785714
vt 0.500000 0.214286
vt 0.500000 0.714286
vt 0.500000 0.142857
vt 0.500000 0.642857
vt 0.500000 0.071429
vt 0.500000 0.571429
vt 0.520833 0.000000
vt 0.500000 0.500000
vt 0.520833 1.000000
vt 0.458333 0.357143
vt 0.458333 0.285714
vt 0.458333 0.857143
vt 0.458333 0.785714
vt 0.458333 0.214286
vt 0.458333 0.714286
vt 0.458333 0.142857
vt 0.458333 0.642857
vt 0.458333 0.071429
vt 0.458333 0.571429
vt 0.479167 0.000000
vt 0.458333 0.500000
vt 0.458333 0.428571
vt 0.479167 1.000000
vt 0.458333 0.928571
vt 0.416667 0.857143
vt 0.416667 0.785714
vt 0.416667 0.285714
vt 0.416667 0.214286
vt 0.416667 0.714286
vt 0.416667 0.142857
vt 0.416667 0.642857
vt 0.416667 0.071429
vt 0.416667 0.571429
vt 0.437500 0.000000
vt 0.416667 0.500000
vt 0.416667 0.428571
vt 0.437500 1.000000
vt 0.416667 0.928571
vt 0.416667 0.357143
vt 0.375000 0.285714
vt 0.375000 0.214286
vt 0.375000 0.785714
vt 0.375000 0.714286
vt 0.375000 0.142857
vt 0.375000 0.642857
vt 0.375000 0.071429
vt 0.375000 0.571429
vt 0.395833 0.000000
vt 0.375000 0.500000
vt 0.375000 0.428571
vt 0.395833 1.000000
vt 0.375000 0.928571
vt 0.375000 0.357143
vt 0.375000 0.857143
vt 0.333333 0.785714
vt 0.333333 0.714286
vt 0.333333 0.214286
vt 0.333333 0.142857
vt 0.333333 0.642857
vt 0.333333 0.071429
vt 0.333333 0.571429
vt 0.354167 0.000000
vt 0.333333 0.500000
vt 0.333333 0.428571
vt 0.354167 1.000000
vt 0.333333 0.928571
vt 0.333333 0.357143
vt 0.333333 0.857143
vt 0.333333 0.285714
vt 0.291667 0.214286
vt 0.291667 0.142857
vt 0.291667 0.714286
vt 0.291667 0.642857
vt 0.291667 0.071429
vt 0.291667 0.571429
vt 0.312500 0.000000
vt 0.291667 0.500000
vt 0.291667 0.428571
vt 0.312500 1.000000
vt 0.291667 0.928571
vt 0.291667 0.357143
vt 0.291667 0.857143
vt 0.291667 0.285714
vt 0.291667 0.785714
vt 0.250000 0.142857
vt 0.250000 0.071429
vt 0.250000 0.642857
vt 0.250000 0.571429
vt 0.270833 0.000000
vt 0.250000 0.500000
vt 0.250000 0.428571
vt 0.270833 1.000000
vt 0.250000 0.928571
vt 0.250000 0.357143
vt 0.250000 0.857143
vt 0.250000 0.285714
vt 0.250000 0.785714
vt 0.250000 0.214286
vt 0.250000 0.714286
vt 0.208333 0.642857
vt 0.208333 0.571429
vt 0.229167 0.000000
vt 0.208333 0.071429
vt 0.208333 0.500000
vt 0.208333 0.428571
vt 0.229167 1.000000
vt 0.208333 0.928571
vt 0.208333 0.357143
vt 0.208333 0.857143
vt 0.208333 0.285714
vt 0.208333 0.785714
vt 0.208333 0.214286
vt 0.208333 0.714286
vt 0.208333 0.142857
vt 0.187500 0.000000
vt 0.166667 0.071429
vt 0.166667 0.571429
vt 0.166667 0.500000
vt 0.166667 0.428571
vt 0.187500 1.000000
vt 0.166667 0.928571
vt 0.166667 0.357143
vt 0.166667 0.857143
vt 0.166667 0.285714
vt 0.166667 0.785714
vt 0.166667 0.214286
vt 0.166667 0.714286
vt 0.166667 0.142857
vt 0.166667 0.642857
vt 0.125000 0.571429
vt 0.125000 0.500000
vt 0.125000 0.428571
vt 0.145833 1.000000
vt 0.125000 0.928571
vt 0.125000 0.357143
vt 0.125000 0.857143
vt 0.125000 0.285714
vt 0.125000 0.785714
vt 0.125000 0.214286
vt 0.125000 0.714286
vt 0.125000 0.142857
vt 0.125000 0.642857
vt 0.125000 0.071429
vt 0.145833 0.000000
vt 0.083333 0.500000
vt 0.083333 0.428571
vt 0.104167 1.000000
vt 0.083333 0.928571
vt 0.083333 0.357143
vt 0.083333 0.857143
vt 0.083333 0.285714
vt 0.083333 0.785714
vt 0.083333 0.214286
vt 0.083333 0.714286
vt 0.083333 0.142857
vt 0.083333 0.642857
vt 0.083333 0.071429
vt 0.083333 0.571429
vt 0.104167 0.000000
vt 0.062500 1.000000
vt 0.041667 0.928571
vt 0.041667 0.428571
vt 0.041667 0.357143
vt 0.041667 0.857143
vt 0.041667 0.285714
vt 0.041667 0.785714
vt 0.041667 0.214286
vt 0.041667 0.714286
vt 0.041667 0.142857
vt 0.041667 0.642857
vt 0.041667 0.071429
vt 0.041667 0.571429
vt 0.062500 0.000000
vt 0.041667 0.500000
vt 0.000000 0.428571
vt 0.000000 0.357143
vt 0.000000 0.928571
vt 0.000000 0.857143
vt 0.000000 0.285714
vt 0.000000 0.785714
vt 0.000000 0.214286
vt 0.000000 0.714286
vt 0.000000 0.142857
vt 0.000000 0.642857
vt 0.000000 0.071429
vt 0.000000 0.571429
vt 0.020833 0.000000
vt 0.000000 0.500000
vt 0.020833 1.000000
vt 1.000000 0.857143
vt 1.000000 0.928571
vt 0.958333 0.928571
vt 0.958333 0.857143
vt 1.000000 0.285714
vt 1.000000 0.357143
vt 0.958333 0.357143
vt 0.958333 0.285714
vt 1.000000 0.785714
vt 0.958333 0.785714
vt 1.000000 0.214286
vt 0.958333 0.214286
vt 1.000000 0.714286
vt 0.958333 0.714286
vt 1.000000 0.142857
vt 0.958333 0.142857
vt 1.000000 0.642857
vt 0.958333 0.642857
vt 1.000000 0.071429
vt 0.958333 0.071429
vt 1.000000 0.571429
vt 0.958333 0.571429
vt 0.979167 0.000000
vt 1.000000 0.500000
vt 0.958333 0.500000
vt 1.000000 0.428571
vt 0.958333 0.428571
vt 0.979167 1.000000
vt 0.916667 0.357143
vt 0.916667 0.285714
vt 0.916667 0.857143
vt 0.916667 0.785714
vt 0.916667 0.214286
vt 0.916667 0.714286
vt 0.916667 0.142857
vt 0.916667 0.642857
vt 0.916667 0.071429
vt 0.916667 0.571429
vt 0.937500 0.000000
vt 0.916667 0.500000
vt 0.916667 0.428571
vt 0.937500 1.000000
vt 0.916667 0.928571
vt 0.875000 0.285714
vt 0.875000 0.214286
vt 0.875000 0.785714
vt 0.875000 0.714286
vt 0.875000 0.142857
vt 0.875000 0.642857
vt 0.875000 0.071429
vt 0.875000 0.571429
vt 0.895833 0.000000
vt 0.875000 0.500000
vt 0.875000 0.428571
vt 0.895833 1.000000
vt 0.875000 0.928571
vt 0.875000 0.357143
vt 0.875000 0.857143
vt 0.833333 0.785714
vt 0.833333 0.714286
vt 0.833333 0.214286
vt 0.833333 0.142857
vt 0.833333 0.642857
vt 0.833333 0.071429
vt 0.833333 0.571429
vt 0.854167 0.000000
vt 0.833333 0.500000
vt 0.833333 0.428571
vt 0.854167 1.000000
vt 0.833333 0.928571
vt 0.833333 0.357143
vt 0.833333 0.857143
vt 0.833333 0.285714
vt 0.791667 0.214286
vt 0.791667 0.142857
vt 0.791667 0.714286
vt 0.791667 0.642857
vt 0.791667 0.071429
vt 0.791667 0.571429
vt 0.812500 0.000000
vt 0.791667 0.500000
vt 0.791667 0.428571
vt 0.812500 1.000000
vt 0.791667 0.928571
vt 0.791667 0.357143
vt 0.791667 0.857143
vt 0.791667 0.285714
vt 0.791667 0.785714
vt 0.770833 0.000000
vt 0.770833 1.000000
vt 1.000000 1.000000
vt 0.916667 1.000000
vt 0.833333 1.000000
vt 0.750000 1.000000
vt 0.750000 0.500000
vt 0.666667 1.000000
vt 0.666667 0.500000
vt 0.583333 1.000000
vt 0.583333 0.500000
vt 0.500000 1.000000
vt 0.500000 0.500000
vt 0.416667 1.000000
vt 0.416667 0.500000
vt 0.333333 1.000000
vt 0.333333 0.500000
vt 0.250000 1.000000
vt 0.250000 0.500000
vt 0.166667 1.000000
vt 0.166667 0.500000
vt 0.370000 0.457846
vt 0.250000 0.490000
vt 0.130000 0.457846
vt 0.042154 0.370000
vt 0.010000 0.250000
vt 0.042154 0.130000
vt 0.130000 0.042154
vt 0.250000 0.010000
vt 0.370000 0.042154
vt 0.457846 0.130000
vt 0.490000 0.250000
vt 0.457846 0.370000
vt 0.083333 1.000000
vt 0.083333 0.500000
vt 0.000000 1.000000
vt 0.000000 0.500000
vt 0.750000 0.490000
vt 0.870000 0.457846
vt 0.957846 0.370000
vt 0.990000 0.250000
vt 0.957846 0.130000
vt 0.870000 0.042154
vt 0.750000 0.010000
vt 0.630000 0.042154
vt 0.542154 0.130000
vt 0.510000 0.250000
vt 0.542154 0.370000
vt 0.630000 0.457846
s 1
f 4/1/4 310/2/310 13/3/13 14/4/14
f 8/5/8 7/6/7 21/7/21
f 5/8/5 4/1/4 14/4/14 15/9/15
f 311/10/311 5/8/5 15/9/15 16/11/16
f 2/12/2 1/13/1 9/14/9
f 312/15/312 311/10/311 16/11/16 17/16/17
f 308/17/308 2/12/2 9/14/9 10/18/10
f 6/19/6 312/15/312 17/16/17 18/20/18
f 309/21/309 308/17/308 10/18/10 11/22/11
f 313/23/313 6/19/6 18/20/18 19/24/19
f 3/25/3 309/21/309 11/22/11 12/26/12
f 314/27/314 313/23/313 19/24/19 20/28/20
f 310/2/310 3/25/3 12/26/12 13/3/13
f 7/6/7 314/27/314 20/28/20 21/7/21
f 8/29/8 21/7/21 34/30/34
f 15/9/15 14/4/14 27/31/27 28/32/28
f 16/11/16 15/9/15 28/32/28 29/33/29
f 9/14/9 1/34/1 22/35/22
f 17/16/17 16/11/16 29/33/29 30/36/30
f 10/18/10 9/14/9 22/35/22 23/37/23
f 18/20/18 17/16/17 30/36/30 31/38/31
f 11/22/11 10/18/10 23/37/23 24/39/24
f 19/24/19 18/20/18 31/38/31 32/40/32
f 12/26/12 11/22/11 24/39/24 25/41/25
f 20/28/20 19/24/19 32/40/32 33/42/33
f 13/3/13 12/26/12 25/41/25 26/43/26
f 21/7/21 20/28/20 33/42/33 34/30/34
f 14/4/14 13/3/13 26/43/26 27/31/27
f 29/33/29 28/32/28 41/44/41 42/45/42
f 22/35/22 1/46/1 35/47/35
f 30/36/30 29/33/29 42/45/42 43/48/43
f 23/37/23 22/35/22 35/47/35 36/49/36
f 31/38/31 30/36/30 43/48/43 44/50/44
f 24/39/24 23/37/23 36/49/36 37/51/37
f 32/40/32 31/38/31 44/50/44 45/52/45
f 25/41/25 24/39/24 37/51/37 38/53/38
f 33/42/33 32/40/32 45/52/45 46/54/46
f 26/43/26 25/41/25 38/53/38 39/55/39
f 34/30/34 33/42/33 46/54/46 47/56/47
f 27/31/27 26/43/26 39/55/39 40/57/40
f 8/58/8 34/30/34 47/56/47
f 28/32/28 27/31/27 40/57/40 41/44/41
f 42/45/42 41/44/41 54/59/54 55/60/55
f 35/47/35 1/61/1 48/62/48
f 43/48/43 42/45/42 55/60/55 56/63/56
f 36/49/36 35/47/35 48/62/48 49/64/49
f 44/50/44 43/48/43 56/63/56 57/65/57
f 37/51/37 36/49/36 49/64/49 50/66/50
f 45/52/45 44/50/44 57/65/57 58/67/58
f 38/53/38 37/51/37 50/66/50 51/68/51
f 46/54/46 45/52/45 58/67/58 59/69/59
f 39/55/39 38/53/38 51/68/51 52/70/52
f 47/56/47 46/54/46 59/69/59 60/71/60
f 40/57/40 39/55/39 52/70/52 53/72/53
f 8/73/8 47/56/47 60/71/60
f 41/44/41 40/57/40 53/72/53 54/59/54
f 48/62/48 1/74/1 61/75/61
f 56/63/56 55/60/55 68/76/68 69/77/69
f 49/64/49 48/62/48 61/75/61 62/78/62
f 57/65/57 56/63/56 69/77/69 70/79/70
f 50/66/50 49/64/49 62/78/62 63/80/63
f 58/67/58 57/65/57 70/79/70 71/81/71
f 51/68/51 50/66/50 63/80/63 64/82/64
f 59/69/59 58/67/58 71/81/71 72/83/72
f 52/70/52 51/68/51 64/82/64 65/84/65
f 60/71/60 59/69/59 72/83/72 73/85/73
f 53/72/53 52/70/52 65/84/65 66/86/66
f 8/87/8 60/71/60 73/85/73
f 54/59/54 53/72/53 66/86/66 67/88/67
f 55/60/55 54/59/54 67/88/67 68/76/68
f 69/77/69 68/76/68 81/89/81 82/90/82
f 62/78/62 61/75/61 74/91/74 75/92/75
f 70/79/70 69/77/69 82/90/82 83/93/83
f 63/80/63 62/78/62 75/92/75 76/94/76
f 71/81/71 70/79/70 83/93/83 84/95/84
f 64/82/64 63/80/63 76/94/76 77/96/77
f 72/83/72 71/81/71 84/95/84 85/97/85
f 65/84/65 64/82/64 77/96/77 78/98/78
f 73/85/73 72/83/72 85/97/85 86/99/86
f 66/86/66 65/84/65 78/98/78 79/100/79
f 8/101/8 73/85/73 86/99/86
f 67/88/67 66/86/66 79/100/79 80/102/80
f 68/76/68 67/88/67 80/102/80 81/89/81
f 61/75/61 1/103/1 74/91/74
f 83/93/83 82/90/82 95/104/95 96/105/96
f 76/94/76 75/92/75 88/106/88 89/107/89
f 84/95/84 83/93/83 96/105/96 97/108/97
f 77/96/77 76/94/76 89/107/89 90/109/90
f 85/97/85 84/95/84 97/108/97 98/110/98
f 78/98/78 77/96/77 90/109/90 91/111/91
f 86/99/86 85/97/85 98/110/98 99/112/99
f 79/100/79 78/98/78 91/111/91 92/113/92
f 8/114/8 86/99/86 99/112/99
f 80/102/80 79/100/79 92/113/92 93/115/93
f 81/89/81 80/102/80 93/115/93 94/116/94
f 74/91/74 1/117/1 87/118/87
f 82/90/82 81/89/81 94/116/94 95/104/95
f 75/92/75 74/91/74 87/118/87 88/106/88
f 89/107/89 88/106/88 101/119/101 102/120/102
f 97/108/97 96/105/96 109/121/109 110/122/110
f 90/109/90 89/107/89 102/120/102 103/123/103
f 98/110/98 97/108/97 110/122/110 111/124/111
f 91/111/91 90/109/90 103/123/103 104/125/104
f 99/112/99 98/110/98 111/124/111 112/126/112
f 92/113/92 91/111/91 104/125/104 105/127/105
f 8/128/8 99/112/99 112/126/112
f 93/115/93 92/113/92 105/127/105 106/129/106
f 94/116/94 93/115/93 106/129/106 107/130/107
f 87/118/87 1/131/1 100/132/100
f 95/104/95 94/116/94 107/130/107 108/133/108
f 88/106/88 87/118/87 100/132/100 101/119/101
f 96/105/96 95/104/95 108/133/108 109/121/109
f 110/122/110 109/121/109 122/134/122 123/135/123
f 103/123/103 102/120/102 115/136/115 116/137/116
f 111/124/111 110/122/110 123/135/123 124/138/124
f 104/125/104 103/123/103 116/137/116 117/139/117
f 112/126/112 111/124/111 124/138/124 125/140/125
f 105/127/105 104/125/104 117/139/117 118/141/118
f 8/142/8 112/126/112 125/140/125
f 106/129/106 105/127/105 118/141/118 119/143/119
f 107/130/107 106/129/106 119/143/119 120/144/120
f 100/132/100 1/145/1 113/146/113
f 108/133/108 107/130/107 120/144/120 121/147/121
f 101/119/101 100/132/100 113/146/113 114/148/114
f 109/121/109 108/133/108 121/147/121 122/134/122
f 102/120/102 101/119/101 114/148/114 115/136/115
f 116/137/116 115/136/115 128/149/128 129/150/129
f 124/138/124 123/135/123 136/151/136 137/152/137
f 117/139/117 116/137/116 129/150/129 130/153/130
f 125/140/125 124/138/124 137/152/137 138/154/138
f 118/141/118 117/139/117 130/153/130 131/155/131
f 8/156/8 125/140/125 138/154/138
f 119/143/119 118/141/118 131/155/131 132/157/132
f 120/144/120 119/143/119 132/157/132 133/158/133
f 113/146/113 1/159/1 126/160/126
f 121/147/121 120/144/120 133/158/133 134/161/134
f 114/148/114 113/146/113 126/160/126 127/162/127
f 122/134/122 121/147/121 134/161/134 135/163/135
f 115/136/115 114/148/114 127/162/127 128/149/128
f 123/135/123 122/134/122 135/163/135 136/151/136
f 137/152/137 136/151/136 149/164/149 150/165/150
f 130/153/130 129/150/129 142/166/142 143/167/143
f 138/154/138 137/152/137 150/165/150 151/168/151
f 131/155/131 130/153/130 143/167/143 144/169/144
f 8/170/8 138/154/138 151/168/151
f 132/157/132 131/155/131 144/169/144 145/171/145
f 133/158/133 132/157/132 145/171/145 146/172/146
f 126/160/126 1/173/1 139/174/139
f 134/161/134 133/158/133 146/172/146 147/175/147
f 127/162/127 126/160/126 139/174/139 140/176/140
f 135/163/135 134/161/134 147/175/147 148/177/148
f 128/149/128 127/162/127 140/176/140 141/178/141
f 136/151/136 135/163/135 148/177/148 149/164/149
f 129/150/129 128/149/128 141/178/141 142/166/142
f 151/168/151 150/165/150 163/179/163 164/180/164
f 144/169/144 143/167/143 156/181/156 157/182/157
f 8/183/8 151/168/151 164/180/164
f 145/171/145 144/169/144 157/182/157 158/184/158
f 146/172/146 145/171/145 158/184/158 159/185/159
f 139/174/139 1/186/1 152/187/152
f 147/175/147 146/172/146 159/185/159 160/188/160
f 140/176/140 139/174/139 152/187/152 153/189/153
f 148/177/148 147/175/147 160/188/160 161/190/161
f 141/178/141 140/176/140 153/189/153 154/191/154
f 149/164/149 148/177/148 161/190/161 162/192/162
f 142/166/142 141/178/141 154/191/154 155/193/155
f 150/165/150 149/164/149 162/192/162 163/179/163
f 143/167/143 142/166/142 155/193/155 156/181/156
f 157/182/157 156/181/156 169/194/169 170/195/170
f 8/196/8 164/180/164 177/197/177
f 158/184/158 157/182/157 170/195/170 171/198/171
f 159/185/159 158/184/158 171/198/171 172/199/172
f 152/187/152 1/200/1 165/201/165
f 160/188/160 159/185/159 172/199/172 173/202/173
f 153/189/153 152/187/152 165/201/165 166/203/166
f 161/190/161 160/188/160 173/202/173 174/204/174
f 154/191/154 153/189/153 166/203/166 167/205/167
f 162/192/162 161/190/161 174/204/174 175/206/175
f 155/193/155 154/191/154 167/205/167 168/207/168
f 163/179/163 162/192/162 175/206/175 176/208/176
f 156/181/156 155/193/155 168/207/168 169/194/169
f 164/180/164 163/179/163 176/208/176 177/197/177
f 8/209/8 177/197/177 190/210/190
f 171/198/171 170/195/170 183/211/183 184/212/184
f 172/199/172 171/198/171 184/212/184 185/213/185
f 165/201/165 1/214/1 178/215/178
f 173/202/173 172/199/172 185/213/185 186/216/186
f 166/203/166 165/201/165 178/215/178 179/217/179
f 174/204/174 173/202/173 186/216/186 187/218/187
f 167/205/167 166/203/166 179/217/179 180/219/180
f 175/206/175 174/204/174 187/218/187 188/220/188
f 168/207/168 167/205/167 180/219/180 181/221/181
f 176/208/176 175/206/175 188/220/188 189/222/189
f 169/194/169 168/207/168 181/221/181 182/223/182
f 177/197/177 176/208/176 189/222/189 190/210/190
f 170/195/170 169/194/169 182/223/182 183/211/183
f 184/212/184 183/211/183 196/224/196 197/225/197
f 185/213/185 184/212/184 197/225/197 198/226/198
f 178/215/178 1/227/1 191/228/191
f 186/216/186 185/213/185 198/226/198 199/229/199
f 179/217/179 178/215/178 191/228/191 192/230/192
f 187/218/187 186/216/186 199/229/199 200/231/200
f 180/219/180 179/217/179 192/230/192 193/232/193
f 188/220/188 187/218/187 200/231/200 201/233/201
f 181/221/181 180/219/180 193/232/193 194/234/194
f 189/222/189 188/220/188 201/233/201 202/235/202
f 182/223/182 181/221/181 194/234/194 195/236/195
f 190/210/190 189/222/189 202/235/202 203/237/203
f 183/211/183 182/223/182 195/236/195 196/224/196
f 8/238/8 190/210/190 203/237/203
f 198/226/198 197/225/197 210/239/210 211/240/211
f 191/228/191 1/241/1 204/242/204
f 199/229/199 198/226/198 211/240/211 212/243/212
f 192/230/192 191/228/191 204/242/204 205/244/205
f 200/231/200 199/229/199 212/243/212 213/245/213
f 193/232/193 192/230/192 205/244/205 206/246/206
f 201/233/201 200/231/200 213/245/213 214/247/214
f 194/234/194 193/232/193 206/246/206 207/248/207
f 202/235/202 201/233/201 214/247/214 215/249/215
f 195/236/195 194/234/194 207/248/207 208/250/208
f 203/237/203 202/235/202 215/249/215 216/251/216
f 196/224/196 195/236/195 208/250/208 209/252/209
f 8/253/8 203/237/203 216/251/216
f 197/225/197 196/224/196 209/252/209 210/239/210
f 204/242/204 1/254/1 217/255/217
f 212/243/212 211/240/211 224/256/224 225/257/225
f 205/244/205 204/242/204 217/255/217 218/258/218
f 213/245/213 212/243/212 225/257/225 226/259/226
f 206/246/206 205/244/205 218/258/218 219/260/219
f 214/247/214 213/245/213 226/259/226 227/261/227
f 207/248/207 206/246/206 219/260/219 220/262/220
f 215/249/215 214/247/214 227/261/227 228/263/228
f 208/250/208 207/248/207 220/262/220 221/264/221
f 216/251/216 215/249/215 228/263/228 229/265/229
f 209/252/209 208/250/208 221/264/221 222/266/222
f 8/267/8 216/251/216 229/265/229
f 210/239/210 209/252/209 222/266/222 223/268/223
f 211/240/211 210/239/210 223/268/223 224/256/224
f 225/257/225 224/256/224 237/269/237 238/270/238
f 218/258/218 217/255/217 230/271/230 231/272/231
f 226/259/226 225/257/225 238/270/238 239/273/239
f 219/260/219 218/258/218 231/272/231 232/274/232
f 227/261/227 226/259/226 239/273/239 240/275/240
f 220/262/220 219/260/219 232/274/232 233/276/233
f 228/263/228 227/261/227 240/275/240 241/277/241
f 221/264/221 220/262/220 233/276/233 234/278/234
f 229/265/229 228/263/228 241/277/241 242/279/242
f 222/266/222 221/264/221 234/278/234 235/280/235
f 8/281/8 229/265/229 242/279/242
f 223/268/223 222/266/222 235/280/235 236/282/236
f 224/256/224 223/268/223 236/282/236 237/269/237
f 217/255/217 1/283/1 230/271/230
f 231/284/231 230/285/230 243/286/243 244/287/244
f 239/288/239 238/289/238 251/290/251 252/291/252
f 232/292/232 231/284/231 244/287/244 245/293/245
f 240/294/240 239/288/239 252/291/252 253/295/253
f 233/296/233 232/292/232 245/293/245 246/297/246
f 241/298/241 240/294/240 253/295/253 254/299/254
f 234/300/234 233/296/233 246/297/246 247/301/247
f 242/302/242 241/298/241 254/299/254 255/303/255
f 235/304/235 234/300/234 247/301/247 248/305/248
f 8/306/8 242/302/242 255/303/255
f 236/307/236 235/304/235 248/305/248 249/308/249
f 237/309/237 236/307/236 249/308/249 250/310/250
f 230/285/230 1/311/1 243/286/243
f 238/289/238 237/309/237 250/310/250 251/290/251
f 252/291/252 251/290/251 264/312/264 265/313/265
f 245/293/245 244/287/244 257/314/257 258/315/258
f 253/295/253 252/291/252 265/313/265 266/316/266
f 246/297/246 245/293/245 258/315/258 259/317/259
f 254/299/254 253/295/253 266/316/266 267/318/267
f 247/301/247 246/297/246 259/317/259 260/319/260
f 255/303/255 254/299/254 267/318/267 268/320/268
f 248/305/248 247/301/247 260/319/260 261/321/261
f 8/322/8 255/303/255 268/320/268
f 249/308/249 248/305/248 261/321/261 262/323/262
f 250/310/250 249/308/249 262/323/262 263/324/263
f 243/286/243 1/325/1 256/326/256
f 251/290/251 250/310/250 263/324/263 264/312/264
f 244/287/244 243/286/243 256/326/256 257/314/257
f 266/316/266 265/313/265 278/327/278 279/328/279
f 259/317/259 258/315/258 271/329/271 272/330/272
f 267/318/267 266/316/266 279/328/279 280/331/280
f 260/319/260 259/317/259 272/330/272 273/332/273
f 268/320/268 267/318/267 280/331/280 281/333/281
f 261/321/261 260/319/260 273/332/273 274/334/274
f 8/335/8 268/320/268 281/333/281
f 262/323/262 261/321/261 274/334/274 275/336/275
f 263/324/263 262/323/262 275/336/275 276/337/276
f 256/326/256 1/338/1 269/339/269
f 264/312/264 263/324/263 276/337/276 277/340/277
f 257/314/257 256/326/256 269/339/269 270/341/270
f 265/313/265 264/312/264 277/340/277 278/327/278
f 258/315/258 257/314/257 270/341/270 271/329/271
f 272/330/272 271/329/271 284/342/284 285/343/285
f 280/331/280 279/328/279 292/344/292 293/345/293
f 273/332/273 272/330/272 285/343/285 286/346/286
f 281/333/281 280/331/280 293/345/293 294/347/294
f 274/334/274 273/332/273 286/346/286 287/348/287
f 8/349/8 281/333/281 294/347/294
f 275/336/275 274/334/274 287/348/287 288/350/288
f 276/337/276 275/336/275 288/350/288 289/351/289
f 269/339/269 1/352/1 282/353/282
f 277/340/277 276/337/276 289/351/289 290/354/290
f 270/341/270 269/339/269 282/353/282 283/355/283
f 278/327/278 277/340/277 290/354/290 291/356/291
f 271/329/271 270/341/270 283/355/283 284/342/284
f 279/328/279 278/327/278 291/356/291 292/344/292
f 293/345/293 292/344/292 305/357/305 306/358/306
f 286/346/286 285/343/285 298/359/298 299/360/299
f 294/347/294 293/345/293 306/358/306 307/361/307
f 287/348/287 286/346/286 299/360/299 300/362/300
f 8/363/8 294/347/294 307/361/307
f 288/350/288 287/348/287 300/362/300 301/364/301
f 289/351/289 288/350/288 301/364/301 302/365/302
f 282/353/282 1/366/1 295/367/295
f 290/354/290 289/351/289 302/365/302 303/368/303
f 283/355/283 282/353/282 295/367/295 296/369/296
f 291/356/291 290/354/290 303/368/303 304/370/304
f 284/342/284 283/355/283 296/369/296 297/371/297
f 292/344/292 291/356/291 304/370/304 305/357/305
f 285/343/285 284/342/284 297/371/297 298/359/298
f 299/360/299 298/359/298 3/25/3 310/2/310
f 307/361/307 306/358/306 314/27/314 7/6/7
f 300/362/300 299/360/299 310/2/310 4/1/4
f 8/372/8 307/361/307 7/6/7
f 301/364/301 300/362/300 4/1/4 5/8/5
f 302/365/302 301/364/301 5/8/5 311/10/311
f 295/367/295 1/373/1 2/12/2
f 303/368/303 302/365/302 311/10/311 312/15/312
f 296/369/296 295/367/295 2/12/2 308/17/308
f 304/370/304 303/368/303 312/15/312 6/19/6
f 297/371/297 296/369/296 308/17/308 309/21/309
f 305/357/305 304/370/304 6/19/6 313/23/313
f 298/359/298 297/371/297 309/21/309 3/25/3
f 306/358/306 305/357/305 313/23/313 314/27/314
f 315/307/315 316/374/316 318/375/318 317/323/317
f 317/323/317 318/375/318 320/376/320 319/350/319
f 319/350/319 320/376/320 322/377/322 321/378/321
f 321/378/321 322/377/322 324/379/324 323/380/323
f 323/380/323 324/379/324 326/381/326 325/382/325
f 325/382/325 326/381/326 328/383/328 327/384/327
f 327/384/327 328/383/328 330/385/330 329/386/329
f 329/386/329 330/385/330 332/387/332 331/388/331
f 331/388/331 332/387/332 334/389/334 333/390/333
f 333/390/333 334/389/334 336/391/336 335/392/335
f 318/393/318 316/394/316 338/395/338 336/396/336 334/397/334 332/398/332 330/399/330 328/400/328 326/401/326 324/402/324 322/403/322 320/404/320
f 335/392/335 336/391/336 338/405/338 337/406/337
f 337/406/337 338/405/338 316/407/316 315/408/315
f 315/409/315 317/410/317 319/411/319 321/412/321 323/413/323 325/414/325 327/415/327 329/416/329 331/417/331 333/418/333 335/419/335 337/420/337
