# Blender 5.2.2 LTS
# www.blender.org
o cone
v -0.240000 -0.445000 0.240000
v -0.240000 -0.435000 0.250000
v -0.250000 -0.435000 0.240000
v -0.240000 -0.442071 0.247071
v -0.245774 -0.440774 0.245774
v -0.247071 -0.435000 0.247071
v -0.247071 -0.442071 0.240000
v -0.240000 -0.405000 0.250000
v -0.240000 -0.395000 0.240000
v -0.250000 -0.405000 0.240000
v -0.240000 -0.397929 0.247071
v -0.245774 -0.399226 0.245774
v -0.247071 -0.397929 0.240000
v -0.247071 -0.405000 0.247071
v -0.240000 -0.445000 -0.240000
v -0.250000 -0.435000 -0.240000
v -0.240000 -0.435000 -0.250000
v -0.247071 -0.442071 -0.240000
v -0.245774 -0.440774 -0.245774
v -0.247071 -0.435000 -0.247071
v -0.240000 -0.442071 -0.247071
v -0.240000 -0.395000 -0.240000
v -0.240000 -0.405000 -0.250000
v -0.250000 -0.405000 -0.240000
v -0.240000 -0.397929 -0.247071
v -0.245774 -0.399226 -0.245774
v -0.247071 -0.405000 -0.247071
v -0.247071 -0.397929 -0.240000
v 0.240000 -0.445000 0.240000
v 0.250000 -0.435000 0.240000
v 0.240000 -0.435000 0.250000
v 0.247071 -0.442071 0.240000
v 0.245774 -0.440774 0.245774
v 0.247071 -0.435000 0.247071
v 0.240000 -0.442071 0.247071
v 0.240000 -0.395000 0.240000
v 0.240000 -0.405000 0.250000
v 0.250000 -0.405000 0.240000
v 0.240000 -0.397929 0.247071
v 0.245774 -0.399226 0.245774
v 0.247071 -0.405000 0.247071
v 0.247071 -0.397929 0.240000
v 0.240000 -0.445000 -0.240000
v 0.240000 -0.435000 -0.250000
v 0.250000 -0.435000 -0.240000
v 0.240000 -0.442071 -0.247071
v 0.245774 -0.440774 -0.245774
v 0.247071 -0.435000 -0.247071
v 0.247071 -0.442071 -0.240000
v 0.240000 -0.395000 -0.240000
v 0.250000 -0.405000 -0.240000
v 0.240000 -0.405000 -0.250000
v 0.247071 -0.397929 -0.240000
v 0.245774 -0.399226 -0.245774
v 0.247071 -0.405000 -0.247071
v 0.240000 -0.397929 -0.247071
v 0.000000 -0.400000 -0.209914
v 0.000000 -0.390215 -0.217921
v -0.000000 -0.397134 -0.216437
v 0.000000 0.400000 -0.039914
v 0.000000 0.390215 -0.052079
v 0.000000 0.397134 -0.047655
v 0.054330 -0.400000 -0.202761
v 0.056402 -0.390215 -0.210495
v 0.056018 -0.397134 -0.209062
v 0.010330 0.400000 -0.038554
v 0.013479 0.390215 -0.050305
v 0.012334 0.397134 -0.046031
v 0.104957 -0.400000 -0.181791
v 0.108960 -0.390215 -0.188725
v 0.108218 -0.397134 -0.187440
v 0.019957 0.400000 -0.034566
v 0.026040 0.390215 -0.045102
v 0.023827 0.397134 -0.041270
v 0.148431 -0.400000 -0.148431
v 0.154093 -0.390215 -0.154093
v 0.153044 -0.397134 -0.153044
v 0.028223 0.400000 -0.028223
v 0.036826 0.390215 -0.036826
v 0.033697 0.397134 -0.033697
v 0.181791 -0.400000 -0.104957
v 0.188725 -0.390215 -0.108960
v 0.187440 -0.397134 -0.108218
v 0.034566 0.400000 -0.019957
v 0.045102 0.390215 -0.026040
v 0.041270 0.397134 -0.023827
v 0.202761 -0.400000 -0.054330
v 0.210495 -0.390215 -0.056402
v 0.209062 -0.397134 -0.056018
v 0.038554 0.400000 -0.010330
v 0.050305 0.390215 -0.013479
v 0.046031 0.397134 -0.012334
v 0.209914 -0.400000 0.000000
v 0.217921 -0.390215 0.000000
v 0.216437 -0.397134 -0.000000
v 0.039914 0.400000 0.000000
v 0.052079 0.390215 0.000000
v 0.047655 0.397134 0.000000
v 0.202761 -0.400000 0.054330
v 0.210495 -0.390215 0.056402
v 0.209062 -0.397134 0.056018
v 0.038554 0.400000 0.010330
v 0.050305 0.390215 0.013479
v 0.046031 0.397134 0.012334
v 0.181791 -0.400000 0.104957
v 0.188725 -0.390215 0.108960
v 0.187440 -0.397134 0.108218
v 0.034566 0.400000 0.019957
v 0.045102 0.390215 0.026040
v 0.041270 0.397134 0.023827
v 0.148431 -0.400000 0.148431
v 0.154093 -0.390215 0.154093
v 0.153044 -0.397134 0.153044
v 0.028223 0.400000 0.028223
v 0.036826 0.390215 0.036826
v 0.033697 0.397134 0.033697
v 0.104957 -0.400000 0.181791
v 0.108960 -0.390215 0.188725
v 0.108218 -0.397134 0.187440
v 0.019957 0.400000 0.034566
v 0.026040 0.390215 0.045102
v 0.023827 0.397134 0.041270
v 0.054330 -0.400000 0.202761
v 0.056402 -0.390215 0.210495
v 0.056018 -0.397134 0.209062
v 0.010330 0.400000 0.038554
v 0.013479 0.390215 0.050305
v 0.012334 0.397134 0.046031
v 0.000000 -0.400000 0.209914
v 0.000000 -0.390215 0.217921
v 0.000000 -0.397134 0.216437
v -0.000000 0.400000 0.039914
v 0.000000 0.390215 0.052079
v -0.000000 0.397134 0.047655
v -0.054330 -0.400000 0.202761
v -0.056402 -0.390215 0.210495
v -0.056018 -0.397134 0.209062
v -0.010330 0.400000 0.038554
v -0.013479 0.390215 0.050305
v -0.012334 0.397134 0.046031
v -0.104957 -0.400000 0.181791
v -0.108960 -0.390215 0.188725
v -0.108218 -0.397134 0.187440
v -0.019957 0.400000 0.034566
v -0.026040 0.390215 0.045102
v -0.023827 0.397134 0.041270
v -0.148431 -0.400000 0.148431
v -0.154093 -0.390215 0.154093
v -0.153044 -0.397134 0.153044
v -0.028223 0.400000 0.028223
v -0.036826 0.390215 0.036826
v -0.033697 0.397134 0.033697
v -0.181791 -0.400000 0.104957
v -0.188725 -0.390215 0.108960
v -0.187440 -0.397134 0.108218
v -0.034566 0.400000 0.019957
v -0.045102 0.390215 0.026040
v -0.041270 0.397134 0.023827
v -0.202761 -0.400000 0.054330
v -0.210495 -0.390215 0.056402
v -0.209062 -0.397134 0.056018
v -0.038554 0.400000 0.010330
v -0.050305 0.390215 0.013479
v -0.046031 0.397134 0.012334
v -0.209914 -0.400000 0.000000
v -0.217921 -0.390215 0.000000
v -0.216437 -0.397134 0.000000
v -0.039914 0.400000 -0.000000
v -0.052079 0.390215 0.000000
v -0.047655 0.397134 -0.000000
v -0.202761 -0.400000 -0.054330
v -0.210495 -0.390215 -0.056402
v -0.209062 -0.397134 -0.056018
v -0.038554 0.400000 -0.010330
v -0.050305 0.390215 -0.013479
v -0.046031 0.397134 -0.012334
v -0.181791 -0.400000 -0.104957
v -0.188725 -0.390215 -0.108960
v -0.187440 -0.397134 -0.108218
v -0.034566 0.400000 -0.019957
v -0.045102 0.390215 -0.026040
v -0.041270 0.397134 -0.023827
v -0.148431 -0.400000 -0.148431
v -0.154093 -0.390215 -0.154093
v -0.153044 -0.397134 -0.153044
v -0.028223 0.400000 -0.028223
v -0.036826 0.390215 -0.036826
v -0.033697 0.397134 -0.033697
v -0.104957 -0.400000 -0.181791
v -0.108960 -0.390215 -0.188725
v -0.108218 -0.397134 -0.187440
v -0.019957 0.400000 -0.034566
v -0.026040 0.390215 -0.045102
v -0.023827 0.397134 -0.041270
v -0.054330 -0.400000 -0.202761
v -0.056402 -0.390215 -0.210495
v -0.056018 -0.397134 -0.209062
v -0.010330 0.400000 -0.038554
v -0.013479 0.390215 -0.050305
v -0.012334 0.397134 -0.046031
vn -0.3251 -0.8881 0.3251
vn -0.3251 -0.3251 0.8881
vn -0.8881 -0.3251 0.3251
vn -0.3251 0.3251 0.8881
vn -0.3251 0.8881 0.3251
vn -0.8881 0.3251 0.3251
vn -0.3251 -0.8881 -0.3251
vn -0.8881 -0.3251 -0.3251
vn -0.3251 -0.3251 -0.8881
vn -0.3251 0.8881 -0.3251
vn -0.3251 0.3251 -0.8881
vn -0.8881 0.3251 -0.3251
vn 0.3251 -0.8881 0.3251
vn 0.8881 -0.3251 0.3251
vn 0.3251 -0.3251 0.8881
vn 0.3251 0.8881 0.3251
vn 0.3251 0.3251 0.8881
vn 0.8881 0.3251 0.3251
vn 0.3251 -0.8881 -0.3251
vn 0.3251 -0.3251 -0.8881
vn 0.8881 -0.3251 -0.3251
vn 0.3251 0.8881 -0.3251
vn 0.8881 0.3251 -0.3251
vn 0.3251 0.3251 -0.8881
vn -0.3827 -0.9239 -0.0000
vn -0.9239 -0.3827 -0.0000
vn -0.3827 -0.0000 0.9239
vn -0.9239 -0.0000 0.3827
vn -0.3827 0.9239 -0.0000
vn -0.9239 0.3827 -0.0000
vn -0.3827 -0.0000 -0.9239
vn -0.9239 -0.0000 -0.3827
vn -0.0000 -0.9239 -0.3827
vn -0.0000 -0.3827 -0.9239
vn -0.0000 0.9239 -0.3827
vn -0.0000 0.3827 -0.9239
vn 0.9239 -0.0000 -0.3827
vn 0.3827 -0.0000 -0.9239
vn 0.3827 -0.9239 -0.0000
vn 0.9239 -0.3827 -0.0000
vn 0.3827 0.9239 -0.0000
vn 0.9239 0.3827 -0.0000
vn 0.3827 -0.0000 0.9239
vn 0.9239 -0.0000 0.3827
vn -0.0000 -0.9239 0.3827
vn -0.0000 -0.3827 0.9239
vn -0.0000 0.9239 0.3827
vn -0.0000 0.3827 0.9239
vn 0.1277 -0.2080 -0.9698
vn 0.0529 -0.9142 -0.4017
vn 0.1102 0.5354 -0.8373
vn 0.0457 0.9368 -0.3468
vn 0.3743 -0.2080 -0.9037
vn 0.1550 -0.9142 -0.3743
vn 0.3232 0.5354 -0.7803
vn 0.1339 0.9368 -0.3232
vn 0.5955 -0.2080 -0.7760
vn 0.2466 -0.9142 -0.3214
vn 0.5141 0.5354 -0.6700
vn 0.2130 0.9368 -0.2775
vn 0.7760 -0.2080 -0.5955
vn 0.3214 -0.9142 -0.2466
vn 0.6700 0.5354 -0.5141
vn 0.2775 0.9368 -0.2130
vn 0.9037 -0.2080 -0.3743
vn 0.3743 -0.9142 -0.1550
vn 0.7803 0.5354 -0.3232
vn 0.3232 0.9368 -0.1339
vn 0.9698 -0.2080 -0.1277
vn 0.4017 -0.9142 -0.0529
vn 0.8373 0.5354 -0.1102
vn 0.3468 0.9368 -0.0457
vn 0.9698 -0.2080 0.1277
vn 0.4017 -0.9142 0.0529
vn 0.8373 0.5354 0.1102
vn 0.3468 0.9368 0.0457
vn 0.9037 -0.2080 0.3743
vn 0.3743 -0.9142 0.1550
vn 0.7803 0.5354 0.3232
vn 0.3232 0.9368 0.1339
vn 0.7760 -0.2080 0.5955
vn 0.3214 -0.9142 0.2466
vn 0.6700 0.5354 0.5141
vn 0.2775 0.9368 0.2130
vn 0.5955 -0.2080 0.7760
vn 0.2466 -0.9142 0.3214
vn 0.5141 0.5354 0.6700
vn 0.2130 0.9368 0.2775
vn 0.3743 -0.2080 0.9037
vn 0.1550 -0.9142 0.3743
vn 0.3232 0.5354 0.7803
vn 0.1339 0.9368 0.3232
vn 0.1277 -0.2080 0.9698
vn 0.0529 -0.9142 0.4017
vn 0.1102 0.5354 0.8373
vn 0.0457 0.9368 0.3468
vn -0.1277 -0.2080 0.9698
vn -0.0529 -0.9142 0.4017
vn -0.1102 0.5354 0.8373
vn -0.0457 0.9368 0.3468
vn -0.3743 -0.2080 0.9037
vn -0.1550 -0.9142 0.3743
vn -0.3232 0.5354 0.7803
vn -0.1339 0.9368 0.3232
vn -0.5955 -0.2080 0.7760
vn -0.2466 -0.9142 0.3214
vn -0.5141 0.5354 0.6700
vn -0.2130 0.9368 0.2775
vn -0.7760 -0.2080 0.5955
vn -0.3214 -0.9142 0.2466
vn -0.6700 0.5354 0.5141
vn -0.2775 0.9368 0.2130
vn -0.9037 -0.2080 0.3743
vn -0.3743 -0.9142 0.1550
vn -0.7803 0.5354 0.3232
vn -0.3232 0.9368 0.1339
vn -0.9698 -0.2080 0.1277
vn -0.4017 -0.9142 0.0529
vn -0.8373 0.5354 0.1102
vn -0.3468 0.9368 0.0457
vn -0.9698 -0.2080 -0.1277
vn -0.4017 -0.9142 -0.0529
vn -0.8373 0.5354 -0.1102
vn -0.3468 0.9368 -0.0457
vn -0.9037 -0.2080 -0.3743
vn -0.3743 -0.9142 -0.1550
vn -0.7803 0.5354 -0.3232
vn -0.3232 0.9368 -0.1339
vn -0.7760 -0.2080 -0.5955
vn -0.3214 -0.9142 -0.2466
vn -0.6700 0.5354 -0.5141
vn -0.2775 0.9368 -0.2130
vn -0.5955 -0.2080 -0.7760
vn -0.2466 -0.9142 -0.3214
vn -0.5141 0.5354 -0.6700
vn -0.2130 0.9368 -0.2775
vn -0.3743 -0.2080 -0.9037
vn -0.1550 -0.9142 -0.3743
vn -0.3232 0.5354 -0.7803
vn -0.1339 0.9368 -0.3232
vn -0.1277 -0.2080 -0.9698
vn -0.0529 -0.9142 -0.4017
vn -0.1102 0.5354 -0.8373
vn -0.0457 0.9368 -0.3468
vn -0.0000 -1.0000 -0.0000
vn -1.0000 -0.0000 -0.0000
vn -0.0000 -0.0000 1.0000
vn -0.0000 1.0000 -0.0000
vn -0.0000 -0.0000 -1.0000
vn 1.0000 -0.0000 -0.0000
vn 0.1277 0.2062 -0.9701
vn -0.1277 0.2062 -0.9701
vn 0.3745 0.2062 -0.9040
vn 0.5957 0.2062 -0.7763
vn 0.7763 0.2062 -0.5957
vn 0.9040 0.2062 -0.3745
vn 0.9701 0.2062 -0.1277
vn 0.9701 0.2062 0.1277
vn 0.9040 0.2062 0.3745
vn 0.7763 0.2062 0.5957
vn 0.5957 0.2062 0.7763
vn 0.3745 0.2062 0.9040
vn 0.1277 0.2062 0.9701
vn -0.1277 0.2062 0.9701
vn -0.3745 0.2062 0.9040
vn -0.5957 0.2062 0.7763
vn -0.7763 0.2062 0.5957
vn -0.9040 0.2062 0.3745
vn -0.9701 0.2062 0.1277
vn -0.9701 0.2062 -0.1277
vn -0.9040 0.2062 -0.3745
vn -0.7763 0.2062 -0.5957
vn -0.5957 0.2062 -0.7763
vn -0.3745 0.2062 -0.9040
vt 0.130000 0.745000
vt 0.130000 0.750000
vt 0.127113 0.750000
vt 0.125000 0.745000
vt 0.425000 0.995000
vt 0.425000 1.000000
vt 0.396132 1.000000
vt 0.375000 0.995000
vt 0.425000 0.005000
vt 0.375000 0.005000
vt 0.375000 0.002113
vt 0.425000 0.000000
vt 0.575000 0.995000
vt 0.625000 0.995000
vt 0.625000 0.997887
vt 0.575000 1.000000
vt 0.870000 0.745000
vt 0.875000 0.745000
vt 0.875000 0.747887
vt 0.870000 0.750000
vt 0.575000 0.005000
vt 0.575000 0.000000
vt 0.603867 0.000000
vt 0.625000 0.005000
vt 0.130000 0.505000
vt 0.125000 0.505000
vt 0.125000 0.502113
vt 0.130000 0.500000
vt 0.425000 0.245000
vt 0.425000 0.250000
vt 0.385566 0.251057
vt 0.375000 0.245000
vt 0.425000 0.255000
vt 0.375000 0.255000
vt 0.870000 0.505000
vt 0.870000 0.500000
vt 0.872887 0.500000
vt 0.875000 0.505000
vt 0.575000 0.255000
vt 0.575000 0.250000
vt 0.614434 0.248943
vt 0.625000 0.255000
vt 0.575000 0.245000
vt 0.625000 0.245000
vt 0.370000 0.745000
vt 0.375000 0.745000
vt 0.382044 0.750000
vt 0.372500 0.752500
vt 0.425000 0.745000
vt 0.425000 0.750000
vt 0.425000 0.755000
vt 0.630000 0.745000
vt 0.627500 0.752500
vt 0.618660 0.749296
vt 0.625000 0.745000
vt 0.575000 0.755000
vt 0.575000 0.750000
vt 0.575000 0.745000
vt 0.370000 0.505000
vt 0.372500 0.497500
vt 0.381340 0.500704
vt 0.375000 0.505000
vt 0.425000 0.495000
vt 0.425000 0.500000
vt 0.425000 0.505000
vt 0.630000 0.505000
vt 0.625000 0.505000
vt 0.617956 0.500000
vt 0.627500 0.497500
vt 0.575000 0.505000
vt 0.575000 0.500000
vt 0.575000 0.495000
vt 1.000000 0.506116
vt 0.958333 0.506116
vt 0.958333 0.500000
vt 0.999663 0.500000
vt 0.750000 0.489934
vt 0.812099 0.481758
vt 0.809269 0.471194
vt 0.750000 0.478997
vt 0.958333 0.993884
vt 1.000000 0.993884
vt 0.999023 1.000000
vt 0.958333 1.000000
vt 0.312067 0.481637
vt 0.250000 0.489808
vt 0.250000 0.441586
vt 0.299586 0.435058
vt 0.916667 0.506116
vt 0.916667 0.500000
vt 0.869967 0.457789
vt 0.864498 0.448317
vt 0.916667 0.993884
vt 0.916667 1.000000
vt 0.369904 0.457680
vt 0.345793 0.415918
vt 0.875000 0.506116
vt 0.875000 0.500000
vt 0.919659 0.419659
vt 0.911925 0.411925
vt 0.875000 0.993884
vt 0.875000 1.000000
vt 0.419570 0.419570
vt 0.385472 0.385472
vt 0.833333 0.506116
vt 0.833333 0.500000
vt 0.957789 0.369967
vt 0.948317 0.364498
vt 0.833333 0.993884
vt 0.833333 1.000000
vt 0.457680 0.369904
vt 0.415918 0.345793
vt 0.791667 0.506116
vt 0.791667 0.500000
vt 0.981758 0.312099
vt 0.971194 0.309269
vt 0.791667 0.993884
vt 0.791667 1.000000
vt 0.481637 0.312067
vt 0.435058 0.299586
vt 0.750000 0.506116
vt 0.750000 0.500000
vt 0.989934 0.250000
vt 0.978997 0.250000
vt 0.750000 0.993884
vt 0.750000 1.000000
vt 0.489808 0.250000
vt 0.441586 0.250000
vt 0.708333 0.506116
vt 0.708333 0.500000
vt 0.981758 0.187901
vt 0.971194 0.190731
vt 0.708333 0.993884
vt 0.708333 1.000000
vt 0.481637 0.187933
vt 0.435058 0.200414
vt 0.666667 0.506116
vt 0.666667 0.500000
vt 0.957789 0.130033
vt 0.948317 0.135502
vt 0.666667 0.993884
vt 0.666667 1.000000
vt 0.457680 0.130096
vt 0.415918 0.154207
vt 0.625000 0.506116
vt 0.625000 0.500000
vt 0.919659 0.080341
vt 0.911925 0.088075
vt 0.625000 0.993884
vt 0.625000 1.000000
vt 0.419570 0.080430
vt 0.385472 0.114528
vt 0.583333 0.506116
vt 0.583333 0.500000
vt 0.869967 0.042211
vt 0.864498 0.051683
vt 0.583333 0.993884
vt 0.583333 1.000000
vt 0.369904 0.042320
vt 0.345793 0.084082
vt 0.541666 0.506116
vt 0.541666 0.500000
vt 0.812099 0.018242
vt 0.809269 0.028806
vt 0.541666 0.993884
vt 0.541667 1.000000
vt 0.312067 0.018363
vt 0.299586 0.064942
vt 0.500000 0.506116
vt 0.500000 0.500000
vt 0.750000 0.010066
vt 0.750000 0.021003
vt 0.500000 0.993884
vt 0.500000 1.000000
vt 0.250000 0.010192
vt 0.250000 0.058414
vt 0.458333 0.506116
vt 0.458333 0.500000
vt 0.687901 0.018242
vt 0.690731 0.028806
vt 0.458333 0.993884
vt 0.458333 1.000000
vt 0.187933 0.018363
vt 0.200414 0.064942
vt 0.416666 0.506116
vt 0.416666 0.500000
vt 0.630033 0.042211
vt 0.635502 0.051683
vt 0.416666 0.993884
vt 0.416666 1.000000
vt 0.130096 0.042320
vt 0.154207 0.084082
vt 0.375000 0.506116
vt 0.375000 0.500000
vt 0.580341 0.080341
vt 0.588075 0.088075
vt 0.375000 0.993884
vt 0.375000 1.000000
vt 0.080430 0.080430
vt 0.114528 0.114528
vt 0.333333 0.506116
vt 0.333333 0.500000
vt 0.542211 0.130033
vt 0.551683 0.135502
vt 0.333333 0.993884
vt 0.333333 1.000000
vt 0.042320 0.130096
vt 0.084082 0.154207
vt 0.291667 0.506116
vt 0.291667 0.500000
vt 0.518242 0.187901
vt 0.528806 0.190731
vt 0.291667 0.993884
vt 0.291667 1.000000
vt 0.018363 0.187933
vt 0.064942 0.200414
vt 0.250000 0.506116
vt 0.250000 0.500000
vt 0.510066 0.250000
vt 0.521003 0.250000
vt 0.250000 0.993884
vt 0.250000 1.000000
vt 0.010192 0.250000
vt 0.058414 0.250000
vt 0.208333 0.506116
vt 0.208333 0.500000
vt 0.518242 0.312099
vt 0.528806 0.309269
vt 0.208333 0.993884
vt 0.208333 1.000000
vt 0.018363 0.312067
vt 0.064942 0.299586
vt 0.166666 0.506116
vt 0.166666 0.500000
vt 0.542211 0.369967
vt 0.551683 0.364498
vt 0.166666 0.993884
vt 0.166666 1.000000
vt 0.042320 0.369904
vt 0.084082 0.345793
vt 0.125000 0.506116
vt 0.125000 0.500000
vt 0.580341 0.419659
vt 0.588075 0.411925
vt 0.125000 0.993884
vt 0.125000 1.000000
vt 0.080430 0.419570
vt 0.114528 0.385472
vt 0.083333 0.506116
vt 0.083333 0.500000
vt 0.630033 0.457789
vt 0.635502 0.448317
vt 0.083333 0.993884
vt 0.083333 1.000000
vt 0.130096 0.457680
vt 0.154207 0.415918
vt 0.041666 0.506116
vt 0.041666 0.500000
vt 0.687901 0.481758
vt 0.690731 0.471194
vt 0.041666 0.993884
vt 0.041666 1.000000
vt 0.187933 0.481637
vt 0.200414 0.435058
vt -0.000000 0.506116
vt 0.000337 0.500000
vt -0.000000 0.993884
vt 0.000977 1.000000
s 0
f 1/1/1 4/2/1 5/3/1 7/4/1
f 2/5/2 6/6/2 5/7/2 4/8/2
f 3/9/3 7/10/3 5/11/3 6/12/3
f 8/13/4 11/14/4 12/15/4 14/16/4
f 9/17/5 13/18/5 12/19/5 11/20/5
f 10/21/6 14/22/6 12/23/6 13/24/6
f 15/25/7 18/26/7 19/27/7 21/28/7
f 16/29/8 20/30/8 19/31/8 18/32/8
f 17/33/9 21/34/9 19/31/9 20/30/9
f 22/35/10 25/36/10 26/37/10 28/38/10
f 23/39/11 27/40/11 26/41/11 25/42/11
f 24/43/12 28/44/12 26/41/12 27/40/12
f 29/45/13 32/46/13 33/47/13 35/48/13
f 30/49/14 34/50/14 33/47/14 32/46/14
f 31/51/15 35/48/15 33/47/15 34/50/15
f 36/52/16 39/53/16 40/54/16 42/55/16
f 37/56/17 41/57/17 40/54/17 39/53/17
f 38/58/18 42/55/18 40/54/18 41/57/18
f 43/59/19 46/60/19 47/61/19 49/62/19
f 44/63/20 48/64/20 47/61/20 46/60/20
f 45/65/21 49/62/21 47/61/21 48/64/21
f 50/66/22 53/67/22 54/68/22 56/69/22
f 51/70/23 55/71/23 54/68/23 53/67/23
f 52/72/24 56/69/24 54/68/24 55/71/24
f 15/25/25 1/1/25 7/4/25 18/26/25
f 18/32/26 7/10/26 3/9/26 16/29/26
f 2/5/27 8/13/27 14/16/27 6/6/27
f 6/12/28 14/22/28 10/21/28 3/9/28
f 9/17/29 22/35/29 28/38/29 13/18/29
f 13/24/30 28/44/30 24/43/30 10/21/30
f 23/39/31 17/33/31 20/30/31 27/40/31
f 27/40/32 20/30/32 16/29/32 24/43/32
f 43/59/33 15/25/33 21/28/33 46/60/33
f 46/60/34 21/34/34 17/33/34 44/63/34
f 22/35/35 50/66/35 56/69/35 25/36/35
f 25/42/36 56/69/36 52/72/36 23/39/36
f 51/70/37 45/65/37 48/64/37 55/71/37
f 55/71/38 48/64/38 44/63/38 52/72/38
f 29/45/39 43/59/39 49/62/39 32/46/39
f 32/46/40 49/62/40 45/65/40 30/49/40
f 50/66/41 36/52/41 42/55/41 53/67/41
f 53/67/42 42/55/42 38/58/42 51/70/42
f 37/56/43 31/51/43 34/50/43 41/57/43
f 41/57/44 34/50/44 30/49/44 38/58/44
f 1/1/45 29/45/45 35/48/45 4/2/45
f 4/8/46 35/48/46 31/51/46 2/5/46
f 36/52/47 9/17/47 11/20/47 39/53/47
f 39/53/48 11/14/48 8/13/48 37/56/48
f 58/73/49 64/74/49 65/75/49 59/76/49
f 59/77/50 65/78/50 63/79/50 57/80/50
f 67/81/51 61/82/51 62/83/51 68/84/51
f 68/85/52 62/86/52 60/87/52 66/88/52
f 64/74/53 70/89/53 71/90/53 65/75/53
f 65/78/54 71/91/54 69/92/54 63/79/54
f 73/93/55 67/81/55 68/84/55 74/94/55
f 74/95/56 68/85/56 66/88/56 72/96/56
f 70/89/57 76/97/57 77/98/57 71/90/57
f 71/91/58 77/99/58 75/100/58 69/92/58
f 79/101/59 73/93/59 74/94/59 80/102/59
f 80/103/60 74/95/60 72/96/60 78/104/60
f 76/97/61 82/105/61 83/106/61 77/98/61
f 77/99/62 83/107/62 81/108/62 75/100/62
f 85/109/63 79/101/63 80/102/63 86/110/63
f 86/111/64 80/103/64 78/104/64 84/112/64
f 82/105/65 88/113/65 89/114/65 83/106/65
f 83/107/66 89/115/66 87/116/66 81/108/66
f 91/117/67 85/109/67 86/110/67 92/118/67
f 92/119/68 86/111/68 84/112/68 90/120/68
f 88/113/69 94/121/69 95/122/69 89/114/69
f 89/115/70 95/123/70 93/124/70 87/116/70
f 97/125/71 91/117/71 92/118/71 98/126/71
f 98/127/72 92/119/72 90/120/72 96/128/72
f 94/121/73 100/129/73 101/130/73 95/122/73
f 95/123/74 101/131/74 99/132/74 93/124/74
f 103/133/75 97/125/75 98/126/75 104/134/75
f 104/135/76 98/127/76 96/128/76 102/136/76
f 100/129/77 106/137/77 107/138/77 101/130/77
f 101/131/78 107/139/78 105/140/78 99/132/78
f 109/141/79 103/133/79 104/134/79 110/142/79
f 110/143/80 104/135/80 102/136/80 108/144/80
f 106/137/81 112/145/81 113/146/81 107/138/81
f 107/139/82 113/147/82 111/148/82 105/140/82
f 115/149/83 109/141/83 110/142/83 116/150/83
f 116/151/84 110/143/84 108/144/84 114/152/84
f 112/145/85 118/153/85 119/154/85 113/146/85
f 113/147/86 119/155/86 117/156/86 111/148/86
f 121/157/87 115/149/87 116/150/87 122/158/87
f 122/159/88 116/151/88 114/152/88 120/160/88
f 118/153/89 124/161/89 125/162/89 119/154/89
f 119/155/90 125/163/90 123/164/90 117/156/90
f 127/165/91 121/157/91 122/158/91 128/166/91
f 128/167/92 122/159/92 120/160/92 126/168/92
f 124/161/93 130/169/93 131/170/93 125/162/93
f 125/163/94 131/171/94 129/172/94 123/164/94
f 133/173/95 127/165/95 128/166/95 134/174/95
f 134/175/96 128/167/96 126/168/96 132/176/96
f 130/169/97 136/177/97 137/178/97 131/170/97
f 131/171/98 137/179/98 135/180/98 129/172/98
f 139/181/99 133/173/99 134/174/99 140/182/99
f 140/183/100 134/175/100 132/176/100 138/184/100
f 136/177/101 142/185/101 143/186/101 137/178/101
f 137/179/102 143/187/102 141/188/102 135/180/102
f 145/189/103 139/181/103 140/182/103 146/190/103
f 146/191/104 140/183/104 138/184/104 144/192/104
f 142/185/105 148/193/105 149/194/105 143/186/105
f 143/187/106 149/195/106 147/196/106 141/188/106
f 151/197/107 145/189/107 146/190/107 152/198/107
f 152/199/108 146/191/108 144/192/108 150/200/108
f 148/193/109 154/201/109 155/202/109 149/194/109
f 149/195/110 155/203/110 153/204/110 147/196/110
f 157/205/111 151/197/111 152/198/111 158/206/111
f 158/207/112 152/199/112 150/200/112 156/208/112
f 154/201/113 160/209/113 161/210/113 155/202/113
f 155/203/114 161/211/114 159/212/114 153/204/114
f 163/213/115 157/205/115 158/206/115 164/214/115
f 164/215/116 158/207/116 156/208/116 162/216/116
f 160/209/117 166/217/117 167/218/117 161/210/117
f 161/211/118 167/219/118 165/220/118 159/212/118
f 169/221/119 163/213/119 164/214/119 170/222/119
f 170/223/120 164/215/120 162/216/120 168/224/120
f 166/217/121 172/225/121 173/226/121 167/218/121
f 167/219/122 173/227/122 171/228/122 165/220/122
f 175/229/123 169/221/123 170/222/123 176/230/123
f 176/231/124 170/223/124 168/224/124 174/232/124
f 172/225/125 178/233/125 179/234/125 173/226/125
f 173/227/126 179/235/126 177/236/126 171/228/126
f 181/237/127 175/229/127 176/230/127 182/238/127
f 182/239/128 176/231/128 174/232/128 180/240/128
f 178/233/129 184/241/129 185/242/129 179/234/129
f 179/235/130 185/243/130 183/244/130 177/236/130
f 187/245/131 181/237/131 182/238/131 188/246/131
f 188/247/132 182/239/132 180/240/132 186/248/132
f 184/241/133 190/249/133 191/250/133 185/242/133
f 185/243/134 191/251/134 189/252/134 183/244/134
f 193/253/135 187/245/135 188/246/135 194/254/135
f 194/255/136 188/247/136 186/248/136 192/256/136
f 190/249/137 196/257/137 197/258/137 191/250/137
f 191/251/138 197/259/138 195/260/138 189/252/138
f 199/261/139 193/253/139 194/254/139 200/262/139
f 200/263/140 194/255/140 192/256/140 198/264/140
f 196/257/141 58/265/141 59/266/141 197/258/141
f 197/259/142 59/77/142 57/80/142 195/260/142
f 61/267/143 199/261/143 200/262/143 62/268/143
f 62/86/144 200/263/144 198/264/144 60/87/144
f 15/25/145 43/59/145 29/45/145 1/1/145
f 3/9/146 10/21/146 24/43/146 16/29/146
f 31/51/147 37/56/147 8/13/147 2/5/147
f 50/66/148 22/35/148 9/17/148 36/52/148
f 17/33/149 23/39/149 52/72/149 44/63/149
f 45/65/150 51/70/150 38/58/150 30/49/150
f 57/80/145 63/79/145 69/92/145 75/100/145 81/108/145 87/116/145 93/124/145 99/132/145 105/140/145 111/148/145 117/156/145 123/164/145 129/172/145 135/180/145 141/188/145 147/196/145 153/204/145 159/212/145 165/220/145 171/228/145 177/236/145 183/244/145 189/252/145 195/260/145
f 58/73/151 61/82/151 67/81/151 64/74/151
f 196/257/152 199/261/152 61/267/152 58/265/152
f 66/88/148 60/87/148 198/264/148 192/256/148 186/248/148 180/240/148 174/232/148 168/224/148 162/216/148 156/208/148 150/200/148 144/192/148 138/184/148 132/176/148 126/168/148 120/160/148 114/152/148 108/144/148 102/136/148 96/128/148 90/120/148 84/112/148 78/104/148 72/96/148
f 64/74/153 67/81/153 73/93/153 70/89/153
f 70/89/154 73/93/154 79/101/154 76/97/154
f 76/97/155 79/101/155 85/109/155 82/105/155
f 82/105/156 85/109/156 91/117/156 88/113/156
f 88/113/157 91/117/157 97/125/157 94/121/157
f 94/121/158 97/125/158 103/133/158 100/129/158
f 100/129/159 103/133/159 109/141/159 106/137/159
f 106/137/160 109/141/160 115/149/160 112/145/160
f 112/145/161 115/149/161 121/157/161 118/153/161
f 118/153/162 121/157/162 127/165/162 124/161/162
f 124/161/163 127/165/163 133/173/163 130/169/163
f 130/169/164 133/173/164 139/181/164 136/177/164
f 136/177/165 139/181/165 145/189/165 142/185/165
f 142/185/166 145/189/166 151/197/166 148/193/166
f 148/193/167 151/197/167 157/205/167 154/201/167
f 154/201/168 157/205/168 163/213/168 160/209/168
f 160/209/169 163/213/169 169/221/169 166/217/169
f 166/217/170 169/221/170 175/229/170 172/225/170
f 172/225/171 175/229/171 181/237/171 178/233/171
f 178/233/172 181/237/172 187/245/172 184/241/172
f 184/241/173 187/245/173 193/253/173 190/249/173
f 190/249/174 193/253/174 199/261/174 196/257/174
