# Blender 5.2.2 LTS
# www.blender.org
o gear
v 0.300000 0.000000 -0.070000
v 0.414829 0.065702 -0.070000
v 0.399444 0.129787 -0.070000
v 0.267302 0.136197 -0.070000
v 0.242705 0.176336 -0.070000
v 0.296985 0.296985 -0.070000
v 0.246870 0.339787 -0.070000
v 0.136197 0.267302 -0.070000
v 0.092705 0.285317 -0.070000
v 0.065702 0.414829 -0.070000
v 0.000000 0.420000 -0.070000
v -0.046930 0.296306 -0.070000
v -0.092705 0.285317 -0.070000
v -0.190676 0.374223 -0.070000
v -0.246870 0.339787 -0.070000
v -0.212132 0.212132 -0.070000
v -0.242705 0.176336 -0.070000
v -0.374223 0.190676 -0.070000
v -0.399444 0.129787 -0.070000
v -0.296306 0.046930 -0.070000
v -0.300000 0.000000 -0.070000
v -0.414829 -0.065702 -0.070000
v -0.399444 -0.129787 -0.070000
v -0.267302 -0.136197 -0.070000
v -0.242705 -0.176336 -0.070000
v -0.296985 -0.296985 -0.070000
v -0.246870 -0.339787 -0.070000
v -0.136197 -0.267302 -0.070000
v -0.092705 -0.285317 -0.070000
v -0.065702 -0.414829 -0.070000
v -0.000000 -0.420000 -0.070000
v 0.046930 -0.296306 -0.070000
v 0.092705 -0.285317 -0.070000
v 0.190676 -0.374223 -0.070000
v 0.246870 -0.339787 -0.070000
v 0.212132 -0.212132 -0.070000
v 0.242705 -0.176336 -0.070000
v 0.374223 -0.190676 -0.070000
v 0.399444 -0.129787 -0.070000
v 0.296306 -0.046930 -0.070000
v 0.300000 0.000000 0.070000
v 0.414829 0.065702 0.070000
v 0.399444 0.129787 0.070000
v 0.267302 0.136197 0.070000
v 0.242705 0.176336 0.070000
v 0.296985 0.296985 0.070000
v 0.246870 0.339787 0.070000
v 0.136197 0.267302 0.070000
v 0.092705 0.285317 0.070000
v 0.065702 0.414829 0.070000
v 0.000000 0.420000 0.070000
v -0.046930 0.296306 0.070000
v -0.092705 0.285317 0.070000
v -0.190676 0.374223 0.070000
v -0.246870 0.339787 0.070000
v -0.212132 0.212132 0.070000
v -0.242705 0.176336 0.070000
v -0.374223 0.190676 0.070000
v -0.399444 0.129787 0.070000
v -0.296306 0.046930 0.070000
v -0.300000 0.000000 0.070000
v -0.414829 -0.065702 0.070000
v -0.399444 -0.129787 0.070000
v -0.267302 -0.136197 0.070000
v -0.242705 -0.176336 0.070000
v -0.296985 -0.296985 0.070000
v -0.246870 -0.339787 0.070000
v -0.136197 -0.267302 0.070000
v -0.092705 -0.285317 0.070000
v -0.065702 -0.414829 0.070000
v -0.000000 -0.420000 0.070000
v 0.046930 -0.296306 0.070000
v 0.092705 -0.285317 0.070000
v 0.190676 -0.374223 0.070000
v 0.246870 -0.339787 0.070000
v 0.212132 -0.212132 0.070000
v 0.242705 -0.176336 0.070000
v 0.374223 -0.190676 0.070000
v 0.399444 -0.129787 0.070000
v 0.296306 -0.046930 0.070000
v 0.100000 0.000000 -0.070000
v 0.092388 0.038268 -0.070000
v 0.070711 0.070711 -0.070000
v 0.038268 0.092388 -0.070000
v 0.000000 0.100000 -0.070000
v -0.038268 0.092388 -0.070000
v -0.070711 0.070711 -0.070000
v -0.092388 0.038268 -0.070000
v -0.100000 0.000000 -0.070000
v -0.092388 -0.038268 -0.070000
v -0.070711 -0.070711 -0.070000
v -0.038268 -0.092388 -0.070000
v -0.000000 -0.100000 -0.070000
v 0.038268 -0.092388 -0.070000
v 0.070711 -0.070711 -0.070000
v 0.092388 -0.038268 -0.070000
v 0.100000 0.000000 0.070000
v 0.092388 0.038268 0.070000
v 0.070711 0.070711 0.070000
v 0.038268 0.092388 0.070000
v 0.000000 0.100000 0.070000
v -0.038268 0.092388 0.070000
v -0.070711 0.070711 0.070000
v -0.092388 0.038268 0.070000
v -0.100000 0.000000 0.070000
v -0.092388 -0.038268 0.070000
v -0.070711 -0.070711 0.070000
v -0.038268 -0.092388 0.070000
v -0.000000 -0.100000 0.070000
v 0.038268 -0.092388 0.070000
v 0.070711 -0.070711 0.070000
v 0.092388 -0.038268 0.070000
vn 0.4966 -0.8680 -0.0000
vn 0.9724 0.2334 -0.0000
vn 0.0485 0.9988 -0.0000
vn 0.8526 0.5225 -0.0000
vn 0.9120 -0.4103 -0.0000
vn 0.6494 0.7604 -0.0000
vn -0.5479 0.8365 -0.0000
vn 0.3827 0.9239 -0.0000
vn 0.9789 0.2041 -0.0000
vn 0.0785 0.9969 -0.0000
vn -0.9350 0.3547 -0.0000
vn -0.2334 0.9724 -0.0000
vn 0.6720 0.7405 -0.0000
vn -0.5225 0.8526 -0.0000
vn -0.9649 -0.2626 -0.0000
vn -0.7604 0.6494 -0.0000
vn 0.1084 0.9941 -0.0000
vn -0.9239 0.3827 -0.0000
vn -0.6263 -0.7796 -0.0000
vn -0.9969 0.0785 -0.0000
vn -0.4966 0.8680 -0.0000
vn -0.9724 -0.2334 -0.0000
vn -0.0485 -0.9988 -0.0000
vn -0.8526 -0.5225 -0.0000
vn -0.9120 0.4103 -0.0000
vn -0.6494 -0.7604 -0.0000
vn 0.5479 -0.8365 -0.0000
vn -0.3827 -0.9239 -0.0000
vn -0.9789 -0.2041 -0.0000
vn -0.0785 -0.9969 -0.0000
vn 0.9350 -0.3547 -0.0000
vn 0.2334 -0.9724 -0.0000
vn -0.6720 -0.7405 -0.0000
vn 0.5225 -0.8526 -0.0000
vn 0.9649 0.2626 -0.0000
vn 0.7604 -0.6494 -0.0000
vn -0.1084 -0.9941 -0.0000
vn 0.9239 -0.3827 -0.0000
vn 0.6263 0.7796 -0.0000
vn 0.9969 -0.0785 -0.0000
vn -0.9808 -0.1951 -0.0000
vn -0.8315 -0.5556 -0.0000
vn -0.5556 -0.8315 -0.0000
vn -0.1951 -0.9808 -0.0000
vn 0.1951 -0.9808 -0.0000
vn 0.5556 -0.8315 -0.0000
vn 0.8315 -0.5556 -0.0000
vn 0.9808 -0.1951 -0.0000
vn 0.9808 0.1951 -0.0000
vn 0.8315 0.5556 -0.0000
vn 0.5556 0.8315 -0.0000
vn 0.1951 0.9808 -0.0000
vn -0.1951 0.9808 -0.0000
vn -0.5556 0.8315 -0.0000
vn -0.8315 0.5556 -0.0000
vn -0.9808 0.1951 -0.0000
vn -0.0000 -0.0000 -1.0000
vn -0.0000 -0.0000 1.0000
s 0
f 1//1 2//1 42//1 41//1
f 2//2 3//2 43//2 42//2
f 3//3 4//3 44//3 43//3
f 4//4 5//4 45//4 44//4
f 5//5 6//5 46//5 45//5
f 6//6 7//6 47//6 46//6
f 7//7 8//7 48//7 47//7
f 8//8 9//8 49//8 48//8
f 9//9 10//9 50//9 49//9
f 10//10 11//10 51//10 50//10
f 11//11 12//11 52//11 51//11
f 12//12 13//12 53//12 52//12
f 13//13 14//13 54//13 53//13
f 14//14 15//14 55//14 54//14
f 15//15 16//15 56//15 55//15
f 16//16 17//16 57//16 56//16
f 17//17 18//17 58//17 57//17
f 18//18 19//18 59//18 58//18
f 19//19 20//19 60//19 59//19
f 20//20 21//20 61//20 60//20
f 21//21 22//21 62//21 61//21
f 22//22 23//22 63//22 62//22
f 23//23 24//23 64//23 63//23
f 24//24 25//24 65//24 64//24
f 25//25 26//25 66//25 65//25
f 26//26 27//26 67//26 66//26
f 27//27 28//27 68//27 67//27
f 28//28 29//28 69//28 68//28
f 29//29 30//29 70//29 69//29
f 30//30 31//30 71//30 70//30
f 31//31 32//31 72//31 71//31
f 32//32 33//32 73//32 72//32
f 33//33 34//33 74//33 73//33
f 34//34 35//34 75//34 74//34
f 35//35 36//35 76//35 75//35
f 36//36 37//36 77//36 76//36
f 37//37 38//37 78//37 77//37
f 38//38 39//38 79//38 78//38
f 39//39 40//39 80//39 79//39
f 40//40 1//40 41//40 80//40
f 97//41 98//41 82//41 81//41
f 98//42 99//42 83//42 82//42
f 99//43 100//43 84//43 83//43
f 100//44 101//44 85//44 84//44
f 101//45 102//45 86//45 85//45
f 102//46 103//46 87//46 86//46
f 103//47 104//47 88//47 87//47
f 104//48 105//48 89//48 88//48
f 105//49 106//49 90//49 89//49
f 106//50 107//50 91//50 90//50
f 107//51 108//51 92//51 91//51
f 108//52 109//52 93//52 92//52
f 109//53 110//53 94//53 93//53
f 110//54 111//54 95//54 94//54
f 111//55 112//55 96//55 95//55
f 112//56 97//56 81//56 96//56
f 1//57 81//57 2//57
f 2//57 81//57 3//57
f 3//57 81//57 82//57 4//57
f 4//57 82//57 5//57
f 5//57 82//57 83//57 6//57
f 6//57 83//57 7//57
f 7//57 83//57 8//57
f 8//57 83//57 84//57 9//57
f 9//57 84//57 10//57
f 10//57 84//57 85//57 11//57
f 11//57 85//57 12//57
f 12//57 85//57 13//57
f 13//57 85//57 86//57 14//57
f 14//57 86//57 15//57
f 15//57 86//57 87//57 16//57
f 16//57 87//57 17//57
f 17//57 87//57 18//57
f 18//57 87//57 88//57 19//57
f 19//57 88//57 20//57
f 20//57 88//57 89//57 21//57
f 21//57 89//57 22//57
f 22//57 89//57 23//57
f 23//57 89//57 90//57 24//57
f 24//57 90//57 25//57
f 25//57 90//57 91//57 26//57
f 26//57 91//57 27//57
f 27//57 91//57 28//57
f 28//57 91//57 92//57 29//57
f 29//57 92//57 30//57
f 30//57 92//57 93//57 31//57
f 31//57 93//57 32//57
f 32//57 93//57 33//57
f 33//57 93//57 94//57 34//57
f 34//57 94//57 35//57
f 35//57 94//57 95//57 36//57
f 36//57 95//57 37//57
f 37//57 95//57 38//57
f 38//57 95//57 96//57 39//57
f 39//57 96//57 40//57
f 40//57 96//57 81//57 1//57
f 41//58 42//58 97//58
f 42//58 43//58 97//58
f 43//58 44//58 98//58 97//58
f 44//58 45//58 98//58
f 45//58 46//58 99//58 98//58
f 46//58 47//58 99//58
f 47//58 48//58 99//58
f 48//58 49//58 100//58 99//58
f 49//58 50//58 100//58
f 50//58 51//58 101//58 100//58
f 51//58 52//58 101//58
f 52//58 53//58 101//58
f 53//58 54//58 102//58 101//58
f 54//58 55//58 102//58
f 55//58 56//58 103//58 102//58
f 56//58 57//58 103//58
f 57//58 58//58 103//58
f 58//58 59//58 104//58 103//58
f 59//58 60//58 104//58
f 60//58 61//58 105//58 104//58
f 61//58 62//58 105//58
f 62//58 63//58 105//58
f 63//58 64//58 106//58 105//58
f 64//58 65//58 106//58
f 65//58 66//58 107//58 106//58
f 66//58 67//58 107//58
f 67//58 68//58 107//58
f 68//58 69//58 108//58 107//58
f 69//58 70//58 108//58
f 70//58 71//58 109//58 108//58
f 71//58 72//58 109//58
f 72//58 73//58 109//58
f 73//58 74//58 110//58 109//58
f 74//58 75//58 110//58
f 75//58 76//58 111//58 110//58
f 76//58 77//58 111//58
f 77//58 78//58 111//58
f 78//58 79//58 112//58 111//58
f 79//58 80//58 112//58
f 80//58 41//58 97//58 112//58
