# Blender 5.2.2 LTS
# www.blender.org
o wall_piece
v -0.450000 0.020000 0.200000
v -0.450000 0.050000 0.230000
v -0.480000 0.050000 0.200000
v -0.450000 0.028787 0.221213
v -0.467321 0.032679 0.217321
v -0.471213 0.050000 0.221213
v -0.471213 0.028787 0.200000
v -0.450000 0.450000 0.230000
v -0.450000 0.480000 0.200000
v -0.480000 0.450000 0.200000
v -0.450000 0.471213 0.221213
v -0.467321 0.467321 0.217321
v -0.471213 0.471213 0.200000
v -0.471213 0.450000 0.221213
v -0.450000 0.020000 -0.200000
v -0.480000 0.050000 -0.200000
v -0.450000 0.050000 -0.230000
v -0.471213 0.028787 -0.200000
v -0.467321 0.032679 -0.217321
v -0.471213 0.050000 -0.221213
v -0.450000 0.028787 -0.221213
v -0.450000 0.480000 -0.200000
v -0.450000 0.450000 -0.230000
v -0.480000 0.450000 -0.200000
v -0.450000 0.471213 -0.221213
v -0.467321 0.467321 -0.217321
v -0.471213 0.450000 -0.221213
v -0.471213 0.471213 -0.200000
v -0.050000 0.020000 0.200000
v -0.020000 0.050000 0.200000
v -0.050000 0.050000 0.230000
v -0.028787 0.028787 0.200000
v -0.032679 0.032679 0.217321
v -0.028787 0.050000 0.221213
v -0.050000 0.028787 0.221213
v -0.050000 0.480000 0.200000
v -0.050000 0.450000 0.230000
v -0.020000 0.450000 0.200000
v -0.050000 0.471213 0.221213
v -0.032679 0.467321 0.217321
v -0.028787 0.450000 0.221213
v -0.028787 0.471213 0.200000
v -0.050000 0.020000 -0.200000
v -0.050000 0.050000 -0.230000
v -0.020000 0.050000 -0.200000
v -0.050000 0.028787 -0.221213
v -0.032679 0.032679 -0.217321
v -0.028787 0.050000 -0.221213
v -0.028787 0.028787 -0.200000
v -0.050000 0.480000 -0.200000
v -0.020000 0.450000 -0.200000
v -0.050000 0.450000 -0.230000
v -0.028787 0.471213 -0.200000
v -0.032679 0.467321 -0.217321
v -0.028787 0.450000 -0.221213
v -0.050000 0.471213 -0.221213
v -0.450000 -0.480000 0.200000
v -0.450000 -0.450000 0.230000
v -0.480000 -0.450000 0.200000
v -0.450000 -0.471213 0.221213
v -0.467321 -0.467321 0.217321
v -0.471213 -0.450000 0.221213
v -0.471213 -0.471213 0.200000
v -0.450000 -0.050000 0.230000
v -0.450000 -0.020000 0.200000
v -0.480000 -0.050000 0.200000
v -0.450000 -0.028787 0.221213
v -0.467321 -0.032679 0.217321
v -0.471213 -0.028787 0.200000
v -0.471213 -0.050000 0.221213
v -0.450000 -0.480000 -0.200000
v -0.480000 -0.450000 -0.200000
v -0.450000 -0.450000 -0.230000
v -0.471213 -0.471213 -0.200000
v -0.467321 -0.467321 -0.217321
v -0.471213 -0.450000 -0.221213
v -0.450000 -0.471213 -0.221213
v -0.450000 -0.020000 -0.200000
v -0.450000 -0.050000 -0.230000
v -0.480000 -0.050000 -0.200000
v -0.450000 -0.028787 -0.221213
v -0.467321 -0.032679 -0.217321
v -0.471213 -0.050000 -0.221213
v -0.471213 -0.028787 -0.200000
v -0.050000 -0.480000 0.200000
v -0.020000 -0.450000 0.200000
v -0.050000 -0.450000 0.230000
v -0.028787 -0.471213 0.200000
v -0.032679 -0.467321 0.217321
v -0.028787 -0.450000 0.221213
v -0.050000 -0.471213 0.221213
v -0.050000 -0.020000 0.200000
v -0.050000 -0.050000 0.230000
v -0.020000 -0.050000 0.200000
v -0.050000 -0.028787 0.221213
v -0.032679 -0.032679 0.217321
v -0.028787 -0.050000 0.221213
v -0.028787 -0.028787 0.200000
v -0.050000 -0.480000 -0.200000
v -0.050000 -0.450000 -0.230000
v -0.020000 -0.450000 -0.200000
v -0.050000 -0.471213 -0.221213
v -0.032679 -0.467321 -0.217321
v -0.028787 -0.450000 -0.221213
v -0.028787 -0.471213 -0.200000
v -0.050000 -0.020000 -0.200000
v -0.020000 -0.050000 -0.200000
v -0.050000 -0.050000 -0.230000
v -0.028787 -0.028787 -0.200000
v -0.032679 -0.032679 -0.217321
v -0.028787 -0.050000 -0.221213
v -0.050000 -0.028787 -0.221213
v 0.050000 -0.480000 0.200000
v 0.050000 -0.450000 0.230000
v 0.020000 -0.450000 0.200000
v 0.050000 -0.471213 0.221213
v 0.032679 -0.467321 0.217321
v 0.028787 -0.450000 0.221213
v 0.028787 -0.471213 0.200000
v 0.050000 -0.050000 0.230000
v 0.050000 -0.020000 0.200000
v 0.020000 -0.050000 0.200000
v 0.050000 -0.028787 0.221213
v 0.032679 -0.032679 0.217321
v 0.028787 -0.028787 0.200000
v 0.028787 -0.050000 0.221213
v 0.050000 -0.480000 -0.200000
v 0.020000 -0.450000 -0.200000
v 0.050000 -0.450000 -0.230000
v 0.028787 -0.471213 -0.200000
v 0.032679 -0.467321 -0.217321
v 0.028787 -0.450000 -0.221213
v 0.050000 -0.471213 -0.221213
v 0.050000 -0.020000 -0.200000
v 0.050000 -0.050000 -0.230000
v 0.020000 -0.050000 -0.200000
v 0.050000 -0.028787 -0.221213
v 0.032679 -0.032679 -0.217321
v 0.028787 -0.050000 -0.221213
v 0.028787 -0.028787 -0.200000
v 0.450000 -0.480000 0.200000
v 0.480000 -0.450000 0.200000
v 0.450000 -0.450000 0.230000
v 0.471213 -0.471213 0.200000
v 0.467321 -0.467321 0.217321
v 0.471213 -0.450000 0.221213
v 0.450000 -0.471213 0.221213
v 0.450000 -0.020000 0.200000
v 0.450000 -0.050000 0.230000
v 0.480000 -0.050000 0.200000
v 0.450000 -0.028787 0.221213
v 0.467321 -0.032679 0.217321
v 0.471213 -0.050000 0.221213
v 0.471213 -0.028787 0.200000
v 0.450000 -0.480000 -0.200000
v 0.450000 -0.450000 -0.230000
v 0.480000 -0.450000 -0.200000
v 0.450000 -0.471213 -0.221213
v 0.467321 -0.467321 -0.217321
v 0.471213 -0.450000 -0.221213
v 0.471213 -0.471213 -0.200000
v 0.450000 -0.020000 -0.200000
v 0.480000 -0.050000 -0.200000
v 0.450000 -0.050000 -0.230000
v 0.471213 -0.028787 -0.200000
v 0.467321 -0.032679 -0.217321
v 0.471213 -0.050000 -0.221213
v 0.450000 -0.028787 -0.221213
v 0.550000 -0.480000 0.200000
v 0.550000 -0.450000 0.230000
v 0.520000 -0.450000 0.200000
v 0.550000 -0.471213 0.221213
v 0.532679 -0.467321 0.217321
v 0.528787 -0.450000 0.221213
v 0.528787 -0.471213 0.200000
v 0.550000 -0.050000 0.230000
v 0.550000 -0.020000 0.200000
v 0.520000 -0.050000 0.200000
v 0.550000 -0.028787 0.221213
v 0.532679 -0.032679 0.217321
v 0.528787 -0.028787 0.200000
v 0.528787 -0.050000 0.221213
v 0.550000 -0.480000 -0.200000
v 0.520000 -0.450000 -0.200000
v 0.550000 -0.450000 -0.230000
v 0.528787 -0.471213 -0.200000
v 0.532679 -0.467321 -0.217321
v 0.528787 -0.450000 -0.221213
v 0.550000 -0.471213 -0.221213
v 0.550000 -0.020000 -0.200000
v 0.550000 -0.050000 -0.230000
v 0.520000 -0.050000 -0.200000
v 0.550000 -0.028787 -0.221213
v 0.532679 -0.032679 -0.217321
v 0.528787 -0.050000 -0.221213
v 0.528787 -0.028787 -0.200000
v 0.950000 -0.480000 0.200000
v 0.980000 -0.450000 0.200000
v 0.950000 -0.450000 0.230000
v 0.971213 -0.471213 0.200000
v 0.967321 -0.467321 0.217321
v 0.971213 -0.450000 0.221213
v 0.950000 -0.471213 0.221213
v 0.950000 -0.020000 0.200000
v 0.950000 -0.050000 0.230000
v 0.980000 -0.050000 0.200000
v 0.950000 -0.028787 0.221213
v 0.967321 -0.032679 0.217321
v 0.971213 -0.050000 0.221213
v 0.971213 -0.028787 0.200000
v 0.950000 -0.480000 -0.200000
v 0.950000 -0.450000 -0.230000
v 0.980000 -0.450000 -0.200000
v 0.950000 -0.471213 -0.221213
v 0.967321 -0.467321 -0.217321
v 0.971213 -0.450000 -0.221213
v 0.971213 -0.471213 -0.200000
v 0.950000 -0.020000 -0.200000
v 0.980000 -0.050000 -0.200000
v 0.950000 -0.050000 -0.230000
v 0.971213 -0.028787 -0.200000
v 0.967321 -0.032679 -0.217321
v 0.971213 -0.050000 -0.221213
v 0.950000 -0.028787 -0.221213
vn -0.3251 -0.8881 0.3251
vn -0.3251 -0.3251 0.8881
vn -0.8881 -0.3251 0.3251
vn -0.3251 0.3251 0.8881
vn -0.3251 0.8881 0.3251
vn -0.8881 0.3251 0.3251
vn -0.3251 -0.8881 -0.3251
vn -0.8881 -0.3251 -0.3251
vn -0.3251 -0.3251 -0.8881
vn -0.3251 0.8881 -0.3251
vn -0.3251 0.3251 -0.8881
vn -0.8881 0.3251 -0.3251
vn 0.3251 -0.8881 0.3251
vn 0.8881 -0.3251 0.3251
vn 0.3251 -0.3251 0.8881
vn 0.3251 0.8881 0.3251
vn 0.3251 0.3251 0.8881
vn 0.8881 0.3251 0.3251
vn 0.3251 -0.8881 -0.3251
vn 0.3251 -0.3251 -0.8881
vn 0.8881 -0.3251 -0.3251
vn 0.3251 0.8881 -0.3251
vn 0.8881 0.3251 -0.3251
vn 0.3251 0.3251 -0.8881
vn -0.3827 -0.9239 -0.0000
vn -0.9239 -0.3827 -0.0000
vn -0.3827 -0.0000 0.9239
vn -0.9239 -0.0000 0.3827
vn -0.3827 0.9239 -0.0000
vn -0.9239 0.3827 -0.0000
vn -0.3827 -0.0000 -0.9239
vn -0.9239 -0.0000 -0.3827
vn -0.0000 -0.9239 -0.3827
vn -0.0000 -0.3827 -0.9239
vn -0.0000 0.9239 -0.3827
vn -0.0000 0.3827 -0.9239
vn 0.9239 -0.0000 -0.3827
vn 0.3827 -0.0000 -0.9239
vn 0.3827 -0.9239 -0.0000
vn 0.9239 -0.3827 -0.0000
vn 0.3827 0.9239 -0.0000
vn 0.9239 0.3827 -0.0000
vn 0.3827 -0.0000 0.9239
vn 0.9239 -0.0000 0.3827
vn -0.0000 -0.9239 0.3827
vn -0.0000 -0.3827 0.9239
vn -0.0000 0.9239 0.3827
vn -0.0000 0.3827 0.9239
vn -0.0000 -1.0000 -0.0000
vn -1.0000 -0.0000 -0.0000
vn -0.0000 -0.0000 1.0000
vn -0.0000 1.0000 -0.0000
vn -0.0000 -0.0000 -1.0000
vn 1.0000 -0.0000 -0.0000
vt 0.141304 0.733696
vt 0.141304 0.750000
vt 0.131891 0.750000
vt 0.125000 0.733696
vt 0.391304 0.983696
vt 0.391304 1.000000
vt 0.381891 1.000000
vt 0.375000 0.983696
vt 0.391304 0.016304
vt 0.375000 0.016304
vt 0.375000 0.006891
vt 0.391304 0.000000
vt 0.608696 0.983696
vt 0.625000 0.983696
vt 0.625000 0.993109
vt 0.608696 1.000000
vt 0.858696 0.733696
vt 0.875000 0.733696
vt 0.875000 0.743109
vt 0.858696 0.750000
vt 0.608696 0.016304
vt 0.608696 0.000000
vt 0.618109 0.000000
vt 0.625000 0.016304
vt 0.141304 0.516304
vt 0.125000 0.516304
vt 0.125000 0.506891
vt 0.141304 0.500000
vt 0.391304 0.233696
vt 0.391304 0.250000
vt 0.378446 0.253446
vt 0.375000 0.233696
vt 0.391304 0.266304
vt 0.375000 0.266304
vt 0.858696 0.516304
vt 0.858696 0.500000
vt 0.868109 0.500000
vt 0.875000 0.516304
vt 0.608696 0.266304
vt 0.608696 0.250000
vt 0.621554 0.246554
vt 0.625000 0.266304
vt 0.608696 0.233696
vt 0.625000 0.233696
vt 0.358696 0.733696
vt 0.375000 0.733696
vt 0.377297 0.750000
vt 0.366848 0.758152
vt 0.391304 0.733696
vt 0.391304 0.750000
vt 0.391304 0.766304
vt 0.641304 0.733696
vt 0.633152 0.758152
vt 0.625000 0.747703
vt 0.625000 0.733696
vt 0.608696 0.766304
vt 0.608696 0.750000
vt 0.608696 0.733696
vt 0.358696 0.516304
vt 0.366848 0.491848
vt 0.375000 0.502297
vt 0.375000 0.516304
vt 0.391304 0.483696
vt 0.391304 0.500000
vt 0.391304 0.516304
vt 0.641304 0.516304
vt 0.625000 0.516304
vt 0.622703 0.500000
vt 0.633152 0.491848
vt 0.608696 0.516304
vt 0.608696 0.500000
vt 0.608696 0.483696
vt 0.391304 0.000000
vt 0.391304 0.250000
vt 0.608696 0.250000
vt 0.391304 0.750000
vt 0.391304 0.500000
vt 0.608696 0.500000
vt 0.141304 0.750000
vt 0.131891 0.750000
vt 0.375000 0.983696
vt 0.608696 0.983696
vt 0.858696 0.750000
vt 0.141304 0.500000
vt 0.391304 0.266304
vt 0.375000 0.266304
vt 0.858696 0.500000
vt 0.868109 0.500000
vt 0.391304 0.766304
vt 0.633152 0.758152
vt 0.366848 0.491848
vt 0.608696 0.483696
vt 0.141304 0.733696
vt 0.608696 0.983696
vt 0.858696 0.733696
vt 0.391304 0.266304
vt 0.858696 0.516304
vt 0.608696 0.266304
vt 0.358696 0.733696
vt 0.391304 0.766304
vt 0.641304 0.733696
vt 0.608696 0.766304
vt 0.358696 0.516304
vt 0.391304 0.483696
vt 0.641304 0.516304
vt 0.608696 0.483696
s 0
f 1/1/1 4/2/1 5/3/1 7/4/1
f 2/5/2 6/6/2 5/7/2 4/8/2
f 3/9/3 7/10/3 5/11/3 6/12/3
f 8/13/4 11/14/4 12/15/4 14/16/4
f 9/17/5 13/18/5 12/19/5 11/20/5
f 10/21/6 14/22/6 12/23/6 13/24/6
f 15/25/7 18/26/7 19/27/7 21/28/7
f 16/29/8 20/30/8 19/31/8 18/32/8
f 17/33/9 21/34/9 19/31/9 20/30/9
f 22/35/10 25/36/10 26/37/10 28/38/10
f 23/39/11 27/40/11 26/41/11 25/42/11
f 24/43/12 28/44/12 26/41/12 27/40/12
f 29/45/13 32/46/13 33/47/13 35/48/13
f 30/49/14 34/50/14 33/47/14 32/46/14
f 31/51/15 35/48/15 33/47/15 34/50/15
f 36/52/16 39/53/16 40/54/16 42/55/16
f 37/56/17 41/57/17 40/54/17 39/53/17
f 38/58/18 42/55/18 40/54/18 41/57/18
f 43/59/19 46/60/19 47/61/19 49/62/19
f 44/63/20 48/64/20 47/61/20 46/60/20
f 45/65/21 49/62/21 47/61/21 48/64/21
f 50/66/22 53/67/22 54/68/22 56/69/22
f 51/70/23 55/71/23 54/68/23 53/67/23
f 52/72/24 56/69/24 54/68/24 55/71/24
f 57/1/1 60/2/1 61/3/1 63/4/1
f 58/5/2 62/6/2 61/7/2 60/8/2
f 59/9/3 63/10/3 61/11/3 62/73/3
f 64/13/4 67/14/4 68/15/4 70/16/4
f 65/17/5 69/18/5 68/19/5 67/20/5
f 66/21/6 70/22/6 68/23/6 69/24/6
f 71/25/7 74/26/7 75/27/7 77/28/7
f 72/29/8 76/74/8 75/31/8 74/32/8
f 73/33/9 77/34/9 75/31/9 76/74/9
f 78/35/10 81/36/10 82/37/10 84/38/10
f 79/39/11 83/75/11 82/41/11 81/42/11
f 80/43/12 84/44/12 82/41/12 83/75/12
f 85/45/13 88/46/13 89/47/13 91/48/13
f 86/49/14 90/76/14 89/47/14 88/46/14
f 87/51/15 91/48/15 89/47/15 90/76/15
f 92/52/16 95/53/16 96/54/16 98/55/16
f 93/56/17 97/57/17 96/54/17 95/53/17
f 94/58/18 98/55/18 96/54/18 97/57/18
f 99/59/19 102/60/19 103/61/19 105/62/19
f 100/63/20 104/77/20 103/61/20 102/60/20
f 101/65/21 105/62/21 103/61/21 104/77/21
f 106/66/22 109/67/22 110/68/22 112/69/22
f 107/70/23 111/78/23 110/68/23 109/67/23
f 108/72/24 112/69/24 110/68/24 111/78/24
f 113/1/1 116/79/1 117/80/1 119/4/1
f 114/5/2 118/6/2 117/7/2 116/81/2
f 115/9/3 119/10/3 117/11/3 118/73/3
f 120/82/4 123/14/4 124/15/4 126/16/4
f 121/17/5 125/18/5 124/19/5 123/83/5
f 122/21/6 126/22/6 124/23/6 125/24/6
f 127/25/7 130/26/7 131/27/7 133/84/7
f 128/29/8 132/74/8 131/31/8 130/32/8
f 129/85/9 133/86/9 131/31/9 132/74/9
f 134/35/10 137/87/10 138/88/10 140/38/10
f 135/39/11 139/75/11 138/41/11 137/42/11
f 136/43/12 140/44/12 138/41/12 139/75/12
f 141/45/13 144/46/13 145/47/13 147/48/13
f 142/49/14 146/76/14 145/47/14 144/46/14
f 143/89/15 147/48/15 145/47/15 146/76/15
f 148/52/16 151/90/16 152/54/16 154/55/16
f 149/56/17 153/57/17 152/54/17 151/90/17
f 150/58/18 154/55/18 152/54/18 153/57/18
f 155/59/19 158/91/19 159/61/19 161/62/19
f 156/63/20 160/77/20 159/61/20 158/91/20
f 157/65/21 161/62/21 159/61/21 160/77/21
f 162/66/22 165/67/22 166/68/22 168/69/22
f 163/70/23 167/78/23 166/68/23 165/67/23
f 164/92/24 168/69/24 166/68/24 167/78/24
f 169/93/1 172/2/1 173/3/1 175/4/1
f 170/5/2 174/6/2 173/7/2 172/8/2
f 171/9/3 175/10/3 173/11/3 174/73/3
f 176/94/4 179/14/4 180/15/4 182/16/4
f 177/95/5 181/18/5 180/19/5 179/20/5
f 178/21/6 182/22/6 180/23/6 181/24/6
f 183/25/7 186/26/7 187/27/7 189/28/7
f 184/29/8 188/74/8 187/31/8 186/32/8
f 185/96/9 189/34/9 187/31/9 188/74/9
f 190/97/10 193/36/10 194/37/10 196/38/10
f 191/98/11 195/75/11 194/41/11 193/42/11
f 192/43/12 196/44/12 194/41/12 195/75/12
f 197/99/13 200/46/13 201/47/13 203/48/13
f 198/49/14 202/76/14 201/47/14 200/46/14
f 199/100/15 203/48/15 201/47/15 202/76/15
f 204/101/16 207/90/16 208/54/16 210/55/16
f 205/102/17 209/57/17 208/54/17 207/90/17
f 206/58/18 210/55/18 208/54/18 209/57/18
f 211/103/19 214/91/19 215/61/19 217/62/19
f 212/104/20 216/77/20 215/61/20 214/91/20
f 213/65/21 217/62/21 215/61/21 216/77/21
f 218/105/22 221/67/22 222/68/22 224/69/22
f 219/70/23 223/78/23 222/68/23 221/67/23
f 220/106/24 224/69/24 222/68/24 223/78/24
f 15/25/25 1/1/25 7/4/25 18/26/25
f 18/32/26 7/10/26 3/9/26 16/29/26
f 2/5/27 8/13/27 14/16/27 6/6/27
f 6/12/28 14/22/28 10/21/28 3/9/28
f 9/17/29 22/35/29 28/38/29 13/18/29
f 13/24/30 28/44/30 24/43/30 10/21/30
f 23/39/31 17/33/31 20/30/31 27/40/31
f 27/40/32 20/30/32 16/29/32 24/43/32
f 43/59/33 15/25/33 21/28/33 46/60/33
f 46/60/34 21/34/34 17/33/34 44/63/34
f 22/35/35 50/66/35 56/69/35 25/36/35
f 25/42/36 56/69/36 52/72/36 23/39/36
f 51/70/37 45/65/37 48/64/37 55/71/37
f 55/71/38 48/64/38 44/63/38 52/72/38
f 29/45/39 43/59/39 49/62/39 32/46/39
f 32/46/40 49/62/40 45/65/40 30/49/40
f 50/66/41 36/52/41 42/55/41 53/67/41
f 53/67/42 42/55/42 38/58/42 51/70/42
f 37/56/43 31/51/43 34/50/43 41/57/43
f 41/57/44 34/50/44 30/49/44 38/58/44
f 1/1/45 29/45/45 35/48/45 4/2/45
f 4/8/46 35/48/46 31/51/46 2/5/46
f 36/52/47 9/17/47 11/20/47 39/53/47
f 39/53/48 11/14/48 8/13/48 37/56/48
f 71/25/25 57/1/25 63/4/25 74/26/25
f 74/32/26 63/10/26 59/9/26 72/29/26
f 58/5/27 64/13/27 70/16/27 62/6/27
f 62/73/28 70/22/28 66/21/28 59/9/28
f 65/17/29 78/35/29 84/38/29 69/18/29
f 69/24/30 84/44/30 80/43/30 66/21/30
f 79/39/31 73/33/31 76/74/31 83/75/31
f 83/75/32 76/74/32 72/29/32 80/43/32
f 99/59/33 71/25/33 77/28/33 102/60/33
f 102/60/34 77/34/34 73/33/34 100/63/34
f 78/35/35 106/66/35 112/69/35 81/36/35
f 81/42/36 112/69/36 108/72/36 79/39/36
f 107/70/37 101/65/37 104/77/37 111/78/37
f 111/78/38 104/77/38 100/63/38 108/72/38
f 85/45/39 99/59/39 105/62/39 88/46/39
f 88/46/40 105/62/40 101/65/40 86/49/40
f 106/66/41 92/52/41 98/55/41 109/67/41
f 109/67/42 98/55/42 94/58/42 107/70/42
f 93/56/43 87/51/43 90/76/43 97/57/43
f 97/57/44 90/76/44 86/49/44 94/58/44
f 57/1/45 85/45/45 91/48/45 60/2/45
f 60/8/46 91/48/46 87/51/46 58/5/46
f 92/52/47 65/17/47 67/20/47 95/53/47
f 95/53/48 67/14/48 64/13/48 93/56/48
f 127/25/25 113/1/25 119/4/25 130/26/25
f 130/32/26 119/10/26 115/9/26 128/29/26
f 114/5/27 120/82/27 126/16/27 118/6/27
f 118/73/28 126/22/28 122/21/28 115/9/28
f 121/17/29 134/35/29 140/38/29 125/18/29
f 125/24/30 140/44/30 136/43/30 122/21/30
f 135/39/31 129/85/31 132/74/31 139/75/31
f 139/75/32 132/74/32 128/29/32 136/43/32
f 155/59/33 127/25/33 133/84/33 158/91/33
f 158/91/34 133/86/34 129/85/34 156/63/34
f 134/35/35 162/66/35 168/69/35 137/87/35
f 137/42/36 168/69/36 164/92/36 135/39/36
f 163/70/37 157/65/37 160/77/37 167/78/37
f 167/78/38 160/77/38 156/63/38 164/92/38
f 141/45/39 155/59/39 161/62/39 144/46/39
f 144/46/40 161/62/40 157/65/40 142/49/40
f 162/66/41 148/52/41 154/55/41 165/67/41
f 165/67/42 154/55/42 150/58/42 163/70/42
f 149/56/43 143/89/43 146/76/43 153/57/43
f 153/57/44 146/76/44 142/49/44 150/58/44
f 113/1/45 141/45/45 147/48/45 116/79/45
f 116/81/46 147/48/46 143/89/46 114/5/46
f 148/52/47 121/17/47 123/83/47 151/90/47
f 151/90/48 123/14/48 120/82/48 149/56/48
f 183/25/25 169/93/25 175/4/25 186/26/25
f 186/32/26 175/10/26 171/9/26 184/29/26
f 170/5/27 176/94/27 182/16/27 174/6/27
f 174/73/28 182/22/28 178/21/28 171/9/28
f 177/95/29 190/97/29 196/38/29 181/18/29
f 181/24/30 196/44/30 192/43/30 178/21/30
f 191/98/31 185/96/31 188/74/31 195/75/31
f 195/75/32 188/74/32 184/29/32 192/43/32
f 211/103/33 183/25/33 189/28/33 214/91/33
f 214/91/34 189/34/34 185/96/34 212/104/34
f 190/97/35 218/105/35 224/69/35 193/36/35
f 193/42/36 224/69/36 220/106/36 191/98/36
f 219/70/37 213/65/37 216/77/37 223/78/37
f 223/78/38 216/77/38 212/104/38 220/106/38
f 197/99/39 211/103/39 217/62/39 200/46/39
f 200/46/40 217/62/40 213/65/40 198/49/40
f 218/105/41 204/101/41 210/55/41 221/67/41
f 221/67/42 210/55/42 206/58/42 219/70/42
f 205/102/43 199/100/43 202/76/43 209/57/43
f 209/57/44 202/76/44 198/49/44 206/58/44
f 169/93/45 197/99/45 203/48/45 172/2/45
f 172/8/46 203/48/46 199/100/46 170/5/46
f 204/101/47 177/95/47 179/20/47 207/90/47
f 207/90/48 179/14/48 176/94/48 205/102/48
f 15/25/49 43/59/49 29/45/49 1/1/49
f 3/9/50 10/21/50 24/43/50 16/29/50
f 31/51/51 37/56/51 8/13/51 2/5/51
f 50/66/52 22/35/52 9/17/52 36/52/52
f 17/33/53 23/39/53 52/72/53 44/63/53
f 45/65/54 51/70/54 38/58/54 30/49/54
f 71/25/49 99/59/49 85/45/49 57/1/49
f 59/9/50 66/21/50 80/43/50 72/29/50
f 87/51/51 93/56/51 64/13/51 58/5/51
f 106/66/52 78/35/52 65/17/52 92/52/52
f 73/33/53 79/39/53 108/72/53 100/63/53
f 101/65/54 107/70/54 94/58/54 86/49/54
f 127/25/49 155/59/49 141/45/49 113/1/49
f 115/9/50 122/21/50 136/43/50 128/29/50
f 143/89/51 149/56/51 120/82/51 114/5/51
f 162/66/52 134/35/52 121/17/52 148/52/52
f 129/85/53 135/39/53 164/92/53 156/63/53
f 157/65/54 163/70/54 150/58/54 142/49/54
f 183/25/49 211/103/49 197/99/49 169/93/49
f 171/9/50 178/21/50 192/43/50 184/29/50
f 199/100/51 205/102/51 176/94/51 170/5/51
f 218/105/52 190/97/52 177/95/52 204/101/52
f 185/96/53 191/98/53 220/106/53 212/104/53
f 213/65/54 219/70/54 206/58/54 198/49/54
